G04*
G04 #@! TF.GenerationSoftware,Altium Limited,Altium Designer,22.1.2 (22)*
G04*
G04 Layer_Color=16711935*
%FSLAX25Y25*%
%MOIN*%
G70*
G04*
G04 #@! TF.SameCoordinates,BB4BA718-9431-4743-B970-F4C87B48E952*
G04*
G04*
G04 #@! TF.FilePolarity,Negative*
G04*
G01*
G75*
%ADD68R,0.03150X0.05512*%
%ADD69R,0.05512X0.03150*%
%ADD70R,0.02756X0.03937*%
%ADD73R,0.03937X0.02756*%
%ADD91O,0.07087X0.05150*%
%ADD92O,0.05150X0.07087*%
%ADD93C,0.08268*%
%ADD94C,0.10839*%
%ADD95R,0.10839X0.10839*%
%ADD96R,0.10839X0.10839*%
%ADD97C,0.09068*%
%ADD98O,0.08674X0.16548*%
%ADD99O,0.16548X0.08674*%
%ADD100O,0.07887X0.14973*%
%ADD101O,0.14973X0.07887*%
%ADD102C,0.01394*%
%ADD103C,0.05118*%
%ADD104C,0.03937*%
%ADD105C,0.08661*%
%ADD106C,0.06693*%
%ADD107C,0.03162*%
%ADD212R,0.03937X0.06693*%
%ADD213R,0.02756X0.04724*%
%ADD214R,0.02677X0.05039*%
%ADD215R,0.06693X0.03937*%
G36*
X304331Y90551D02*
X298819D01*
Y85827D01*
X304331D01*
Y90551D01*
D02*
G37*
D68*
X251575Y18110D02*
D03*
X244094D02*
D03*
X251575Y24803D02*
D03*
X244094D02*
D03*
X251575Y31496D02*
D03*
X244094D02*
D03*
D69*
X271260Y48228D02*
D03*
Y39961D02*
D03*
X243307Y40748D02*
D03*
Y48228D02*
D03*
X306299Y12008D02*
D03*
Y4528D02*
D03*
X284252Y4528D02*
D03*
Y12008D02*
D03*
D70*
X246456Y80315D02*
D03*
X252756D02*
D03*
X256693Y90551D02*
D03*
X262993D02*
D03*
X293307Y33071D02*
D03*
X299607D02*
D03*
X246456Y85433D02*
D03*
X252756D02*
D03*
X252756Y90551D02*
D03*
X246456D02*
D03*
X278347Y35039D02*
D03*
X272047D02*
D03*
X256693Y85433D02*
D03*
X262993D02*
D03*
D73*
X242126Y52755D02*
D03*
Y59056D02*
D03*
X254331Y48426D02*
D03*
Y42126D02*
D03*
X287080Y84252D02*
D03*
Y90552D02*
D03*
X281890Y84252D02*
D03*
Y90552D02*
D03*
X249213Y48426D02*
D03*
Y42126D02*
D03*
X267717Y84645D02*
D03*
Y90945D02*
D03*
X264961Y48426D02*
D03*
Y42126D02*
D03*
X259449Y48426D02*
D03*
Y42126D02*
D03*
X276772Y84252D02*
D03*
Y90552D02*
D03*
X290158Y12205D02*
D03*
Y5905D02*
D03*
X300394Y12205D02*
D03*
Y5905D02*
D03*
X295276Y12205D02*
D03*
Y5905D02*
D03*
X287402Y17323D02*
D03*
Y23622D02*
D03*
D91*
X260630Y137008D02*
D03*
Y142913D02*
D03*
Y148819D02*
D03*
Y154724D02*
D03*
Y160630D02*
D03*
Y166535D02*
D03*
D92*
X274410Y9055D02*
D03*
X268504D02*
D03*
X262598D02*
D03*
X256693D02*
D03*
X250787D02*
D03*
X244882D02*
D03*
D93*
X33465Y278740D02*
D03*
X13780D02*
D03*
X33465Y235433D02*
D03*
X13780D02*
D03*
X197244Y198425D02*
D03*
Y218110D02*
D03*
X22835Y127953D02*
D03*
Y108268D02*
D03*
X129921Y223622D02*
D03*
X90551D02*
D03*
X70866Y302362D02*
D03*
X149606D02*
D03*
D94*
X23622Y339921D02*
D03*
X208425Y338583D02*
D03*
X256221Y338583D02*
D03*
D95*
X23622Y319921D02*
D03*
D96*
X188425Y338583D02*
D03*
X236221Y338583D02*
D03*
D97*
X8760Y173622D02*
D03*
X149606Y12205D02*
D03*
D98*
X26476Y173622D02*
D03*
X168504Y42520D02*
D03*
D99*
X39075Y154724D02*
D03*
X149606Y29921D02*
D03*
D100*
X51279Y177953D02*
D03*
D101*
X145276Y54724D02*
D03*
D102*
X65837Y56968D02*
D03*
X68839Y59980D02*
D03*
Y53976D02*
D03*
X65837Y50965D02*
D03*
X62835Y59980D02*
D03*
Y53976D02*
D03*
X56831Y59980D02*
D03*
X59833Y56968D02*
D03*
Y50965D02*
D03*
X56831Y53976D02*
D03*
X65837Y62953D02*
D03*
X59833D02*
D03*
D103*
X303560Y47257D02*
D03*
X289386D02*
D03*
Y61430D02*
D03*
D104*
X77953Y7874D02*
D03*
X89764D02*
D03*
D105*
X183425Y314370D02*
D03*
X213425Y324370D02*
D03*
Y294370D02*
D03*
X183425Y254370D02*
D03*
X213425D02*
D03*
X231221Y314370D02*
D03*
X261221Y324370D02*
D03*
Y294370D02*
D03*
X231221Y254370D02*
D03*
X261221D02*
D03*
D106*
X165354Y339921D02*
D03*
X55118D02*
D03*
D107*
X33858Y86221D02*
D03*
D212*
X258661Y97638D02*
D03*
X246850D02*
D03*
X278346D02*
D03*
X266535D02*
D03*
D213*
X300197Y27559D02*
D03*
X292717D02*
D03*
Y17323D02*
D03*
X296457D02*
D03*
X300197D02*
D03*
D214*
X247205Y74646D02*
D03*
X252205D02*
D03*
X257205D02*
D03*
X262205D02*
D03*
X267205D02*
D03*
X272205D02*
D03*
X277205D02*
D03*
Y53701D02*
D03*
X272205D02*
D03*
X267205D02*
D03*
X262205D02*
D03*
X257205D02*
D03*
X252205D02*
D03*
X247205D02*
D03*
D215*
X280709Y17323D02*
D03*
Y29134D02*
D03*
M02*
