G04*
G04 #@! TF.GenerationSoftware,Altium Limited,Altium Designer,22.1.2 (22)*
G04*
G04 Layer_Color=16711935*
%FSLAX25Y25*%
%MOIN*%
G70*
G04*
G04 #@! TF.SameCoordinates,BB4BA718-9431-4743-B970-F4C87B48E952*
G04*
G04*
G04 #@! TF.FilePolarity,Positive*
G04*
G01*
G75*
%ADD10C,0.00787*%
%ADD14C,0.01000*%
%ADD148C,0.01500*%
%ADD220C,0.00100*%
%ADD221C,0.03000*%
%ADD222C,0.01600*%
D10*
X34843Y319921D02*
G03*
X34843Y319921I-394J0D01*
G01*
X188819Y327756D02*
G03*
X188819Y327756I-394J0D01*
G01*
X236614Y327756D02*
G03*
X236614Y327756I-394J0D01*
G01*
D14*
X691588Y191550D02*
Y185552D01*
X694587D01*
X695586Y186552D01*
Y187551D01*
X694587Y188551D01*
X691588D01*
X694587D01*
X695586Y189551D01*
Y190550D01*
X694587Y191550D01*
X691588D01*
X698585Y185552D02*
X700585D01*
X701584Y186552D01*
Y188551D01*
X700585Y189551D01*
X698585D01*
X697586Y188551D01*
Y186552D01*
X698585Y185552D01*
X704583Y189551D02*
X706583D01*
X707583Y188551D01*
Y185552D01*
X704583D01*
X703584Y186552D01*
X704583Y187551D01*
X707583D01*
X709582Y189551D02*
Y185552D01*
Y187551D01*
X710581Y188551D01*
X711581Y189551D01*
X712581D01*
X719579Y191550D02*
Y185552D01*
X716580D01*
X715580Y186552D01*
Y188551D01*
X716580Y189551D01*
X719579D01*
X727576Y191550D02*
Y185552D01*
X731575D01*
X734574Y189551D02*
X736573D01*
X737573Y188551D01*
Y185552D01*
X734574D01*
X733574Y186552D01*
X734574Y187551D01*
X737573D01*
X739572Y189551D02*
Y186552D01*
X740572Y185552D01*
X743571D01*
Y184552D01*
X742571Y183553D01*
X741572D01*
X743571Y185552D02*
Y189551D01*
X748569Y185552D02*
X746570D01*
X745570Y186552D01*
Y188551D01*
X746570Y189551D01*
X748569D01*
X749569Y188551D01*
Y187551D01*
X745570D01*
X751568Y189551D02*
Y185552D01*
Y187551D01*
X752568Y188551D01*
X753568Y189551D01*
X754567D01*
X767563Y190550D02*
X766563Y191550D01*
X764564D01*
X763564Y190550D01*
Y189551D01*
X764564Y188551D01*
X766563D01*
X767563Y187551D01*
Y186552D01*
X766563Y185552D01*
X764564D01*
X763564Y186552D01*
X770562Y190550D02*
Y189551D01*
X769562D01*
X771562D01*
X770562D01*
Y186552D01*
X771562Y185552D01*
X775561Y189551D02*
X777560D01*
X778559Y188551D01*
Y185552D01*
X775561D01*
X774561Y186552D01*
X775561Y187551D01*
X778559D01*
X784558Y189551D02*
X781559D01*
X780559Y188551D01*
Y186552D01*
X781559Y185552D01*
X784558D01*
X786557D02*
Y191550D01*
Y187551D02*
X789556Y189551D01*
X786557Y187551D02*
X789556Y185552D01*
X637601Y161552D02*
Y167550D01*
X634601Y164551D01*
X638600D01*
X637601Y125552D02*
Y131550D01*
X634601Y128551D01*
X638600D01*
X640600Y125552D02*
Y126552D01*
X641599D01*
Y125552D01*
X640600D01*
X645598Y130551D02*
X646598Y131550D01*
X648597D01*
X649597Y130551D01*
Y129551D01*
X648597Y128551D01*
X647597D01*
X648597D01*
X649597Y127551D01*
Y126552D01*
X648597Y125552D01*
X646598D01*
X645598Y126552D01*
X637601Y113552D02*
Y119550D01*
X634601Y116551D01*
X638600D01*
X640600Y113552D02*
Y114552D01*
X641599D01*
Y113552D01*
X640600D01*
X645598Y118551D02*
X646598Y119550D01*
X648597D01*
X649597Y118551D01*
Y117551D01*
X648597Y116551D01*
X647597D01*
X648597D01*
X649597Y115551D01*
Y114552D01*
X648597Y113552D01*
X646598D01*
X645598Y114552D01*
X637601Y89552D02*
Y95550D01*
X634601Y92551D01*
X638600D01*
X640600Y89552D02*
Y90552D01*
X641599D01*
Y89552D01*
X640600D01*
X645598Y94551D02*
X646598Y95550D01*
X648597D01*
X649597Y94551D01*
Y93551D01*
X648597Y92551D01*
X649597Y91552D01*
Y90552D01*
X648597Y89552D01*
X646598D01*
X645598Y90552D01*
Y91552D01*
X646598Y92551D01*
X645598Y93551D01*
Y94551D01*
X646598Y92551D02*
X648597D01*
X637601Y65552D02*
Y71550D01*
X634601Y68551D01*
X638600D01*
X640600Y65552D02*
Y66552D01*
X641599D01*
Y65552D01*
X640600D01*
X645598Y70551D02*
X646598Y71550D01*
X648597D01*
X649597Y70551D01*
Y69551D01*
X648597Y68551D01*
X647597D01*
X648597D01*
X649597Y67551D01*
Y66552D01*
X648597Y65552D01*
X646598D01*
X645598Y66552D01*
X637601Y53552D02*
Y59550D01*
X634601Y56551D01*
X638600D01*
X640600Y53552D02*
Y54552D01*
X641599D01*
Y53552D01*
X640600D01*
X645598Y58551D02*
X646598Y59550D01*
X648597D01*
X649597Y58551D01*
Y57551D01*
X648597Y56551D01*
X647597D01*
X648597D01*
X649597Y55551D01*
Y54552D01*
X648597Y53552D01*
X646598D01*
X645598Y54552D01*
X637601Y17552D02*
Y23550D01*
X634601Y20551D01*
X638600D01*
Y190550D02*
X637601Y191550D01*
X635601D01*
X634601Y190550D01*
Y186552D01*
X635601Y185552D01*
X637601D01*
X638600Y186552D01*
X641599Y185552D02*
X643599D01*
X644598Y186552D01*
Y188551D01*
X643599Y189551D01*
X641599D01*
X640600Y188551D01*
Y186552D01*
X641599Y185552D01*
X646598D02*
Y189551D01*
X649597D01*
X650596Y188551D01*
Y185552D01*
X652596D02*
X655595D01*
X656594Y186552D01*
X655595Y187551D01*
X653595D01*
X652596Y188551D01*
X653595Y189551D01*
X656594D01*
X659593Y190550D02*
Y189551D01*
X658594D01*
X660593D01*
X659593D01*
Y186552D01*
X660593Y185552D01*
X664592Y189551D02*
X666591D01*
X667591Y188551D01*
Y185552D01*
X664592D01*
X663592Y186552D01*
X664592Y187551D01*
X667591D01*
X669590Y185552D02*
Y189551D01*
X672589D01*
X673589Y188551D01*
Y185552D01*
X676588Y190550D02*
Y189551D01*
X675588D01*
X677588D01*
X676588D01*
Y186552D01*
X677588Y185552D01*
X569618Y161552D02*
X571617D01*
X570618D01*
Y167550D01*
X569618Y166551D01*
X574616Y161552D02*
Y162552D01*
X575616D01*
Y161552D01*
X574616D01*
X579615Y166551D02*
X580615Y167550D01*
X582614D01*
X583613Y166551D01*
Y162552D01*
X582614Y161552D01*
X580615D01*
X579615Y162552D01*
Y166551D01*
X585613D02*
X586613Y167550D01*
X588612D01*
X589612Y166551D01*
Y162552D01*
X588612Y161552D01*
X586613D01*
X585613Y162552D01*
Y166551D01*
X591611Y161552D02*
Y165551D01*
X592611D01*
X593610Y164551D01*
Y161552D01*
Y164551D01*
X594610Y165551D01*
X595610Y164551D01*
Y161552D01*
X597609D02*
X599608D01*
X598609D01*
Y165551D01*
X597609D01*
X602607Y161552D02*
X604607D01*
X603607D01*
Y167550D01*
X602607D01*
X569618Y154551D02*
X570618Y155550D01*
X572617D01*
X573617Y154551D01*
Y150552D01*
X572617Y149552D01*
X570618D01*
X569618Y150552D01*
Y154551D01*
X575616Y149552D02*
Y150552D01*
X576616D01*
Y149552D01*
X575616D01*
X580615Y155550D02*
X584613D01*
Y154551D01*
X580615Y150552D01*
Y149552D01*
X586613Y150552D02*
X587612Y149552D01*
X589612D01*
X590611Y150552D01*
Y154551D01*
X589612Y155550D01*
X587612D01*
X586613Y154551D01*
Y153551D01*
X587612Y152551D01*
X590611D01*
X592611Y149552D02*
Y153551D01*
X593610D01*
X594610Y152551D01*
Y149552D01*
Y152551D01*
X595610Y153551D01*
X596609Y152551D01*
Y149552D01*
X598609D02*
X600608D01*
X599608D01*
Y153551D01*
X598609D01*
X603607Y149552D02*
X605606D01*
X604607D01*
Y155550D01*
X603607D01*
X569618Y137552D02*
X571617D01*
X570618D01*
Y143550D01*
X569618Y142551D01*
X574616Y137552D02*
Y138552D01*
X575616D01*
Y137552D01*
X574616D01*
X579615Y142551D02*
X580615Y143550D01*
X582614D01*
X583613Y142551D01*
Y141551D01*
X582614Y140551D01*
X581614D01*
X582614D01*
X583613Y139551D01*
Y138552D01*
X582614Y137552D01*
X580615D01*
X579615Y138552D01*
X585613Y142551D02*
X586613Y143550D01*
X588612D01*
X589612Y142551D01*
Y141551D01*
X588612Y140551D01*
X589612Y139551D01*
Y138552D01*
X588612Y137552D01*
X586613D01*
X585613Y138552D01*
Y139551D01*
X586613Y140551D01*
X585613Y141551D01*
Y142551D01*
X586613Y140551D02*
X588612D01*
X591611Y137552D02*
Y141551D01*
X592611D01*
X593610Y140551D01*
Y137552D01*
Y140551D01*
X594610Y141551D01*
X595610Y140551D01*
Y137552D01*
X597609D02*
X599608D01*
X598609D01*
Y141551D01*
X597609D01*
X602607Y137552D02*
X604607D01*
X603607D01*
Y143550D01*
X602607D01*
X573617Y131550D02*
X569618D01*
Y128551D01*
X571617Y129551D01*
X572617D01*
X573617Y128551D01*
Y126552D01*
X572617Y125552D01*
X570618D01*
X569618Y126552D01*
X575616Y125552D02*
Y126552D01*
X576616D01*
Y125552D01*
X575616D01*
X580615D02*
X582614D01*
X581614D01*
Y131550D01*
X580615Y130551D01*
X585613D02*
X586613Y131550D01*
X588612D01*
X589612Y130551D01*
Y126552D01*
X588612Y125552D01*
X586613D01*
X585613Y126552D01*
Y130551D01*
X591611Y125552D02*
Y129551D01*
X592611D01*
X593610Y128551D01*
Y125552D01*
Y128551D01*
X594610Y129551D01*
X595610Y128551D01*
Y125552D01*
X597609D02*
X599608D01*
X598609D01*
Y129551D01*
X597609D01*
X602607Y125552D02*
X604607D01*
X603607D01*
Y131550D01*
X602607D01*
X573617Y119550D02*
X569618D01*
Y116551D01*
X571617Y117551D01*
X572617D01*
X573617Y116551D01*
Y114552D01*
X572617Y113552D01*
X570618D01*
X569618Y114552D01*
X575616Y113552D02*
Y114552D01*
X576616D01*
Y113552D01*
X575616D01*
X580615D02*
X582614D01*
X581614D01*
Y119550D01*
X580615Y118551D01*
X585613D02*
X586613Y119550D01*
X588612D01*
X589612Y118551D01*
Y114552D01*
X588612Y113552D01*
X586613D01*
X585613Y114552D01*
Y118551D01*
X591611Y113552D02*
Y117551D01*
X592611D01*
X593610Y116551D01*
Y113552D01*
Y116551D01*
X594610Y117551D01*
X595610Y116551D01*
Y113552D01*
X597609D02*
X599608D01*
X598609D01*
Y117551D01*
X597609D01*
X602607Y113552D02*
X604607D01*
X603607D01*
Y119550D01*
X602607D01*
X569618Y101552D02*
X571617D01*
X570618D01*
Y107550D01*
X569618Y106551D01*
X574616Y101552D02*
Y102552D01*
X575616D01*
Y101552D01*
X574616D01*
X579615Y106551D02*
X580615Y107550D01*
X582614D01*
X583613Y106551D01*
Y105551D01*
X582614Y104551D01*
X581614D01*
X582614D01*
X583613Y103551D01*
Y102552D01*
X582614Y101552D01*
X580615D01*
X579615Y102552D01*
X585613Y106551D02*
X586613Y107550D01*
X588612D01*
X589612Y106551D01*
Y105551D01*
X588612Y104551D01*
X589612Y103551D01*
Y102552D01*
X588612Y101552D01*
X586613D01*
X585613Y102552D01*
Y103551D01*
X586613Y104551D01*
X585613Y105551D01*
Y106551D01*
X586613Y104551D02*
X588612D01*
X591611Y101552D02*
Y105551D01*
X592611D01*
X593610Y104551D01*
Y101552D01*
Y104551D01*
X594610Y105551D01*
X595610Y104551D01*
Y101552D01*
X597609D02*
X599608D01*
X598609D01*
Y105551D01*
X597609D01*
X602607Y101552D02*
X604607D01*
X603607D01*
Y107550D01*
X602607D01*
X573617Y89552D02*
X569618D01*
X573617Y93551D01*
Y94551D01*
X572617Y95550D01*
X570618D01*
X569618Y94551D01*
X575616D02*
X576616Y95550D01*
X578615D01*
X579615Y94551D01*
Y93551D01*
X578615Y92551D01*
X579615Y91552D01*
Y90552D01*
X578615Y89552D01*
X576616D01*
X575616Y90552D01*
Y91552D01*
X576616Y92551D01*
X575616Y93551D01*
Y94551D01*
X576616Y92551D02*
X578615D01*
X581614Y89552D02*
Y90552D01*
X582614D01*
Y89552D01*
X581614D01*
X586613Y94551D02*
X587612Y95550D01*
X589612D01*
X590611Y94551D01*
Y90552D01*
X589612Y89552D01*
X587612D01*
X586613Y90552D01*
Y94551D01*
X592611D02*
X593610Y95550D01*
X595610D01*
X596609Y94551D01*
Y90552D01*
X595610Y89552D01*
X593610D01*
X592611Y90552D01*
Y94551D01*
X598609Y89552D02*
Y93551D01*
X599608D01*
X600608Y92551D01*
Y89552D01*
Y92551D01*
X601608Y93551D01*
X602607Y92551D01*
Y89552D01*
X604607D02*
X606606D01*
X605606D01*
Y93551D01*
X604607D01*
X609605Y89552D02*
X611604D01*
X610605D01*
Y95550D01*
X609605D01*
X569618Y77552D02*
X571617D01*
X570618D01*
Y83550D01*
X569618Y82551D01*
X574616Y77552D02*
Y78552D01*
X575616D01*
Y77552D01*
X574616D01*
X579615Y82551D02*
X580615Y83550D01*
X582614D01*
X583613Y82551D01*
Y81551D01*
X582614Y80551D01*
X581614D01*
X582614D01*
X583613Y79552D01*
Y78552D01*
X582614Y77552D01*
X580615D01*
X579615Y78552D01*
X585613Y82551D02*
X586613Y83550D01*
X588612D01*
X589612Y82551D01*
Y81551D01*
X588612Y80551D01*
X589612Y79552D01*
Y78552D01*
X588612Y77552D01*
X586613D01*
X585613Y78552D01*
Y79552D01*
X586613Y80551D01*
X585613Y81551D01*
Y82551D01*
X586613Y80551D02*
X588612D01*
X591611Y77552D02*
Y81551D01*
X592611D01*
X593610Y80551D01*
Y77552D01*
Y80551D01*
X594610Y81551D01*
X595610Y80551D01*
Y77552D01*
X597609D02*
X599608D01*
X598609D01*
Y81551D01*
X597609D01*
X602607Y77552D02*
X604607D01*
X603607D01*
Y83550D01*
X602607D01*
X573617Y71550D02*
X569618D01*
Y68551D01*
X571617Y69551D01*
X572617D01*
X573617Y68551D01*
Y66552D01*
X572617Y65552D01*
X570618D01*
X569618Y66552D01*
X575616Y65552D02*
Y66552D01*
X576616D01*
Y65552D01*
X575616D01*
X580615D02*
X582614D01*
X581614D01*
Y71550D01*
X580615Y70551D01*
X585613D02*
X586613Y71550D01*
X588612D01*
X589612Y70551D01*
Y66552D01*
X588612Y65552D01*
X586613D01*
X585613Y66552D01*
Y70551D01*
X591611Y65552D02*
Y69551D01*
X592611D01*
X593610Y68551D01*
Y65552D01*
Y68551D01*
X594610Y69551D01*
X595610Y68551D01*
Y65552D01*
X597609D02*
X599608D01*
X598609D01*
Y69551D01*
X597609D01*
X602607Y65552D02*
X604607D01*
X603607D01*
Y71550D01*
X602607D01*
X573617Y59550D02*
X569618D01*
Y56551D01*
X571617Y57551D01*
X572617D01*
X573617Y56551D01*
Y54552D01*
X572617Y53552D01*
X570618D01*
X569618Y54552D01*
X575616Y53552D02*
Y54552D01*
X576616D01*
Y53552D01*
X575616D01*
X580615D02*
X582614D01*
X581614D01*
Y59550D01*
X580615Y58551D01*
X585613D02*
X586613Y59550D01*
X588612D01*
X589612Y58551D01*
Y54552D01*
X588612Y53552D01*
X586613D01*
X585613Y54552D01*
Y58551D01*
X591611Y53552D02*
Y57551D01*
X592611D01*
X593610Y56551D01*
Y53552D01*
Y56551D01*
X594610Y57551D01*
X595610Y56551D01*
Y53552D01*
X597609D02*
X599608D01*
X598609D01*
Y57551D01*
X597609D01*
X602607Y53552D02*
X604607D01*
X603607D01*
Y59550D01*
X602607D01*
X569618Y41552D02*
X571617D01*
X570618D01*
Y47550D01*
X569618Y46551D01*
X574616Y41552D02*
Y42552D01*
X575616D01*
Y41552D01*
X574616D01*
X579615Y46551D02*
X580615Y47550D01*
X582614D01*
X583613Y46551D01*
Y45551D01*
X582614Y44551D01*
X581614D01*
X582614D01*
X583613Y43551D01*
Y42552D01*
X582614Y41552D01*
X580615D01*
X579615Y42552D01*
X585613Y46551D02*
X586613Y47550D01*
X588612D01*
X589612Y46551D01*
Y45551D01*
X588612Y44551D01*
X589612Y43551D01*
Y42552D01*
X588612Y41552D01*
X586613D01*
X585613Y42552D01*
Y43551D01*
X586613Y44551D01*
X585613Y45551D01*
Y46551D01*
X586613Y44551D02*
X588612D01*
X591611Y41552D02*
Y45551D01*
X592611D01*
X593610Y44551D01*
Y41552D01*
Y44551D01*
X594610Y45551D01*
X595610Y44551D01*
Y41552D01*
X597609D02*
X599608D01*
X598609D01*
Y45551D01*
X597609D01*
X602607Y41552D02*
X604607D01*
X603607D01*
Y47550D01*
X602607D01*
X569618Y34550D02*
X570618Y35550D01*
X572617D01*
X573617Y34550D01*
Y30552D01*
X572617Y29552D01*
X570618D01*
X569618Y30552D01*
Y34550D01*
X575616Y29552D02*
Y30552D01*
X576616D01*
Y29552D01*
X575616D01*
X580615Y35550D02*
X584613D01*
Y34550D01*
X580615Y30552D01*
Y29552D01*
X586613Y30552D02*
X587612Y29552D01*
X589612D01*
X590611Y30552D01*
Y34550D01*
X589612Y35550D01*
X587612D01*
X586613Y34550D01*
Y33551D01*
X587612Y32551D01*
X590611D01*
X592611Y29552D02*
Y33551D01*
X593610D01*
X594610Y32551D01*
Y29552D01*
Y32551D01*
X595610Y33551D01*
X596609Y32551D01*
Y29552D01*
X598609D02*
X600608D01*
X599608D01*
Y33551D01*
X598609D01*
X603607Y29552D02*
X605606D01*
X604607D01*
Y35550D01*
X603607D01*
X569618Y17552D02*
X571617D01*
X570618D01*
Y23550D01*
X569618Y22550D01*
X574616Y17552D02*
Y18552D01*
X575616D01*
Y17552D01*
X574616D01*
X579615Y22550D02*
X580615Y23550D01*
X582614D01*
X583613Y22550D01*
Y18552D01*
X582614Y17552D01*
X580615D01*
X579615Y18552D01*
Y22550D01*
X585613D02*
X586613Y23550D01*
X588612D01*
X589612Y22550D01*
Y18552D01*
X588612Y17552D01*
X586613D01*
X585613Y18552D01*
Y22550D01*
X591611Y17552D02*
Y21551D01*
X592611D01*
X593610Y20551D01*
Y17552D01*
Y20551D01*
X594610Y21551D01*
X595610Y20551D01*
Y17552D01*
X597609D02*
X599608D01*
X598609D01*
Y21551D01*
X597609D01*
X602607Y17552D02*
X604607D01*
X603607D01*
Y23550D01*
X602607D01*
X569618Y191550D02*
X573617D01*
X571617D01*
Y185552D01*
X575616Y191550D02*
Y185552D01*
Y188551D01*
X576616Y189551D01*
X578615D01*
X579615Y188551D01*
Y185552D01*
X581614D02*
X583613D01*
X582614D01*
Y189551D01*
X581614D01*
X590611D02*
X587612D01*
X586613Y188551D01*
Y186552D01*
X587612Y185552D01*
X590611D01*
X592611D02*
Y191550D01*
Y187551D02*
X595610Y189551D01*
X592611Y187551D02*
X595610Y185552D01*
X598609D02*
Y189551D01*
X601608D01*
X602607Y188551D01*
Y185552D01*
X607606D02*
X605606D01*
X604607Y186552D01*
Y188551D01*
X605606Y189551D01*
X607606D01*
X608605Y188551D01*
Y187551D01*
X604607D01*
X610605Y185552D02*
X613604D01*
X614604Y186552D01*
X613604Y187551D01*
X611604D01*
X610605Y188551D01*
X611604Y189551D01*
X614604D01*
X616603Y185552D02*
X619602D01*
X620602Y186552D01*
X619602Y187551D01*
X617602D01*
X616603Y188551D01*
X617602Y189551D01*
X620602D01*
X513632Y166551D02*
X512632Y167550D01*
X510633D01*
X509633Y166551D01*
Y165551D01*
X510633Y164551D01*
X512632D01*
X513632Y163551D01*
Y162552D01*
X512632Y161552D01*
X510633D01*
X509633Y162552D01*
X515631Y161552D02*
Y167550D01*
X517630Y165551D01*
X519630Y167550D01*
Y161552D01*
X521629Y164551D02*
X525628D01*
X527627Y166551D02*
X528627Y167550D01*
X530626D01*
X531626Y166551D01*
Y162552D01*
X530626Y161552D01*
X528627D01*
X527627Y162552D01*
Y166551D01*
X533625D02*
X534625Y167550D01*
X536624D01*
X537624Y166551D01*
Y162552D01*
X536624Y161552D01*
X534625D01*
X533625Y162552D01*
Y166551D01*
X539623Y161552D02*
X541622D01*
X540623D01*
Y167550D01*
X539623Y166551D01*
X509633Y149552D02*
Y155550D01*
X512632D01*
X513632Y154551D01*
Y152551D01*
X512632Y151551D01*
X509633D01*
X515631Y155550D02*
Y149552D01*
X518630D01*
X519630Y150552D01*
Y151551D01*
Y152551D01*
X518630Y153551D01*
X515631D01*
X525628Y154551D02*
X524628Y155550D01*
X522629D01*
X521629Y154551D01*
Y153551D01*
X522629Y152551D01*
X524628D01*
X525628Y151551D01*
Y150552D01*
X524628Y149552D01*
X522629D01*
X521629Y150552D01*
X527627Y149552D02*
Y153551D01*
X530626D01*
X531626Y152551D01*
Y149552D01*
X513632Y142551D02*
X512632Y143550D01*
X510633D01*
X509633Y142551D01*
Y138552D01*
X510633Y137552D01*
X512632D01*
X513632Y138552D01*
X519630Y143550D02*
X515631D01*
Y140551D01*
X517630D01*
X515631D01*
Y137552D01*
X521629Y140551D02*
X525628D01*
X527627Y142551D02*
X528627Y143550D01*
X530626D01*
X531626Y142551D01*
Y138552D01*
X530626Y137552D01*
X528627D01*
X527627Y138552D01*
Y142551D01*
X533625D02*
X534625Y143550D01*
X536624D01*
X537624Y142551D01*
Y138552D01*
X536624Y137552D01*
X534625D01*
X533625Y138552D01*
Y142551D01*
X542622Y137552D02*
Y143550D01*
X539623Y140551D01*
X543622D01*
X509633Y125552D02*
Y131550D01*
X512632D01*
X513632Y130551D01*
Y128551D01*
X512632Y127551D01*
X509633D01*
X515631Y125552D02*
Y131550D01*
X518630D01*
X519630Y130551D01*
Y128551D01*
X518630Y127551D01*
X515631D01*
X521629Y128551D02*
X525628D01*
X527627Y130551D02*
X528627Y131550D01*
X530626D01*
X531626Y130551D01*
Y126552D01*
X530626Y125552D01*
X528627D01*
X527627Y126552D01*
Y130551D01*
X533625Y125552D02*
X535625D01*
X534625D01*
Y131550D01*
X533625Y130551D01*
X538624Y131550D02*
X542622D01*
Y130551D01*
X538624Y126552D01*
Y125552D01*
X509633Y113552D02*
Y119550D01*
X512632D01*
X513632Y118551D01*
Y116551D01*
X512632Y115551D01*
X509633D01*
X515631Y113552D02*
Y119550D01*
X518630D01*
X519630Y118551D01*
Y116551D01*
X518630Y115551D01*
X515631D01*
X521629Y116551D02*
X525628D01*
X527627Y118551D02*
X528627Y119550D01*
X530626D01*
X531626Y118551D01*
Y114552D01*
X530626Y113552D01*
X528627D01*
X527627Y114552D01*
Y118551D01*
X533625Y113552D02*
X535625D01*
X534625D01*
Y119550D01*
X533625Y118551D01*
X538624Y119550D02*
X542622D01*
Y118551D01*
X538624Y114552D01*
Y113552D01*
X513632Y106551D02*
X512632Y107550D01*
X510633D01*
X509633Y106551D01*
Y102552D01*
X510633Y101552D01*
X512632D01*
X513632Y102552D01*
X519630Y107550D02*
X515631D01*
Y104551D01*
X517630D01*
X515631D01*
Y101552D01*
X521629Y104551D02*
X525628D01*
X527627Y106551D02*
X528627Y107550D01*
X530626D01*
X531626Y106551D01*
Y102552D01*
X530626Y101552D01*
X528627D01*
X527627Y102552D01*
Y106551D01*
X533625D02*
X534625Y107550D01*
X536624D01*
X537624Y106551D01*
Y102552D01*
X536624Y101552D01*
X534625D01*
X533625Y102552D01*
Y106551D01*
X542622Y101552D02*
Y107550D01*
X539623Y104551D01*
X543622D01*
X513632Y94551D02*
X512632Y95550D01*
X510633D01*
X509633Y94551D01*
Y90552D01*
X510633Y89552D01*
X512632D01*
X513632Y90552D01*
X516631Y89552D02*
X518630D01*
X519630Y90552D01*
Y92551D01*
X518630Y93551D01*
X516631D01*
X515631Y92551D01*
Y90552D01*
X516631Y89552D01*
X521629Y93551D02*
Y89552D01*
Y91552D01*
X522629Y92551D01*
X523628Y93551D01*
X524628D01*
X530626Y89552D02*
X528627D01*
X527627Y90552D01*
Y92551D01*
X528627Y93551D01*
X530626D01*
X531626Y92551D01*
Y91552D01*
X527627D01*
X533625Y92551D02*
X537624D01*
X539623Y94551D02*
X540623Y95550D01*
X542622D01*
X543622Y94551D01*
Y90552D01*
X542622Y89552D01*
X540623D01*
X539623Y90552D01*
Y94551D01*
X545621D02*
X546621Y95550D01*
X548620D01*
X549620Y94551D01*
Y93551D01*
X548620Y92551D01*
X547621D01*
X548620D01*
X549620Y91552D01*
Y90552D01*
X548620Y89552D01*
X546621D01*
X545621Y90552D01*
X551619D02*
X552619Y89552D01*
X554618D01*
X555618Y90552D01*
Y94551D01*
X554618Y95550D01*
X552619D01*
X551619Y94551D01*
Y93551D01*
X552619Y92551D01*
X555618D01*
X513632Y82551D02*
X512632Y83550D01*
X510633D01*
X509633Y82551D01*
Y78552D01*
X510633Y77552D01*
X512632D01*
X513632Y78552D01*
X519630Y83550D02*
X515631D01*
Y80551D01*
X517630D01*
X515631D01*
Y77552D01*
X521629Y80551D02*
X525628D01*
X527627Y82551D02*
X528627Y83550D01*
X530626D01*
X531626Y82551D01*
Y78552D01*
X530626Y77552D01*
X528627D01*
X527627Y78552D01*
Y82551D01*
X533625D02*
X534625Y83550D01*
X536624D01*
X537624Y82551D01*
Y78552D01*
X536624Y77552D01*
X534625D01*
X533625Y78552D01*
Y82551D01*
X542622Y77552D02*
Y83550D01*
X539623Y80551D01*
X543622D01*
X509633Y65552D02*
Y71550D01*
X512632D01*
X513632Y70551D01*
Y68551D01*
X512632Y67551D01*
X509633D01*
X515631Y65552D02*
Y71550D01*
X518630D01*
X519630Y70551D01*
Y68551D01*
X518630Y67551D01*
X515631D01*
X521629Y68551D02*
X525628D01*
X527627Y70551D02*
X528627Y71550D01*
X530626D01*
X531626Y70551D01*
Y66552D01*
X530626Y65552D01*
X528627D01*
X527627Y66552D01*
Y70551D01*
X533625Y65552D02*
X535625D01*
X534625D01*
Y71550D01*
X533625Y70551D01*
X538624Y71550D02*
X542622D01*
Y70551D01*
X538624Y66552D01*
Y65552D01*
X509633Y53552D02*
Y59550D01*
X512632D01*
X513632Y58551D01*
Y56551D01*
X512632Y55551D01*
X509633D01*
X515631Y53552D02*
Y59550D01*
X518630D01*
X519630Y58551D01*
Y56551D01*
X518630Y55551D01*
X515631D01*
X521629Y56551D02*
X525628D01*
X527627Y58551D02*
X528627Y59550D01*
X530626D01*
X531626Y58551D01*
Y54552D01*
X530626Y53552D01*
X528627D01*
X527627Y54552D01*
Y58551D01*
X533625Y53552D02*
X535625D01*
X534625D01*
Y59550D01*
X533625Y58551D01*
X538624Y59550D02*
X542622D01*
Y58551D01*
X538624Y54552D01*
Y53552D01*
X513632Y46551D02*
X512632Y47550D01*
X510633D01*
X509633Y46551D01*
Y42552D01*
X510633Y41552D01*
X512632D01*
X513632Y42552D01*
X519630Y47550D02*
X515631D01*
Y44551D01*
X517630D01*
X515631D01*
Y41552D01*
X521629Y44551D02*
X525628D01*
X527627Y46551D02*
X528627Y47550D01*
X530626D01*
X531626Y46551D01*
Y42552D01*
X530626Y41552D01*
X528627D01*
X527627Y42552D01*
Y46551D01*
X533625D02*
X534625Y47550D01*
X536624D01*
X537624Y46551D01*
Y42552D01*
X536624Y41552D01*
X534625D01*
X533625Y42552D01*
Y46551D01*
X542622Y41552D02*
Y47550D01*
X539623Y44551D01*
X543622D01*
X509633Y29552D02*
Y35550D01*
X512632D01*
X513632Y34550D01*
Y32551D01*
X512632Y31552D01*
X509633D01*
X515631Y35550D02*
Y29552D01*
X518630D01*
X519630Y30552D01*
Y31552D01*
Y32551D01*
X518630Y33551D01*
X515631D01*
X525628Y34550D02*
X524628Y35550D01*
X522629D01*
X521629Y34550D01*
Y33551D01*
X522629Y32551D01*
X524628D01*
X525628Y31552D01*
Y30552D01*
X524628Y29552D01*
X522629D01*
X521629Y30552D01*
X527627Y29552D02*
Y33551D01*
X530626D01*
X531626Y32551D01*
Y29552D01*
X513632Y22550D02*
X512632Y23550D01*
X510633D01*
X509633Y22550D01*
Y21551D01*
X510633Y20551D01*
X512632D01*
X513632Y19552D01*
Y18552D01*
X512632Y17552D01*
X510633D01*
X509633Y18552D01*
X515631Y17552D02*
Y23550D01*
X517630Y21551D01*
X519630Y23550D01*
Y17552D01*
X521629Y20551D02*
X525628D01*
X527627Y22550D02*
X528627Y23550D01*
X530626D01*
X531626Y22550D01*
Y18552D01*
X530626Y17552D01*
X528627D01*
X527627Y18552D01*
Y22550D01*
X533625D02*
X534625Y23550D01*
X536624D01*
X537624Y22550D01*
Y18552D01*
X536624Y17552D01*
X534625D01*
X533625Y18552D01*
Y22550D01*
X539623Y17552D02*
X541622D01*
X540623D01*
Y23550D01*
X539623Y22550D01*
X509633Y185552D02*
Y191550D01*
X511632Y189551D01*
X513632Y191550D01*
Y185552D01*
X516631Y189551D02*
X518630D01*
X519630Y188551D01*
Y185552D01*
X516631D01*
X515631Y186552D01*
X516631Y187551D01*
X519630D01*
X522629Y190550D02*
Y189551D01*
X521629D01*
X523628D01*
X522629D01*
Y186552D01*
X523628Y185552D01*
X529626D02*
X527627D01*
X526627Y186552D01*
Y188551D01*
X527627Y189551D01*
X529626D01*
X530626Y188551D01*
Y187551D01*
X526627D01*
X532625Y189551D02*
Y185552D01*
Y187551D01*
X533625Y188551D01*
X534625Y189551D01*
X535625D01*
X538624Y185552D02*
X540623D01*
X539623D01*
Y189551D01*
X538624D01*
X544622D02*
X546621D01*
X547621Y188551D01*
Y185552D01*
X544622D01*
X543622Y186552D01*
X544622Y187551D01*
X547621D01*
X549620Y185552D02*
X551619D01*
X550620D01*
Y191550D01*
X549620D01*
X376671Y179550D02*
X380670D01*
X378671D01*
Y173552D01*
X383669D02*
X385668D01*
X386668Y174552D01*
Y176551D01*
X385668Y177551D01*
X383669D01*
X382669Y176551D01*
Y174552D01*
X383669Y173552D01*
X388667Y171553D02*
Y177551D01*
X391667D01*
X392666Y176551D01*
Y174552D01*
X391667Y173552D01*
X388667D01*
X403663Y179550D02*
X401663D01*
X400664Y178551D01*
Y174552D01*
X401663Y173552D01*
X403663D01*
X404662Y174552D01*
Y178551D01*
X403663Y179550D01*
X406662Y177551D02*
X408661Y173552D01*
X410660Y177551D01*
X415659Y173552D02*
X413659D01*
X412660Y174552D01*
Y176551D01*
X413659Y177551D01*
X415659D01*
X416658Y176551D01*
Y175551D01*
X412660D01*
X418658Y177551D02*
Y173552D01*
Y175551D01*
X419658Y176551D01*
X420657Y177551D01*
X421657D01*
X424656Y173552D02*
X426655D01*
X425656D01*
Y179550D01*
X424656D01*
X430654Y177551D02*
X432653D01*
X433653Y176551D01*
Y173552D01*
X430654D01*
X429654Y174552D01*
X430654Y175551D01*
X433653D01*
X435652Y177551D02*
Y174552D01*
X436652Y173552D01*
X439651D01*
Y172552D01*
X438651Y171553D01*
X437652D01*
X439651Y173552D02*
Y177551D01*
X376671Y167550D02*
X380670D01*
X378671D01*
Y161552D01*
X383669D02*
X385668D01*
X386668Y162552D01*
Y164551D01*
X385668Y165551D01*
X383669D01*
X382669Y164551D01*
Y162552D01*
X383669Y161552D01*
X388667Y159553D02*
Y165551D01*
X391667D01*
X392666Y164551D01*
Y162552D01*
X391667Y161552D01*
X388667D01*
X404662Y166551D02*
X403663Y167550D01*
X401663D01*
X400664Y166551D01*
Y165551D01*
X401663Y164551D01*
X403663D01*
X404662Y163551D01*
Y162552D01*
X403663Y161552D01*
X401663D01*
X400664Y162552D01*
X407661Y161552D02*
X409661D01*
X410660Y162552D01*
Y164551D01*
X409661Y165551D01*
X407661D01*
X406662Y164551D01*
Y162552D01*
X407661Y161552D01*
X412660D02*
X414659D01*
X413659D01*
Y167550D01*
X412660D01*
X421657D02*
Y161552D01*
X418658D01*
X417658Y162552D01*
Y164551D01*
X418658Y165551D01*
X421657D01*
X426655Y161552D02*
X424656D01*
X423656Y162552D01*
Y164551D01*
X424656Y165551D01*
X426655D01*
X427655Y164551D01*
Y163551D01*
X423656D01*
X429654Y165551D02*
Y161552D01*
Y163551D01*
X430654Y164551D01*
X431654Y165551D01*
X432653D01*
X376671Y155550D02*
X380670D01*
X378671D01*
Y149552D01*
X383669D02*
X385668D01*
X386668Y150552D01*
Y152551D01*
X385668Y153551D01*
X383669D01*
X382669Y152551D01*
Y150552D01*
X383669Y149552D01*
X388667Y147553D02*
Y153551D01*
X391667D01*
X392666Y152551D01*
Y150552D01*
X391667Y149552D01*
X388667D01*
X404662Y154551D02*
X403663Y155550D01*
X401663D01*
X400664Y154551D01*
Y153551D01*
X401663Y152551D01*
X403663D01*
X404662Y151551D01*
Y150552D01*
X403663Y149552D01*
X401663D01*
X400664Y150552D01*
X406662Y153551D02*
Y150552D01*
X407661Y149552D01*
X410660D01*
Y153551D01*
X412660D02*
Y149552D01*
Y151551D01*
X413659Y152551D01*
X414659Y153551D01*
X415659D01*
X419658Y149552D02*
Y154551D01*
Y152551D01*
X418658D01*
X420657D01*
X419658D01*
Y154551D01*
X420657Y155550D01*
X424656Y153551D02*
X426655D01*
X427655Y152551D01*
Y149552D01*
X424656D01*
X423656Y150552D01*
X424656Y151551D01*
X427655D01*
X433653Y153551D02*
X430654D01*
X429654Y152551D01*
Y150552D01*
X430654Y149552D01*
X433653D01*
X438651D02*
X436652D01*
X435652Y150552D01*
Y152551D01*
X436652Y153551D01*
X438651D01*
X439651Y152551D01*
Y151551D01*
X435652D01*
X451647Y155550D02*
X447648D01*
Y152551D01*
X449648D01*
X447648D01*
Y149552D01*
X453647D02*
X455646D01*
X454646D01*
Y153551D01*
X453647D01*
X458645Y149552D02*
Y153551D01*
X461644D01*
X462644Y152551D01*
Y149552D01*
X464643D02*
X466642D01*
X465643D01*
Y153551D01*
X464643D01*
X469641Y149552D02*
X472640D01*
X473640Y150552D01*
X472640Y151551D01*
X470641D01*
X469641Y152551D01*
X470641Y153551D01*
X473640D01*
X475639Y155550D02*
Y149552D01*
Y152551D01*
X476639Y153551D01*
X478638D01*
X479638Y152551D01*
Y149552D01*
X376671Y143550D02*
X380670D01*
X378671D01*
Y137552D01*
X383669D02*
X385668D01*
X386668Y138552D01*
Y140551D01*
X385668Y141551D01*
X383669D01*
X382669Y140551D01*
Y138552D01*
X383669Y137552D01*
X388667Y135553D02*
Y141551D01*
X391667D01*
X392666Y140551D01*
Y138552D01*
X391667Y137552D01*
X388667D01*
X400664Y143550D02*
Y137552D01*
X404662D01*
X407661Y141551D02*
X409661D01*
X410660Y140551D01*
Y137552D01*
X407661D01*
X406662Y138552D01*
X407661Y139551D01*
X410660D01*
X412660Y141551D02*
Y138552D01*
X413659Y137552D01*
X416658D01*
Y136552D01*
X415659Y135553D01*
X414659D01*
X416658Y137552D02*
Y141551D01*
X421657Y137552D02*
X419658D01*
X418658Y138552D01*
Y140551D01*
X419658Y141551D01*
X421657D01*
X422656Y140551D01*
Y139551D01*
X418658D01*
X424656Y141551D02*
Y137552D01*
Y139551D01*
X425656Y140551D01*
X426655Y141551D01*
X427655D01*
X376671Y131550D02*
Y125552D01*
X379670D01*
X380670Y126552D01*
Y130551D01*
X379670Y131550D01*
X376671D01*
X382669Y125552D02*
X384669D01*
X383669D01*
Y129551D01*
X382669D01*
X390667Y125552D02*
X388667D01*
X387668Y126552D01*
Y128551D01*
X388667Y129551D01*
X390667D01*
X391667Y128551D01*
Y127551D01*
X387668D01*
X393666Y125552D02*
X395665D01*
X394666D01*
Y131550D01*
X393666D01*
X401663Y125552D02*
X399664D01*
X398664Y126552D01*
Y128551D01*
X399664Y129551D01*
X401663D01*
X402663Y128551D01*
Y127551D01*
X398664D01*
X408661Y129551D02*
X405662D01*
X404662Y128551D01*
Y126552D01*
X405662Y125552D01*
X408661D01*
X411660Y130551D02*
Y129551D01*
X410660D01*
X412660D01*
X411660D01*
Y126552D01*
X412660Y125552D01*
X415659Y129551D02*
Y125552D01*
Y127551D01*
X416658Y128551D01*
X417658Y129551D01*
X418658D01*
X421657Y125552D02*
X423656D01*
X422656D01*
Y129551D01*
X421657D01*
X430654D02*
X427655D01*
X426655Y128551D01*
Y126552D01*
X427655Y125552D01*
X430654D01*
X438651D02*
X440651D01*
X439651D01*
Y131550D01*
X438651Y130551D01*
X376671Y119550D02*
Y113552D01*
X379670D01*
X380670Y114552D01*
Y118551D01*
X379670Y119550D01*
X376671D01*
X382669Y113552D02*
X384669D01*
X383669D01*
Y117551D01*
X382669D01*
X390667Y113552D02*
X388667D01*
X387668Y114552D01*
Y116551D01*
X388667Y117551D01*
X390667D01*
X391667Y116551D01*
Y115551D01*
X387668D01*
X393666Y113552D02*
X395665D01*
X394666D01*
Y119550D01*
X393666D01*
X401663Y113552D02*
X399664D01*
X398664Y114552D01*
Y116551D01*
X399664Y117551D01*
X401663D01*
X402663Y116551D01*
Y115551D01*
X398664D01*
X408661Y117551D02*
X405662D01*
X404662Y116551D01*
Y114552D01*
X405662Y113552D01*
X408661D01*
X411660Y118551D02*
Y117551D01*
X410660D01*
X412660D01*
X411660D01*
Y114552D01*
X412660Y113552D01*
X415659Y117551D02*
Y113552D01*
Y115551D01*
X416658Y116551D01*
X417658Y117551D01*
X418658D01*
X421657Y113552D02*
X423656D01*
X422656D01*
Y117551D01*
X421657D01*
X430654D02*
X427655D01*
X426655Y116551D01*
Y114552D01*
X427655Y113552D01*
X430654D01*
X442650D02*
X438651D01*
X442650Y117551D01*
Y118551D01*
X441650Y119550D01*
X439651D01*
X438651Y118551D01*
X380670Y106551D02*
X379670Y107550D01*
X377671D01*
X376671Y106551D01*
Y102552D01*
X377671Y101552D01*
X379670D01*
X380670Y102552D01*
Y104551D01*
X378671D01*
X382669Y101552D02*
Y107550D01*
X386668Y101552D01*
Y107550D01*
X388667D02*
Y101552D01*
X391667D01*
X392666Y102552D01*
Y106551D01*
X391667Y107550D01*
X388667D01*
X376671Y95550D02*
Y89552D01*
X379670D01*
X380670Y90552D01*
Y94551D01*
X379670Y95550D01*
X376671D01*
X382669Y89552D02*
X384669D01*
X383669D01*
Y93551D01*
X382669D01*
X390667Y89552D02*
X388667D01*
X387668Y90552D01*
Y92551D01*
X388667Y93551D01*
X390667D01*
X391667Y92551D01*
Y91552D01*
X387668D01*
X393666Y89552D02*
X395665D01*
X394666D01*
Y95550D01*
X393666D01*
X401663Y89552D02*
X399664D01*
X398664Y90552D01*
Y92551D01*
X399664Y93551D01*
X401663D01*
X402663Y92551D01*
Y91552D01*
X398664D01*
X408661Y93551D02*
X405662D01*
X404662Y92551D01*
Y90552D01*
X405662Y89552D01*
X408661D01*
X411660Y94551D02*
Y93551D01*
X410660D01*
X412660D01*
X411660D01*
Y90552D01*
X412660Y89552D01*
X415659Y93551D02*
Y89552D01*
Y91552D01*
X416658Y92551D01*
X417658Y93551D01*
X418658D01*
X421657Y89552D02*
X423656D01*
X422656D01*
Y93551D01*
X421657D01*
X430654D02*
X427655D01*
X426655Y92551D01*
Y90552D01*
X427655Y89552D01*
X430654D01*
X438651Y94551D02*
X439651Y95550D01*
X441650D01*
X442650Y94551D01*
Y93551D01*
X441650Y92551D01*
X440651D01*
X441650D01*
X442650Y91552D01*
Y90552D01*
X441650Y89552D01*
X439651D01*
X438651Y90552D01*
X376671Y77552D02*
Y83550D01*
X379670D01*
X380670Y82551D01*
Y80551D01*
X379670Y79552D01*
X376671D01*
X382669Y83550D02*
Y77552D01*
X384669Y79552D01*
X386668Y77552D01*
Y83550D01*
X388667Y77552D02*
Y83550D01*
X391667D01*
X392666Y82551D01*
Y80551D01*
X391667Y79552D01*
X388667D01*
X390667D02*
X392666Y77552D01*
X376671Y71550D02*
Y65552D01*
X379670D01*
X380670Y66552D01*
Y70551D01*
X379670Y71550D01*
X376671D01*
X382669Y65552D02*
X384669D01*
X383669D01*
Y69551D01*
X382669D01*
X390667Y65552D02*
X388667D01*
X387668Y66552D01*
Y68551D01*
X388667Y69551D01*
X390667D01*
X391667Y68551D01*
Y67551D01*
X387668D01*
X393666Y65552D02*
X395665D01*
X394666D01*
Y71550D01*
X393666D01*
X401663Y65552D02*
X399664D01*
X398664Y66552D01*
Y68551D01*
X399664Y69551D01*
X401663D01*
X402663Y68551D01*
Y67551D01*
X398664D01*
X408661Y69551D02*
X405662D01*
X404662Y68551D01*
Y66552D01*
X405662Y65552D01*
X408661D01*
X411660Y70551D02*
Y69551D01*
X410660D01*
X412660D01*
X411660D01*
Y66552D01*
X412660Y65552D01*
X415659Y69551D02*
Y65552D01*
Y67551D01*
X416658Y68551D01*
X417658Y69551D01*
X418658D01*
X421657Y65552D02*
X423656D01*
X422656D01*
Y69551D01*
X421657D01*
X430654D02*
X427655D01*
X426655Y68551D01*
Y66552D01*
X427655Y65552D01*
X430654D01*
X441650D02*
Y71550D01*
X438651Y68551D01*
X442650D01*
X376671Y59550D02*
Y53552D01*
X379670D01*
X380670Y54552D01*
Y58551D01*
X379670Y59550D01*
X376671D01*
X382669Y53552D02*
X384669D01*
X383669D01*
Y57551D01*
X382669D01*
X390667Y53552D02*
X388667D01*
X387668Y54552D01*
Y56551D01*
X388667Y57551D01*
X390667D01*
X391667Y56551D01*
Y55551D01*
X387668D01*
X393666Y53552D02*
X395665D01*
X394666D01*
Y59550D01*
X393666D01*
X401663Y53552D02*
X399664D01*
X398664Y54552D01*
Y56551D01*
X399664Y57551D01*
X401663D01*
X402663Y56551D01*
Y55551D01*
X398664D01*
X408661Y57551D02*
X405662D01*
X404662Y56551D01*
Y54552D01*
X405662Y53552D01*
X408661D01*
X411660Y58551D02*
Y57551D01*
X410660D01*
X412660D01*
X411660D01*
Y54552D01*
X412660Y53552D01*
X415659Y57551D02*
Y53552D01*
Y55551D01*
X416658Y56551D01*
X417658Y57551D01*
X418658D01*
X421657Y53552D02*
X423656D01*
X422656D01*
Y57551D01*
X421657D01*
X430654D02*
X427655D01*
X426655Y56551D01*
Y54552D01*
X427655Y53552D01*
X430654D01*
X442650Y59550D02*
X438651D01*
Y56551D01*
X440651Y57551D01*
X441650D01*
X442650Y56551D01*
Y54552D01*
X441650Y53552D01*
X439651D01*
X438651Y54552D01*
X376671Y47550D02*
Y41552D01*
X379670D01*
X380670Y42552D01*
Y43551D01*
X379670Y44551D01*
X376671D01*
X379670D01*
X380670Y45551D01*
Y46551D01*
X379670Y47550D01*
X376671D01*
X383669Y41552D02*
X385668D01*
X386668Y42552D01*
Y44551D01*
X385668Y45551D01*
X383669D01*
X382669Y44551D01*
Y42552D01*
X383669Y41552D01*
X389667Y46551D02*
Y45551D01*
X388667D01*
X390667D01*
X389667D01*
Y42552D01*
X390667Y41552D01*
X394666Y46551D02*
Y45551D01*
X393666D01*
X395665D01*
X394666D01*
Y42552D01*
X395665Y41552D01*
X399664D02*
X401663D01*
X402663Y42552D01*
Y44551D01*
X401663Y45551D01*
X399664D01*
X398664Y44551D01*
Y42552D01*
X399664Y41552D01*
X404662D02*
Y45551D01*
X405662D01*
X406662Y44551D01*
Y41552D01*
Y44551D01*
X407661Y45551D01*
X408661Y44551D01*
Y41552D01*
X416658Y47550D02*
Y41552D01*
X420657D01*
X423656Y45551D02*
X425656D01*
X426655Y44551D01*
Y41552D01*
X423656D01*
X422656Y42552D01*
X423656Y43551D01*
X426655D01*
X428655Y45551D02*
Y42552D01*
X429654Y41552D01*
X432653D01*
Y40552D01*
X431654Y39553D01*
X430654D01*
X432653Y41552D02*
Y45551D01*
X437652Y41552D02*
X435652D01*
X434653Y42552D01*
Y44551D01*
X435652Y45551D01*
X437652D01*
X438651Y44551D01*
Y43551D01*
X434653D01*
X440651Y45551D02*
Y41552D01*
Y43551D01*
X441650Y44551D01*
X442650Y45551D01*
X443650D01*
X376671Y35550D02*
Y29552D01*
X379670D01*
X380670Y30552D01*
Y31552D01*
X379670Y32551D01*
X376671D01*
X379670D01*
X380670Y33551D01*
Y34550D01*
X379670Y35550D01*
X376671D01*
X383669Y29552D02*
X385668D01*
X386668Y30552D01*
Y32551D01*
X385668Y33551D01*
X383669D01*
X382669Y32551D01*
Y30552D01*
X383669Y29552D01*
X389667Y34550D02*
Y33551D01*
X388667D01*
X390667D01*
X389667D01*
Y30552D01*
X390667Y29552D01*
X394666Y34550D02*
Y33551D01*
X393666D01*
X395665D01*
X394666D01*
Y30552D01*
X395665Y29552D01*
X399664D02*
X401663D01*
X402663Y30552D01*
Y32551D01*
X401663Y33551D01*
X399664D01*
X398664Y32551D01*
Y30552D01*
X399664Y29552D01*
X404662D02*
Y33551D01*
X405662D01*
X406662Y32551D01*
Y29552D01*
Y32551D01*
X407661Y33551D01*
X408661Y32551D01*
Y29552D01*
X420657Y34550D02*
X419658Y35550D01*
X417658D01*
X416658Y34550D01*
Y33551D01*
X417658Y32551D01*
X419658D01*
X420657Y31552D01*
Y30552D01*
X419658Y29552D01*
X417658D01*
X416658Y30552D01*
X422656Y33551D02*
Y30552D01*
X423656Y29552D01*
X426655D01*
Y33551D01*
X428655D02*
Y29552D01*
Y31552D01*
X429654Y32551D01*
X430654Y33551D01*
X431654D01*
X435652Y29552D02*
Y34550D01*
Y32551D01*
X434653D01*
X436652D01*
X435652D01*
Y34550D01*
X436652Y35550D01*
X440651Y33551D02*
X442650D01*
X443650Y32551D01*
Y29552D01*
X440651D01*
X439651Y30552D01*
X440651Y31552D01*
X443650D01*
X449648Y33551D02*
X446649D01*
X445649Y32551D01*
Y30552D01*
X446649Y29552D01*
X449648D01*
X454646D02*
X452647D01*
X451647Y30552D01*
Y32551D01*
X452647Y33551D01*
X454646D01*
X455646Y32551D01*
Y31552D01*
X451647D01*
X467642Y35550D02*
X463643D01*
Y32551D01*
X465643D01*
X463643D01*
Y29552D01*
X469641D02*
X471641D01*
X470641D01*
Y33551D01*
X469641D01*
X474640Y29552D02*
Y33551D01*
X477639D01*
X478638Y32551D01*
Y29552D01*
X480638D02*
X482637D01*
X481637D01*
Y33551D01*
X480638D01*
X485636Y29552D02*
X488635D01*
X489635Y30552D01*
X488635Y31552D01*
X486636D01*
X485636Y32551D01*
X486636Y33551D01*
X489635D01*
X491634Y35550D02*
Y29552D01*
Y32551D01*
X492634Y33551D01*
X494633D01*
X495633Y32551D01*
Y29552D01*
X376671Y23550D02*
Y17552D01*
X379670D01*
X380670Y18552D01*
Y19552D01*
X379670Y20551D01*
X376671D01*
X379670D01*
X380670Y21551D01*
Y22550D01*
X379670Y23550D01*
X376671D01*
X383669Y17552D02*
X385668D01*
X386668Y18552D01*
Y20551D01*
X385668Y21551D01*
X383669D01*
X382669Y20551D01*
Y18552D01*
X383669Y17552D01*
X389667Y22550D02*
Y21551D01*
X388667D01*
X390667D01*
X389667D01*
Y18552D01*
X390667Y17552D01*
X394666Y22550D02*
Y21551D01*
X393666D01*
X395665D01*
X394666D01*
Y18552D01*
X395665Y17552D01*
X399664D02*
X401663D01*
X402663Y18552D01*
Y20551D01*
X401663Y21551D01*
X399664D01*
X398664Y20551D01*
Y18552D01*
X399664Y17552D01*
X404662D02*
Y21551D01*
X405662D01*
X406662Y20551D01*
Y17552D01*
Y20551D01*
X407661Y21551D01*
X408661Y20551D01*
Y17552D01*
X420657Y22550D02*
X419658Y23550D01*
X417658D01*
X416658Y22550D01*
Y21551D01*
X417658Y20551D01*
X419658D01*
X420657Y19552D01*
Y18552D01*
X419658Y17552D01*
X417658D01*
X416658Y18552D01*
X423656Y17552D02*
X425656D01*
X426655Y18552D01*
Y20551D01*
X425656Y21551D01*
X423656D01*
X422656Y20551D01*
Y18552D01*
X423656Y17552D01*
X428655D02*
X430654D01*
X429654D01*
Y23550D01*
X428655D01*
X437652D02*
Y17552D01*
X434653D01*
X433653Y18552D01*
Y20551D01*
X434653Y21551D01*
X437652D01*
X442650Y17552D02*
X440651D01*
X439651Y18552D01*
Y20551D01*
X440651Y21551D01*
X442650D01*
X443650Y20551D01*
Y19552D01*
X439651D01*
X445649Y21551D02*
Y17552D01*
Y19552D01*
X446649Y20551D01*
X447648Y21551D01*
X448648D01*
X376671Y11550D02*
Y5552D01*
X379670D01*
X380670Y6552D01*
Y7552D01*
X379670Y8551D01*
X376671D01*
X379670D01*
X380670Y9551D01*
Y10550D01*
X379670Y11550D01*
X376671D01*
X383669Y5552D02*
X385668D01*
X386668Y6552D01*
Y8551D01*
X385668Y9551D01*
X383669D01*
X382669Y8551D01*
Y6552D01*
X383669Y5552D01*
X389667Y10550D02*
Y9551D01*
X388667D01*
X390667D01*
X389667D01*
Y6552D01*
X390667Y5552D01*
X394666Y10550D02*
Y9551D01*
X393666D01*
X395665D01*
X394666D01*
Y6552D01*
X395665Y5552D01*
X399664D02*
X401663D01*
X402663Y6552D01*
Y8551D01*
X401663Y9551D01*
X399664D01*
X398664Y8551D01*
Y6552D01*
X399664Y5552D01*
X404662D02*
Y9551D01*
X405662D01*
X406662Y8551D01*
Y5552D01*
Y8551D01*
X407661Y9551D01*
X408661Y8551D01*
Y5552D01*
X419658Y11550D02*
X417658D01*
X416658Y10550D01*
Y6552D01*
X417658Y5552D01*
X419658D01*
X420657Y6552D01*
Y10550D01*
X419658Y11550D01*
X422656Y9551D02*
X424656Y5552D01*
X426655Y9551D01*
X431654Y5552D02*
X429654D01*
X428655Y6552D01*
Y8551D01*
X429654Y9551D01*
X431654D01*
X432653Y8551D01*
Y7552D01*
X428655D01*
X434653Y9551D02*
Y5552D01*
Y7552D01*
X435652Y8551D01*
X436652Y9551D01*
X437652D01*
X440651Y5552D02*
X442650D01*
X441650D01*
Y11550D01*
X440651D01*
X446649Y9551D02*
X448648D01*
X449648Y8551D01*
Y5552D01*
X446649D01*
X445649Y6552D01*
X446649Y7552D01*
X449648D01*
X451647Y9551D02*
Y6552D01*
X452647Y5552D01*
X455646D01*
Y4552D01*
X454646Y3553D01*
X453647D01*
X455646Y5552D02*
Y9551D01*
X376671Y185552D02*
Y191550D01*
X380670Y185552D01*
Y191550D01*
X383669Y189551D02*
X385668D01*
X386668Y188551D01*
Y185552D01*
X383669D01*
X382669Y186552D01*
X383669Y187551D01*
X386668D01*
X388667Y185552D02*
Y189551D01*
X389667D01*
X390667Y188551D01*
Y185552D01*
Y188551D01*
X391667Y189551D01*
X392666Y188551D01*
Y185552D01*
X397665D02*
X395665D01*
X394666Y186552D01*
Y188551D01*
X395665Y189551D01*
X397665D01*
X398664Y188551D01*
Y187551D01*
X394666D01*
X335680Y137552D02*
X337680D01*
X336680D01*
Y143550D01*
X335680Y142551D01*
X339679Y101552D02*
X335680D01*
X339679Y105551D01*
Y106551D01*
X338679Y107550D01*
X336680D01*
X335680Y106551D01*
Y82551D02*
X336680Y83550D01*
X338679D01*
X339679Y82551D01*
Y81551D01*
X338679Y80551D01*
X337680D01*
X338679D01*
X339679Y79552D01*
Y78552D01*
X338679Y77552D01*
X336680D01*
X335680Y78552D01*
X338679Y41552D02*
Y47550D01*
X335680Y44551D01*
X339679D01*
X335680Y191550D02*
Y185552D01*
X339679D01*
X342678Y189551D02*
X344677D01*
X345677Y188551D01*
Y185552D01*
X342678D01*
X341678Y186552D01*
X342678Y187551D01*
X345677D01*
X347676Y189551D02*
Y186552D01*
X348676Y185552D01*
X351675D01*
Y184552D01*
X350675Y183553D01*
X349676D01*
X351675Y185552D02*
Y189551D01*
X356673Y185552D02*
X354674D01*
X353674Y186552D01*
Y188551D01*
X354674Y189551D01*
X356673D01*
X357673Y188551D01*
Y187551D01*
X353674D01*
X359672Y189551D02*
Y185552D01*
Y187551D01*
X360672Y188551D01*
X361672Y189551D01*
X362671D01*
D148*
X328680Y-534830D02*
X796556D01*
Y-381982D01*
X728300D02*
X796556D01*
X728300D02*
Y-448D01*
X328680D02*
X728300D01*
X328680Y-534830D02*
Y-448D01*
X796556Y2552D02*
Y194552D01*
X684588Y170552D02*
X796556D01*
X684588Y158552D02*
X796556D01*
X684588Y146552D02*
X796556D01*
X684588Y134552D02*
X796556D01*
X684588Y122552D02*
X796556D01*
X684588Y110552D02*
X796556D01*
X684588Y98552D02*
X796556D01*
X684588Y86552D02*
X796556D01*
X684588Y74552D02*
X796556D01*
X684588Y62552D02*
X796556D01*
X684588Y50552D02*
X796556D01*
X684588Y38552D02*
X796556D01*
X684588Y26552D02*
X796556D01*
X684588Y14552D02*
X796556D01*
X684588Y2552D02*
X796556D01*
X684588D02*
Y194552D01*
X627601Y170552D02*
X684588D01*
X627601Y158552D02*
X684588D01*
X627601Y146552D02*
X684588D01*
X627601Y134552D02*
X684588D01*
X627601Y122552D02*
X684588D01*
X627601Y110552D02*
X684588D01*
X627601Y98552D02*
X684588D01*
X627601Y86552D02*
X684588D01*
X627601Y74552D02*
X684588D01*
X627601Y62552D02*
X684588D01*
X627601Y50552D02*
X684588D01*
X627601Y38552D02*
X684588D01*
X627601Y26552D02*
X684588D01*
X627601Y14552D02*
X684588D01*
X627601Y2552D02*
X684588D01*
X627601D02*
Y194552D01*
X562618Y170552D02*
X627601D01*
X562618Y158552D02*
X627601D01*
X562618Y146552D02*
X627601D01*
X562618Y134552D02*
X627601D01*
X562618Y122552D02*
X627601D01*
X562618Y110552D02*
X627601D01*
X562618Y98552D02*
X627601D01*
X562618Y86552D02*
X627601D01*
X562618Y74552D02*
X627601D01*
X562618Y62552D02*
X627601D01*
X562618Y50552D02*
X627601D01*
X562618Y38552D02*
X627601D01*
X562618Y26552D02*
X627601D01*
X562618Y14552D02*
X627601D01*
X562618Y2552D02*
X627601D01*
X562618D02*
Y194552D01*
X502633Y170552D02*
X562618D01*
X502633Y158552D02*
X562618D01*
X502633Y146552D02*
X562618D01*
X502633Y134552D02*
X562618D01*
X502633Y122552D02*
X562618D01*
X502633Y110552D02*
X562618D01*
X502633Y98552D02*
X562618D01*
X502633Y86552D02*
X562618D01*
X502633Y74552D02*
X562618D01*
X502633Y62552D02*
X562618D01*
X502633Y50552D02*
X562618D01*
X502633Y38552D02*
X562618D01*
X502633Y26552D02*
X562618D01*
X502633Y14552D02*
X562618D01*
X502633Y2552D02*
X562618D01*
X502633D02*
Y194552D01*
X369671Y170552D02*
X502633D01*
X369671Y158552D02*
X502633D01*
X369671Y146552D02*
X502633D01*
X369671Y134552D02*
X502633D01*
X369671Y122552D02*
X502633D01*
X369671Y110552D02*
X502633D01*
X369671Y98552D02*
X502633D01*
X369671Y86552D02*
X502633D01*
X369671Y74552D02*
X502633D01*
X369671Y62552D02*
X502633D01*
X369671Y50552D02*
X502633D01*
X369671Y38552D02*
X502633D01*
X369671Y26552D02*
X502633D01*
X369671Y14552D02*
X502633D01*
X369671Y2552D02*
X502633D01*
X369671D02*
Y194552D01*
X328680Y170552D02*
X369671D01*
X328680Y158552D02*
X369671D01*
X328680Y146552D02*
X369671D01*
X328680Y134552D02*
X369671D01*
X328680Y122552D02*
X369671D01*
X328680Y110552D02*
X369671D01*
X328680Y98552D02*
X369671D01*
X328680Y86552D02*
X369671D01*
X328680Y74552D02*
X369671D01*
X328680Y62552D02*
X369671D01*
X328680Y50552D02*
X369671D01*
X328680Y38552D02*
X369671D01*
X328680Y26552D02*
X369671D01*
X328680Y14552D02*
X369671D01*
X328680Y2552D02*
X369671D01*
X328680D02*
Y194552D01*
X796556D01*
X328680Y182552D02*
X796556D01*
D220*
X328680Y-706D02*
X328992Y-394D01*
X328680Y-6706D02*
X334992Y-394D01*
X328680Y-12706D02*
X340992Y-394D01*
X328680Y-18706D02*
X346992Y-394D01*
X328680Y-24706D02*
X352992Y-394D01*
X328680Y-30706D02*
X358992Y-394D01*
X328680Y-36706D02*
X364992Y-394D01*
X328680Y-42706D02*
X370992Y-394D01*
X328680Y-48706D02*
X376992Y-394D01*
X328680Y-54706D02*
X382992Y-394D01*
X328680Y-60706D02*
X388992Y-394D01*
X328680Y-66706D02*
X394992Y-394D01*
X328680Y-72706D02*
X400992Y-394D01*
X328680Y-78706D02*
X406992Y-394D01*
X328680Y-84706D02*
X412992Y-394D01*
X328680Y-90706D02*
X418992Y-394D01*
X328680Y-96706D02*
X424992Y-394D01*
X328680Y-102706D02*
X430992Y-394D01*
X328680Y-108706D02*
X436992Y-394D01*
X328680Y-114706D02*
X442992Y-394D01*
X328680Y-120706D02*
X448992Y-394D01*
X328680Y-126706D02*
X454992Y-394D01*
X328680Y-132706D02*
X460992Y-394D01*
X328680Y-138706D02*
X466992Y-394D01*
X328680Y-144706D02*
X472992Y-394D01*
X328680Y-150706D02*
X478992Y-394D01*
X328680Y-156706D02*
X484992Y-394D01*
X328680Y-162706D02*
X490992Y-394D01*
X328680Y-168706D02*
X496992Y-394D01*
X328680Y-174706D02*
X502992Y-394D01*
X328680Y-180706D02*
X508992Y-394D01*
X328680Y-186706D02*
X514992Y-394D01*
X328680Y-192706D02*
X520992Y-394D01*
X328680Y-198706D02*
X526992Y-394D01*
X328680Y-204706D02*
X532992Y-394D01*
X328680Y-210706D02*
X538992Y-394D01*
X328680Y-216706D02*
X544992Y-394D01*
X328680Y-222706D02*
X550992Y-394D01*
X328680Y-228706D02*
X556992Y-394D01*
X328680Y-234706D02*
X562992Y-394D01*
X328680Y-240706D02*
X568992Y-394D01*
X328680Y-246706D02*
X574992Y-394D01*
X328680Y-252706D02*
X580992Y-394D01*
X328680Y-258706D02*
X586992Y-394D01*
X328680Y-264706D02*
X592992Y-394D01*
X328680Y-270706D02*
X598992Y-394D01*
X328680Y-276706D02*
X604992Y-394D01*
X328680Y-282706D02*
X610992Y-394D01*
X328680Y-288706D02*
X616992Y-394D01*
X328680Y-294706D02*
X622992Y-394D01*
X328680Y-300706D02*
X628992Y-394D01*
X328680Y-306706D02*
X634992Y-394D01*
X328680Y-312706D02*
X640992Y-394D01*
X328680Y-318706D02*
X646992Y-394D01*
X328680Y-324706D02*
X652992Y-394D01*
X328680Y-330706D02*
X658992Y-394D01*
X328680Y-336706D02*
X664992Y-394D01*
X328680Y-342706D02*
X670992Y-394D01*
X328680Y-348706D02*
X676992Y-394D01*
X328680Y-354706D02*
X682992Y-394D01*
X328680Y-360706D02*
X688992Y-394D01*
X328680Y-366706D02*
X694992Y-394D01*
X328680Y-372706D02*
X700992Y-394D01*
X328680Y-378706D02*
X706992Y-394D01*
X328680Y-384706D02*
X712992Y-394D01*
X328680Y-390706D02*
X718992Y-394D01*
X328680Y-396706D02*
X724992Y-394D01*
X328680Y-402706D02*
X728300Y-3086D01*
X328680Y-408706D02*
X728300Y-9086D01*
X328680Y-414706D02*
X728300Y-15086D01*
X328680Y-420706D02*
X728300Y-21086D01*
X328680Y-426706D02*
X728300Y-27086D01*
X328680Y-432706D02*
X728300Y-33086D01*
X328680Y-438706D02*
X728300Y-39086D01*
X328680Y-444706D02*
X728300Y-45086D01*
X328680Y-450706D02*
X728300Y-51086D01*
X328680Y-456706D02*
X728300Y-57086D01*
X328680Y-462706D02*
X728300Y-63086D01*
X328680Y-468706D02*
X728300Y-69086D01*
X328680Y-474706D02*
X728300Y-75086D01*
X328680Y-480706D02*
X728300Y-81086D01*
X328680Y-486706D02*
X728300Y-87086D01*
X328680Y-492706D02*
X728300Y-93086D01*
X328680Y-498706D02*
X728300Y-99086D01*
X328680Y-504706D02*
X728300Y-105086D01*
X328680Y-510706D02*
X728300Y-111086D01*
X328680Y-516706D02*
X728300Y-117086D01*
X328680Y-522706D02*
X728300Y-123086D01*
X328680Y-528706D02*
X728300Y-129086D01*
X328680Y-534706D02*
X728300Y-135086D01*
X334502Y-534884D02*
X728300Y-141086D01*
X340502Y-534884D02*
X728300Y-147086D01*
X346502Y-534884D02*
X728300Y-153086D01*
X352502Y-534884D02*
X728300Y-159086D01*
X358502Y-534884D02*
X728300Y-165086D01*
X364502Y-534884D02*
X728300Y-171086D01*
X370502Y-534884D02*
X728300Y-177086D01*
X376502Y-534884D02*
X728300Y-183086D01*
X382502Y-534884D02*
X728300Y-189086D01*
X388502Y-534884D02*
X728300Y-195086D01*
X394502Y-534884D02*
X728300Y-201086D01*
X400502Y-534884D02*
X728300Y-207086D01*
X406502Y-534884D02*
X728300Y-213086D01*
X412502Y-534884D02*
X728300Y-219086D01*
X418502Y-534884D02*
X728300Y-225086D01*
X424502Y-534884D02*
X728300Y-231086D01*
X430502Y-534884D02*
X728300Y-237086D01*
X436502Y-534884D02*
X728300Y-243086D01*
X442502Y-534884D02*
X728300Y-249086D01*
X448502Y-534884D02*
X728300Y-255086D01*
X454502Y-534884D02*
X728300Y-261086D01*
X460502Y-534884D02*
X728300Y-267086D01*
X466502Y-534884D02*
X728300Y-273086D01*
X472502Y-534884D02*
X728300Y-279086D01*
X478502Y-534884D02*
X728300Y-285086D01*
X484502Y-534884D02*
X728300Y-291086D01*
X490502Y-534884D02*
X728300Y-297086D01*
X496502Y-534884D02*
X728300Y-303086D01*
X502502Y-534884D02*
X728300Y-309086D01*
X508502Y-534884D02*
X728300Y-315086D01*
X514502Y-534884D02*
X728300Y-321086D01*
X520502Y-534884D02*
X728300Y-327086D01*
X526502Y-534884D02*
X728300Y-333086D01*
X532502Y-534884D02*
X728300Y-339086D01*
X538502Y-534884D02*
X728300Y-345086D01*
X544502Y-534884D02*
X728300Y-351086D01*
X550502Y-534884D02*
X728300Y-357086D01*
X556502Y-534884D02*
X728300Y-363086D01*
X562502Y-534884D02*
X728300Y-369086D01*
X568502Y-534884D02*
X728300Y-375086D01*
X574502Y-534884D02*
X728300Y-381086D01*
X580502Y-534884D02*
X733480Y-381906D01*
X586502Y-534884D02*
X739480Y-381906D01*
X592502Y-534884D02*
X745480Y-381906D01*
X598502Y-534884D02*
X751480Y-381906D01*
X604502Y-534884D02*
X757480Y-381906D01*
X610502Y-534884D02*
X763480Y-381906D01*
X616502Y-534884D02*
X769480Y-381906D01*
X622502Y-534884D02*
X775480Y-381906D01*
X628502Y-534884D02*
X781480Y-381906D01*
X634502Y-534884D02*
X787480Y-381906D01*
X640502Y-534884D02*
X793480Y-381906D01*
X646502Y-534884D02*
X796556Y-384830D01*
X652502Y-534884D02*
X796556Y-390830D01*
X658502Y-534884D02*
X796556Y-396830D01*
X664502Y-534884D02*
X796556Y-402830D01*
X670502Y-534884D02*
X796556Y-408830D01*
X676502Y-534884D02*
X796556Y-414830D01*
X682502Y-534884D02*
X796556Y-420830D01*
X688502Y-534884D02*
X796556Y-426830D01*
X694502Y-534884D02*
X796556Y-432830D01*
X700502Y-534884D02*
X796556Y-438830D01*
X706502Y-534884D02*
X796556Y-444830D01*
X712502Y-534884D02*
X796556Y-450830D01*
X718502Y-534884D02*
X796556Y-456830D01*
X724502Y-534884D02*
X796556Y-462830D01*
X730502Y-534884D02*
X796556Y-468830D01*
X736502Y-534884D02*
X796556Y-474830D01*
X742502Y-534884D02*
X796556Y-480830D01*
X748502Y-534884D02*
X796556Y-486830D01*
X754502Y-534884D02*
X796556Y-492830D01*
X760502Y-534884D02*
X796556Y-498830D01*
X766502Y-534884D02*
X796556Y-504830D01*
X772502Y-534884D02*
X796556Y-510830D01*
X778502Y-534884D02*
X796556Y-516830D01*
X784502Y-534884D02*
X796556Y-522830D01*
X790502Y-534884D02*
X796556Y-528830D01*
X684588Y178584D02*
X688556Y182552D01*
X684588Y172584D02*
X694556Y182552D01*
X688556Y170552D02*
X700556Y182552D01*
X694556Y170552D02*
X706556Y182552D01*
X700556Y170552D02*
X712556Y182552D01*
X706556Y170552D02*
X718556Y182552D01*
X712556Y170552D02*
X724556Y182552D01*
X718556Y170552D02*
X730556Y182552D01*
X724556Y170552D02*
X736556Y182552D01*
X730556Y170552D02*
X742556Y182552D01*
X736556Y170552D02*
X748556Y182552D01*
X742556Y170552D02*
X754556Y182552D01*
X748556Y170552D02*
X760556Y182552D01*
X754556Y170552D02*
X766556Y182552D01*
X760556Y170552D02*
X772556Y182552D01*
X766556Y170552D02*
X778556Y182552D01*
X772556Y170552D02*
X784556Y182552D01*
X778556Y170552D02*
X790556Y182552D01*
X784556Y170552D02*
X796556Y182552D01*
X790556Y170552D02*
X796556Y176552D01*
X684588Y166584D02*
X688556Y170552D01*
X684588Y160584D02*
X694556Y170552D01*
X688556Y158552D02*
X700556Y170552D01*
X694556Y158552D02*
X706556Y170552D01*
X700556Y158552D02*
X712556Y170552D01*
X706556Y158552D02*
X718556Y170552D01*
X712556Y158552D02*
X724556Y170552D01*
X718556Y158552D02*
X730556Y170552D01*
X724556Y158552D02*
X736556Y170552D01*
X730556Y158552D02*
X742556Y170552D01*
X736556Y158552D02*
X748556Y170552D01*
X742556Y158552D02*
X754556Y170552D01*
X748556Y158552D02*
X760556Y170552D01*
X754556Y158552D02*
X766556Y170552D01*
X760556Y158552D02*
X772556Y170552D01*
X766556Y158552D02*
X778556Y170552D01*
X772556Y158552D02*
X784556Y170552D01*
X778556Y158552D02*
X790556Y170552D01*
X784556Y158552D02*
X796556Y170552D01*
X790556Y158552D02*
X796556Y164552D01*
X684588Y154584D02*
X688556Y158552D01*
X684588Y148584D02*
X694556Y158552D01*
X688556Y146552D02*
X700556Y158552D01*
X694556Y146552D02*
X706556Y158552D01*
X700556Y146552D02*
X712556Y158552D01*
X706556Y146552D02*
X718556Y158552D01*
X712556Y146552D02*
X724556Y158552D01*
X718556Y146552D02*
X730556Y158552D01*
X724556Y146552D02*
X736556Y158552D01*
X730556Y146552D02*
X742556Y158552D01*
X736556Y146552D02*
X748556Y158552D01*
X742556Y146552D02*
X754556Y158552D01*
X748556Y146552D02*
X760556Y158552D01*
X754556Y146552D02*
X766556Y158552D01*
X760556Y146552D02*
X772556Y158552D01*
X766556Y146552D02*
X778556Y158552D01*
X772556Y146552D02*
X784556Y158552D01*
X778556Y146552D02*
X790556Y158552D01*
X784556Y146552D02*
X796556Y158552D01*
X790556Y146552D02*
X796556Y152552D01*
X684588Y142584D02*
X688556Y146552D01*
X684588Y136584D02*
X694556Y146552D01*
X688556Y134552D02*
X700556Y146552D01*
X694556Y134552D02*
X706556Y146552D01*
X700556Y134552D02*
X712556Y146552D01*
X706556Y134552D02*
X718556Y146552D01*
X712556Y134552D02*
X724556Y146552D01*
X718556Y134552D02*
X730556Y146552D01*
X724556Y134552D02*
X736556Y146552D01*
X730556Y134552D02*
X742556Y146552D01*
X736556Y134552D02*
X748556Y146552D01*
X742556Y134552D02*
X754556Y146552D01*
X748556Y134552D02*
X760556Y146552D01*
X754556Y134552D02*
X766556Y146552D01*
X760556Y134552D02*
X772556Y146552D01*
X766556Y134552D02*
X778556Y146552D01*
X772556Y134552D02*
X784556Y146552D01*
X778556Y134552D02*
X790556Y146552D01*
X784556Y134552D02*
X796556Y146552D01*
X790556Y134552D02*
X796556Y140552D01*
X684588Y130584D02*
X688556Y134552D01*
X684588Y124584D02*
X694556Y134552D01*
X688556Y122552D02*
X700556Y134552D01*
X694556Y122552D02*
X706556Y134552D01*
X700556Y122552D02*
X712556Y134552D01*
X706556Y122552D02*
X718556Y134552D01*
X712556Y122552D02*
X724556Y134552D01*
X718556Y122552D02*
X730556Y134552D01*
X724556Y122552D02*
X736556Y134552D01*
X730556Y122552D02*
X742556Y134552D01*
X736556Y122552D02*
X748556Y134552D01*
X742556Y122552D02*
X754556Y134552D01*
X748556Y122552D02*
X760556Y134552D01*
X754556Y122552D02*
X766556Y134552D01*
X760556Y122552D02*
X772556Y134552D01*
X766556Y122552D02*
X778556Y134552D01*
X772556Y122552D02*
X784556Y134552D01*
X778556Y122552D02*
X790556Y134552D01*
X784556Y122552D02*
X796556Y134552D01*
X790556Y122552D02*
X796556Y128552D01*
X684588Y118584D02*
X688556Y122552D01*
X684588Y112584D02*
X694556Y122552D01*
X688556Y110552D02*
X700556Y122552D01*
X694556Y110552D02*
X706556Y122552D01*
X700556Y110552D02*
X712556Y122552D01*
X706556Y110552D02*
X718556Y122552D01*
X712556Y110552D02*
X724556Y122552D01*
X718556Y110552D02*
X730556Y122552D01*
X724556Y110552D02*
X736556Y122552D01*
X730556Y110552D02*
X742556Y122552D01*
X736556Y110552D02*
X748556Y122552D01*
X742556Y110552D02*
X754556Y122552D01*
X748556Y110552D02*
X760556Y122552D01*
X754556Y110552D02*
X766556Y122552D01*
X760556Y110552D02*
X772556Y122552D01*
X766556Y110552D02*
X778556Y122552D01*
X772556Y110552D02*
X784556Y122552D01*
X778556Y110552D02*
X790556Y122552D01*
X784556Y110552D02*
X796556Y122552D01*
X790556Y110552D02*
X796556Y116552D01*
X684588Y106584D02*
X688556Y110552D01*
X684588Y100584D02*
X694556Y110552D01*
X688556Y98552D02*
X700556Y110552D01*
X694556Y98552D02*
X706556Y110552D01*
X700556Y98552D02*
X712556Y110552D01*
X706556Y98552D02*
X718556Y110552D01*
X712556Y98552D02*
X724556Y110552D01*
X718556Y98552D02*
X730556Y110552D01*
X724556Y98552D02*
X736556Y110552D01*
X730556Y98552D02*
X742556Y110552D01*
X736556Y98552D02*
X748556Y110552D01*
X742556Y98552D02*
X754556Y110552D01*
X748556Y98552D02*
X760556Y110552D01*
X754556Y98552D02*
X766556Y110552D01*
X760556Y98552D02*
X772556Y110552D01*
X766556Y98552D02*
X778556Y110552D01*
X772556Y98552D02*
X784556Y110552D01*
X778556Y98552D02*
X790556Y110552D01*
X784556Y98552D02*
X796556Y110552D01*
X790556Y98552D02*
X796556Y104552D01*
X684588Y94584D02*
X688556Y98552D01*
X684588Y88584D02*
X694556Y98552D01*
X688556Y86552D02*
X700556Y98552D01*
X694556Y86552D02*
X706556Y98552D01*
X700556Y86552D02*
X712556Y98552D01*
X706556Y86552D02*
X718556Y98552D01*
X712556Y86552D02*
X724556Y98552D01*
X718556Y86552D02*
X730556Y98552D01*
X724556Y86552D02*
X736556Y98552D01*
X730556Y86552D02*
X742556Y98552D01*
X736556Y86552D02*
X748556Y98552D01*
X742556Y86552D02*
X754556Y98552D01*
X748556Y86552D02*
X760556Y98552D01*
X754556Y86552D02*
X766556Y98552D01*
X760556Y86552D02*
X772556Y98552D01*
X766556Y86552D02*
X778556Y98552D01*
X772556Y86552D02*
X784556Y98552D01*
X778556Y86552D02*
X790556Y98552D01*
X784556Y86552D02*
X796556Y98552D01*
X790556Y86552D02*
X796556Y92552D01*
X684588Y82584D02*
X688556Y86552D01*
X684588Y76584D02*
X694556Y86552D01*
X688556Y74552D02*
X700556Y86552D01*
X694556Y74552D02*
X706556Y86552D01*
X700556Y74552D02*
X712556Y86552D01*
X706556Y74552D02*
X718556Y86552D01*
X712556Y74552D02*
X724556Y86552D01*
X718556Y74552D02*
X730556Y86552D01*
X724556Y74552D02*
X736556Y86552D01*
X730556Y74552D02*
X742556Y86552D01*
X736556Y74552D02*
X748556Y86552D01*
X742556Y74552D02*
X754556Y86552D01*
X748556Y74552D02*
X760556Y86552D01*
X754556Y74552D02*
X766556Y86552D01*
X760556Y74552D02*
X772556Y86552D01*
X766556Y74552D02*
X778556Y86552D01*
X772556Y74552D02*
X784556Y86552D01*
X778556Y74552D02*
X790556Y86552D01*
X784556Y74552D02*
X796556Y86552D01*
X790556Y74552D02*
X796556Y80552D01*
X684588Y70584D02*
X688556Y74552D01*
X684588Y64584D02*
X694556Y74552D01*
X688556Y62552D02*
X700556Y74552D01*
X694556Y62552D02*
X706556Y74552D01*
X700556Y62552D02*
X712556Y74552D01*
X706556Y62552D02*
X718556Y74552D01*
X712556Y62552D02*
X724556Y74552D01*
X718556Y62552D02*
X730556Y74552D01*
X724556Y62552D02*
X736556Y74552D01*
X730556Y62552D02*
X742556Y74552D01*
X736556Y62552D02*
X748556Y74552D01*
X742556Y62552D02*
X754556Y74552D01*
X748556Y62552D02*
X760556Y74552D01*
X754556Y62552D02*
X766556Y74552D01*
X760556Y62552D02*
X772556Y74552D01*
X766556Y62552D02*
X778556Y74552D01*
X772556Y62552D02*
X784556Y74552D01*
X778556Y62552D02*
X790556Y74552D01*
X784556Y62552D02*
X796556Y74552D01*
X790556Y62552D02*
X796556Y68552D01*
X684588Y58584D02*
X688556Y62552D01*
X684588Y52584D02*
X694556Y62552D01*
X688556Y50552D02*
X700556Y62552D01*
X694556Y50552D02*
X706556Y62552D01*
X700556Y50552D02*
X712556Y62552D01*
X706556Y50552D02*
X718556Y62552D01*
X712556Y50552D02*
X724556Y62552D01*
X718556Y50552D02*
X730556Y62552D01*
X724556Y50552D02*
X736556Y62552D01*
X730556Y50552D02*
X742556Y62552D01*
X736556Y50552D02*
X748556Y62552D01*
X742556Y50552D02*
X754556Y62552D01*
X748556Y50552D02*
X760556Y62552D01*
X754556Y50552D02*
X766556Y62552D01*
X760556Y50552D02*
X772556Y62552D01*
X766556Y50552D02*
X778556Y62552D01*
X772556Y50552D02*
X784556Y62552D01*
X778556Y50552D02*
X790556Y62552D01*
X784556Y50552D02*
X796556Y62552D01*
X790556Y50552D02*
X796556Y56552D01*
X684588Y46584D02*
X688556Y50552D01*
X684588Y40584D02*
X694556Y50552D01*
X688556Y38552D02*
X700556Y50552D01*
X694556Y38552D02*
X706556Y50552D01*
X700556Y38552D02*
X712556Y50552D01*
X706556Y38552D02*
X718556Y50552D01*
X712556Y38552D02*
X724556Y50552D01*
X718556Y38552D02*
X730556Y50552D01*
X724556Y38552D02*
X736556Y50552D01*
X730556Y38552D02*
X742556Y50552D01*
X736556Y38552D02*
X748556Y50552D01*
X742556Y38552D02*
X754556Y50552D01*
X748556Y38552D02*
X760556Y50552D01*
X754556Y38552D02*
X766556Y50552D01*
X760556Y38552D02*
X772556Y50552D01*
X766556Y38552D02*
X778556Y50552D01*
X772556Y38552D02*
X784556Y50552D01*
X778556Y38552D02*
X790556Y50552D01*
X784556Y38552D02*
X796556Y50552D01*
X790556Y38552D02*
X796556Y44552D01*
X684588Y34584D02*
X688556Y38552D01*
X684588Y28584D02*
X694556Y38552D01*
X688556Y26552D02*
X700556Y38552D01*
X694556Y26552D02*
X706556Y38552D01*
X700556Y26552D02*
X712556Y38552D01*
X706556Y26552D02*
X718556Y38552D01*
X712556Y26552D02*
X724556Y38552D01*
X718556Y26552D02*
X730556Y38552D01*
X724556Y26552D02*
X736556Y38552D01*
X730556Y26552D02*
X742556Y38552D01*
X736556Y26552D02*
X748556Y38552D01*
X742556Y26552D02*
X754556Y38552D01*
X748556Y26552D02*
X760556Y38552D01*
X754556Y26552D02*
X766556Y38552D01*
X760556Y26552D02*
X772556Y38552D01*
X766556Y26552D02*
X778556Y38552D01*
X772556Y26552D02*
X784556Y38552D01*
X778556Y26552D02*
X790556Y38552D01*
X784556Y26552D02*
X796556Y38552D01*
X790556Y26552D02*
X796556Y32552D01*
X684588Y22584D02*
X688556Y26552D01*
X684588Y16584D02*
X694556Y26552D01*
X688556Y14552D02*
X700556Y26552D01*
X694556Y14552D02*
X706556Y26552D01*
X700556Y14552D02*
X712556Y26552D01*
X706556Y14552D02*
X718556Y26552D01*
X712556Y14552D02*
X724556Y26552D01*
X718556Y14552D02*
X730556Y26552D01*
X724556Y14552D02*
X736556Y26552D01*
X730556Y14552D02*
X742556Y26552D01*
X736556Y14552D02*
X748556Y26552D01*
X742556Y14552D02*
X754556Y26552D01*
X748556Y14552D02*
X760556Y26552D01*
X754556Y14552D02*
X766556Y26552D01*
X760556Y14552D02*
X772556Y26552D01*
X766556Y14552D02*
X778556Y26552D01*
X772556Y14552D02*
X784556Y26552D01*
X778556Y14552D02*
X790556Y26552D01*
X784556Y14552D02*
X796556Y26552D01*
X790556Y14552D02*
X796556Y20552D01*
X684588Y10584D02*
X688556Y14552D01*
X684588Y4584D02*
X694556Y14552D01*
X688556Y2552D02*
X700556Y14552D01*
X694556Y2552D02*
X706556Y14552D01*
X700556Y2552D02*
X712556Y14552D01*
X706556Y2552D02*
X718556Y14552D01*
X712556Y2552D02*
X724556Y14552D01*
X718556Y2552D02*
X730556Y14552D01*
X724556Y2552D02*
X736556Y14552D01*
X730556Y2552D02*
X742556Y14552D01*
X736556Y2552D02*
X748556Y14552D01*
X742556Y2552D02*
X754556Y14552D01*
X748556Y2552D02*
X760556Y14552D01*
X754556Y2552D02*
X766556Y14552D01*
X760556Y2552D02*
X772556Y14552D01*
X766556Y2552D02*
X778556Y14552D01*
X772556Y2552D02*
X784556Y14552D01*
X778556Y2552D02*
X790556Y14552D01*
X784556Y2552D02*
X796556Y14552D01*
X790556Y2552D02*
X796556Y8552D01*
D221*
X16535Y93701D02*
X16535Y25197D01*
X16535Y93701D02*
X18504Y94095D01*
X18110Y25197D02*
X18504Y94095D01*
X14961Y25197D02*
X18110D01*
X14961D02*
Y93701D01*
X12205D02*
X14961D01*
X12205Y25197D02*
Y93701D01*
X9449Y25197D02*
X12205D01*
X9449D02*
Y94095D01*
X6693D02*
X9449D01*
X6693Y25197D02*
Y94095D01*
X4724Y25197D02*
X6693D01*
X4724D02*
Y94095D01*
X2756D02*
X4724D01*
X2756D02*
X3150Y25591D01*
X787D02*
X3150D01*
X787D02*
Y93307D01*
D222*
X-787Y24803D02*
Y94882D01*
X260630Y103937D02*
X270472D01*
X251969D02*
X257480D01*
X243307D02*
X248819D01*
X233465D02*
X240158D01*
X233465Y-394D02*
Y7480D01*
Y10630D02*
Y16142D01*
Y19291D02*
Y24803D01*
Y27953D02*
Y33465D01*
Y36614D02*
Y42126D01*
Y45276D02*
Y50787D01*
Y53937D02*
Y59449D01*
Y62598D02*
Y68110D01*
Y71260D02*
Y76378D01*
Y79528D02*
Y85433D01*
Y88583D02*
Y94095D01*
Y97244D02*
Y103937D01*
X270472D02*
X316535D01*
Y-787D02*
Y103937D01*
X-787Y-787D02*
X316535D01*
X-787D02*
Y24016D01*
Y26378D02*
Y27559D01*
Y24016D02*
Y25591D01*
Y24016D02*
X20079D01*
X20472Y94882D01*
X-787D02*
X20472D01*
X-787D02*
Y361417D01*
X270472D01*
Y103937D02*
Y361417D01*
M02*
