G04*
G04 #@! TF.GenerationSoftware,Altium Limited,Altium Designer,22.1.2 (22)*
G04*
G04 Layer_Color=65535*
%FSLAX25Y25*%
%MOIN*%
G70*
G04*
G04 #@! TF.SameCoordinates,BB4BA718-9431-4743-B970-F4C87B48E952*
G04*
G04*
G04 #@! TF.FilePolarity,Positive*
G04*
G01*
G75*
%ADD10C,0.00787*%
%ADD11C,0.01181*%
%ADD12C,0.01575*%
%ADD13C,0.00394*%
%ADD14C,0.01000*%
%ADD15C,0.00591*%
%ADD16R,0.14173X0.02953*%
G36*
X311457Y96358D02*
X311555D01*
Y96339D01*
X311614D01*
Y96319D01*
X311653D01*
Y96299D01*
X311693D01*
Y96280D01*
X311732D01*
Y96260D01*
X311752D01*
Y96240D01*
X311772D01*
Y96220D01*
X311791D01*
Y96201D01*
X311811D01*
Y96181D01*
X311831D01*
Y96161D01*
X311850D01*
Y96142D01*
X311870D01*
Y96122D01*
X311890D01*
Y96083D01*
X311910D01*
Y96063D01*
X311929D01*
Y96024D01*
X311949D01*
Y95965D01*
X311968D01*
Y95906D01*
X311988D01*
Y94331D01*
X311968D01*
Y94232D01*
X311949D01*
Y94173D01*
X311929D01*
Y94114D01*
X311910D01*
Y94075D01*
X311890D01*
Y94035D01*
X311870D01*
Y93996D01*
X311850D01*
Y93957D01*
X311831D01*
Y93937D01*
X311811D01*
Y93898D01*
X311791D01*
Y93878D01*
X311772D01*
Y93839D01*
X311752D01*
Y93819D01*
X311732D01*
Y93799D01*
X311713D01*
Y93779D01*
X311693D01*
Y93760D01*
X311673D01*
Y93740D01*
X311653D01*
Y93721D01*
X311634D01*
Y93701D01*
X311614D01*
Y93681D01*
X311575D01*
Y93661D01*
X311555D01*
Y93642D01*
X311535D01*
Y93622D01*
X311496D01*
Y93602D01*
X311457D01*
Y93583D01*
X311437D01*
Y93563D01*
X311398D01*
Y93543D01*
X311358D01*
Y93524D01*
X311299D01*
Y93504D01*
X311240D01*
Y93484D01*
X311181D01*
Y93465D01*
X311063D01*
Y93445D01*
X310807D01*
Y93465D01*
X310689D01*
Y93484D01*
X310610D01*
Y93504D01*
X310551D01*
Y93524D01*
X310512D01*
Y93543D01*
X310472D01*
Y93563D01*
X310433D01*
Y93583D01*
X310394D01*
Y93602D01*
X310354D01*
Y93622D01*
X310335D01*
Y93642D01*
X310295D01*
Y93661D01*
X310276D01*
Y93681D01*
X310256D01*
Y93701D01*
X310216D01*
Y93721D01*
X310197D01*
Y93740D01*
X310177D01*
Y93760D01*
X310157D01*
Y93779D01*
X310138D01*
Y93819D01*
X310118D01*
Y93839D01*
X310098D01*
Y93858D01*
X310079D01*
Y93878D01*
X310059D01*
Y93917D01*
X310039D01*
Y93937D01*
X310020D01*
Y93976D01*
X310000D01*
Y94016D01*
X309980D01*
Y94055D01*
X309961D01*
Y94095D01*
X309941D01*
Y94134D01*
X309921D01*
Y94193D01*
X309902D01*
Y94252D01*
X309882D01*
Y94370D01*
X309862D01*
Y95650D01*
Y95669D01*
Y95866D01*
X309882D01*
Y95945D01*
X309902D01*
Y96004D01*
X309921D01*
Y96043D01*
X309941D01*
Y96083D01*
X309961D01*
Y96102D01*
X309980D01*
Y96142D01*
X310000D01*
Y96161D01*
X310020D01*
Y96181D01*
X310039D01*
Y96201D01*
X310059D01*
Y96220D01*
X310079D01*
Y96240D01*
X310098D01*
Y96260D01*
X310138D01*
Y96280D01*
X310157D01*
Y96299D01*
X310197D01*
Y96319D01*
X310236D01*
Y96339D01*
X310295D01*
Y96358D01*
X310394D01*
Y96378D01*
X311457D01*
Y96358D01*
D02*
G37*
G36*
X308071Y95965D02*
X308150D01*
Y95945D01*
X308189D01*
Y95925D01*
X308209D01*
Y95906D01*
X308228D01*
Y95886D01*
X308248D01*
Y95866D01*
X308268D01*
Y95846D01*
X308287D01*
Y95807D01*
X308307D01*
Y95768D01*
X308327D01*
Y95591D01*
X308307D01*
Y95512D01*
X308287D01*
Y95453D01*
X308268D01*
Y95354D01*
X308248D01*
Y95256D01*
X308228D01*
Y95138D01*
X308209D01*
Y94961D01*
X308189D01*
Y94508D01*
X308209D01*
Y94311D01*
X308228D01*
Y94193D01*
X308248D01*
Y94095D01*
X308268D01*
Y94016D01*
X308287D01*
Y93937D01*
X308307D01*
Y93858D01*
X308327D01*
Y93799D01*
X308347D01*
Y93740D01*
X308366D01*
Y93701D01*
X308386D01*
Y93642D01*
X308405D01*
Y93583D01*
X308425D01*
Y93543D01*
X308445D01*
Y93504D01*
X308465D01*
Y93465D01*
X308484D01*
Y93425D01*
X308504D01*
Y93386D01*
X308524D01*
Y93347D01*
X308543D01*
Y93307D01*
X308563D01*
Y93268D01*
X308583D01*
Y93228D01*
X308602D01*
Y93209D01*
X308622D01*
Y93169D01*
X308642D01*
Y93130D01*
X308661D01*
Y93110D01*
X308681D01*
Y93071D01*
X308701D01*
Y93051D01*
X308720D01*
Y93032D01*
X308740D01*
Y92992D01*
X308760D01*
Y92972D01*
X308780D01*
Y92953D01*
X308799D01*
Y92913D01*
X308819D01*
Y92894D01*
X308839D01*
Y92874D01*
X308858D01*
Y92854D01*
X308878D01*
Y92835D01*
X308898D01*
Y92795D01*
X308917D01*
Y92776D01*
X308937D01*
Y92756D01*
X308957D01*
Y92736D01*
X308976D01*
Y92716D01*
X308996D01*
Y92697D01*
X309016D01*
Y92677D01*
X309035D01*
Y92658D01*
X309055D01*
Y92638D01*
X309075D01*
Y92618D01*
X309114D01*
Y92598D01*
X309134D01*
Y92579D01*
X309154D01*
Y92559D01*
X309173D01*
Y92539D01*
X309193D01*
Y92520D01*
X309232D01*
Y92500D01*
X309252D01*
Y92480D01*
X309272D01*
Y92461D01*
X309311D01*
Y92441D01*
X309331D01*
Y92421D01*
X309370D01*
Y92402D01*
X309390D01*
Y92382D01*
X309429D01*
Y92362D01*
X309449D01*
Y92343D01*
X309488D01*
Y92323D01*
X309528D01*
Y92303D01*
X309567D01*
Y92283D01*
X309606D01*
Y92264D01*
X309646D01*
Y92244D01*
X309685D01*
Y92224D01*
X309724D01*
Y92205D01*
X309744D01*
Y92185D01*
X309764D01*
Y92165D01*
X309784D01*
Y92146D01*
X309803D01*
Y92126D01*
X309823D01*
Y92087D01*
X309842D01*
Y92008D01*
X309862D01*
Y91909D01*
X309842D01*
Y91850D01*
X309823D01*
Y91811D01*
X309803D01*
Y91772D01*
X309784D01*
Y91752D01*
X309764D01*
Y91732D01*
X309744D01*
Y91713D01*
X309705D01*
Y91693D01*
X309665D01*
Y91673D01*
X309606D01*
Y91654D01*
X309508D01*
Y91673D01*
X309429D01*
Y91693D01*
X309390D01*
Y91713D01*
X309350D01*
Y91732D01*
X309311D01*
Y91752D01*
X309272D01*
Y91772D01*
X309232D01*
Y91791D01*
X309193D01*
Y91811D01*
X309173D01*
Y91831D01*
X309134D01*
Y91850D01*
X309095D01*
Y91870D01*
X309075D01*
Y91890D01*
X309035D01*
Y91909D01*
X308996D01*
Y91929D01*
X308976D01*
Y91949D01*
X308957D01*
Y91969D01*
X308917D01*
Y91988D01*
X308898D01*
Y92008D01*
X308878D01*
Y92028D01*
X308839D01*
Y92047D01*
X308819D01*
Y92067D01*
X308799D01*
Y92087D01*
X308760D01*
Y92106D01*
X308740D01*
Y92126D01*
X308720D01*
Y92146D01*
X308701D01*
Y92165D01*
X308681D01*
Y92185D01*
X308661D01*
Y92205D01*
X308642D01*
Y92224D01*
X308622D01*
Y92244D01*
X308602D01*
Y92264D01*
X308583D01*
Y92283D01*
X308563D01*
Y92303D01*
X308543D01*
Y92323D01*
X308524D01*
Y92343D01*
X308504D01*
Y92362D01*
X308484D01*
Y92382D01*
X308465D01*
Y92402D01*
X308445D01*
Y92421D01*
X308425D01*
Y92441D01*
X308405D01*
Y92461D01*
X308386D01*
Y92480D01*
X308366D01*
Y92520D01*
X308347D01*
Y92539D01*
X308327D01*
Y92559D01*
X308307D01*
Y92579D01*
X308287D01*
Y92618D01*
X308268D01*
Y92638D01*
X308248D01*
Y92658D01*
X308228D01*
Y92697D01*
X308209D01*
Y92716D01*
X308189D01*
Y92756D01*
X308169D01*
Y92776D01*
X308150D01*
Y92815D01*
X308130D01*
Y92835D01*
X308110D01*
Y92874D01*
X308090D01*
Y92913D01*
X308071D01*
Y92933D01*
X308051D01*
Y92972D01*
X308032D01*
Y93012D01*
X308012D01*
Y93051D01*
X307992D01*
Y93091D01*
X307972D01*
Y93130D01*
X307953D01*
Y93169D01*
X307933D01*
Y93209D01*
X307913D01*
Y93248D01*
X307894D01*
Y93287D01*
X307874D01*
Y93327D01*
X307854D01*
Y93386D01*
X307835D01*
Y93425D01*
X307815D01*
Y93484D01*
X307795D01*
Y93543D01*
X307776D01*
Y93602D01*
X307756D01*
Y93661D01*
X307736D01*
Y93721D01*
X307716D01*
Y93799D01*
X307697D01*
Y93858D01*
X307677D01*
Y93957D01*
X307658D01*
Y94055D01*
X307638D01*
Y94153D01*
X307618D01*
Y94311D01*
X307598D01*
Y94528D01*
X307579D01*
Y94941D01*
X307598D01*
Y95157D01*
X307618D01*
Y95295D01*
X307638D01*
Y95413D01*
X307658D01*
Y95512D01*
X307677D01*
Y95591D01*
X307697D01*
Y95669D01*
X307716D01*
Y95748D01*
X307736D01*
Y95787D01*
X307756D01*
Y95827D01*
X307776D01*
Y95866D01*
X307795D01*
Y95886D01*
X307815D01*
Y95906D01*
X307835D01*
Y95925D01*
X307874D01*
Y95945D01*
X307913D01*
Y95965D01*
X307972D01*
Y95984D01*
X308071D01*
Y95965D01*
D02*
G37*
G36*
X306339Y96457D02*
X306398D01*
Y96437D01*
X306417D01*
Y96417D01*
X306457D01*
Y96398D01*
X306476D01*
Y96378D01*
X306496D01*
Y96339D01*
X306516D01*
Y96299D01*
X306535D01*
Y96260D01*
X306555D01*
Y96102D01*
X306535D01*
Y96043D01*
X306516D01*
Y95984D01*
X306496D01*
Y95925D01*
X306476D01*
Y95866D01*
X306457D01*
Y95807D01*
X306437D01*
Y95748D01*
X306417D01*
Y95669D01*
X306398D01*
Y95591D01*
X306378D01*
Y95512D01*
X306358D01*
Y95413D01*
X306339D01*
Y95315D01*
X306319D01*
Y95197D01*
X306299D01*
Y95039D01*
X306279D01*
Y94803D01*
X306260D01*
Y94311D01*
X306279D01*
Y94075D01*
X306299D01*
Y93917D01*
X306319D01*
Y93799D01*
X306339D01*
Y93701D01*
X306358D01*
Y93602D01*
X306378D01*
Y93524D01*
X306398D01*
Y93445D01*
X306417D01*
Y93366D01*
X306437D01*
Y93307D01*
X306457D01*
Y93228D01*
X306476D01*
Y93169D01*
X306496D01*
Y93110D01*
X306516D01*
Y93051D01*
X306535D01*
Y93012D01*
X306555D01*
Y92953D01*
X306575D01*
Y92913D01*
X306594D01*
Y92854D01*
X306614D01*
Y92815D01*
X306634D01*
Y92776D01*
X306653D01*
Y92716D01*
X306673D01*
Y92677D01*
X306693D01*
Y92638D01*
X306713D01*
Y92598D01*
X306732D01*
Y92559D01*
X306752D01*
Y92520D01*
X306772D01*
Y92480D01*
X306791D01*
Y92441D01*
X306811D01*
Y92402D01*
X306831D01*
Y92382D01*
X306850D01*
Y92343D01*
X306870D01*
Y92303D01*
X306890D01*
Y92283D01*
X306909D01*
Y92244D01*
X306929D01*
Y92205D01*
X306949D01*
Y92185D01*
X306968D01*
Y92146D01*
X306988D01*
Y92126D01*
X307008D01*
Y92087D01*
X307028D01*
Y92067D01*
X307047D01*
Y92028D01*
X307067D01*
Y92008D01*
X307087D01*
Y91969D01*
X307106D01*
Y91949D01*
X307126D01*
Y91929D01*
X307146D01*
Y91890D01*
X307165D01*
Y91870D01*
X307185D01*
Y91850D01*
X307205D01*
Y91811D01*
X307224D01*
Y91791D01*
X307244D01*
Y91772D01*
X307264D01*
Y91752D01*
X307283D01*
Y91713D01*
X307303D01*
Y91693D01*
X307323D01*
Y91673D01*
X307343D01*
Y91654D01*
X307362D01*
Y91634D01*
X307382D01*
Y91614D01*
X307402D01*
Y91594D01*
X307421D01*
Y91575D01*
X307441D01*
Y91535D01*
X307461D01*
Y91516D01*
X307480D01*
Y91496D01*
X307500D01*
Y91476D01*
X307520D01*
Y91457D01*
X307539D01*
Y91437D01*
X307559D01*
Y91417D01*
X307579D01*
Y91398D01*
X307598D01*
Y91378D01*
X307618D01*
Y91358D01*
X307638D01*
Y91339D01*
X307658D01*
Y91319D01*
X307697D01*
Y91299D01*
X307716D01*
Y91280D01*
X307736D01*
Y91260D01*
X307756D01*
Y91240D01*
X307776D01*
Y91220D01*
X307795D01*
Y91201D01*
X307815D01*
Y91181D01*
X307854D01*
Y91161D01*
X307874D01*
Y91142D01*
X307894D01*
Y91122D01*
X307913D01*
Y91102D01*
X307933D01*
Y91083D01*
X307972D01*
Y91063D01*
X307992D01*
Y91043D01*
X308012D01*
Y91024D01*
X308051D01*
Y91004D01*
X308071D01*
Y90984D01*
X308090D01*
Y90965D01*
X308130D01*
Y90945D01*
X308150D01*
Y90925D01*
X308189D01*
Y90905D01*
X308209D01*
Y90886D01*
X308248D01*
Y90866D01*
X308268D01*
Y90847D01*
X308307D01*
Y90827D01*
X308327D01*
Y90807D01*
X308366D01*
Y90787D01*
X308405D01*
Y90768D01*
X308425D01*
Y90748D01*
X308465D01*
Y90728D01*
X308504D01*
Y90709D01*
X308543D01*
Y90689D01*
X308563D01*
Y90669D01*
X308602D01*
Y90650D01*
X308642D01*
Y90630D01*
X308681D01*
Y90610D01*
X308720D01*
Y90591D01*
X308760D01*
Y90571D01*
X308799D01*
Y90551D01*
X308858D01*
Y90531D01*
X308898D01*
Y90512D01*
X308937D01*
Y90492D01*
X308976D01*
Y90473D01*
X309016D01*
Y90453D01*
X309035D01*
Y90433D01*
X309055D01*
Y90394D01*
X309075D01*
Y90354D01*
X309095D01*
Y90315D01*
X309114D01*
Y90138D01*
X309095D01*
Y90098D01*
X309075D01*
Y90059D01*
X309055D01*
Y90039D01*
X309035D01*
Y90020D01*
X309016D01*
Y90000D01*
X308996D01*
Y89980D01*
X308976D01*
Y89961D01*
X308937D01*
Y89941D01*
X308858D01*
Y89921D01*
X308760D01*
Y89941D01*
X308701D01*
Y89961D01*
X308642D01*
Y89980D01*
X308602D01*
Y90000D01*
X308563D01*
Y90020D01*
X308524D01*
Y90039D01*
X308484D01*
Y90059D01*
X308425D01*
Y90079D01*
X308405D01*
Y90098D01*
X308366D01*
Y90118D01*
X308327D01*
Y90138D01*
X308287D01*
Y90158D01*
X308248D01*
Y90177D01*
X308209D01*
Y90197D01*
X308169D01*
Y90216D01*
X308150D01*
Y90236D01*
X308110D01*
Y90256D01*
X308071D01*
Y90276D01*
X308032D01*
Y90295D01*
X308012D01*
Y90315D01*
X307972D01*
Y90335D01*
X307953D01*
Y90354D01*
X307913D01*
Y90374D01*
X307894D01*
Y90394D01*
X307854D01*
Y90413D01*
X307835D01*
Y90433D01*
X307795D01*
Y90453D01*
X307776D01*
Y90473D01*
X307736D01*
Y90492D01*
X307716D01*
Y90512D01*
X307697D01*
Y90531D01*
X307658D01*
Y90551D01*
X307638D01*
Y90571D01*
X307618D01*
Y90591D01*
X307579D01*
Y90610D01*
X307559D01*
Y90630D01*
X307539D01*
Y90650D01*
X307520D01*
Y90669D01*
X307480D01*
Y90689D01*
X307461D01*
Y90709D01*
X307441D01*
Y90728D01*
X307421D01*
Y90748D01*
X307402D01*
Y90768D01*
X307362D01*
Y90787D01*
X307343D01*
Y90807D01*
X307323D01*
Y90827D01*
X307303D01*
Y90847D01*
X307283D01*
Y90866D01*
X307264D01*
Y90886D01*
X307244D01*
Y90905D01*
X307224D01*
Y90925D01*
X307205D01*
Y90945D01*
X307185D01*
Y90965D01*
X307165D01*
Y90984D01*
X307146D01*
Y91004D01*
X307126D01*
Y91024D01*
X307106D01*
Y91043D01*
X307087D01*
Y91063D01*
X307067D01*
Y91083D01*
X307047D01*
Y91102D01*
X307028D01*
Y91122D01*
X307008D01*
Y91142D01*
X306988D01*
Y91161D01*
X306968D01*
Y91181D01*
X306949D01*
Y91201D01*
X306929D01*
Y91220D01*
X306909D01*
Y91240D01*
X306890D01*
Y91280D01*
X306870D01*
Y91299D01*
X306850D01*
Y91319D01*
X306831D01*
Y91339D01*
X306811D01*
Y91358D01*
X306791D01*
Y91378D01*
X306772D01*
Y91417D01*
X306752D01*
Y91437D01*
X306732D01*
Y91457D01*
X306713D01*
Y91496D01*
X306693D01*
Y91516D01*
X306673D01*
Y91535D01*
X306653D01*
Y91575D01*
X306634D01*
Y91594D01*
X306614D01*
Y91614D01*
X306594D01*
Y91654D01*
X306575D01*
Y91673D01*
X306555D01*
Y91693D01*
X306535D01*
Y91732D01*
X306516D01*
Y91752D01*
X306496D01*
Y91791D01*
X306476D01*
Y91811D01*
X306457D01*
Y91850D01*
X306437D01*
Y91890D01*
X306417D01*
Y91909D01*
X306398D01*
Y91949D01*
X306378D01*
Y91988D01*
X306358D01*
Y92008D01*
X306339D01*
Y92047D01*
X306319D01*
Y92087D01*
X306299D01*
Y92106D01*
X306279D01*
Y92146D01*
X306260D01*
Y92185D01*
X306240D01*
Y92224D01*
X306221D01*
Y92264D01*
X306201D01*
Y92303D01*
X306181D01*
Y92343D01*
X306161D01*
Y92382D01*
X306142D01*
Y92421D01*
X306122D01*
Y92461D01*
X306102D01*
Y92520D01*
X306083D01*
Y92559D01*
X306063D01*
Y92598D01*
X306043D01*
Y92658D01*
X306024D01*
Y92697D01*
X306004D01*
Y92736D01*
X305984D01*
Y92795D01*
X305965D01*
Y92815D01*
Y92835D01*
Y92854D01*
X305945D01*
Y92913D01*
X305925D01*
Y92972D01*
X305906D01*
Y93032D01*
X305886D01*
Y93091D01*
X305866D01*
Y93150D01*
X305847D01*
Y93228D01*
X305827D01*
Y93287D01*
X305807D01*
Y93366D01*
X305787D01*
Y93465D01*
X305768D01*
Y93543D01*
X305748D01*
Y93642D01*
X305728D01*
Y93760D01*
X305709D01*
Y93898D01*
X305689D01*
Y94075D01*
X305669D01*
Y94350D01*
X305650D01*
Y94764D01*
X305669D01*
Y95039D01*
X305689D01*
Y95197D01*
X305709D01*
Y95354D01*
X305728D01*
Y95453D01*
X305748D01*
Y95551D01*
X305768D01*
Y95650D01*
X305787D01*
Y95728D01*
X305807D01*
Y95807D01*
X305827D01*
Y95886D01*
X305847D01*
Y95945D01*
X305866D01*
Y96024D01*
X305886D01*
Y96083D01*
X305906D01*
Y96142D01*
X305925D01*
Y96201D01*
X305945D01*
Y96260D01*
X305965D01*
Y96299D01*
X305984D01*
Y96339D01*
X306004D01*
Y96378D01*
X306024D01*
Y96398D01*
X306043D01*
Y96417D01*
X306083D01*
Y96437D01*
X306102D01*
Y96457D01*
X306161D01*
Y96476D01*
X306339D01*
Y96457D01*
D02*
G37*
G36*
X303189Y93189D02*
X303405D01*
Y93169D01*
X303504D01*
Y93150D01*
X303583D01*
Y93130D01*
X303642D01*
Y93110D01*
X303701D01*
Y93091D01*
X303760D01*
Y93071D01*
X303799D01*
Y93051D01*
X303839D01*
Y93032D01*
X303878D01*
Y93012D01*
X303917D01*
Y92992D01*
X303957D01*
Y92972D01*
X303996D01*
Y92953D01*
X304016D01*
Y92933D01*
X304055D01*
Y92913D01*
X304075D01*
Y92894D01*
X304114D01*
Y92874D01*
X304134D01*
Y92854D01*
X304153D01*
Y92835D01*
X304193D01*
Y92815D01*
X304213D01*
Y92795D01*
X304232D01*
Y92776D01*
X304252D01*
Y92756D01*
X304272D01*
Y92736D01*
X304291D01*
Y92716D01*
X304311D01*
Y92697D01*
X304331D01*
Y92677D01*
X304350D01*
Y92658D01*
X304370D01*
Y92638D01*
X304390D01*
Y92618D01*
X304410D01*
Y92598D01*
X304429D01*
Y92579D01*
X304449D01*
Y92559D01*
X304468D01*
Y92520D01*
X304488D01*
Y92500D01*
X304508D01*
Y92480D01*
X304528D01*
Y92441D01*
X304547D01*
Y92421D01*
X304567D01*
Y92382D01*
X304587D01*
Y92343D01*
X304606D01*
Y92303D01*
X304626D01*
Y92283D01*
X304646D01*
Y92244D01*
X304665D01*
Y92205D01*
X304685D01*
Y92146D01*
X304705D01*
Y92106D01*
X304724D01*
Y92047D01*
X304744D01*
Y91988D01*
X304764D01*
Y91909D01*
X304784D01*
Y91831D01*
X304803D01*
Y91713D01*
X304823D01*
Y91299D01*
X304803D01*
Y91161D01*
X304784D01*
Y91083D01*
X304764D01*
Y91004D01*
X304744D01*
Y90945D01*
X304724D01*
Y90886D01*
X304705D01*
Y90847D01*
X304685D01*
Y90787D01*
X304665D01*
Y90748D01*
X304646D01*
Y90709D01*
X304626D01*
Y90689D01*
X304606D01*
Y90650D01*
X304587D01*
Y90610D01*
X304567D01*
Y90571D01*
X304547D01*
Y90551D01*
X304528D01*
Y90512D01*
X304508D01*
Y90492D01*
X304488D01*
Y90473D01*
X304468D01*
Y90433D01*
X304449D01*
Y90413D01*
X304429D01*
Y90394D01*
X304410D01*
Y90374D01*
X304390D01*
Y90354D01*
X304370D01*
Y90335D01*
X304350D01*
Y90315D01*
X304331D01*
Y90295D01*
X304311D01*
Y90276D01*
X304291D01*
Y90256D01*
X304272D01*
Y90236D01*
X304252D01*
Y90216D01*
X304232D01*
Y90197D01*
X304213D01*
Y90177D01*
X304173D01*
Y90158D01*
X304153D01*
Y90138D01*
X304134D01*
Y90118D01*
X304114D01*
Y90098D01*
X304075D01*
Y90079D01*
X304055D01*
Y90059D01*
X304016D01*
Y90039D01*
X303976D01*
Y90020D01*
X303937D01*
Y90000D01*
X303917D01*
Y89980D01*
X303878D01*
Y89961D01*
X303819D01*
Y89941D01*
X303780D01*
Y89921D01*
X303740D01*
Y89902D01*
X303681D01*
Y89862D01*
X303661D01*
Y89803D01*
X303681D01*
Y89784D01*
X303701D01*
Y89764D01*
X303720D01*
Y89744D01*
X303740D01*
Y89724D01*
X303760D01*
Y89705D01*
X303780D01*
Y89685D01*
X303799D01*
Y89646D01*
X303819D01*
Y89626D01*
X303839D01*
Y89606D01*
X303858D01*
Y89587D01*
X303878D01*
Y89567D01*
X303898D01*
Y89547D01*
X303917D01*
Y89528D01*
X303937D01*
Y89508D01*
X303957D01*
Y89488D01*
X303976D01*
Y89449D01*
X303996D01*
Y89429D01*
X304016D01*
Y89410D01*
X304035D01*
Y89390D01*
X304055D01*
Y89370D01*
X304075D01*
Y89350D01*
X304095D01*
Y89331D01*
X304114D01*
Y89311D01*
X304134D01*
Y89272D01*
X304153D01*
Y89252D01*
X304173D01*
Y89232D01*
X304193D01*
Y89213D01*
X304213D01*
Y89193D01*
X304232D01*
Y89173D01*
X304252D01*
Y89153D01*
X304272D01*
Y89134D01*
X304291D01*
Y89114D01*
X304311D01*
Y89095D01*
X304331D01*
Y89055D01*
X304350D01*
Y89035D01*
X304370D01*
Y89016D01*
X304390D01*
Y88996D01*
X304410D01*
Y88976D01*
X304429D01*
Y88957D01*
X304449D01*
Y88937D01*
X304468D01*
Y88917D01*
X304488D01*
Y88878D01*
X304508D01*
Y88858D01*
X304528D01*
Y88839D01*
X304547D01*
Y88819D01*
X304567D01*
Y88799D01*
X304587D01*
Y88779D01*
X304606D01*
Y88760D01*
X304626D01*
Y88740D01*
X304646D01*
Y88721D01*
X304665D01*
Y88681D01*
X304685D01*
Y88661D01*
X304705D01*
Y88642D01*
X304724D01*
Y88622D01*
X304744D01*
Y88602D01*
X304764D01*
Y88583D01*
X304784D01*
Y88563D01*
X304803D01*
Y88543D01*
X304823D01*
Y88524D01*
X304842D01*
Y88484D01*
X304862D01*
Y88465D01*
X304882D01*
Y88445D01*
X304902D01*
Y88425D01*
X304921D01*
Y88406D01*
X304941D01*
Y88386D01*
X304961D01*
Y88366D01*
X304980D01*
Y88346D01*
X305000D01*
Y88327D01*
X305020D01*
Y88287D01*
X305039D01*
Y88268D01*
X305059D01*
Y88248D01*
X305079D01*
Y88228D01*
X305098D01*
Y88209D01*
X305118D01*
Y88189D01*
X305138D01*
Y88169D01*
X305157D01*
Y88150D01*
X305177D01*
Y88130D01*
X305197D01*
Y88110D01*
X305236D01*
Y88091D01*
X305276D01*
Y88071D01*
X305315D01*
Y88051D01*
X305354D01*
Y88032D01*
X305413D01*
Y88012D01*
X305512D01*
Y87992D01*
X306516D01*
Y87972D01*
X306594D01*
Y87953D01*
X306653D01*
Y87933D01*
X306713D01*
Y87913D01*
X306752D01*
Y87894D01*
X306791D01*
Y87874D01*
X306811D01*
Y87854D01*
X306850D01*
Y87835D01*
X306870D01*
Y87815D01*
X306890D01*
Y87795D01*
X306909D01*
Y87776D01*
X306949D01*
Y87736D01*
X306988D01*
Y87697D01*
X307008D01*
Y87677D01*
X307028D01*
Y87657D01*
X307047D01*
Y87618D01*
X307067D01*
Y87598D01*
X307087D01*
Y87559D01*
X307106D01*
Y87520D01*
X307126D01*
Y87480D01*
X307146D01*
Y87421D01*
X307165D01*
Y87362D01*
X307185D01*
Y87264D01*
X307205D01*
Y87047D01*
X307185D01*
Y86929D01*
X307165D01*
Y86870D01*
X307146D01*
Y86811D01*
X307126D01*
Y86772D01*
X307106D01*
Y86732D01*
X307087D01*
Y86693D01*
X307067D01*
Y86673D01*
X307047D01*
Y86634D01*
X307028D01*
Y86614D01*
X307008D01*
Y86594D01*
X306988D01*
Y86575D01*
X306968D01*
Y86555D01*
X306949D01*
Y86535D01*
X306929D01*
Y86516D01*
X306909D01*
Y86496D01*
X306890D01*
Y86476D01*
X306870D01*
Y86457D01*
X306831D01*
Y86437D01*
X306811D01*
Y86417D01*
X306772D01*
Y86398D01*
X306732D01*
Y86378D01*
X306693D01*
Y86358D01*
X306653D01*
Y86339D01*
X306594D01*
Y86319D01*
X306516D01*
Y86299D01*
X304764D01*
Y86319D01*
X304665D01*
Y86339D01*
X304606D01*
Y86358D01*
X304547D01*
Y86378D01*
X304488D01*
Y86398D01*
X304449D01*
Y86417D01*
X304429D01*
Y86437D01*
X304390D01*
Y86457D01*
X304370D01*
Y86476D01*
X304331D01*
Y86496D01*
X304311D01*
Y86516D01*
X304291D01*
Y86535D01*
X304252D01*
Y86555D01*
X304232D01*
Y86575D01*
X304213D01*
Y86594D01*
X304193D01*
Y86614D01*
X304173D01*
Y86634D01*
X304153D01*
Y86654D01*
X304134D01*
Y86673D01*
X304114D01*
Y86693D01*
X304095D01*
Y86713D01*
X304075D01*
Y86732D01*
X304055D01*
Y86752D01*
X304035D01*
Y86772D01*
X304016D01*
Y86791D01*
X303996D01*
Y86811D01*
X303976D01*
Y86831D01*
X303957D01*
Y86850D01*
X303937D01*
Y86870D01*
X303917D01*
Y86890D01*
X303898D01*
Y86910D01*
X303878D01*
Y86929D01*
X303858D01*
Y86949D01*
X303839D01*
Y86968D01*
X303819D01*
Y86988D01*
X303799D01*
Y87008D01*
X303780D01*
Y87028D01*
X303760D01*
Y87047D01*
X303740D01*
Y87067D01*
X303720D01*
Y87087D01*
X303701D01*
Y87106D01*
X303681D01*
Y87126D01*
X303661D01*
Y87146D01*
X303642D01*
Y87165D01*
X303622D01*
Y87185D01*
X303602D01*
Y87205D01*
X303583D01*
Y87224D01*
X303543D01*
Y87244D01*
X303504D01*
Y87264D01*
X303425D01*
Y87283D01*
X303346D01*
Y87264D01*
X303287D01*
Y87244D01*
X303228D01*
Y87224D01*
X303209D01*
Y87205D01*
X303189D01*
Y87185D01*
X303150D01*
Y87146D01*
X303130D01*
Y87126D01*
X303110D01*
Y87087D01*
X303091D01*
Y87067D01*
X303071D01*
Y87028D01*
X303051D01*
Y87008D01*
X303031D01*
Y86968D01*
X303012D01*
Y86949D01*
X302992D01*
Y86910D01*
X302972D01*
Y86870D01*
X302953D01*
Y86850D01*
X302933D01*
Y86811D01*
X302913D01*
Y86791D01*
X302894D01*
Y86752D01*
X302874D01*
Y86713D01*
X302854D01*
Y86693D01*
X302835D01*
Y86654D01*
X302815D01*
Y86634D01*
X302795D01*
Y86594D01*
X302776D01*
Y86575D01*
X302756D01*
Y86535D01*
X302736D01*
Y86496D01*
X302716D01*
Y86476D01*
X302697D01*
Y86437D01*
X302677D01*
Y86417D01*
X302658D01*
Y86378D01*
X302638D01*
Y86358D01*
X302618D01*
Y86319D01*
X302598D01*
Y86279D01*
X302579D01*
Y86260D01*
X302559D01*
Y86221D01*
X302539D01*
Y86201D01*
X302520D01*
Y86161D01*
X302500D01*
Y86122D01*
X302480D01*
Y86102D01*
X302461D01*
Y86063D01*
X302441D01*
Y86043D01*
X302421D01*
Y86004D01*
X302402D01*
Y85965D01*
X302382D01*
Y85905D01*
X302362D01*
Y85866D01*
X302343D01*
Y85787D01*
X302323D01*
Y85689D01*
X302303D01*
Y85433D01*
X302323D01*
Y85335D01*
X302343D01*
Y85276D01*
X302362D01*
Y85216D01*
X302382D01*
Y85177D01*
X302402D01*
Y85118D01*
X302421D01*
Y85098D01*
X302441D01*
Y85059D01*
X302461D01*
Y85020D01*
X302480D01*
Y84980D01*
X302500D01*
Y84941D01*
X302520D01*
Y84902D01*
X302539D01*
Y84862D01*
X302559D01*
Y84842D01*
X302579D01*
Y84803D01*
X302598D01*
Y84764D01*
X302618D01*
Y84724D01*
X302638D01*
Y84685D01*
X302658D01*
Y84646D01*
X302677D01*
Y84606D01*
X302697D01*
Y84587D01*
X302716D01*
Y84547D01*
X302736D01*
Y84508D01*
X302756D01*
Y84469D01*
X302776D01*
Y84429D01*
X302795D01*
Y84390D01*
X302815D01*
Y84370D01*
X302835D01*
Y84331D01*
X302854D01*
Y84291D01*
X302874D01*
Y84252D01*
X302894D01*
Y84213D01*
X302913D01*
Y84173D01*
X302933D01*
Y84134D01*
X302953D01*
Y84114D01*
X302972D01*
Y84075D01*
X302992D01*
Y84035D01*
X303012D01*
Y83996D01*
X303031D01*
Y83957D01*
X303051D01*
Y83917D01*
X303071D01*
Y83878D01*
X303091D01*
Y83858D01*
X303110D01*
Y83819D01*
X303130D01*
Y83780D01*
X303150D01*
Y83740D01*
X303169D01*
Y83701D01*
X303189D01*
Y83661D01*
X303209D01*
Y83622D01*
X303228D01*
Y83602D01*
X303248D01*
Y83563D01*
X303268D01*
Y83524D01*
X303287D01*
Y83484D01*
X303307D01*
Y83445D01*
X303327D01*
Y83406D01*
X303346D01*
Y83366D01*
X303366D01*
Y83346D01*
X303386D01*
Y83307D01*
X303405D01*
Y83268D01*
X303425D01*
Y83228D01*
X303445D01*
Y83189D01*
X303465D01*
Y83150D01*
X303484D01*
Y83130D01*
X303504D01*
Y83091D01*
X303524D01*
Y83051D01*
X303543D01*
Y83012D01*
X303563D01*
Y82973D01*
X303583D01*
Y82933D01*
X303602D01*
Y82894D01*
X303622D01*
Y82874D01*
X303642D01*
Y82835D01*
X303661D01*
Y82795D01*
X303681D01*
Y82756D01*
X303701D01*
Y82717D01*
X303720D01*
Y82677D01*
X303740D01*
Y82638D01*
X303760D01*
Y82618D01*
X303780D01*
Y82579D01*
X303799D01*
Y82539D01*
X303819D01*
Y82500D01*
X303839D01*
Y82461D01*
X303858D01*
Y82421D01*
X303878D01*
Y82382D01*
X303898D01*
Y82362D01*
X303917D01*
Y82323D01*
X303937D01*
Y82284D01*
X303957D01*
Y82244D01*
X303976D01*
Y82205D01*
X303996D01*
Y82165D01*
X304016D01*
Y82126D01*
X304035D01*
Y82106D01*
X304055D01*
Y82067D01*
X304075D01*
Y82028D01*
X304095D01*
Y81988D01*
X304114D01*
Y81949D01*
X304134D01*
Y81910D01*
X304153D01*
Y81890D01*
X304173D01*
Y81850D01*
X304193D01*
Y81811D01*
X304213D01*
Y81772D01*
X304232D01*
Y81732D01*
X304252D01*
Y81693D01*
X304272D01*
Y81653D01*
X304291D01*
Y81614D01*
X304311D01*
Y81595D01*
X304331D01*
Y81555D01*
X304350D01*
Y81516D01*
X304370D01*
Y81476D01*
X304390D01*
Y81437D01*
X304410D01*
Y81398D01*
X304429D01*
Y81358D01*
X304449D01*
Y81339D01*
X304468D01*
Y81299D01*
X304488D01*
Y81260D01*
X304508D01*
Y81221D01*
X304528D01*
Y81181D01*
X304547D01*
Y81142D01*
X304567D01*
Y81102D01*
X304587D01*
Y81083D01*
X304606D01*
Y81043D01*
X304626D01*
Y81004D01*
X304646D01*
Y80965D01*
X304665D01*
Y80925D01*
X304685D01*
Y80886D01*
X304705D01*
Y80866D01*
X304724D01*
Y80827D01*
X304744D01*
Y80787D01*
X304764D01*
Y80748D01*
X304784D01*
Y80709D01*
X304803D01*
Y80669D01*
X304823D01*
Y80630D01*
X304842D01*
Y80591D01*
X304862D01*
Y80532D01*
X304882D01*
Y80472D01*
X304902D01*
Y80354D01*
X304921D01*
Y80079D01*
X304902D01*
Y79980D01*
X304882D01*
Y79921D01*
X304862D01*
Y79862D01*
X304842D01*
Y79823D01*
X304823D01*
Y79783D01*
X304803D01*
Y79744D01*
X304784D01*
Y79705D01*
X304764D01*
Y79685D01*
X304744D01*
Y79646D01*
X304724D01*
Y79626D01*
X304705D01*
Y79606D01*
X304685D01*
Y79587D01*
X304665D01*
Y79567D01*
X304646D01*
Y79547D01*
X304626D01*
Y79528D01*
X304606D01*
Y79508D01*
X304587D01*
Y79488D01*
X304567D01*
Y79469D01*
X304547D01*
Y79449D01*
X304508D01*
Y79429D01*
X304488D01*
Y79409D01*
X304449D01*
Y79390D01*
X304429D01*
Y79370D01*
X304390D01*
Y79350D01*
X304331D01*
Y79331D01*
X304291D01*
Y79311D01*
X304232D01*
Y79291D01*
X304153D01*
Y79272D01*
X303780D01*
Y79291D01*
X303701D01*
Y79311D01*
X303642D01*
Y79331D01*
X303583D01*
Y79350D01*
X303543D01*
Y79370D01*
X303504D01*
Y79390D01*
X303465D01*
Y79409D01*
X303445D01*
Y79429D01*
X303405D01*
Y79449D01*
X303386D01*
Y79469D01*
X303366D01*
Y79488D01*
X303346D01*
Y79508D01*
X303307D01*
Y79528D01*
X303287D01*
Y79547D01*
X303268D01*
Y79567D01*
X303248D01*
Y79606D01*
X303228D01*
Y79626D01*
X303209D01*
Y79646D01*
X303189D01*
Y79665D01*
X303169D01*
Y79705D01*
X303150D01*
Y79744D01*
X303130D01*
Y79764D01*
X303110D01*
Y79803D01*
X303091D01*
Y79843D01*
X303071D01*
Y79882D01*
X303051D01*
Y79902D01*
X303031D01*
Y79941D01*
X303012D01*
Y79980D01*
X302992D01*
Y80000D01*
X302972D01*
Y80039D01*
X302953D01*
Y80079D01*
X302933D01*
Y80118D01*
X302913D01*
Y80138D01*
X302894D01*
Y80177D01*
X302874D01*
Y80216D01*
X302854D01*
Y80236D01*
X302835D01*
Y80276D01*
X302815D01*
Y80315D01*
X302795D01*
Y80354D01*
X302776D01*
Y80374D01*
X302756D01*
Y80413D01*
X302736D01*
Y80453D01*
X302716D01*
Y80472D01*
X302697D01*
Y80512D01*
X302677D01*
Y80551D01*
X302658D01*
Y80591D01*
X302638D01*
Y80610D01*
X302618D01*
Y80650D01*
X302598D01*
Y80689D01*
X302579D01*
Y80709D01*
X302559D01*
Y80748D01*
X302539D01*
Y80787D01*
X302520D01*
Y80827D01*
X302500D01*
Y80847D01*
X302480D01*
Y80886D01*
X302461D01*
Y80925D01*
X302441D01*
Y80945D01*
X302421D01*
Y80984D01*
X302402D01*
Y81024D01*
X302382D01*
Y81063D01*
X302362D01*
Y81083D01*
X302343D01*
Y81122D01*
X302323D01*
Y81161D01*
X302303D01*
Y81181D01*
X302284D01*
Y81221D01*
X302264D01*
Y81260D01*
X302244D01*
Y81299D01*
X302224D01*
Y81319D01*
X302205D01*
Y81358D01*
X302185D01*
Y81398D01*
X302165D01*
Y81417D01*
X302146D01*
Y81457D01*
X302126D01*
Y81496D01*
X302106D01*
Y81535D01*
X302087D01*
Y81555D01*
X302067D01*
Y81595D01*
X302047D01*
Y81634D01*
X302028D01*
Y81653D01*
X302008D01*
Y81693D01*
X301988D01*
Y81732D01*
X301969D01*
Y81772D01*
X301949D01*
Y81791D01*
X301929D01*
Y81831D01*
X301909D01*
Y81870D01*
X301890D01*
Y81890D01*
X301870D01*
Y81929D01*
X301850D01*
Y81968D01*
X301831D01*
Y82008D01*
X301811D01*
Y82028D01*
X301791D01*
Y82067D01*
X301772D01*
Y82106D01*
X301752D01*
Y82126D01*
X301732D01*
Y82165D01*
X301713D01*
Y82205D01*
X301693D01*
Y82244D01*
X301673D01*
Y82264D01*
X301654D01*
Y82303D01*
X301634D01*
Y82342D01*
X301614D01*
Y82362D01*
X301594D01*
Y82402D01*
X301575D01*
Y82441D01*
X301555D01*
Y82480D01*
X301535D01*
Y82500D01*
X301516D01*
Y82539D01*
X301496D01*
Y82579D01*
X301476D01*
Y82618D01*
X301457D01*
Y82638D01*
X301437D01*
Y82677D01*
X301417D01*
Y82717D01*
X301398D01*
Y82736D01*
X301378D01*
Y82776D01*
X301358D01*
Y82815D01*
X301339D01*
Y82854D01*
X301319D01*
Y82874D01*
X301299D01*
Y82913D01*
X301279D01*
Y82953D01*
X301260D01*
Y82973D01*
X301240D01*
Y83012D01*
X301220D01*
Y83051D01*
X301201D01*
Y83091D01*
X301181D01*
Y83110D01*
X301161D01*
Y83150D01*
X301142D01*
Y83189D01*
X301122D01*
Y83209D01*
X301102D01*
Y83248D01*
X301083D01*
Y83287D01*
X301063D01*
Y83327D01*
X301043D01*
Y83346D01*
X301024D01*
Y83386D01*
X301004D01*
Y83425D01*
X300984D01*
Y83445D01*
X300965D01*
Y83484D01*
X300945D01*
Y83524D01*
X300925D01*
Y83563D01*
X300905D01*
Y83583D01*
X300886D01*
Y83622D01*
X300866D01*
Y83661D01*
X300847D01*
Y83681D01*
X300827D01*
Y83720D01*
X300807D01*
Y83760D01*
X300787D01*
Y83799D01*
X300768D01*
Y83819D01*
X300748D01*
Y83858D01*
X300728D01*
Y83898D01*
X300709D01*
Y83917D01*
X300689D01*
Y83937D01*
X300610D01*
Y83917D01*
X300590D01*
Y83878D01*
X300571D01*
Y83799D01*
X300551D01*
Y83701D01*
X300532D01*
Y83622D01*
X300512D01*
Y83543D01*
X300492D01*
Y83445D01*
X300472D01*
Y83366D01*
X300453D01*
Y83287D01*
X300433D01*
Y83189D01*
X300413D01*
Y83110D01*
X300394D01*
Y83031D01*
X300374D01*
Y82953D01*
X300354D01*
Y82854D01*
X300335D01*
Y82776D01*
X300315D01*
Y82697D01*
X300295D01*
Y82657D01*
Y82638D01*
Y82598D01*
X300276D01*
Y82520D01*
X300256D01*
Y82441D01*
X300236D01*
Y82362D01*
X300217D01*
Y82323D01*
X300197D01*
Y82264D01*
X300177D01*
Y82205D01*
X300157D01*
Y82165D01*
X300138D01*
Y82126D01*
X300118D01*
Y82087D01*
X300098D01*
Y82047D01*
X300079D01*
Y82028D01*
X300059D01*
Y81988D01*
X300039D01*
Y81949D01*
X300020D01*
Y81929D01*
X300000D01*
Y81910D01*
X299980D01*
Y81870D01*
X299961D01*
Y81850D01*
X299941D01*
Y81831D01*
X299921D01*
Y81811D01*
X299902D01*
Y81772D01*
X299882D01*
Y81752D01*
X299862D01*
Y81732D01*
X299843D01*
Y81713D01*
X299823D01*
Y81693D01*
X299803D01*
Y81673D01*
X299783D01*
Y81653D01*
X299764D01*
Y81634D01*
X299724D01*
Y81614D01*
X299705D01*
Y81595D01*
X299685D01*
Y81575D01*
X299665D01*
Y81555D01*
X299626D01*
Y81535D01*
X299606D01*
Y81516D01*
X299567D01*
Y81496D01*
X299547D01*
Y81476D01*
X299508D01*
Y81457D01*
X299468D01*
Y81437D01*
X299429D01*
Y81417D01*
X299390D01*
Y81398D01*
X299350D01*
Y81378D01*
X299311D01*
Y81358D01*
X299252D01*
Y81339D01*
X299193D01*
Y81319D01*
X299134D01*
Y81299D01*
X299055D01*
Y81279D01*
X298937D01*
Y81260D01*
X295689D01*
Y81279D01*
X295571D01*
Y81299D01*
X295512D01*
Y81319D01*
X295453D01*
Y81339D01*
X295394D01*
Y81358D01*
X295354D01*
Y81378D01*
X295315D01*
Y81398D01*
X295295D01*
Y81417D01*
X295256D01*
Y81437D01*
X295236D01*
Y81457D01*
X295197D01*
Y81476D01*
X295177D01*
Y81496D01*
X295158D01*
Y81516D01*
X295118D01*
Y81535D01*
X295098D01*
Y81555D01*
X295079D01*
Y81575D01*
X295059D01*
Y81595D01*
X295039D01*
Y81634D01*
X295020D01*
Y81653D01*
X295000D01*
Y81673D01*
X294980D01*
Y81713D01*
X294961D01*
Y81732D01*
X294941D01*
Y81772D01*
X294921D01*
Y81791D01*
X294902D01*
Y81831D01*
X294882D01*
Y81870D01*
X294862D01*
Y81929D01*
X294843D01*
Y81968D01*
X294823D01*
Y82047D01*
X294803D01*
Y82126D01*
X294783D01*
Y82480D01*
X294803D01*
Y82579D01*
X294823D01*
Y82638D01*
X294843D01*
Y82697D01*
X294862D01*
Y82736D01*
X294882D01*
Y82795D01*
X294902D01*
Y82815D01*
X294921D01*
Y82854D01*
X294941D01*
Y82894D01*
X294961D01*
Y82913D01*
X294980D01*
Y82953D01*
X295000D01*
Y82973D01*
X295020D01*
Y82992D01*
X295039D01*
Y83012D01*
X295059D01*
Y83031D01*
X295079D01*
Y83051D01*
X295098D01*
Y83071D01*
X295118D01*
Y83091D01*
X295138D01*
Y83110D01*
X295158D01*
Y83130D01*
X295177D01*
Y83150D01*
X295216D01*
Y83169D01*
X295236D01*
Y83189D01*
X295256D01*
Y83209D01*
X295295D01*
Y83228D01*
X295335D01*
Y83248D01*
X295374D01*
Y83268D01*
X295413D01*
Y83287D01*
X295472D01*
Y83307D01*
X295532D01*
Y83327D01*
X295590D01*
Y83346D01*
X295728D01*
Y83366D01*
X298307D01*
Y83386D01*
X298366D01*
Y83406D01*
X298386D01*
Y83425D01*
X298425D01*
Y83445D01*
X298445D01*
Y83465D01*
X298465D01*
Y83484D01*
X298484D01*
Y83524D01*
X298504D01*
Y83563D01*
X298524D01*
Y83622D01*
X298543D01*
Y83740D01*
X298563D01*
Y83858D01*
X298583D01*
Y83996D01*
X298602D01*
Y84134D01*
X298622D01*
Y84272D01*
X298642D01*
Y84390D01*
X298661D01*
Y84528D01*
X298681D01*
Y84646D01*
X298701D01*
Y84784D01*
X298721D01*
Y84902D01*
X298740D01*
Y85039D01*
X298760D01*
Y85158D01*
X298780D01*
Y85295D01*
X298799D01*
Y85433D01*
X298819D01*
Y85551D01*
X298839D01*
Y85689D01*
X298858D01*
Y85807D01*
X298878D01*
Y85945D01*
X298898D01*
Y86063D01*
X298917D01*
Y86142D01*
X298937D01*
Y86221D01*
X298957D01*
Y86299D01*
X298976D01*
Y86358D01*
X298996D01*
Y86417D01*
X299016D01*
Y86457D01*
X299035D01*
Y86516D01*
X299055D01*
Y86555D01*
X299075D01*
Y86594D01*
X299095D01*
Y86654D01*
X299114D01*
Y86693D01*
X299134D01*
Y86732D01*
X299153D01*
Y86772D01*
X299173D01*
Y86791D01*
X299193D01*
Y86831D01*
X299213D01*
Y86870D01*
X299232D01*
Y86910D01*
X299252D01*
Y86929D01*
X299272D01*
Y86968D01*
X299291D01*
Y87008D01*
X299311D01*
Y87028D01*
X299331D01*
Y87067D01*
X299350D01*
Y87106D01*
X299370D01*
Y87126D01*
X299390D01*
Y87165D01*
X299410D01*
Y87205D01*
X299429D01*
Y87224D01*
X299449D01*
Y87264D01*
X299468D01*
Y87303D01*
X299488D01*
Y87323D01*
X299508D01*
Y87362D01*
X299528D01*
Y87402D01*
X299547D01*
Y87441D01*
X299567D01*
Y87461D01*
X299587D01*
Y87500D01*
X299606D01*
Y87539D01*
X299626D01*
Y87559D01*
X299646D01*
Y87598D01*
X299665D01*
Y87638D01*
X299685D01*
Y87657D01*
X299705D01*
Y87697D01*
X299724D01*
Y87736D01*
X299744D01*
Y87756D01*
X299764D01*
Y87795D01*
X299783D01*
Y87835D01*
X299803D01*
Y87854D01*
X299823D01*
Y87894D01*
X299843D01*
Y87933D01*
X299862D01*
Y87972D01*
X299882D01*
Y87992D01*
X299902D01*
Y88032D01*
X299921D01*
Y88071D01*
X299941D01*
Y88091D01*
X299961D01*
Y88130D01*
X299980D01*
Y88189D01*
X300000D01*
Y88327D01*
X299980D01*
Y88386D01*
X299961D01*
Y88425D01*
X299941D01*
Y88445D01*
X299921D01*
Y88484D01*
X299902D01*
Y88504D01*
X299862D01*
Y88524D01*
X299843D01*
Y88543D01*
X299803D01*
Y88563D01*
X299744D01*
Y88583D01*
X299252D01*
Y88563D01*
X299134D01*
Y88543D01*
X299075D01*
Y88524D01*
X299016D01*
Y88504D01*
X298976D01*
Y88484D01*
X298937D01*
Y88465D01*
X298898D01*
Y88445D01*
X298858D01*
Y88425D01*
X298839D01*
Y88406D01*
X298799D01*
Y88386D01*
X298780D01*
Y88366D01*
X298760D01*
Y88346D01*
X298740D01*
Y88327D01*
X298721D01*
Y88307D01*
X298701D01*
Y88287D01*
X298681D01*
Y88268D01*
X298661D01*
Y88248D01*
X298642D01*
Y88228D01*
X298622D01*
Y88209D01*
X298602D01*
Y88189D01*
X298583D01*
Y88150D01*
X298563D01*
Y88130D01*
X298543D01*
Y88110D01*
X298524D01*
Y88071D01*
X298504D01*
Y88051D01*
X298484D01*
Y88032D01*
X298465D01*
Y87992D01*
X298445D01*
Y87972D01*
X298425D01*
Y87953D01*
X298406D01*
Y87913D01*
X298386D01*
Y87894D01*
X298366D01*
Y87874D01*
X298346D01*
Y87835D01*
X298327D01*
Y87815D01*
X298307D01*
Y87795D01*
X298287D01*
Y87776D01*
X298268D01*
Y87736D01*
X298248D01*
Y87717D01*
X298228D01*
Y87697D01*
X298209D01*
Y87657D01*
X298189D01*
Y87638D01*
X298169D01*
Y87618D01*
X298150D01*
Y87579D01*
X298130D01*
Y87559D01*
X298110D01*
Y87539D01*
X298091D01*
Y87500D01*
X298071D01*
Y87480D01*
X298051D01*
Y87461D01*
X298031D01*
Y87421D01*
X298012D01*
Y87402D01*
X297992D01*
Y87382D01*
X297972D01*
Y87343D01*
X297953D01*
Y87323D01*
X297933D01*
Y87303D01*
X297913D01*
Y87283D01*
X297894D01*
Y87244D01*
X297874D01*
Y87224D01*
X297854D01*
Y87205D01*
X297835D01*
Y87185D01*
X297815D01*
Y87165D01*
X297776D01*
Y87146D01*
X297756D01*
Y87126D01*
X297736D01*
Y87106D01*
X297697D01*
Y87087D01*
X297657D01*
Y87067D01*
X297618D01*
Y87047D01*
X297579D01*
Y87028D01*
X297520D01*
Y87008D01*
X297461D01*
Y86988D01*
X297362D01*
Y86968D01*
X297146D01*
Y86988D01*
X297047D01*
Y87008D01*
X296969D01*
Y87028D01*
X296909D01*
Y87047D01*
X296870D01*
Y87067D01*
X296831D01*
Y87087D01*
X296791D01*
Y87106D01*
X296772D01*
Y87126D01*
X296732D01*
Y87146D01*
X296713D01*
Y87165D01*
X296693D01*
Y87185D01*
X296673D01*
Y87205D01*
X296654D01*
Y87224D01*
X296634D01*
Y87244D01*
X296614D01*
Y87264D01*
X296595D01*
Y87283D01*
X296575D01*
Y87303D01*
X296555D01*
Y87343D01*
X296535D01*
Y87362D01*
X296516D01*
Y87402D01*
X296496D01*
Y87421D01*
X296476D01*
Y87480D01*
X296457D01*
Y87520D01*
X296437D01*
Y87579D01*
X296417D01*
Y87638D01*
X296398D01*
Y87776D01*
X296378D01*
Y87894D01*
X296398D01*
Y88032D01*
X296417D01*
Y88110D01*
X296437D01*
Y88169D01*
X296457D01*
Y88209D01*
X296476D01*
Y88248D01*
X296496D01*
Y88287D01*
X296516D01*
Y88307D01*
X296535D01*
Y88346D01*
X296555D01*
Y88366D01*
X296575D01*
Y88386D01*
X296595D01*
Y88425D01*
X296614D01*
Y88445D01*
X296634D01*
Y88465D01*
X296654D01*
Y88504D01*
X296673D01*
Y88524D01*
X296693D01*
Y88543D01*
X296713D01*
Y88563D01*
X296732D01*
Y88602D01*
X296752D01*
Y88622D01*
X296772D01*
Y88642D01*
X296791D01*
Y88681D01*
X296811D01*
Y88701D01*
X296831D01*
Y88721D01*
X296850D01*
Y88740D01*
X296870D01*
Y88779D01*
X296890D01*
Y88799D01*
X296909D01*
Y88819D01*
X296929D01*
Y88858D01*
X296949D01*
Y88878D01*
X296969D01*
Y88898D01*
X296988D01*
Y88937D01*
X297008D01*
Y88957D01*
X297028D01*
Y88976D01*
X297047D01*
Y88996D01*
X297067D01*
Y89035D01*
X297087D01*
Y89055D01*
X297106D01*
Y89075D01*
X297126D01*
Y89114D01*
X297146D01*
Y89134D01*
X297165D01*
Y89153D01*
X297185D01*
Y89173D01*
X297205D01*
Y89213D01*
X297224D01*
Y89232D01*
X297244D01*
Y89252D01*
X297264D01*
Y89291D01*
X297284D01*
Y89311D01*
X297303D01*
Y89331D01*
X297323D01*
Y89370D01*
X297342D01*
Y89390D01*
X297362D01*
Y89410D01*
X297382D01*
Y89429D01*
X297402D01*
Y89468D01*
X297421D01*
Y89488D01*
X297441D01*
Y89508D01*
X297461D01*
Y89547D01*
X297480D01*
Y89567D01*
X297500D01*
Y89587D01*
X297520D01*
Y89626D01*
X297539D01*
Y89646D01*
X297559D01*
Y89665D01*
X297579D01*
Y89685D01*
X297598D01*
Y89724D01*
X297618D01*
Y89744D01*
X297638D01*
Y89764D01*
X297657D01*
Y89803D01*
X297677D01*
Y89823D01*
X297697D01*
Y89842D01*
X297716D01*
Y89862D01*
X297736D01*
Y89882D01*
X297756D01*
Y89902D01*
X297776D01*
Y89921D01*
X297795D01*
Y89941D01*
X297815D01*
Y89961D01*
X297835D01*
Y89980D01*
X297854D01*
Y90000D01*
X297874D01*
Y90020D01*
X297894D01*
Y90039D01*
X297913D01*
Y90059D01*
X297933D01*
Y90079D01*
X297953D01*
Y90098D01*
X297972D01*
Y90118D01*
X298012D01*
Y90138D01*
X298031D01*
Y90158D01*
X298071D01*
Y90177D01*
X298091D01*
Y90197D01*
X298130D01*
Y90216D01*
X298150D01*
Y90236D01*
X298189D01*
Y90256D01*
X298209D01*
Y90276D01*
X298248D01*
Y90295D01*
X298287D01*
Y90315D01*
X298327D01*
Y90335D01*
X298366D01*
Y90354D01*
X298425D01*
Y90374D01*
X298465D01*
Y90394D01*
X298524D01*
Y90413D01*
X298583D01*
Y90433D01*
X298642D01*
Y90453D01*
X298721D01*
Y90473D01*
X298819D01*
Y90492D01*
X298957D01*
Y90512D01*
X301673D01*
Y90531D01*
X301693D01*
Y90551D01*
X301713D01*
Y90610D01*
X301693D01*
Y90650D01*
X301673D01*
Y90669D01*
X301654D01*
Y90709D01*
X301634D01*
Y90748D01*
X301614D01*
Y90787D01*
X301594D01*
Y90847D01*
X301575D01*
Y90886D01*
X301555D01*
Y90945D01*
X301535D01*
Y91004D01*
X301516D01*
Y91083D01*
X301496D01*
Y91161D01*
X301476D01*
Y91280D01*
X301457D01*
Y91732D01*
X301476D01*
Y91831D01*
X301496D01*
Y91929D01*
X301516D01*
Y92008D01*
X301535D01*
Y92067D01*
X301555D01*
Y92106D01*
X301575D01*
Y92165D01*
X301594D01*
Y92205D01*
X301614D01*
Y92244D01*
X301634D01*
Y92283D01*
X301654D01*
Y92323D01*
X301673D01*
Y92362D01*
X301693D01*
Y92402D01*
X301713D01*
Y92421D01*
X301732D01*
Y92461D01*
X301752D01*
Y92480D01*
X301772D01*
Y92520D01*
X301791D01*
Y92539D01*
X301811D01*
Y92559D01*
X301831D01*
Y92579D01*
X301850D01*
Y92618D01*
X301870D01*
Y92638D01*
X301890D01*
Y92658D01*
X301909D01*
Y92677D01*
X301929D01*
Y92697D01*
X301949D01*
Y92716D01*
X301969D01*
Y92736D01*
X301988D01*
Y92756D01*
X302008D01*
Y92776D01*
X302028D01*
Y92795D01*
X302047D01*
Y92815D01*
X302087D01*
Y92835D01*
X302106D01*
Y92854D01*
X302126D01*
Y92874D01*
X302165D01*
Y92894D01*
X302185D01*
Y92913D01*
X302224D01*
Y92933D01*
X302244D01*
Y92953D01*
X302284D01*
Y92972D01*
X302303D01*
Y92992D01*
X302343D01*
Y93012D01*
X302382D01*
Y93032D01*
X302421D01*
Y93051D01*
X302461D01*
Y93071D01*
X302520D01*
Y93091D01*
X302559D01*
Y93110D01*
X302618D01*
Y93130D01*
X302697D01*
Y93150D01*
X302776D01*
Y93169D01*
X302874D01*
Y93189D01*
X303091D01*
Y93209D01*
X303189D01*
Y93189D01*
D02*
G37*
G36*
X272244Y52362D02*
X270276Y54331D01*
X272244Y56299D01*
Y52362D01*
D02*
G37*
D10*
X198425Y21358D02*
G03*
X198425Y21358I-394J0D01*
G01*
X44291Y278740D02*
G03*
X44291Y278740I-20669J0D01*
G01*
Y235433D02*
G03*
X44291Y235433I-20669J0D01*
G01*
X217913Y208268D02*
G03*
X217913Y208268I-20669J0D01*
G01*
X34843Y319921D02*
G03*
X34843Y319921I-394J0D01*
G01*
X188819Y327756D02*
G03*
X188819Y327756I-394J0D01*
G01*
X236614Y327756D02*
G03*
X236614Y327756I-394J0D01*
G01*
X42520Y118110D02*
G03*
X42520Y118110I-19685J0D01*
G01*
X314567Y54331D02*
G03*
X314567Y54331I-18110J0D01*
G01*
X93307Y118024D02*
G03*
X87008Y118024I-3150J0D01*
G01*
X160759Y177111D02*
G03*
X154460Y177111I-3150J0D01*
G01*
X153543Y76764D02*
G03*
X147244Y76764I-3150J0D01*
G01*
X185433Y492D02*
Y22933D01*
Y492D02*
X225590D01*
Y22933D01*
X185433D02*
X225590D01*
X221260Y179842D02*
X269291D01*
Y232598D01*
X221260D02*
X269291D01*
X221260Y179842D02*
Y182520D01*
Y229764D02*
Y232598D01*
X255512Y172441D02*
X269291D01*
Y131102D02*
Y172441D01*
X255512Y131102D02*
X269291D01*
X255512D02*
Y172441D01*
X31496Y270866D02*
X35433D01*
X33465Y268898D02*
Y272835D01*
X31496Y227559D02*
X35433D01*
X33465Y225591D02*
Y229528D01*
X189370Y196457D02*
Y200394D01*
X187402Y198425D02*
X191339D01*
X31496Y306772D02*
Y353071D01*
X1969D02*
X31496D01*
X1969Y306772D02*
X31496D01*
X1969D02*
Y353071D01*
X175276Y330709D02*
X221575D01*
Y360236D01*
X175276Y330709D02*
Y360236D01*
X221575D01*
X223071Y330709D02*
X269370D01*
Y360236D01*
X223071Y330709D02*
Y360236D01*
X269370D01*
X30709Y125984D02*
Y129921D01*
X28740Y127953D02*
X32677D01*
X37795Y205118D02*
X65354D01*
Y179528D02*
Y205118D01*
Y142126D02*
Y162598D01*
X37795Y142126D02*
X65354D01*
X118110Y41240D02*
Y68799D01*
X143701D01*
X160630D02*
X181102D01*
Y41240D02*
Y68799D01*
X94488Y141732D02*
X100000Y147244D01*
Y150591D01*
X73228Y141732D02*
X94488D01*
X73228D02*
Y150591D01*
Y159646D02*
Y168504D01*
X100000Y159646D02*
Y162992D01*
X73228Y168504D02*
X94488D01*
X100000Y162992D01*
X292701Y72047D02*
Y74016D01*
X300394D01*
Y72047D02*
Y74016D01*
X188583Y239469D02*
Y244783D01*
X183071Y239469D02*
X189173D01*
X183071Y244783D02*
X189173D01*
X255748Y239469D02*
Y244783D01*
X255157D02*
X261260D01*
X255157Y239469D02*
X261260D01*
X214665Y37402D02*
X219980D01*
X214665Y36811D02*
Y42913D01*
X219980Y36811D02*
Y42913D01*
X156299Y170571D02*
Y175886D01*
X155709D02*
X161811D01*
X155709Y170571D02*
X161811D01*
X69784Y195669D02*
X75098D01*
Y190157D02*
Y196260D01*
X69784Y190157D02*
Y196260D01*
X68701Y5906D02*
Y9843D01*
X99016Y5906D02*
Y9843D01*
Y14173D02*
Y18307D01*
X68701D02*
X99016D01*
X68701Y14173D02*
Y18307D01*
X245454Y236223D02*
Y239961D01*
X241693Y236223D02*
X245454D01*
Y244291D02*
Y248029D01*
X241693D02*
X245454D01*
X198798Y244291D02*
Y248029D01*
X202559D01*
X198798Y236223D02*
Y239961D01*
Y236223D02*
X202559D01*
X50767Y16732D02*
Y20470D01*
X54528D01*
X50767Y8664D02*
Y12402D01*
Y8664D02*
X54528D01*
X48404Y107677D02*
Y111415D01*
X52165D01*
X48404Y99609D02*
Y103347D01*
Y99609D02*
X52165D01*
X263189Y35060D02*
X266926D01*
Y31299D02*
Y35060D01*
X255121D02*
X258858D01*
X255121Y31299D02*
Y35060D01*
X185827Y134646D02*
Y155315D01*
X188779Y158268D01*
X209449D01*
X185827Y134646D02*
X209449D01*
Y158268D01*
X140157Y137402D02*
Y163386D01*
X123622Y137402D02*
X140157D01*
X123622D02*
Y163386D01*
X140157D01*
X96457Y198819D02*
X100394D01*
X98425Y196850D02*
Y200787D01*
Y176378D02*
Y180315D01*
X94882Y172047D02*
Y205118D01*
X121653D01*
Y172047D02*
Y205118D01*
X94882Y172047D02*
X121653D01*
X178347Y249606D02*
Y320472D01*
X187008Y329134D01*
X218504D01*
Y261024D02*
Y329134D01*
X178347Y249606D02*
X218504D01*
Y261024D01*
X226142Y249606D02*
Y320472D01*
X234803Y329134D01*
X266299D01*
Y261024D02*
Y329134D01*
X226142Y249606D02*
X266299D01*
Y261024D01*
X83071Y138924D02*
X97244D01*
X93307Y118024D02*
X97244D01*
Y138924D01*
X83071Y118024D02*
X87008D01*
X83071D02*
Y138924D01*
X150523Y198011D02*
X164696D01*
X160759Y177111D02*
X164696D01*
Y198011D01*
X150523Y177111D02*
X154460D01*
X150523D02*
Y198011D01*
X143307Y97664D02*
X157480D01*
X153543Y76764D02*
X157480D01*
Y97664D01*
X143307Y76764D02*
X147244D01*
X143307D02*
Y97664D01*
X66929Y320236D02*
Y359606D01*
Y320236D02*
X153543D01*
Y359606D01*
X66929D02*
X153543D01*
X55907Y200001D02*
X56956D01*
X56432D01*
Y203149D01*
X55907Y202624D01*
X60630Y200001D02*
X58531D01*
X60630Y202100D01*
Y202624D01*
X60105Y203149D01*
X59055D01*
X58531Y202624D01*
X61679Y203149D02*
Y201050D01*
X62729Y200001D01*
X63778Y201050D01*
Y203149D01*
X265486Y114044D02*
X264961Y113520D01*
Y112470D01*
X265486Y111945D01*
X266011D01*
X266535Y112470D01*
Y113520D01*
X267060Y114044D01*
X267585D01*
X268110Y113520D01*
Y112470D01*
X267585Y111945D01*
X264961Y117193D02*
Y115094D01*
X268110D01*
Y117193D01*
X266535Y115094D02*
Y116143D01*
X268110Y118242D02*
X264961D01*
X268110Y120341D01*
X264961D01*
X265486Y123490D02*
X264961Y122965D01*
Y121916D01*
X265486Y121391D01*
X266011D01*
X266535Y121916D01*
Y122965D01*
X267060Y123490D01*
X267585D01*
X268110Y122965D01*
Y121916D01*
X267585Y121391D01*
X264961Y126114D02*
Y125064D01*
X265486Y124539D01*
X267585D01*
X268110Y125064D01*
Y126114D01*
X267585Y126639D01*
X265486D01*
X264961Y126114D01*
X268110Y127688D02*
X264961D01*
Y129262D01*
X265486Y129787D01*
X266535D01*
X267060Y129262D01*
Y127688D01*
Y128738D02*
X268110Y129787D01*
X119685Y63648D02*
Y61549D01*
X121260D01*
X120735Y62599D01*
Y63124D01*
X121260Y63648D01*
X122309D01*
X122834Y63124D01*
Y62074D01*
X122309Y61549D01*
X119685Y64698D02*
X121785D01*
X122834Y65747D01*
X121785Y66797D01*
X119685D01*
X296194Y59463D02*
Y63398D01*
X294226D01*
X293570Y62742D01*
Y60119D01*
X294226Y59463D01*
X296194D01*
X59840Y319095D02*
X58791D01*
X59316D01*
Y322244D01*
X59840D01*
X58791D01*
X57216D02*
Y319095D01*
X55117Y322244D01*
Y319095D01*
X54068Y322244D02*
Y319095D01*
X52494D01*
X51969Y319620D01*
Y320669D01*
X52494Y321194D01*
X54068D01*
X50919Y319095D02*
Y321719D01*
X50394Y322244D01*
X49345D01*
X48820Y321719D01*
Y319095D01*
X47771D02*
X45672D01*
X46721D01*
Y322244D01*
X241600Y98943D02*
X238452D01*
X239501Y97893D01*
X238452Y96843D01*
X241600D01*
X238452Y95794D02*
Y94744D01*
Y95269D01*
X240551D01*
Y95794D01*
X241600Y91071D02*
Y93170D01*
X240026D01*
Y92121D01*
Y93170D01*
X238452D01*
Y90022D02*
Y88972D01*
Y89497D01*
X240551D01*
Y90022D01*
X237927Y87398D02*
Y85299D01*
X241076Y82150D02*
X241600Y82675D01*
Y83724D01*
X241076Y84249D01*
X240551D01*
X240026Y83724D01*
Y82675D01*
X239501Y82150D01*
X238977D01*
X238452Y82675D01*
Y83724D01*
X238977Y84249D01*
X238452Y79526D02*
Y80576D01*
X238977Y81101D01*
X240026D01*
X240551Y80576D01*
Y79526D01*
X240026Y79001D01*
X239501D01*
Y81101D01*
X240551Y75853D02*
Y77427D01*
X240026Y77952D01*
X238977D01*
X238452Y77427D01*
Y75853D01*
X237927Y74803D02*
Y72704D01*
X241600Y71655D02*
X238452D01*
Y70081D01*
X238977Y69556D01*
X241076D01*
X241600Y70081D01*
Y71655D01*
X238452Y66932D02*
Y67981D01*
X238977Y68506D01*
X240026D01*
X240551Y67981D01*
Y66932D01*
X240026Y66407D01*
X239501D01*
Y68506D01*
X241076Y64833D02*
X240551D01*
Y65358D01*
Y64308D01*
Y64833D01*
X238977D01*
X238452Y64308D01*
X237927Y62734D02*
Y60635D01*
X240551Y59585D02*
X238452Y58536D01*
X240551Y57486D01*
X241076Y56437D02*
X241600Y55912D01*
Y54862D01*
X241076Y54338D01*
X238977D01*
X238452Y54862D01*
Y55912D01*
X238977Y56437D01*
X241076D01*
X238452Y53288D02*
Y52239D01*
Y52763D01*
X241600D01*
X241076Y53288D01*
X268110Y233991D02*
X264961D01*
Y235566D01*
X265486Y236090D01*
X266535D01*
X267060Y235566D01*
Y233991D01*
X268110Y237140D02*
X264961D01*
Y238714D01*
X265486Y239239D01*
X266535D01*
X267060Y238714D01*
Y237140D01*
Y238190D02*
X268110Y239239D01*
X264961Y241863D02*
Y240813D01*
X265486Y240289D01*
X267585D01*
X268110Y240813D01*
Y241863D01*
X267585Y242388D01*
X265486D01*
X264961Y241863D01*
X265486Y245536D02*
X264961Y245011D01*
Y243962D01*
X265486Y243437D01*
X267585D01*
X268110Y243962D01*
Y245011D01*
X267585Y245536D01*
X266535D01*
Y244487D01*
X298294Y41208D02*
X298950Y40552D01*
X300262D01*
X300918Y41208D01*
Y43832D01*
X300262Y44488D01*
X298950D01*
X298294Y43832D01*
Y42520D01*
X299606D01*
X282940Y45945D02*
X283596Y45289D01*
X284908D01*
X285564Y45945D01*
Y46601D01*
X284908Y47257D01*
X283596D01*
X282940Y47913D01*
Y48569D01*
X283596Y49225D01*
X284908D01*
X285564Y48569D01*
X2758Y355119D02*
Y357218D01*
X3808Y358267D01*
X4857Y357218D01*
Y355119D01*
Y356693D01*
X2758D01*
X8006Y357743D02*
X7481Y358267D01*
X6432D01*
X5907Y357743D01*
Y355643D01*
X6432Y355119D01*
X7481D01*
X8006Y355643D01*
X9055Y356693D02*
X11154D01*
X12204Y358267D02*
X13253D01*
X12729D01*
Y355119D01*
X12204D01*
X13253D01*
X14828D02*
Y358267D01*
X16927Y355119D01*
Y358267D01*
X158795Y206889D02*
X157746D01*
X157221Y206364D01*
Y204265D01*
X157746Y203741D01*
X158795D01*
X159320Y204265D01*
Y206364D01*
X158795Y206889D01*
X160369D02*
Y204265D01*
X160894Y203741D01*
X161944D01*
X162468Y204265D01*
Y206889D01*
X163518D02*
X165617D01*
X164567D01*
Y203741D01*
X166666D02*
Y206889D01*
X168241D01*
X168766Y206364D01*
Y205315D01*
X168241Y204790D01*
X166666D01*
X169815Y206889D02*
Y204265D01*
X170340Y203741D01*
X171389D01*
X171914Y204265D01*
Y206889D01*
X172964D02*
X175063D01*
X174013D01*
Y203741D01*
X224541Y56569D02*
X227690D01*
X226640Y57619D01*
X227690Y58668D01*
X224541D01*
X227690Y59718D02*
Y60767D01*
Y60243D01*
X225591D01*
Y59718D01*
X224541Y64441D02*
Y62342D01*
X226116D01*
Y63391D01*
Y62342D01*
X227690D01*
Y65490D02*
Y66540D01*
Y66015D01*
X225591D01*
Y65490D01*
X228215Y68114D02*
Y70213D01*
X225066Y73362D02*
X224541Y72837D01*
Y71787D01*
X225066Y71263D01*
X225591D01*
X226116Y71787D01*
Y72837D01*
X226640Y73362D01*
X227165D01*
X227690Y72837D01*
Y71787D01*
X227165Y71263D01*
X227690Y75985D02*
Y74936D01*
X227165Y74411D01*
X226116D01*
X225591Y74936D01*
Y75985D01*
X226116Y76510D01*
X226640D01*
Y74411D01*
X225591Y79659D02*
Y78085D01*
X226116Y77560D01*
X227165D01*
X227690Y78085D01*
Y79659D01*
X228215Y80708D02*
Y82807D01*
X224541Y83857D02*
X227690D01*
Y85431D01*
X227165Y85956D01*
X225066D01*
X224541Y85431D01*
Y83857D01*
X227690Y88580D02*
Y87530D01*
X227165Y87006D01*
X226116D01*
X225591Y87530D01*
Y88580D01*
X226116Y89105D01*
X226640D01*
Y87006D01*
X225066Y90679D02*
X225591D01*
Y90154D01*
Y91204D01*
Y90679D01*
X227165D01*
X227690Y91204D01*
X228215Y92778D02*
Y94877D01*
X225591Y95927D02*
X227690Y96976D01*
X225591Y98026D01*
X225066Y99075D02*
X224541Y99600D01*
Y100649D01*
X225066Y101174D01*
X227165D01*
X227690Y100649D01*
Y99600D01*
X227165Y99075D01*
X225066D01*
X227690Y102224D02*
Y103273D01*
Y102749D01*
X224541D01*
X225066Y102224D01*
D11*
X261024Y174606D02*
G03*
X261024Y174606I-394J0D01*
G01*
X3952Y24213D02*
Y95079D01*
Y24213D02*
X30650D01*
X3952Y95079D02*
X30650D01*
X104581Y24213D02*
Y34055D01*
X101516Y95079D02*
X104558D01*
Y85236D02*
Y95079D01*
X101516Y24213D02*
X104581D01*
D12*
X71791Y171339D02*
G03*
X71791Y171339I-787J0D01*
G01*
X152677Y74449D02*
G03*
X152677Y74449I-787J0D01*
G01*
X182677Y162205D02*
G03*
X182677Y162205I-787J0D01*
G01*
X45669Y208268D02*
Y317717D01*
Y208268D02*
X174803D01*
Y317717D01*
X45669D02*
X174803D01*
D13*
X212697Y40957D02*
G03*
X212697Y37783I0J-1587D01*
G01*
X72835Y17323D02*
G03*
X72835Y17323I-197J0D01*
G01*
X154851Y148405D02*
X159862Y153416D01*
X163760Y139497D02*
X168771Y144508D01*
X99225Y143653D02*
X101587D01*
X100394Y142520D02*
Y144882D01*
X270276Y52362D02*
Y56299D01*
X44488Y132480D02*
X49213D01*
X44488Y130512D02*
X49213D01*
X52756Y132480D02*
X57480D01*
X52756Y130512D02*
X57480D01*
X222441Y38780D02*
X227165D01*
X222441Y40748D02*
X227165D01*
X248819Y162795D02*
X253543D01*
X248819Y164764D02*
X253543D01*
X242126Y162795D02*
X246850D01*
X242126Y164764D02*
X246850D01*
X235433Y162795D02*
X240158D01*
X235433Y164764D02*
X240158D01*
X103543Y163976D02*
X108268D01*
X103543Y162008D02*
X108268D01*
X126181Y131102D02*
Y135827D01*
X124213Y131102D02*
Y135827D01*
X126181Y124803D02*
Y129527D01*
X124213Y124803D02*
Y129527D01*
X33811Y2756D02*
Y7480D01*
X35779Y2756D02*
Y7480D01*
X33811Y9252D02*
Y13976D01*
X35779Y9252D02*
Y13976D01*
X33811Y15748D02*
Y20472D01*
X35779Y15748D02*
Y20472D01*
X138189Y169488D02*
X142913D01*
X138189Y171457D02*
X142913D01*
X144617Y169488D02*
X149341D01*
X144617Y171457D02*
X149341D01*
X128012Y78347D02*
Y83071D01*
X129980Y78347D02*
Y83071D01*
X128012Y85039D02*
Y89764D01*
X129980Y85039D02*
Y89764D01*
X140157Y123819D02*
X144882D01*
X140157Y121850D02*
X144882D01*
X146457Y123819D02*
X151181D01*
X146457Y121850D02*
X151181D01*
X52165Y113779D02*
Y118504D01*
X50197Y113779D02*
Y118504D01*
X109843Y163976D02*
X114567D01*
X109843Y162008D02*
X114567D01*
X91339Y113779D02*
Y116929D01*
X89764Y113779D02*
Y116929D01*
X155416Y157250D02*
X157643Y155023D01*
X156530Y158363D02*
X158757Y156136D01*
X150692Y134876D02*
X152919Y137103D01*
X151805Y133763D02*
X154033Y135990D01*
X166929Y128347D02*
X170079D01*
X166929Y129921D02*
X170079D01*
X219291Y161221D02*
X222441D01*
X219291Y159646D02*
X222441D01*
X172047Y128347D02*
X175197D01*
X172047Y129921D02*
X175197D01*
X173228Y167126D02*
X176378D01*
X173228Y165551D02*
X176378D01*
X216142Y121653D02*
Y124803D01*
X214567Y121653D02*
Y124803D01*
X200886Y44845D02*
X201476D01*
X200886Y33858D02*
X201476D01*
X212106Y44845D02*
X212697D01*
X212106Y33858D02*
X212697D01*
X200886D02*
Y44845D01*
X212697Y33858D02*
Y37783D01*
Y40957D02*
Y44845D01*
X83465Y112205D02*
X97638D01*
Y98032D02*
Y112205D01*
X83465Y98032D02*
X97638D01*
X83465D02*
Y112205D01*
X214528Y240748D02*
Y243504D01*
X218071Y240748D02*
Y243504D01*
X229724Y240748D02*
Y243504D01*
X226181Y240748D02*
Y243504D01*
X209409Y240748D02*
Y243504D01*
X212953Y240748D02*
Y243504D01*
X234842Y240748D02*
Y243504D01*
X231299Y240748D02*
Y243504D01*
X226575Y145866D02*
X229331D01*
X226575Y149409D02*
X229331D01*
X226575Y151378D02*
X229331D01*
X226575Y154921D02*
X229331D01*
X139173Y181693D02*
Y184449D01*
X142717Y181693D02*
Y184449D01*
X137598Y181693D02*
Y184449D01*
X134055Y181693D02*
Y184449D01*
X192913Y113583D02*
Y116339D01*
X196457Y113583D02*
Y116339D01*
X165157Y127756D02*
Y130512D01*
X161614Y127756D02*
Y130512D01*
X189961Y174213D02*
Y176969D01*
X193504Y174213D02*
Y176969D01*
X45472Y14764D02*
Y17520D01*
X41929Y14764D02*
Y17520D01*
X226575Y140354D02*
X229331D01*
X226575Y143898D02*
X229331D01*
X187008Y113583D02*
Y116339D01*
X183465Y113583D02*
Y116339D01*
X191732Y113583D02*
Y116339D01*
X188189Y113583D02*
Y116339D01*
X182283Y113583D02*
Y116339D01*
X178740Y113583D02*
Y116339D01*
X61614Y12598D02*
Y15354D01*
X65158Y12598D02*
Y15354D01*
X184843Y174213D02*
Y176969D01*
X188386Y174213D02*
Y176969D01*
X52559Y6890D02*
X55315D01*
X52559Y3347D02*
X55315D01*
X106102Y9646D02*
Y12402D01*
X102559Y9646D02*
Y12402D01*
X66339Y103543D02*
X69095D01*
X66339Y100000D02*
X69095D01*
X269882Y62008D02*
X272638D01*
X269882Y58465D02*
X272638D01*
X255709Y18701D02*
Y21457D01*
X259252Y18701D02*
Y21457D01*
X84646Y189961D02*
Y196653D01*
X78347Y189961D02*
Y196653D01*
X176900Y179067D02*
Y186153D01*
X172176Y179067D02*
X176900D01*
X172176D02*
Y186153D01*
X176900D01*
X73622Y114370D02*
X74803D01*
X60630D02*
X61811D01*
X60630D02*
Y115157D01*
X74803Y114370D02*
Y115157D01*
X60630Y136024D02*
X61811D01*
X73622D02*
X74803D01*
Y115157D02*
Y136024D01*
X60630Y115157D02*
Y136024D01*
X269291Y330709D02*
X269370D01*
D14*
X119654Y196819D02*
X118655Y197819D01*
Y199819D01*
X117655Y200818D01*
X119654Y176347D02*
X118655Y177347D01*
Y179346D01*
X117655Y180346D01*
D15*
X111155Y151576D02*
X110630Y151051D01*
Y150001D01*
X111155Y149477D01*
X113254D01*
X113779Y150001D01*
Y151051D01*
X113254Y151576D01*
X113779Y152625D02*
Y153675D01*
Y153150D01*
X110630D01*
X111155Y152625D01*
X113779Y157348D02*
Y155249D01*
X111680Y157348D01*
X111155D01*
X110630Y156823D01*
Y155774D01*
X111155Y155249D01*
X70867Y178085D02*
X74015D01*
Y179659D01*
X73491Y180184D01*
X71391D01*
X70867Y179659D01*
Y178085D01*
X73491Y181233D02*
X74015Y181758D01*
Y182808D01*
X73491Y183333D01*
X71391D01*
X70867Y182808D01*
Y181758D01*
X71391Y181233D01*
X71916D01*
X72441Y181758D01*
Y183333D01*
X169030Y157873D02*
Y157349D01*
X170079Y156299D01*
X171129Y157349D01*
Y157873D01*
X170079Y156299D02*
Y154725D01*
X174277D02*
X172178D01*
X174277Y156824D01*
Y157349D01*
X173753Y157873D01*
X172703D01*
X172178Y157349D01*
X177953Y180578D02*
X178478D01*
X179527Y181628D01*
X178478Y182677D01*
X177953D01*
X179527Y181628D02*
X181102D01*
Y183727D02*
Y184776D01*
Y184251D01*
X177953D01*
X178478Y183727D01*
X186091Y27559D02*
Y24935D01*
X186616Y24410D01*
X187665D01*
X188190Y24935D01*
Y27559D01*
X191339Y27034D02*
X190814Y27559D01*
X189764D01*
X189240Y27034D01*
Y26509D01*
X189764Y25984D01*
X190814D01*
X191339Y25460D01*
Y24935D01*
X190814Y24410D01*
X189764D01*
X189240Y24935D01*
X192388Y27559D02*
Y24410D01*
X193962D01*
X194487Y24935D01*
Y25460D01*
X193962Y25984D01*
X192388D01*
X193962D01*
X194487Y26509D01*
Y27034D01*
X193962Y27559D01*
X192388D01*
X195537Y24410D02*
X196586D01*
X196062D01*
Y27559D01*
X195537Y27034D01*
X151707Y102362D02*
Y99738D01*
X152232Y99213D01*
X153281D01*
X153806Y99738D01*
Y102362D01*
X156955D02*
X155905Y101837D01*
X154856Y100787D01*
Y99738D01*
X155380Y99213D01*
X156430D01*
X156955Y99738D01*
Y100263D01*
X156430Y100787D01*
X154856D01*
X150919Y202362D02*
Y199738D01*
X151444Y199213D01*
X152494D01*
X153019Y199738D01*
Y202362D01*
X156167D02*
X154068D01*
Y200787D01*
X155118Y201312D01*
X155642D01*
X156167Y200787D01*
Y199738D01*
X155642Y199213D01*
X154593D01*
X154068Y199738D01*
X106693Y89896D02*
X109317D01*
X109842Y90421D01*
Y91470D01*
X109317Y91995D01*
X106693D01*
X109842Y94619D02*
X106693D01*
X108268Y93045D01*
Y95144D01*
X211418Y160368D02*
X214042D01*
X214566Y160893D01*
Y161943D01*
X214042Y162467D01*
X211418D01*
X211943Y163517D02*
X211418Y164042D01*
Y165091D01*
X211943Y165616D01*
X212467D01*
X212992Y165091D01*
Y164566D01*
Y165091D01*
X213517Y165616D01*
X214042D01*
X214566Y165091D01*
Y164042D01*
X214042Y163517D01*
X129300Y151849D02*
Y149225D01*
X129825Y148700D01*
X130874D01*
X131399Y149225D01*
Y151849D01*
X134548Y148700D02*
X132449D01*
X134548Y150799D01*
Y151324D01*
X134023Y151849D01*
X132973D01*
X132449Y151324D01*
X105775Y138582D02*
Y135958D01*
X106300Y135434D01*
X107349D01*
X107874Y135958D01*
Y138582D01*
X108924Y135434D02*
X109973D01*
X109448D01*
Y138582D01*
X108924Y138057D01*
X40945Y313649D02*
Y315748D01*
Y314699D01*
X44094D01*
Y316798D02*
Y317847D01*
Y317322D01*
X40945D01*
X41470Y316798D01*
X103544Y4986D02*
X103019Y5511D01*
X101970D01*
X101445Y4986D01*
Y4462D01*
X101970Y3937D01*
X103019D01*
X103544Y3412D01*
Y2888D01*
X103019Y2363D01*
X101970D01*
X101445Y2888D01*
X104593Y5511D02*
Y2363D01*
X105643Y3412D01*
X106692Y2363D01*
Y5511D01*
X107742Y2363D02*
X108791D01*
X108267D01*
Y5511D01*
X107742Y4986D01*
X307480Y75065D02*
X306956Y75590D01*
X305906D01*
X305381Y75065D01*
Y74541D01*
X305906Y74016D01*
X306956D01*
X307480Y73491D01*
Y72966D01*
X306956Y72442D01*
X305906D01*
X305381Y72966D01*
X308530Y72442D02*
X309579D01*
X309055D01*
Y75590D01*
X308530Y75065D01*
X225196Y250133D02*
X222048D01*
Y251707D01*
X222572Y252232D01*
X223622D01*
X224147Y251707D01*
Y250133D01*
Y251182D02*
X225196Y252232D01*
X222048Y253281D02*
X225196D01*
Y255380D01*
Y258529D02*
Y256430D01*
X223097Y258529D01*
X222572D01*
X222048Y258004D01*
Y256955D01*
X222572Y256430D01*
X222440Y321130D02*
X219292D01*
Y322704D01*
X219817Y323229D01*
X220866D01*
X221391Y322704D01*
Y321130D01*
Y322179D02*
X222440Y323229D01*
X219292Y324278D02*
X222440D01*
Y326377D01*
Y327427D02*
Y328477D01*
Y327952D01*
X219292D01*
X219817Y327427D01*
X264566Y15881D02*
X261418D01*
Y17455D01*
X261943Y17980D01*
X262992D01*
X263517Y17455D01*
Y15881D01*
Y16930D02*
X264566Y17980D01*
Y21128D02*
Y19029D01*
X262467Y21128D01*
X261943D01*
X261418Y20604D01*
Y19554D01*
X261943Y19029D01*
X264042Y22178D02*
X264566Y22703D01*
Y23752D01*
X264042Y24277D01*
X261943D01*
X261418Y23752D01*
Y22703D01*
X261943Y22178D01*
X262467D01*
X262992Y22703D01*
Y24277D01*
X254856Y58662D02*
Y61810D01*
X256431D01*
X256956Y61286D01*
Y60236D01*
X256431Y59711D01*
X254856D01*
X255906D02*
X256956Y58662D01*
X260104D02*
X258005D01*
X260104Y60761D01*
Y61286D01*
X259579Y61810D01*
X258530D01*
X258005Y61286D01*
X262728Y58662D02*
Y61810D01*
X261154Y60236D01*
X263253D01*
X63518Y105119D02*
Y108267D01*
X65093D01*
X65618Y107743D01*
Y106693D01*
X65093Y106168D01*
X63518D01*
X64568D02*
X65618Y105119D01*
X68766D02*
X66667D01*
X68766Y107218D01*
Y107743D01*
X68241Y108267D01*
X67192D01*
X66667Y107743D01*
X71915Y105119D02*
X69816D01*
X71915Y107218D01*
Y107743D01*
X71390Y108267D01*
X70340D01*
X69816Y107743D01*
X110236Y7350D02*
X107087D01*
Y8925D01*
X107612Y9449D01*
X108661D01*
X109186Y8925D01*
Y7350D01*
Y8400D02*
X110236Y9449D01*
Y12598D02*
Y10499D01*
X108137Y12598D01*
X107612D01*
X107087Y12073D01*
Y11024D01*
X107612Y10499D01*
X110236Y13647D02*
Y14697D01*
Y14172D01*
X107087D01*
X107612Y13647D01*
X39503Y3544D02*
Y6692D01*
X41077D01*
X41602Y6168D01*
Y5118D01*
X41077Y4593D01*
X39503D01*
X40552D02*
X41602Y3544D01*
X44750D02*
X42651D01*
X44750Y5643D01*
Y6168D01*
X44226Y6692D01*
X43176D01*
X42651Y6168D01*
X45800D02*
X46325Y6692D01*
X47374D01*
X47899Y6168D01*
Y4069D01*
X47374Y3544D01*
X46325D01*
X45800Y4069D01*
Y6168D01*
X198818Y171655D02*
X195670D01*
Y173229D01*
X196195Y173754D01*
X197244D01*
X197769Y173229D01*
Y171655D01*
Y172704D02*
X198818Y173754D01*
Y174803D02*
Y175853D01*
Y175328D01*
X195670D01*
X196195Y174803D01*
X198294Y177427D02*
X198818Y177952D01*
Y179001D01*
X198294Y179526D01*
X196195D01*
X195670Y179001D01*
Y177952D01*
X196195Y177427D01*
X196719D01*
X197244Y177952D01*
Y179526D01*
X64960Y1182D02*
X61812D01*
Y2757D01*
X62336Y3281D01*
X63386D01*
X63911Y2757D01*
Y1182D01*
Y2232D02*
X64960Y3281D01*
Y4331D02*
Y5381D01*
Y4856D01*
X61812D01*
X62336Y4331D01*
Y6955D02*
X61812Y7480D01*
Y8529D01*
X62336Y9054D01*
X62861D01*
X63386Y8529D01*
X63911Y9054D01*
X64435D01*
X64960Y8529D01*
Y7480D01*
X64435Y6955D01*
X63911D01*
X63386Y7480D01*
X62861Y6955D01*
X62336D01*
X63386Y7480D02*
Y8529D01*
X182283Y101576D02*
X179134D01*
Y103150D01*
X179659Y103675D01*
X180709D01*
X181233Y103150D01*
Y101576D01*
Y102626D02*
X182283Y103675D01*
Y104725D02*
Y105774D01*
Y105249D01*
X179134D01*
X179659Y104725D01*
X179134Y107349D02*
Y109448D01*
X179659D01*
X181758Y107349D01*
X182283D01*
X191338Y101576D02*
X188189D01*
Y103150D01*
X188714Y103675D01*
X189764D01*
X190288Y103150D01*
Y101576D01*
Y102626D02*
X191338Y103675D01*
Y104725D02*
Y105774D01*
Y105249D01*
X188189D01*
X188714Y104725D01*
X188189Y109448D02*
X188714Y108398D01*
X189764Y107349D01*
X190813D01*
X191338Y107873D01*
Y108923D01*
X190813Y109448D01*
X190288D01*
X189764Y108923D01*
Y107349D01*
X186614Y101576D02*
X183465D01*
Y103150D01*
X183990Y103675D01*
X185039D01*
X185564Y103150D01*
Y101576D01*
Y102626D02*
X186614Y103675D01*
Y104725D02*
Y105774D01*
Y105249D01*
X183465D01*
X183990Y104725D01*
X183465Y109448D02*
Y107349D01*
X185039D01*
X184515Y108398D01*
Y108923D01*
X185039Y109448D01*
X186089D01*
X186614Y108923D01*
Y107873D01*
X186089Y107349D01*
X234778Y140552D02*
Y143700D01*
X236352D01*
X236877Y143175D01*
Y142126D01*
X236352Y141601D01*
X234778D01*
X235827D02*
X236877Y140552D01*
X237926D02*
X238976D01*
X238451D01*
Y143700D01*
X237926Y143175D01*
X242125Y140552D02*
Y143700D01*
X240550Y142126D01*
X242649D01*
X40944Y12206D02*
X37796D01*
Y13780D01*
X38320Y14305D01*
X39370D01*
X39895Y13780D01*
Y12206D01*
Y13255D02*
X40944Y14305D01*
Y15355D02*
Y16404D01*
Y15879D01*
X37796D01*
X38320Y15355D01*
Y17978D02*
X37796Y18503D01*
Y19553D01*
X38320Y20077D01*
X38845D01*
X39370Y19553D01*
Y19028D01*
Y19553D01*
X39895Y20077D01*
X40420D01*
X40944Y19553D01*
Y18503D01*
X40420Y17978D01*
X203149Y171655D02*
X200001D01*
Y173229D01*
X200525Y173754D01*
X201575D01*
X202100Y173229D01*
Y171655D01*
Y172704D02*
X203149Y173754D01*
Y174803D02*
Y175853D01*
Y175328D01*
X200001D01*
X200525Y174803D01*
X203149Y179526D02*
Y177427D01*
X201050Y179526D01*
X200525D01*
X200001Y179001D01*
Y177952D01*
X200525Y177427D01*
X164960Y117455D02*
X161811D01*
Y119029D01*
X162336Y119554D01*
X163386D01*
X163911Y119029D01*
Y117455D01*
Y118505D02*
X164960Y119554D01*
Y120604D02*
Y121653D01*
Y121128D01*
X161811D01*
X162336Y120604D01*
X164960Y123228D02*
Y124277D01*
Y123752D01*
X161811D01*
X162336Y123228D01*
X196063Y101576D02*
X192914D01*
Y103150D01*
X193439Y103675D01*
X194488D01*
X195013Y103150D01*
Y101576D01*
Y102626D02*
X196063Y103675D01*
Y104725D02*
Y105774D01*
Y105249D01*
X192914D01*
X193439Y104725D01*
Y107349D02*
X192914Y107873D01*
Y108923D01*
X193439Y109448D01*
X195538D01*
X196063Y108923D01*
Y107873D01*
X195538Y107349D01*
X193439D01*
X137401Y189502D02*
X134253D01*
Y191077D01*
X134777Y191601D01*
X135827D01*
X136352Y191077D01*
Y189502D01*
Y190552D02*
X137401Y191601D01*
X136876Y192651D02*
X137401Y193175D01*
Y194225D01*
X136876Y194750D01*
X134777D01*
X134253Y194225D01*
Y193175D01*
X134777Y192651D01*
X135302D01*
X135827Y193175D01*
Y194750D01*
X142519Y189502D02*
X139371D01*
Y191077D01*
X139895Y191601D01*
X140945D01*
X141470Y191077D01*
Y189502D01*
Y190552D02*
X142519Y191601D01*
X139895Y192651D02*
X139371Y193175D01*
Y194225D01*
X139895Y194750D01*
X140420D01*
X140945Y194225D01*
X141470Y194750D01*
X141994D01*
X142519Y194225D01*
Y193175D01*
X141994Y192651D01*
X141470D01*
X140945Y193175D01*
X140420Y192651D01*
X139895D01*
X140945Y193175D02*
Y194225D01*
X234778Y151575D02*
Y154724D01*
X236352D01*
X236877Y154199D01*
Y153150D01*
X236352Y152625D01*
X234778D01*
X235827D02*
X236877Y151575D01*
X237926Y154724D02*
X240025D01*
Y154199D01*
X237926Y152100D01*
Y151575D01*
X234778Y146063D02*
Y149212D01*
X236352D01*
X236877Y148687D01*
Y147638D01*
X236352Y147113D01*
X234778D01*
X235827D02*
X236877Y146063D01*
X240025Y149212D02*
X238976Y148687D01*
X237926Y147638D01*
Y146588D01*
X238451Y146063D01*
X239501D01*
X240025Y146588D01*
Y147113D01*
X239501Y147638D01*
X237926D01*
X238976Y234384D02*
X235827D01*
Y235958D01*
X236352Y236483D01*
X237402D01*
X237926Y235958D01*
Y234384D01*
Y235434D02*
X238976Y236483D01*
X235827Y239632D02*
Y237533D01*
X237402D01*
X236877Y238582D01*
Y239107D01*
X237402Y239632D01*
X238451D01*
X238976Y239107D01*
Y238057D01*
X238451Y237533D01*
X212992Y231235D02*
X209843D01*
Y232809D01*
X210368Y233333D01*
X211417D01*
X211942Y232809D01*
Y231235D01*
Y232284D02*
X212992Y233333D01*
Y235957D02*
X209843D01*
X211417Y234383D01*
Y236482D01*
X225196Y234384D02*
X222048D01*
Y235958D01*
X222572Y236483D01*
X223622D01*
X224147Y235958D01*
Y234384D01*
Y235434D02*
X225196Y236483D01*
X222572Y237533D02*
X222048Y238057D01*
Y239107D01*
X222572Y239632D01*
X223097D01*
X223622Y239107D01*
Y238582D01*
Y239107D01*
X224147Y239632D01*
X224672D01*
X225196Y239107D01*
Y238057D01*
X224672Y237533D01*
X218110Y231235D02*
X214961D01*
Y232809D01*
X215486Y233333D01*
X216535D01*
X217060Y232809D01*
Y231235D01*
Y232284D02*
X218110Y233333D01*
Y236482D02*
Y234383D01*
X216011Y236482D01*
X215486D01*
X214961Y235957D01*
Y234908D01*
X215486Y234383D01*
X157873Y354988D02*
X154725D01*
Y356562D01*
X155250Y357087D01*
X156299D01*
X156824Y356562D01*
Y354988D01*
Y356037D02*
X157873Y357087D01*
Y358136D02*
Y359186D01*
Y358661D01*
X154725D01*
X155250Y358136D01*
X270341Y32415D02*
Y34514D01*
X269817Y35039D01*
X268767D01*
X268242Y34514D01*
Y32415D01*
X268767Y31890D01*
X269817D01*
X269292Y32940D02*
X270341Y31890D01*
X269817D02*
X270341Y32415D01*
X273490Y35039D02*
X271391D01*
Y33465D01*
X272440Y33989D01*
X272965D01*
X273490Y33465D01*
Y32415D01*
X272965Y31890D01*
X271916D01*
X271391Y32415D01*
X43963Y99738D02*
Y101837D01*
X43439Y102362D01*
X42389D01*
X41864Y101837D01*
Y99738D01*
X42389Y99213D01*
X43439D01*
X42914Y100263D02*
X43963Y99213D01*
X43439D02*
X43963Y99738D01*
X46587Y99213D02*
Y102362D01*
X45013Y100787D01*
X47112D01*
X46719Y8399D02*
Y10498D01*
X46195Y11023D01*
X45145D01*
X44620Y10498D01*
Y8399D01*
X45145Y7875D01*
X46195D01*
X45670Y8924D02*
X46719Y7875D01*
X46195D02*
X46719Y8399D01*
X47769Y10498D02*
X48294Y11023D01*
X49343D01*
X49868Y10498D01*
Y9974D01*
X49343Y9449D01*
X48818D01*
X49343D01*
X49868Y8924D01*
Y8399D01*
X49343Y7875D01*
X48294D01*
X47769Y8399D01*
X201837Y232152D02*
X199738D01*
X199213Y231628D01*
Y230578D01*
X199738Y230053D01*
X201837D01*
X202362Y230578D01*
Y231628D01*
X201312Y231103D02*
X202362Y232152D01*
Y231628D02*
X201837Y232152D01*
X202362Y235301D02*
Y233202D01*
X200263Y235301D01*
X199738D01*
X199213Y234776D01*
Y233727D01*
X199738Y233202D01*
X249081Y235827D02*
X246982D01*
X246457Y235302D01*
Y234253D01*
X246982Y233728D01*
X249081D01*
X249606Y234253D01*
Y235302D01*
X248556Y234777D02*
X249606Y235827D01*
Y235302D02*
X249081Y235827D01*
X249606Y236876D02*
Y237926D01*
Y237401D01*
X246457D01*
X246982Y236876D01*
X34122Y138582D02*
Y135434D01*
X36221D01*
X39370Y138057D02*
X38845Y138582D01*
X37795D01*
X37271Y138057D01*
Y137533D01*
X37795Y137008D01*
X38845D01*
X39370Y136483D01*
Y135958D01*
X38845Y135434D01*
X37795D01*
X37271Y135958D01*
X40419Y135434D02*
X41469D01*
X40944D01*
Y138582D01*
X40419Y138057D01*
X98426Y103413D02*
X101574D01*
Y105512D01*
Y106561D02*
Y107611D01*
Y107086D01*
X98426D01*
X98950Y106561D01*
X221654Y175066D02*
Y174016D01*
Y174541D01*
X224278D01*
X224803Y174016D01*
Y173492D01*
X224278Y172967D01*
X221654Y176115D02*
Y178214D01*
X222179D01*
X224278Y176115D01*
X224803D01*
X177034Y74015D02*
X175985D01*
X176509D01*
Y71391D01*
X175985Y70867D01*
X175460D01*
X174935Y71391D01*
X180183Y74015D02*
X179133Y73491D01*
X178084Y72441D01*
Y71391D01*
X178609Y70867D01*
X179658D01*
X180183Y71391D01*
Y71916D01*
X179658Y72441D01*
X178084D01*
X66930Y145144D02*
Y144095D01*
Y144620D01*
X69554D01*
X70078Y144095D01*
Y143570D01*
X69554Y143045D01*
X66930Y148293D02*
Y146194D01*
X68504D01*
X67979Y147244D01*
Y147768D01*
X68504Y148293D01*
X69554D01*
X70078Y147768D01*
Y146719D01*
X69554Y146194D01*
X224016Y326247D02*
Y325197D01*
Y325722D01*
X226640D01*
X227165Y325197D01*
Y324673D01*
X226640Y324148D01*
X227165Y328871D02*
X224016D01*
X225590Y327296D01*
Y329396D01*
X251182Y133334D02*
Y132284D01*
Y132809D01*
X253805D01*
X254330Y132284D01*
Y131759D01*
X253805Y131234D01*
X251706Y134383D02*
X251182Y134908D01*
Y135957D01*
X251706Y136482D01*
X252231D01*
X252756Y135957D01*
Y135433D01*
Y135957D01*
X253281Y136482D01*
X253805D01*
X254330Y135957D01*
Y134908D01*
X253805Y134383D01*
X175591Y325853D02*
Y324804D01*
Y325328D01*
X178215D01*
X178740Y324804D01*
Y324279D01*
X178215Y323754D01*
X178740Y329002D02*
Y326903D01*
X176641Y329002D01*
X176116D01*
X175591Y328477D01*
Y327428D01*
X176116Y326903D01*
X32678Y350787D02*
Y349738D01*
Y350263D01*
X35302D01*
X35826Y349738D01*
Y349213D01*
X35302Y348688D01*
X35826Y351837D02*
Y352887D01*
Y352362D01*
X32678D01*
X33202Y351837D01*
X79922Y179921D02*
Y177822D01*
X81496D01*
Y178872D01*
Y177822D01*
X83070D01*
Y180971D02*
Y182020D01*
Y181496D01*
X79922D01*
X80446Y180971D01*
X254856Y55905D02*
Y52756D01*
X256431D01*
X256956Y53281D01*
Y55380D01*
X256431Y55905D01*
X254856D01*
X258005D02*
X260104D01*
Y55380D01*
X258005Y53281D01*
Y52756D01*
X196851Y36353D02*
X199999D01*
Y37927D01*
X199475Y38452D01*
X197376D01*
X196851Y37927D01*
Y36353D01*
Y41600D02*
X197376Y40551D01*
X198425Y39501D01*
X199475D01*
X199999Y40026D01*
Y41076D01*
X199475Y41600D01*
X198950D01*
X198425Y41076D01*
Y39501D01*
X156431Y168897D02*
Y165749D01*
X158006D01*
X158530Y166273D01*
Y168372D01*
X158006Y168897D01*
X156431D01*
X161679D02*
X159580D01*
Y167323D01*
X160629Y167848D01*
X161154D01*
X161679Y167323D01*
Y166273D01*
X161154Y165749D01*
X160105D01*
X159580Y166273D01*
X75985Y113518D02*
X79133D01*
Y115092D01*
X78609Y115617D01*
X76509D01*
X75985Y115092D01*
Y113518D01*
X79133Y118241D02*
X75985D01*
X77559Y116666D01*
Y118766D01*
X215749Y48164D02*
X218897D01*
Y49738D01*
X218372Y50263D01*
X216273D01*
X215749Y49738D01*
Y48164D01*
X216273Y51312D02*
X215749Y51837D01*
Y52886D01*
X216273Y53411D01*
X216798D01*
X217323Y52886D01*
Y52362D01*
Y52886D01*
X217848Y53411D01*
X218372D01*
X218897Y52886D01*
Y51837D01*
X218372Y51312D01*
X256693Y233597D02*
X259842D01*
Y235171D01*
X259317Y235696D01*
X257218D01*
X256693Y235171D01*
Y233597D01*
X259842Y238844D02*
Y236745D01*
X257743Y238844D01*
X257218D01*
X256693Y238319D01*
Y237270D01*
X257218Y236745D01*
X184646Y234121D02*
X187795D01*
Y235696D01*
X187270Y236221D01*
X185171D01*
X184646Y235696D01*
Y234121D01*
X187795Y237270D02*
Y238319D01*
Y237795D01*
X184646D01*
X185171Y237270D01*
X49082Y122703D02*
X48557Y123228D01*
X47508D01*
X46983Y122703D01*
Y120604D01*
X47508Y120079D01*
X48557D01*
X49082Y120604D01*
X50132Y122703D02*
X50656Y123228D01*
X51706D01*
X52231Y122703D01*
Y122178D01*
X51706Y121653D01*
X51181D01*
X51706D01*
X52231Y121129D01*
Y120604D01*
X51706Y120079D01*
X50656D01*
X50132Y120604D01*
X55379Y120079D02*
X53280D01*
X55379Y122178D01*
Y122703D01*
X54855Y123228D01*
X53805D01*
X53280Y122703D01*
X213780Y119553D02*
X213255Y120078D01*
X212206D01*
X211681Y119553D01*
Y117454D01*
X212206Y116930D01*
X213255D01*
X213780Y117454D01*
X214830Y119553D02*
X215354Y120078D01*
X216404D01*
X216929Y119553D01*
Y119029D01*
X216404Y118504D01*
X215879D01*
X216404D01*
X216929Y117979D01*
Y117454D01*
X216404Y116930D01*
X215354D01*
X214830Y117454D01*
X217978Y116930D02*
X219028D01*
X218503D01*
Y120078D01*
X217978Y119553D01*
X169817Y164830D02*
X169292Y164305D01*
Y163256D01*
X169817Y162731D01*
X171916D01*
X172440Y163256D01*
Y164305D01*
X171916Y164830D01*
X169817Y165880D02*
X169292Y166404D01*
Y167454D01*
X169817Y167979D01*
X170341D01*
X170866Y167454D01*
Y166929D01*
Y167454D01*
X171391Y167979D01*
X171916D01*
X172440Y167454D01*
Y166404D01*
X171916Y165880D01*
X169817Y169028D02*
X169292Y169553D01*
Y170603D01*
X169817Y171127D01*
X171916D01*
X172440Y170603D01*
Y169553D01*
X171916Y169028D01*
X169817D01*
X172573Y117980D02*
X172048Y117455D01*
Y116405D01*
X172573Y115881D01*
X174672D01*
X175196Y116405D01*
Y117455D01*
X174672Y117980D01*
X175196Y121128D02*
Y119029D01*
X173097Y121128D01*
X172573D01*
X172048Y120604D01*
Y119554D01*
X172573Y119029D01*
X174672Y122178D02*
X175196Y122703D01*
Y123752D01*
X174672Y124277D01*
X172573D01*
X172048Y123752D01*
Y122703D01*
X172573Y122178D01*
X173097D01*
X173622Y122703D01*
Y124277D01*
X224935Y158531D02*
X224410Y158006D01*
Y156957D01*
X224935Y156432D01*
X227034D01*
X227558Y156957D01*
Y158006D01*
X227034Y158531D01*
X227558Y161679D02*
Y159580D01*
X225460Y161679D01*
X224935D01*
X224410Y161155D01*
Y160105D01*
X224935Y159580D01*
Y162729D02*
X224410Y163254D01*
Y164303D01*
X224935Y164828D01*
X225460D01*
X225984Y164303D01*
X226509Y164828D01*
X227034D01*
X227558Y164303D01*
Y163254D01*
X227034Y162729D01*
X226509D01*
X225984Y163254D01*
X225460Y162729D01*
X224935D01*
X225984Y163254D02*
Y164303D01*
X147769Y110106D02*
X147245Y109581D01*
Y108531D01*
X147769Y108007D01*
X149868D01*
X150393Y108531D01*
Y109581D01*
X149868Y110106D01*
X150393Y113254D02*
Y111155D01*
X148294Y113254D01*
X147769D01*
X147245Y112730D01*
Y111680D01*
X147769Y111155D01*
X147245Y114304D02*
Y116403D01*
X147769D01*
X149868Y114304D01*
X150393D01*
X141470Y110106D02*
X140945Y109581D01*
Y108531D01*
X141470Y108007D01*
X143569D01*
X144094Y108531D01*
Y109581D01*
X143569Y110106D01*
X144094Y113254D02*
Y111155D01*
X141995Y113254D01*
X141470D01*
X140945Y112730D01*
Y111680D01*
X141470Y111155D01*
X140945Y116403D02*
X141470Y115353D01*
X142520Y114304D01*
X143569D01*
X144094Y114829D01*
Y115878D01*
X143569Y116403D01*
X143044D01*
X142520Y115878D01*
Y114304D01*
X115224Y88451D02*
X114699Y88976D01*
X113649D01*
X113125Y88451D01*
Y86352D01*
X113649Y85827D01*
X114699D01*
X115224Y86352D01*
X118372Y85827D02*
X116273D01*
X118372Y87926D01*
Y88451D01*
X117848Y88976D01*
X116798D01*
X116273Y88451D01*
X121521Y88976D02*
X119422D01*
Y87402D01*
X120471Y87926D01*
X120996D01*
X121521Y87402D01*
Y86352D01*
X120996Y85827D01*
X119947D01*
X119422Y86352D01*
X115618Y81758D02*
X115093Y82283D01*
X114043D01*
X113518Y81758D01*
Y79659D01*
X114043Y79134D01*
X115093D01*
X115618Y79659D01*
X118766Y79134D02*
X116667D01*
X118766Y81233D01*
Y81758D01*
X118241Y82283D01*
X117192D01*
X116667Y81758D01*
X121390Y79134D02*
Y82283D01*
X119816Y80709D01*
X121915D01*
X167454Y117980D02*
X166930Y117455D01*
Y116405D01*
X167454Y115881D01*
X169553D01*
X170078Y116405D01*
Y117455D01*
X169553Y117980D01*
X170078Y121128D02*
Y119029D01*
X167979Y121128D01*
X167454D01*
X166930Y120604D01*
Y119554D01*
X167454Y119029D01*
Y122178D02*
X166930Y122703D01*
Y123752D01*
X167454Y124277D01*
X167979D01*
X168504Y123752D01*
Y123227D01*
Y123752D01*
X169029Y124277D01*
X169553D01*
X170078Y123752D01*
Y122703D01*
X169553Y122178D01*
X143176Y132939D02*
X142652Y133464D01*
X141602D01*
X141077Y132939D01*
Y130840D01*
X141602Y130315D01*
X142652D01*
X143176Y130840D01*
X146325Y130315D02*
X144226D01*
X146325Y132414D01*
Y132939D01*
X145800Y133464D01*
X144751D01*
X144226Y132939D01*
X149474Y130315D02*
X147375D01*
X149474Y132414D01*
Y132939D01*
X148949Y133464D01*
X147899D01*
X147375Y132939D01*
X145670Y162861D02*
X145145Y163385D01*
X144096D01*
X143571Y162861D01*
Y160761D01*
X144096Y160237D01*
X145145D01*
X145670Y160761D01*
X148818Y160237D02*
X146719D01*
X148818Y162336D01*
Y162861D01*
X148294Y163385D01*
X147244D01*
X146719Y162861D01*
X149868Y160237D02*
X150917D01*
X150393D01*
Y163385D01*
X149868Y162861D01*
X133990Y168373D02*
X133465Y167849D01*
Y166799D01*
X133990Y166274D01*
X136089D01*
X136614Y166799D01*
Y167849D01*
X136089Y168373D01*
X136614Y171522D02*
Y169423D01*
X134515Y171522D01*
X133990D01*
X133465Y170997D01*
Y169948D01*
X133990Y169423D01*
Y172572D02*
X133465Y173096D01*
Y174146D01*
X133990Y174671D01*
X136089D01*
X136614Y174146D01*
Y173096D01*
X136089Y172572D01*
X133990D01*
X178084Y224935D02*
X177560Y224410D01*
Y223361D01*
X178084Y222836D01*
X180183D01*
X180708Y223361D01*
Y224410D01*
X180183Y224935D01*
X180708Y225985D02*
Y227034D01*
Y226509D01*
X177560D01*
X178084Y225985D01*
X180183Y228608D02*
X180708Y229133D01*
Y230183D01*
X180183Y230707D01*
X178084D01*
X177560Y230183D01*
Y229133D01*
X178084Y228608D01*
X178609D01*
X179134Y229133D01*
Y230707D01*
X22179Y19160D02*
X21654Y19684D01*
X20605D01*
X20080Y19160D01*
Y17061D01*
X20605Y16536D01*
X21654D01*
X22179Y17061D01*
X23229Y16536D02*
X24278D01*
X23753D01*
Y19684D01*
X23229Y19160D01*
X25852D02*
X26377Y19684D01*
X27427D01*
X27951Y19160D01*
Y18635D01*
X27427Y18110D01*
X27951Y17585D01*
Y17061D01*
X27427Y16536D01*
X26377D01*
X25852Y17061D01*
Y17585D01*
X26377Y18110D01*
X25852Y18635D01*
Y19160D01*
X26377Y18110D02*
X27427D01*
X22179Y12861D02*
X21654Y13385D01*
X20605D01*
X20080Y12861D01*
Y10762D01*
X20605Y10237D01*
X21654D01*
X22179Y10762D01*
X23229Y10237D02*
X24278D01*
X23753D01*
Y13385D01*
X23229Y12861D01*
X25852Y13385D02*
X27951D01*
Y12861D01*
X25852Y10762D01*
Y10237D01*
X22573Y6168D02*
X22048Y6692D01*
X20999D01*
X20474Y6168D01*
Y4069D01*
X20999Y3544D01*
X22048D01*
X22573Y4069D01*
X23622Y3544D02*
X24672D01*
X24147D01*
Y6692D01*
X23622Y6168D01*
X28345Y6692D02*
X27296Y6168D01*
X26246Y5118D01*
Y4069D01*
X26771Y3544D01*
X27820D01*
X28345Y4069D01*
Y4593D01*
X27820Y5118D01*
X26246D01*
X162337Y162861D02*
X161812Y163385D01*
X160762D01*
X160238Y162861D01*
Y160761D01*
X160762Y160237D01*
X161812D01*
X162337Y160761D01*
X163386Y160237D02*
X164436D01*
X163911D01*
Y163385D01*
X163386Y162861D01*
X168109Y163385D02*
X166010D01*
Y161811D01*
X167059Y162336D01*
X167584D01*
X168109Y161811D01*
Y160761D01*
X167584Y160237D01*
X166535D01*
X166010Y160761D01*
X123399Y128224D02*
X122874Y128749D01*
X121825D01*
X121300Y128224D01*
Y126125D01*
X121825Y125600D01*
X122874D01*
X123399Y126125D01*
X124449Y125600D02*
X125498D01*
X124973D01*
Y128749D01*
X124449Y128224D01*
X128647Y125600D02*
Y128749D01*
X127072Y127174D01*
X129172D01*
X123399Y134524D02*
X122874Y135049D01*
X121825D01*
X121300Y134524D01*
Y132425D01*
X121825Y131900D01*
X122874D01*
X123399Y132425D01*
X124449Y131900D02*
X125498D01*
X124973D01*
Y135049D01*
X124449Y134524D01*
X127072D02*
X127597Y135049D01*
X128647D01*
X129172Y134524D01*
Y133999D01*
X128647Y133474D01*
X128122D01*
X128647D01*
X129172Y132949D01*
Y132425D01*
X128647Y131900D01*
X127597D01*
X127072Y132425D01*
X104856Y152625D02*
X104331Y152100D01*
Y151051D01*
X104856Y150526D01*
X106955D01*
X107480Y151051D01*
Y152100D01*
X106955Y152625D01*
X107480Y153675D02*
Y154724D01*
Y154199D01*
X104331D01*
X104856Y153675D01*
X107480Y156298D02*
Y157348D01*
Y156823D01*
X104331D01*
X104856Y156298D01*
X236746Y172310D02*
X236221Y171785D01*
Y170736D01*
X236746Y170211D01*
X238845D01*
X239370Y170736D01*
Y171785D01*
X238845Y172310D01*
X239370Y173359D02*
Y174409D01*
Y173884D01*
X236221D01*
X236746Y173359D01*
Y175983D02*
X236221Y176508D01*
Y177558D01*
X236746Y178082D01*
X238845D01*
X239370Y177558D01*
Y176508D01*
X238845Y175983D01*
X236746D01*
X243439Y172310D02*
X242914Y171785D01*
Y170736D01*
X243439Y170211D01*
X245538D01*
X246062Y170736D01*
Y171785D01*
X245538Y172310D01*
Y173359D02*
X246062Y173884D01*
Y174934D01*
X245538Y175459D01*
X243439D01*
X242914Y174934D01*
Y173884D01*
X243439Y173359D01*
X243963D01*
X244488Y173884D01*
Y175459D01*
X250132Y172310D02*
X249607Y171785D01*
Y170736D01*
X250132Y170211D01*
X252231D01*
X252755Y170736D01*
Y171785D01*
X252231Y172310D01*
X250132Y173359D02*
X249607Y173884D01*
Y174934D01*
X250132Y175459D01*
X250656D01*
X251181Y174934D01*
X251706Y175459D01*
X252231D01*
X252755Y174934D01*
Y173884D01*
X252231Y173359D01*
X251706D01*
X251181Y173884D01*
X250656Y173359D01*
X250132D01*
X251181Y173884D02*
Y174934D01*
X223360Y50263D02*
X222835Y49738D01*
Y48688D01*
X223360Y48164D01*
X225459D01*
X225984Y48688D01*
Y49738D01*
X225459Y50263D01*
X222835Y51312D02*
Y53411D01*
X223360D01*
X225459Y51312D01*
X225984D01*
X75853Y172309D02*
X75328Y172834D01*
X74279D01*
X73754Y172309D01*
Y170210D01*
X74279Y169685D01*
X75328D01*
X75853Y170210D01*
X79002Y172834D02*
X77952Y172309D01*
X76903Y171260D01*
Y170210D01*
X77428Y169685D01*
X78477D01*
X79002Y170210D01*
Y170735D01*
X78477Y171260D01*
X76903D01*
X98688Y116404D02*
X98163Y116929D01*
X97114D01*
X96589Y116404D01*
Y114305D01*
X97114Y113780D01*
X98163D01*
X98688Y114305D01*
X101836Y116929D02*
X99737D01*
Y115354D01*
X100787Y115879D01*
X101312D01*
X101836Y115354D01*
Y114305D01*
X101312Y113780D01*
X100262D01*
X99737Y114305D01*
X54593Y140813D02*
X54069Y141338D01*
X53019D01*
X52494Y140813D01*
Y138714D01*
X53019Y138189D01*
X54069D01*
X54593Y138714D01*
X57217Y138189D02*
Y141338D01*
X55643Y139764D01*
X57742D01*
X46326Y140813D02*
X45801Y141338D01*
X44751D01*
X44227Y140813D01*
Y138714D01*
X44751Y138189D01*
X45801D01*
X46326Y138714D01*
X47375Y140813D02*
X47900Y141338D01*
X48950D01*
X49474Y140813D01*
Y140289D01*
X48950Y139764D01*
X48425D01*
X48950D01*
X49474Y139239D01*
Y138714D01*
X48950Y138189D01*
X47900D01*
X47375Y138714D01*
X4987Y255380D02*
X4462Y255905D01*
X3413D01*
X2888Y255380D01*
Y253281D01*
X3413Y252756D01*
X4462D01*
X4987Y253281D01*
X8136Y252756D02*
X6037D01*
X8136Y254855D01*
Y255380D01*
X7611Y255905D01*
X6561D01*
X6037Y255380D01*
X5118Y298294D02*
X4593Y298818D01*
X3544D01*
X3019Y298294D01*
Y296195D01*
X3544Y295670D01*
X4593D01*
X5118Y296195D01*
X6168Y295670D02*
X7217D01*
X6692D01*
Y298818D01*
X6168Y298294D01*
X123229Y185303D02*
X126377D01*
Y186877D01*
X125853Y187402D01*
X125328D01*
X124803Y186877D01*
Y185303D01*
Y186877D01*
X124278Y187402D01*
X123754D01*
X123229Y186877D01*
Y185303D01*
X126377Y188452D02*
X123229D01*
Y190026D01*
X123754Y190551D01*
X124803D01*
X125328Y190026D01*
Y188452D01*
Y189501D02*
X126377Y190551D01*
Y191600D02*
Y192650D01*
Y192125D01*
X123229D01*
X123754Y191600D01*
D16*
X67716Y122736D02*
D03*
M02*
