G04*
G04 #@! TF.GenerationSoftware,Altium Limited,Altium Designer,22.1.2 (22)*
G04*
G04 Layer_Physical_Order=4*
G04 Layer_Color=16711680*
%FSLAX25Y25*%
%MOIN*%
G70*
G04*
G04 #@! TF.SameCoordinates,BB4BA718-9431-4743-B970-F4C87B48E952*
G04*
G04*
G04 #@! TF.FilePolarity,Positive*
G04*
G01*
G75*
%ADD14C,0.01000*%
%ADD93C,0.08268*%
%ADD108C,0.01470*%
%ADD123R,0.02756X0.05118*%
%ADD124R,0.05118X0.02756*%
%ADD125R,0.02362X0.03543*%
%ADD128R,0.03543X0.02362*%
%ADD146C,0.01200*%
%ADD149C,0.02000*%
%ADD150C,0.06000*%
%ADD151O,0.06693X0.04756*%
%ADD152O,0.04756X0.06693*%
%ADD153C,0.07874*%
%ADD154C,0.10039*%
%ADD155R,0.10039X0.10039*%
%ADD156R,0.10039X0.10039*%
%ADD157O,0.07874X0.15748*%
%ADD158O,0.15748X0.07874*%
%ADD159O,0.07087X0.14173*%
%ADD160O,0.14173X0.07087*%
%ADD161C,0.01000*%
%ADD162C,0.04724*%
%ADD163C,0.03543*%
%ADD164C,0.06299*%
%ADD165C,0.02362*%
%ADD166C,0.01772*%
%ADD207R,0.03543X0.06299*%
%ADD208R,0.02362X0.04331*%
%ADD209R,0.02284X0.04646*%
%ADD210R,0.06299X0.03543*%
%ADD211C,0.02500*%
G36*
X22047Y284252D02*
Y224016D01*
X43307Y202756D01*
X175591D01*
X180315Y207480D01*
Y233071D01*
X184646Y237402D01*
X264173D01*
X266929Y234646D01*
Y121260D01*
X254331Y108661D01*
X232283D01*
X230315Y106693D01*
Y8661D01*
X224410Y2756D01*
X33465D01*
X31102Y5118D01*
Y10898D01*
X31602Y11161D01*
X31617Y11152D01*
X31890Y11097D01*
X42111D01*
X42263Y10597D01*
X42200Y10555D01*
X41740Y9867D01*
X41579Y9055D01*
X41740Y8243D01*
X41991Y7868D01*
X42167Y7480D01*
X41991Y7093D01*
X41740Y6718D01*
X41579Y5906D01*
X41740Y5094D01*
X42200Y4405D01*
X42889Y3945D01*
X43701Y3784D01*
X44513Y3945D01*
X45201Y4405D01*
X45661Y5094D01*
X45823Y5906D01*
X45661Y6718D01*
X45410Y7093D01*
X45235Y7480D01*
X45410Y7868D01*
X45661Y8243D01*
X45823Y9055D01*
X45661Y9867D01*
X45201Y10555D01*
X45139Y10597D01*
X45290Y11097D01*
X65354D01*
X65627Y11152D01*
X65859Y11306D01*
X66014Y11538D01*
X66068Y11811D01*
Y14567D01*
X66014Y14840D01*
X66004Y14854D01*
X66267Y15354D01*
X100000D01*
X113386Y28740D01*
Y69768D01*
X113848Y69959D01*
X131864Y51943D01*
X132679Y51318D01*
X133628Y50925D01*
X134646Y50791D01*
X139618D01*
X140572Y50396D01*
X141732Y50243D01*
X148819D01*
X149979Y50396D01*
X150933Y50791D01*
X165221D01*
X165391Y50291D01*
X164983Y49978D01*
X164191Y48946D01*
X163694Y47745D01*
X163524Y46457D01*
Y43270D01*
X168504D01*
X173484D01*
Y46457D01*
X173339Y47556D01*
X173812Y47790D01*
X180712Y40890D01*
Y14173D01*
X180846Y13155D01*
X181239Y12206D01*
X181864Y11392D01*
X187376Y5880D01*
X188191Y5255D01*
X189139Y4862D01*
X190157Y4728D01*
X218898D01*
X219916Y4862D01*
X220865Y5255D01*
X221679Y5880D01*
X224829Y9030D01*
X225454Y9844D01*
X225847Y10793D01*
X225981Y11811D01*
Y38656D01*
X226378D01*
X226651Y38711D01*
X226883Y38865D01*
X226883Y38865D01*
X229245Y41228D01*
X229399Y41459D01*
X229454Y41732D01*
Y50000D01*
X229399Y50273D01*
X229245Y50505D01*
X226489Y53261D01*
X226257Y53415D01*
X225984Y53470D01*
X217717D01*
X217443Y53415D01*
X217212Y53261D01*
X214456Y50505D01*
X214301Y50273D01*
X214247Y50000D01*
Y41732D01*
X214301Y41459D01*
X214456Y41228D01*
X216818Y38865D01*
X217050Y38711D01*
X217323Y38656D01*
X218114D01*
Y13440D01*
X217268Y12595D01*
X191787D01*
X188579Y15803D01*
Y42520D01*
X188445Y43538D01*
X188052Y44486D01*
X187427Y45301D01*
X175223Y57506D01*
X174408Y58131D01*
X173459Y58524D01*
X172441Y58658D01*
X150933D01*
X149979Y59053D01*
X148819Y59206D01*
X141732D01*
X140572Y59053D01*
X139618Y58658D01*
X136275D01*
X113386Y81547D01*
Y94095D01*
X109446Y98035D01*
Y98987D01*
X112316Y101857D01*
X112470Y102089D01*
X112525Y102362D01*
Y110236D01*
X112470Y110509D01*
X112316Y110741D01*
X109953Y113103D01*
X109722Y113258D01*
X109449Y113312D01*
X106046D01*
X105512Y113382D01*
X104978Y113312D01*
X93774D01*
X91621Y115466D01*
X157696Y181542D01*
X182044D01*
X191384Y172201D01*
Y156693D01*
X191500Y156108D01*
X191832Y155612D01*
X206399Y141044D01*
X206895Y140713D01*
X207480Y140597D01*
X234764D01*
X235408Y140166D01*
X236221Y140004D01*
X237033Y140166D01*
X237721Y140626D01*
X238181Y141314D01*
X238342Y142126D01*
X238181Y142938D01*
X237721Y143626D01*
X237033Y144086D01*
X236221Y144248D01*
X235408Y144086D01*
X234764Y143655D01*
X208114D01*
X194443Y157326D01*
Y172835D01*
X194337Y173368D01*
X194467Y173582D01*
X194665Y173812D01*
X194882Y173769D01*
X194882Y173769D01*
X200394D01*
X200394Y173769D01*
X200940Y173878D01*
X201403Y174188D01*
X204245Y177029D01*
X204331Y177012D01*
X205143Y177173D01*
X205831Y177634D01*
X206291Y178322D01*
X206453Y179134D01*
X206291Y179946D01*
X205831Y180634D01*
X205143Y181094D01*
X204331Y181256D01*
X203519Y181094D01*
X202830Y180634D01*
X202507Y180151D01*
X201942Y180162D01*
X201613Y180655D01*
X200925Y181114D01*
X200113Y181276D01*
X200026Y181259D01*
X180670Y200616D01*
X180207Y200925D01*
X179660Y201034D01*
X179660Y201034D01*
X140551D01*
X140005Y200925D01*
X139542Y200616D01*
X139542Y200616D01*
X135913Y196987D01*
X135827Y197004D01*
X135015Y196842D01*
X134326Y196382D01*
X133866Y195694D01*
X133705Y194882D01*
X133866Y194070D01*
X134326Y193382D01*
X135015Y192921D01*
X135827Y192760D01*
X136639Y192921D01*
X137327Y193382D01*
X137787Y194070D01*
X137949Y194882D01*
X137932Y194968D01*
X141142Y198179D01*
X179069D01*
X198008Y179240D01*
X197991Y179154D01*
X198152Y178342D01*
X198612Y177654D01*
X199301Y177194D01*
X199414Y176661D01*
X199398Y176624D01*
X195473D01*
X180931Y191167D01*
X180467Y191476D01*
X179921Y191585D01*
X179921Y191585D01*
X142494D01*
X142445Y191658D01*
X141757Y192118D01*
X140945Y192279D01*
X140133Y192118D01*
X139444Y191658D01*
X138985Y190970D01*
X138823Y190157D01*
X138985Y189346D01*
X139444Y188657D01*
X140133Y188197D01*
X140945Y188036D01*
X141757Y188197D01*
X142445Y188657D01*
X142494Y188730D01*
X179330D01*
X183018Y185042D01*
X182771Y184581D01*
X182677Y184600D01*
X157063D01*
X156478Y184484D01*
X155981Y184152D01*
X75715Y103886D01*
X74954Y103734D01*
X74266Y103274D01*
X73806Y102586D01*
X73644Y101774D01*
X73806Y100962D01*
X73891Y100835D01*
X73655Y100394D01*
X61074D01*
X49419Y112049D01*
X49411Y112090D01*
X48951Y112778D01*
X48263Y113238D01*
X47451Y113399D01*
X46639Y113238D01*
X45950Y112778D01*
X45531Y112737D01*
X3937Y154331D01*
Y170888D01*
X4437Y170987D01*
X5170Y170032D01*
X6221Y169225D01*
X7446Y168718D01*
X8760Y168545D01*
X10074Y168718D01*
X11299Y169225D01*
X12350Y170032D01*
X13157Y171083D01*
X13664Y172308D01*
X13837Y173622D01*
X13664Y174936D01*
X13157Y176161D01*
X12350Y177212D01*
X11299Y178019D01*
X10074Y178526D01*
X8760Y178699D01*
X7446Y178526D01*
X6221Y178019D01*
X5170Y177212D01*
X4437Y176257D01*
X3937Y176356D01*
Y191339D01*
Y283465D01*
X8268Y287795D01*
X18504D01*
X22047Y284252D01*
D02*
G37*
G36*
X312992Y96850D02*
Y7087D01*
X310220Y4315D01*
X309758Y4506D01*
Y6805D01*
X305003D01*
X304822Y6987D01*
X304326Y7318D01*
X303741Y7435D01*
X303065D01*
Y7986D01*
X287486D01*
Y6905D01*
X285002D01*
Y4528D01*
X283502D01*
Y6905D01*
X281092D01*
X280693Y6905D01*
X280663Y7393D01*
Y7437D01*
X282956Y9730D01*
X287711D01*
Y10124D01*
X302740D01*
Y9630D01*
X305549D01*
Y12008D01*
Y14386D01*
X302740D01*
X302740Y14386D01*
Y14386D01*
X302740Y14386D01*
X302278Y14477D01*
Y20388D01*
X301726D01*
Y21063D01*
X301610Y21648D01*
X301278Y22144D01*
X299795Y23628D01*
X299987Y24089D01*
X303937D01*
X304210Y24144D01*
X304442Y24298D01*
X304835Y24692D01*
X304990Y24924D01*
X305044Y25197D01*
Y39764D01*
X304990Y40037D01*
X304835Y40268D01*
X302473Y42631D01*
X302242Y42785D01*
X301969Y42840D01*
X283295D01*
Y57087D01*
X283128Y57925D01*
X282652Y58637D01*
X274778Y66511D01*
X274067Y66986D01*
X273228Y67153D01*
X239764D01*
X238925Y66986D01*
X238214Y66511D01*
X237076Y65373D01*
X236614Y65564D01*
Y96850D01*
X240551Y100787D01*
X244179D01*
Y93588D01*
X244179D01*
X244375Y93223D01*
Y88105D01*
X244375D01*
Y82761D01*
Y77643D01*
X245163D01*
Y71423D01*
X249247D01*
Y71445D01*
X250163D01*
Y71423D01*
X254246D01*
Y71445D01*
X255163D01*
Y71423D01*
X259246D01*
Y71445D01*
X260163D01*
Y71423D01*
X264247D01*
Y71445D01*
X265163D01*
Y71423D01*
X269247D01*
Y71445D01*
X270163D01*
Y71423D01*
X274247D01*
Y77770D01*
X274516Y78063D01*
X274663Y78170D01*
X274996Y78123D01*
X275063Y77969D01*
X275063Y77892D01*
Y75396D01*
X277205D01*
X279346D01*
Y77892D01*
X279346Y77969D01*
X279532Y78392D01*
X284931D01*
X285517Y78508D01*
X286013Y78840D01*
X288162Y80989D01*
X288493Y81485D01*
X288610Y82070D01*
Y82170D01*
X289752D01*
Y82181D01*
X290252Y82388D01*
X291778Y80863D01*
Y65985D01*
X290344Y64551D01*
X289816Y64693D01*
X288957D01*
X288127Y64470D01*
X287383Y64041D01*
X286776Y63433D01*
X286347Y62690D01*
X286124Y61860D01*
Y61001D01*
X286347Y60171D01*
X286776Y59427D01*
X287383Y58820D01*
X288127Y58391D01*
X288957Y58168D01*
X289816D01*
X290646Y58391D01*
X291389Y58820D01*
X291997Y59427D01*
X292426Y60171D01*
X292649Y61001D01*
Y61860D01*
X292507Y62388D01*
X293284Y63165D01*
X293746Y62974D01*
Y53780D01*
X290344Y50378D01*
X289816Y50519D01*
X288957D01*
X288127Y50297D01*
X287383Y49868D01*
X286776Y49260D01*
X286347Y48516D01*
X286124Y47687D01*
Y46828D01*
X286347Y45998D01*
X286776Y45254D01*
X287383Y44647D01*
X288127Y44217D01*
X288957Y43995D01*
X289816D01*
X290646Y44217D01*
X291389Y44647D01*
X291997Y45254D01*
X292426Y45998D01*
X292649Y46828D01*
Y47687D01*
X292507Y48215D01*
X296357Y52065D01*
X296689Y52561D01*
X296805Y53146D01*
Y84252D01*
X296689Y84837D01*
X296357Y85333D01*
X293207Y88483D01*
X292711Y88815D01*
X292126Y88931D01*
X289852D01*
Y89802D01*
X287080D01*
Y90552D01*
X286330D01*
Y92733D01*
X284309D01*
Y92733D01*
X282640D01*
Y90552D01*
X281140D01*
Y92733D01*
X277522D01*
Y90552D01*
X276022D01*
Y92733D01*
X274100D01*
Y100787D01*
X275575D01*
Y98388D01*
X278346D01*
X281118D01*
Y100787D01*
X309055D01*
X312992Y96850D01*
D02*
G37*
G36*
X111811Y110236D02*
Y102362D01*
X107480Y98032D01*
X92126D01*
X91339Y98819D01*
Y111811D01*
X92126Y112598D01*
X109449D01*
X111811Y110236D01*
D02*
G37*
G36*
X277275Y57814D02*
X277083Y57352D01*
X248698D01*
X248425Y57407D01*
X244898D01*
Y58306D01*
X242126D01*
Y59056D01*
X241376D01*
Y61237D01*
X239705D01*
X239640Y61737D01*
X240672Y62769D01*
X272320D01*
X277275Y57814D01*
D02*
G37*
G36*
X74410Y64961D02*
Y48425D01*
X71653Y45669D01*
X53937Y45669D01*
X50000Y41732D01*
X49606D01*
Y30315D01*
X65354Y14567D01*
Y11811D01*
X31890D01*
X27165Y16535D01*
Y27953D01*
X29528Y30315D01*
X33724D01*
X33533Y30777D01*
X51181Y48425D01*
X51181Y48425D01*
X51181Y48425D01*
X51181Y65354D01*
X53937Y68110D01*
X71260D01*
X74410Y64961D01*
D02*
G37*
G36*
X267717Y43307D02*
Y18898D01*
X264173Y15354D01*
X255118D01*
X253150Y13386D01*
X253150Y6693D01*
X251969Y5512D01*
X249606D01*
X248425Y6693D01*
Y13386D01*
Y34646D01*
X246850Y36220D01*
X243307D01*
X240551Y38976D01*
Y42520D01*
X241339Y43307D01*
X245669D01*
X246457Y42520D01*
Y40551D01*
X247638Y39370D01*
X251575D01*
X252362Y40157D01*
Y43109D01*
X253742Y44488D01*
X266535Y44488D01*
X267717Y43307D01*
D02*
G37*
G36*
X228740Y50000D02*
Y41732D01*
X226378Y39370D01*
X217323D01*
X214961Y41732D01*
Y50000D01*
X217717Y52756D01*
X225984D01*
X228740Y50000D01*
D02*
G37*
G36*
X304331Y39764D02*
Y25197D01*
X303937Y24803D01*
X298819D01*
X297638Y25984D01*
Y35433D01*
X296063Y37008D01*
X287795D01*
X285039Y34252D01*
Y27559D01*
X284252Y26772D01*
X277165D01*
X276772Y27165D01*
Y40157D01*
X278740Y42126D01*
X301969D01*
X304331Y39764D01*
D02*
G37*
G36*
X291126Y35842D02*
X291126D01*
Y33821D01*
X293307D01*
Y32321D01*
X291126D01*
Y30624D01*
X290635D01*
Y25895D01*
X290173Y25804D01*
X290135Y25804D01*
X288152D01*
Y24372D01*
X290173D01*
Y24403D01*
X290635Y24494D01*
X290673Y24494D01*
X294603D01*
X298147Y20950D01*
X297955Y20488D01*
X297207D01*
Y17323D01*
X295707D01*
Y20488D01*
X294276D01*
Y20388D01*
X290635D01*
Y19325D01*
X290573Y19272D01*
X290073Y19404D01*
Y19404D01*
X284758D01*
Y19995D01*
X278407D01*
X277953Y20079D01*
X277953D01*
X277953Y20079D01*
X276726Y21305D01*
Y22789D01*
X276726Y22789D01*
X276726Y23289D01*
Y25668D01*
X277165Y26058D01*
X284235D01*
X284274Y26033D01*
X284630Y25627D01*
Y24372D01*
X286652D01*
Y25804D01*
X284963D01*
X284809Y26149D01*
X284793Y26304D01*
X285544Y27054D01*
X285699Y27286D01*
X285753Y27559D01*
Y33956D01*
X288091Y36294D01*
X291009D01*
X291126Y35842D01*
D02*
G37*
G36*
X268898Y14173D02*
X270866Y12205D01*
Y9449D01*
X266142Y10630D01*
Y12205D01*
X268110Y14173D01*
Y15354D01*
X268898D01*
Y14173D01*
D02*
G37*
G36*
X249213Y55905D02*
Y51181D01*
X250000Y50394D01*
X250787D01*
X251575Y49606D01*
Y46850D01*
X250787Y46063D01*
X242520D01*
X239764Y43307D01*
Y37008D01*
X242126Y34646D01*
X246063D01*
X247244Y33465D01*
Y6693D01*
X246063Y5512D01*
X243701D01*
X236221Y12992D01*
Y34646D01*
Y54331D01*
X238583Y56693D01*
X248425D01*
X249213Y55905D01*
D02*
G37*
G36*
X264961Y6693D02*
X267126Y4527D01*
Y3333D01*
X263989D01*
X260630Y6693D01*
X263779Y9843D01*
X264961D01*
Y6693D01*
D02*
G37*
%LPC*%
G36*
X14529Y283621D02*
Y279490D01*
X18660D01*
X18589Y280029D01*
X18092Y281230D01*
X17301Y282261D01*
X16269Y283053D01*
X15068Y283550D01*
X14529Y283621D01*
D02*
G37*
G36*
X13029D02*
X12491Y283550D01*
X11290Y283053D01*
X10258Y282261D01*
X9467Y281230D01*
X8970Y280029D01*
X8899Y279490D01*
X13029D01*
Y283621D01*
D02*
G37*
G36*
X18660Y277990D02*
X14529D01*
Y273859D01*
X15068Y273930D01*
X16269Y274428D01*
X17301Y275219D01*
X18092Y276250D01*
X18589Y277451D01*
X18660Y277990D01*
D02*
G37*
G36*
X13029D02*
X8899D01*
X8970Y277451D01*
X9467Y276250D01*
X10258Y275219D01*
X11290Y274428D01*
X12491Y273930D01*
X13029Y273859D01*
Y277990D01*
D02*
G37*
G36*
X14529Y240314D02*
Y236183D01*
X18660D01*
X18589Y236722D01*
X18092Y237923D01*
X17301Y238954D01*
X16269Y239746D01*
X15068Y240243D01*
X14529Y240314D01*
D02*
G37*
G36*
X13029D02*
X12491Y240243D01*
X11290Y239746D01*
X10258Y238954D01*
X9467Y237923D01*
X8970Y236722D01*
X8899Y236183D01*
X13029D01*
Y240314D01*
D02*
G37*
G36*
X200356Y233964D02*
Y232640D01*
X201681D01*
X201661Y232741D01*
X201179Y233462D01*
X200457Y233944D01*
X200356Y233964D01*
D02*
G37*
G36*
X198856D02*
X198755Y233944D01*
X198034Y233462D01*
X197552Y232741D01*
X197532Y232640D01*
X198856D01*
Y233964D01*
D02*
G37*
G36*
X192482D02*
Y232640D01*
X193807D01*
X193787Y232741D01*
X193305Y233462D01*
X192583Y233944D01*
X192482Y233964D01*
D02*
G37*
G36*
X190982D02*
X190881Y233944D01*
X190160Y233462D01*
X189678Y232741D01*
X189658Y232640D01*
X190982D01*
Y233964D01*
D02*
G37*
G36*
X184608D02*
Y232640D01*
X185933D01*
X185913Y232741D01*
X185431Y233462D01*
X184709Y233944D01*
X184608Y233964D01*
D02*
G37*
G36*
X183108D02*
X183007Y233944D01*
X182286Y233462D01*
X181804Y232741D01*
X181784Y232640D01*
X183108D01*
Y233964D01*
D02*
G37*
G36*
X18660Y234683D02*
X14529D01*
Y230552D01*
X15068Y230623D01*
X16269Y231121D01*
X17301Y231912D01*
X18092Y232943D01*
X18589Y234144D01*
X18660Y234683D01*
D02*
G37*
G36*
X13029D02*
X8899D01*
X8970Y234144D01*
X9467Y232943D01*
X10258Y231912D01*
X11290Y231121D01*
X12491Y230623D01*
X13029Y230552D01*
Y234683D01*
D02*
G37*
G36*
X201681Y231140D02*
X200356D01*
Y229815D01*
X200457Y229835D01*
X201179Y230317D01*
X201661Y231039D01*
X201681Y231140D01*
D02*
G37*
G36*
X198856D02*
X197532D01*
X197552Y231039D01*
X198034Y230317D01*
X198755Y229835D01*
X198856Y229815D01*
Y231140D01*
D02*
G37*
G36*
X193807D02*
X192482D01*
Y229815D01*
X192583Y229835D01*
X193305Y230317D01*
X193787Y231039D01*
X193807Y231140D01*
D02*
G37*
G36*
X190982D02*
X189658D01*
X189678Y231039D01*
X190160Y230317D01*
X190881Y229835D01*
X190982Y229815D01*
Y231140D01*
D02*
G37*
G36*
X185933D02*
X184608D01*
Y229815D01*
X184709Y229835D01*
X185431Y230317D01*
X185913Y231039D01*
X185933Y231140D01*
D02*
G37*
G36*
X183108D02*
X181784D01*
X181804Y231039D01*
X182286Y230317D01*
X183007Y229835D01*
X183108Y229815D01*
Y231140D01*
D02*
G37*
G36*
X197994Y222991D02*
Y218860D01*
X202125D01*
X202054Y219399D01*
X201557Y220600D01*
X200765Y221631D01*
X199734Y222423D01*
X198533Y222920D01*
X197994Y222991D01*
D02*
G37*
G36*
X196494D02*
X195955Y222920D01*
X194754Y222423D01*
X193723Y221631D01*
X192932Y220600D01*
X192434Y219399D01*
X192363Y218860D01*
X196494D01*
Y222991D01*
D02*
G37*
G36*
X254293Y218216D02*
Y216892D01*
X255618D01*
X255598Y216993D01*
X255116Y217714D01*
X254394Y218196D01*
X254293Y218216D01*
D02*
G37*
G36*
X252793D02*
X252692Y218196D01*
X251971Y217714D01*
X251489Y216993D01*
X251469Y216892D01*
X252793D01*
Y218216D01*
D02*
G37*
G36*
X246419D02*
Y216892D01*
X247744D01*
X247724Y216993D01*
X247242Y217714D01*
X246520Y218196D01*
X246419Y218216D01*
D02*
G37*
G36*
X244919D02*
X244818Y218196D01*
X244097Y217714D01*
X243615Y216993D01*
X243595Y216892D01*
X244919D01*
Y218216D01*
D02*
G37*
G36*
X238545D02*
Y216892D01*
X239870D01*
X239850Y216993D01*
X239368Y217714D01*
X238646Y218196D01*
X238545Y218216D01*
D02*
G37*
G36*
X237045D02*
X236944Y218196D01*
X236223Y217714D01*
X235741Y216993D01*
X235721Y216892D01*
X237045D01*
Y218216D01*
D02*
G37*
G36*
X7837Y216642D02*
Y215317D01*
X9161D01*
X9141Y215418D01*
X8659Y216139D01*
X7938Y216621D01*
X7837Y216642D01*
D02*
G37*
G36*
X6337D02*
X6236Y216621D01*
X5514Y216139D01*
X5032Y215418D01*
X5012Y215317D01*
X6337D01*
Y216642D01*
D02*
G37*
G36*
X17679Y216248D02*
Y214923D01*
X19004D01*
X18984Y215024D01*
X18502Y215746D01*
X17780Y216228D01*
X17679Y216248D01*
D02*
G37*
G36*
X16179D02*
X16078Y216228D01*
X15357Y215746D01*
X14875Y215024D01*
X14854Y214923D01*
X16179D01*
Y216248D01*
D02*
G37*
G36*
X255618Y215392D02*
X254293D01*
Y214067D01*
X254394Y214087D01*
X255116Y214569D01*
X255598Y215291D01*
X255618Y215392D01*
D02*
G37*
G36*
X252793D02*
X251469D01*
X251489Y215291D01*
X251971Y214569D01*
X252692Y214087D01*
X252793Y214067D01*
Y215392D01*
D02*
G37*
G36*
X247744D02*
X246419D01*
Y214067D01*
X246520Y214087D01*
X247242Y214569D01*
X247724Y215291D01*
X247744Y215392D01*
D02*
G37*
G36*
X244919D02*
X243595D01*
X243615Y215291D01*
X244097Y214569D01*
X244818Y214087D01*
X244919Y214067D01*
Y215392D01*
D02*
G37*
G36*
X239870D02*
X238545D01*
Y214067D01*
X238646Y214087D01*
X239368Y214569D01*
X239850Y215291D01*
X239870Y215392D01*
D02*
G37*
G36*
X237045D02*
X235721D01*
X235741Y215291D01*
X236223Y214569D01*
X236944Y214087D01*
X237045Y214067D01*
Y215392D01*
D02*
G37*
G36*
X196494Y217360D02*
X192363D01*
X192434Y216821D01*
X192932Y215620D01*
X193723Y214589D01*
X194754Y213798D01*
X195955Y213300D01*
X196494Y213229D01*
Y217360D01*
D02*
G37*
G36*
X202125D02*
X197994D01*
Y213229D01*
X198533Y213300D01*
X199734Y213798D01*
X200765Y214589D01*
X201557Y215620D01*
X202054Y216821D01*
X202125Y217360D01*
D02*
G37*
G36*
X9161Y213817D02*
X7837D01*
Y212492D01*
X7938Y212512D01*
X8659Y212994D01*
X9141Y213716D01*
X9161Y213817D01*
D02*
G37*
G36*
X6337D02*
X5012D01*
X5032Y213716D01*
X5514Y212994D01*
X6236Y212512D01*
X6337Y212492D01*
Y213817D01*
D02*
G37*
G36*
X19004Y213423D02*
X17679D01*
Y212099D01*
X17780Y212119D01*
X18502Y212601D01*
X18984Y213322D01*
X19004Y213423D01*
D02*
G37*
G36*
X16179D02*
X14854D01*
X14875Y213322D01*
X15357Y212601D01*
X16078Y212119D01*
X16179Y212099D01*
Y213423D01*
D02*
G37*
G36*
X254293Y210342D02*
Y209018D01*
X255618D01*
X255598Y209119D01*
X255116Y209840D01*
X254394Y210322D01*
X254293Y210342D01*
D02*
G37*
G36*
X252793D02*
X252692Y210322D01*
X251971Y209840D01*
X251489Y209119D01*
X251469Y209018D01*
X252793D01*
Y210342D01*
D02*
G37*
G36*
X246419D02*
Y209018D01*
X247744D01*
X247724Y209119D01*
X247242Y209840D01*
X246520Y210322D01*
X246419Y210342D01*
D02*
G37*
G36*
X244919D02*
X244818Y210322D01*
X244097Y209840D01*
X243615Y209119D01*
X243595Y209018D01*
X244919D01*
Y210342D01*
D02*
G37*
G36*
X238545D02*
Y209018D01*
X239870D01*
X239850Y209119D01*
X239368Y209840D01*
X238646Y210322D01*
X238545Y210342D01*
D02*
G37*
G36*
X237045D02*
X236944Y210322D01*
X236223Y209840D01*
X235741Y209119D01*
X235721Y209018D01*
X237045D01*
Y210342D01*
D02*
G37*
G36*
X255618Y207518D02*
X254293D01*
Y206193D01*
X254394Y206213D01*
X255116Y206695D01*
X255598Y207417D01*
X255618Y207518D01*
D02*
G37*
G36*
X252793D02*
X251469D01*
X251489Y207417D01*
X251971Y206695D01*
X252692Y206213D01*
X252793Y206193D01*
Y207518D01*
D02*
G37*
G36*
X247744D02*
X246419D01*
Y206193D01*
X246520Y206213D01*
X247242Y206695D01*
X247724Y207417D01*
X247744Y207518D01*
D02*
G37*
G36*
X244919D02*
X243595D01*
X243615Y207417D01*
X244097Y206695D01*
X244818Y206213D01*
X244919Y206193D01*
Y207518D01*
D02*
G37*
G36*
X239870D02*
X238545D01*
Y206193D01*
X238646Y206213D01*
X239368Y206695D01*
X239850Y207417D01*
X239870Y207518D01*
D02*
G37*
G36*
X237045D02*
X235721D01*
X235741Y207417D01*
X236223Y206695D01*
X236944Y206213D01*
X237045Y206193D01*
Y207518D01*
D02*
G37*
G36*
X254293Y202468D02*
Y201144D01*
X255618D01*
X255598Y201245D01*
X255116Y201966D01*
X254394Y202448D01*
X254293Y202468D01*
D02*
G37*
G36*
X252793D02*
X252692Y202448D01*
X251971Y201966D01*
X251489Y201245D01*
X251469Y201144D01*
X252793D01*
Y202468D01*
D02*
G37*
G36*
X246419D02*
Y201144D01*
X247744D01*
X247724Y201245D01*
X247242Y201966D01*
X246520Y202448D01*
X246419Y202468D01*
D02*
G37*
G36*
X244919D02*
X244818Y202448D01*
X244097Y201966D01*
X243615Y201245D01*
X243595Y201144D01*
X244919D01*
Y202468D01*
D02*
G37*
G36*
X238545D02*
Y201144D01*
X239870D01*
X239850Y201245D01*
X239368Y201966D01*
X238646Y202448D01*
X238545Y202468D01*
D02*
G37*
G36*
X237045D02*
X236944Y202448D01*
X236223Y201966D01*
X235741Y201245D01*
X235721Y201144D01*
X237045D01*
Y202468D01*
D02*
G37*
G36*
X255618Y199644D02*
X254293D01*
Y198319D01*
X254394Y198339D01*
X255116Y198821D01*
X255598Y199543D01*
X255618Y199644D01*
D02*
G37*
G36*
X252793D02*
X251469D01*
X251489Y199543D01*
X251971Y198821D01*
X252692Y198339D01*
X252793Y198319D01*
Y199644D01*
D02*
G37*
G36*
X247744D02*
X246419D01*
Y198319D01*
X246520Y198339D01*
X247242Y198821D01*
X247724Y199543D01*
X247744Y199644D01*
D02*
G37*
G36*
X244919D02*
X243595D01*
X243615Y199543D01*
X244097Y198821D01*
X244818Y198339D01*
X244919Y198319D01*
Y199644D01*
D02*
G37*
G36*
X239870D02*
X238545D01*
Y198319D01*
X238646Y198339D01*
X239368Y198821D01*
X239850Y199543D01*
X239870Y199644D01*
D02*
G37*
G36*
X237045D02*
X235721D01*
X235741Y199543D01*
X236223Y198821D01*
X236944Y198339D01*
X237045Y198319D01*
Y199644D01*
D02*
G37*
G36*
X197244Y203304D02*
X195981Y203138D01*
X194805Y202650D01*
X193794Y201875D01*
X193019Y200865D01*
X192532Y199688D01*
X192365Y198425D01*
X192532Y197162D01*
X193019Y195986D01*
X193794Y194975D01*
X194805Y194200D01*
X195981Y193713D01*
X197244Y193546D01*
X198507Y193713D01*
X199683Y194200D01*
X200694Y194975D01*
X201469Y195986D01*
X201957Y197162D01*
X202123Y198425D01*
X201957Y199688D01*
X201469Y200865D01*
X200694Y201875D01*
X199683Y202650D01*
X198507Y203138D01*
X197244Y203304D01*
D02*
G37*
G36*
X254293Y194594D02*
Y193270D01*
X255618D01*
X255598Y193371D01*
X255116Y194092D01*
X254394Y194574D01*
X254293Y194594D01*
D02*
G37*
G36*
X252793D02*
X252692Y194574D01*
X251971Y194092D01*
X251489Y193371D01*
X251469Y193270D01*
X252793D01*
Y194594D01*
D02*
G37*
G36*
X246419D02*
Y193270D01*
X247744D01*
X247724Y193371D01*
X247242Y194092D01*
X246520Y194574D01*
X246419Y194594D01*
D02*
G37*
G36*
X244919D02*
X244818Y194574D01*
X244097Y194092D01*
X243615Y193371D01*
X243595Y193270D01*
X244919D01*
Y194594D01*
D02*
G37*
G36*
X238545D02*
Y193270D01*
X239870D01*
X239850Y193371D01*
X239368Y194092D01*
X238646Y194574D01*
X238545Y194594D01*
D02*
G37*
G36*
X237045D02*
X236944Y194574D01*
X236223Y194092D01*
X235741Y193371D01*
X235721Y193270D01*
X237045D01*
Y194594D01*
D02*
G37*
G36*
X64961Y191098D02*
X64149Y190937D01*
X63773Y190686D01*
X63386Y190510D01*
X62999Y190686D01*
X62623Y190937D01*
X61811Y191098D01*
X60999Y190937D01*
X60624Y190686D01*
X60236Y190510D01*
X59849Y190686D01*
X59473Y190937D01*
X58661Y191098D01*
X57849Y190937D01*
X57474Y190686D01*
X57087Y190510D01*
X56699Y190686D01*
X56324Y190937D01*
X55512Y191098D01*
X54700Y190937D01*
X54324Y190686D01*
X53937Y190510D01*
X53550Y190686D01*
X53174Y190937D01*
X52362Y191098D01*
X51550Y190937D01*
X50862Y190477D01*
X50402Y189788D01*
X50240Y188976D01*
X50402Y188164D01*
X50862Y187476D01*
X51550Y187016D01*
X52362Y186855D01*
X53174Y187016D01*
X53550Y187267D01*
X53937Y187442D01*
X54324Y187267D01*
X54700Y187016D01*
X55512Y186855D01*
X56324Y187016D01*
X56699Y187267D01*
X57087Y187442D01*
X57474Y187267D01*
X57849Y187016D01*
X58661Y186855D01*
X59473Y187016D01*
X59849Y187267D01*
X60236Y187442D01*
X60624Y187267D01*
X60999Y187016D01*
X61811Y186855D01*
X62623Y187016D01*
X62999Y187267D01*
X63386Y187442D01*
X63773Y187267D01*
X64149Y187016D01*
X64961Y186855D01*
X65773Y187016D01*
X66461Y187476D01*
X66921Y188164D01*
X67083Y188976D01*
X66921Y189788D01*
X66461Y190477D01*
X65773Y190937D01*
X64961Y191098D01*
D02*
G37*
G36*
X255618Y191770D02*
X254293D01*
Y190445D01*
X254394Y190465D01*
X255116Y190947D01*
X255598Y191669D01*
X255618Y191770D01*
D02*
G37*
G36*
X252793D02*
X251469D01*
X251489Y191669D01*
X251971Y190947D01*
X252692Y190465D01*
X252793Y190445D01*
Y191770D01*
D02*
G37*
G36*
X247744D02*
X246419D01*
Y190445D01*
X246520Y190465D01*
X247242Y190947D01*
X247724Y191669D01*
X247744Y191770D01*
D02*
G37*
G36*
X244919D02*
X243595D01*
X243615Y191669D01*
X244097Y190947D01*
X244818Y190465D01*
X244919Y190445D01*
Y191770D01*
D02*
G37*
G36*
X239870D02*
X238545D01*
Y190445D01*
X238646Y190465D01*
X239368Y190947D01*
X239850Y191669D01*
X239870Y191770D01*
D02*
G37*
G36*
X237045D02*
X235721D01*
X235741Y191669D01*
X236223Y190947D01*
X236944Y190465D01*
X237045Y190445D01*
Y191770D01*
D02*
G37*
G36*
X18073Y186720D02*
Y185396D01*
X19398D01*
X19377Y185497D01*
X18895Y186218D01*
X18174Y186700D01*
X18073Y186720D01*
D02*
G37*
G36*
X16573D02*
X16472Y186700D01*
X15750Y186218D01*
X15268Y185497D01*
X15248Y185396D01*
X16573D01*
Y186720D01*
D02*
G37*
G36*
X31852Y186327D02*
Y185002D01*
X33177D01*
X33157Y185103D01*
X32675Y185825D01*
X31953Y186307D01*
X31852Y186327D01*
D02*
G37*
G36*
X30352D02*
X30251Y186307D01*
X29530Y185825D01*
X29048Y185103D01*
X29028Y185002D01*
X30352D01*
Y186327D01*
D02*
G37*
G36*
X38939Y183964D02*
Y182640D01*
X40264D01*
X40244Y182741D01*
X39761Y183462D01*
X39040Y183944D01*
X38939Y183964D01*
D02*
G37*
G36*
X37439D02*
X37338Y183944D01*
X36617Y183462D01*
X36134Y182741D01*
X36114Y182640D01*
X37439D01*
Y183964D01*
D02*
G37*
G36*
X19398Y183896D02*
X18073D01*
Y182571D01*
X18174Y182591D01*
X18895Y183073D01*
X19377Y183795D01*
X19398Y183896D01*
D02*
G37*
G36*
X16573D02*
X15248D01*
X15268Y183795D01*
X15750Y183073D01*
X16472Y182591D01*
X16573Y182571D01*
Y183896D01*
D02*
G37*
G36*
X33177Y183502D02*
X31852D01*
Y182177D01*
X31953Y182197D01*
X32675Y182679D01*
X33157Y183401D01*
X33177Y183502D01*
D02*
G37*
G36*
X30352D02*
X29028D01*
X29048Y183401D01*
X29530Y182679D01*
X30251Y182197D01*
X30352Y182177D01*
Y183502D01*
D02*
G37*
G36*
X40264Y181140D02*
X38939D01*
Y179815D01*
X39040Y179835D01*
X39761Y180317D01*
X40244Y181039D01*
X40264Y181140D01*
D02*
G37*
G36*
X37439D02*
X36114D01*
X36134Y181039D01*
X36617Y180317D01*
X37338Y179835D01*
X37439Y179815D01*
Y181140D01*
D02*
G37*
G36*
X231102Y180862D02*
X230290Y180701D01*
X229602Y180241D01*
X229142Y179552D01*
X228980Y178740D01*
X229142Y177928D01*
X229602Y177240D01*
X230290Y176780D01*
X231102Y176618D01*
X231914Y176780D01*
X232603Y177240D01*
X233063Y177928D01*
X233224Y178740D01*
X233063Y179552D01*
X232603Y180241D01*
X231914Y180701D01*
X231102Y180862D01*
D02*
G37*
G36*
X225984D02*
X225172Y180701D01*
X224484Y180241D01*
X224024Y179552D01*
X223862Y178740D01*
X224024Y177928D01*
X224484Y177240D01*
X225172Y176780D01*
X225984Y176618D01*
X226796Y176780D01*
X227485Y177240D01*
X227945Y177928D01*
X228106Y178740D01*
X227945Y179552D01*
X227485Y180241D01*
X226796Y180701D01*
X225984Y180862D01*
D02*
G37*
G36*
X180709D02*
X179897Y180701D01*
X179208Y180241D01*
X178748Y179552D01*
X178587Y178740D01*
X178604Y178654D01*
X152928Y152978D01*
X152618Y152515D01*
X152510Y151969D01*
X152510Y151969D01*
Y109423D01*
X152437Y109374D01*
X151977Y108686D01*
X151815Y107874D01*
X151977Y107062D01*
X152437Y106374D01*
X153125Y105914D01*
X153937Y105752D01*
X154749Y105914D01*
X155437Y106374D01*
X155897Y107062D01*
X156059Y107874D01*
X155897Y108686D01*
X155437Y109374D01*
X155364Y109423D01*
Y151377D01*
X180623Y176635D01*
X180709Y176618D01*
X181521Y176780D01*
X182209Y177240D01*
X182669Y177928D01*
X182831Y178740D01*
X182669Y179552D01*
X182209Y180241D01*
X181521Y180701D01*
X180709Y180862D01*
D02*
G37*
G36*
X27226Y182440D02*
Y174372D01*
X31456D01*
Y177559D01*
X31286Y178848D01*
X30789Y180049D01*
X29998Y181080D01*
X28966Y181871D01*
X27765Y182369D01*
X27226Y182440D01*
D02*
G37*
G36*
X25726D02*
X25188Y182369D01*
X23987Y181871D01*
X22955Y181080D01*
X22164Y180049D01*
X21666Y178848D01*
X21497Y177559D01*
Y174372D01*
X25726D01*
Y182440D01*
D02*
G37*
G36*
X262205Y174957D02*
X261393Y174795D01*
X260704Y174335D01*
X260244Y173647D01*
X260083Y172835D01*
X260244Y172023D01*
X260704Y171334D01*
X261393Y170874D01*
X262205Y170713D01*
X263017Y170874D01*
X263705Y171334D01*
X264165Y172023D01*
X264327Y172835D01*
X264165Y173647D01*
X263705Y174335D01*
X263017Y174795D01*
X262205Y174957D01*
D02*
G37*
G36*
X256693D02*
X255881Y174795D01*
X255192Y174335D01*
X254733Y173647D01*
X254571Y172835D01*
X254733Y172023D01*
X255192Y171334D01*
X255881Y170874D01*
X256693Y170713D01*
X257505Y170874D01*
X258193Y171334D01*
X258653Y172023D01*
X258815Y172835D01*
X258653Y173647D01*
X258193Y174335D01*
X257505Y174795D01*
X256693Y174957D01*
D02*
G37*
G36*
X250787D02*
X249975Y174795D01*
X249287Y174335D01*
X248827Y173647D01*
X248665Y172835D01*
X248827Y172023D01*
X249287Y171334D01*
X249975Y170874D01*
X250787Y170713D01*
X251599Y170874D01*
X252288Y171334D01*
X252748Y172023D01*
X252909Y172835D01*
X252748Y173647D01*
X252288Y174335D01*
X251599Y174795D01*
X250787Y174957D01*
D02*
G37*
G36*
X244094D02*
X243283Y174795D01*
X242594Y174335D01*
X242134Y173647D01*
X241973Y172835D01*
X242134Y172023D01*
X242594Y171334D01*
X243283Y170874D01*
X244094Y170713D01*
X244906Y170874D01*
X245595Y171334D01*
X246055Y172023D01*
X246216Y172835D01*
X246055Y173647D01*
X245595Y174335D01*
X244906Y174795D01*
X244094Y174957D01*
D02*
G37*
G36*
X237402D02*
X236590Y174795D01*
X235901Y174335D01*
X235441Y173647D01*
X235280Y172835D01*
X235441Y172023D01*
X235901Y171334D01*
X236590Y170874D01*
X237402Y170713D01*
X238214Y170874D01*
X238902Y171334D01*
X239362Y172023D01*
X239524Y172835D01*
X239362Y173647D01*
X238902Y174335D01*
X238214Y174795D01*
X237402Y174957D01*
D02*
G37*
G36*
X51279Y185978D02*
X50120Y185825D01*
X49039Y185377D01*
X48110Y184665D01*
X47398Y183737D01*
X46951Y182656D01*
X46798Y181496D01*
Y174409D01*
X46951Y173249D01*
X47398Y172169D01*
X48110Y171240D01*
X49039Y170528D01*
X50120Y170080D01*
X51279Y169928D01*
X52439Y170080D01*
X53520Y170528D01*
X54448Y171240D01*
X55161Y172169D01*
X55608Y173249D01*
X55761Y174409D01*
Y181496D01*
X55608Y182656D01*
X55161Y183737D01*
X54448Y184665D01*
X53520Y185377D01*
X52439Y185825D01*
X51279Y185978D01*
D02*
G37*
G36*
X38939Y167823D02*
Y166498D01*
X40264D01*
X40244Y166599D01*
X39761Y167321D01*
X39040Y167803D01*
X38939Y167823D01*
D02*
G37*
G36*
X37439D02*
X37338Y167803D01*
X36617Y167321D01*
X36134Y166599D01*
X36114Y166498D01*
X37439D01*
Y167823D01*
D02*
G37*
G36*
X31456Y172872D02*
X27226D01*
Y164804D01*
X27765Y164875D01*
X28966Y165373D01*
X29998Y166164D01*
X30789Y167195D01*
X31286Y168396D01*
X31456Y169685D01*
Y172872D01*
D02*
G37*
G36*
X25726D02*
X21497D01*
Y169685D01*
X21666Y168396D01*
X22164Y167195D01*
X22955Y166164D01*
X23987Y165373D01*
X25188Y164875D01*
X25726Y164804D01*
Y172872D01*
D02*
G37*
G36*
X40264Y164998D02*
X38939D01*
Y163673D01*
X39040Y163693D01*
X39761Y164175D01*
X40244Y164897D01*
X40264Y164998D01*
D02*
G37*
G36*
X37439D02*
X36114D01*
X36134Y164897D01*
X36617Y164175D01*
X37338Y163693D01*
X37439Y163673D01*
Y164998D01*
D02*
G37*
G36*
X261598Y169842D02*
X259661D01*
X258806Y169729D01*
X258008Y169399D01*
X257324Y168873D01*
X256798Y168189D01*
X256468Y167391D01*
X256355Y166535D01*
X256468Y165680D01*
X256798Y164882D01*
X257324Y164198D01*
X257632Y163961D01*
Y163331D01*
X257252Y163039D01*
X256711Y162334D01*
X256370Y161512D01*
X256353Y161380D01*
X260630D01*
X264907D01*
X264889Y161512D01*
X264549Y162334D01*
X264008Y163039D01*
X263628Y163331D01*
Y163961D01*
X263936Y164198D01*
X264462Y164882D01*
X264792Y165680D01*
X264905Y166535D01*
X264792Y167391D01*
X264462Y168189D01*
X263936Y168873D01*
X263251Y169399D01*
X262454Y169729D01*
X261598Y169842D01*
D02*
G37*
G36*
X63779Y163539D02*
X62967Y163378D01*
X62279Y162918D01*
X61819Y162229D01*
X61658Y161417D01*
X61819Y160605D01*
X62279Y159917D01*
X62967Y159457D01*
X63779Y159295D01*
X64591Y159457D01*
X65280Y159917D01*
X65740Y160605D01*
X65901Y161417D01*
X65740Y162229D01*
X65280Y162918D01*
X64591Y163378D01*
X63779Y163539D01*
D02*
G37*
G36*
X58661D02*
X57849Y163378D01*
X57161Y162918D01*
X56701Y162229D01*
X56539Y161417D01*
X56701Y160605D01*
X57161Y159917D01*
X57849Y159457D01*
X58661Y159295D01*
X59473Y159457D01*
X60162Y159917D01*
X60622Y160605D01*
X60783Y161417D01*
X60622Y162229D01*
X60162Y162918D01*
X59473Y163378D01*
X58661Y163539D01*
D02*
G37*
G36*
X52756D02*
X51944Y163378D01*
X51256Y162918D01*
X50796Y162229D01*
X50634Y161417D01*
X50796Y160605D01*
X51256Y159917D01*
X51944Y159457D01*
X52756Y159295D01*
X53568Y159457D01*
X54256Y159917D01*
X54716Y160605D01*
X54878Y161417D01*
X54716Y162229D01*
X54256Y162918D01*
X53568Y163378D01*
X52756Y163539D01*
D02*
G37*
G36*
X43012Y159704D02*
X39825D01*
Y155474D01*
X47893D01*
X47822Y156013D01*
X47324Y157214D01*
X46533Y158246D01*
X45502Y159037D01*
X44301Y159534D01*
X43012Y159704D01*
D02*
G37*
G36*
X38325D02*
X35138D01*
X33849Y159534D01*
X32648Y159037D01*
X31617Y158246D01*
X30825Y157214D01*
X30328Y156013D01*
X30257Y155474D01*
X38325D01*
Y159704D01*
D02*
G37*
G36*
X225228Y159415D02*
X224416Y159254D01*
X223727Y158794D01*
X223268Y158105D01*
X223106Y157293D01*
X223268Y156481D01*
X223727Y155793D01*
X224416Y155333D01*
X225228Y155171D01*
X226040Y155333D01*
X226728Y155793D01*
X227188Y156481D01*
X227350Y157293D01*
X227188Y158105D01*
X226728Y158794D01*
X226040Y159254D01*
X225228Y159415D01*
D02*
G37*
G36*
X216142Y198185D02*
X215330Y198023D01*
X214641Y197563D01*
X214181Y196875D01*
X214020Y196063D01*
X214181Y195251D01*
X214641Y194563D01*
X214714Y194514D01*
Y154528D01*
X212795Y152609D01*
X209423D01*
X209374Y152682D01*
X208686Y153141D01*
X207874Y153303D01*
X207062Y153141D01*
X206374Y152682D01*
X205914Y151993D01*
X205752Y151181D01*
X205914Y150369D01*
X206374Y149681D01*
X207062Y149221D01*
X207874Y149059D01*
X208686Y149221D01*
X209374Y149681D01*
X209423Y149754D01*
X213386D01*
X213386Y149754D01*
X213932Y149862D01*
X214395Y150172D01*
X217151Y152928D01*
X217151Y152928D01*
X217460Y153391D01*
X217569Y153937D01*
X217569Y153937D01*
Y194514D01*
X217642Y194563D01*
X218102Y195251D01*
X218264Y196063D01*
X218102Y196875D01*
X217642Y197563D01*
X216954Y198023D01*
X216142Y198185D01*
D02*
G37*
G36*
X47893Y153974D02*
X39825D01*
Y149745D01*
X43012D01*
X44301Y149915D01*
X45502Y150412D01*
X46533Y151203D01*
X47324Y152235D01*
X47822Y153436D01*
X47893Y153974D01*
D02*
G37*
G36*
X38325D02*
X30257D01*
X30328Y153436D01*
X30825Y152235D01*
X31617Y151203D01*
X32648Y150412D01*
X33849Y149915D01*
X35138Y149745D01*
X38325D01*
Y153974D01*
D02*
G37*
G36*
X264907Y159880D02*
X260630D01*
X256353D01*
X256370Y159748D01*
X256711Y158926D01*
X257252Y158221D01*
X257632Y157929D01*
Y157299D01*
X257324Y157062D01*
X256798Y156377D01*
X256705Y156152D01*
X255512D01*
X254966Y156043D01*
X254503Y155734D01*
X254502Y155734D01*
X248312Y149543D01*
X247770Y149708D01*
X247745Y149831D01*
X247369Y150394D01*
X247745Y150957D01*
X247884Y151654D01*
X247745Y152350D01*
X247351Y152941D01*
X246760Y153336D01*
X246063Y153474D01*
X245366Y153336D01*
X245306Y153296D01*
X236136D01*
X236076Y153336D01*
X235379Y153474D01*
X234682Y153336D01*
X234092Y152941D01*
X233697Y152350D01*
X233558Y151654D01*
X233697Y150957D01*
X234073Y150394D01*
X233697Y149831D01*
X233558Y149134D01*
X233697Y148437D01*
X234092Y147846D01*
X234682Y147452D01*
X235379Y147313D01*
X236076Y147452D01*
X236136Y147492D01*
X245306D01*
X245366Y147452D01*
X246063Y147313D01*
X246498Y147399D01*
X246998Y147055D01*
Y121457D01*
X245078Y119538D01*
X207678D01*
X206042Y121174D01*
X206059Y121260D01*
X205897Y122072D01*
X205437Y122760D01*
X204749Y123220D01*
X203937Y123382D01*
X203125Y123220D01*
X202437Y122760D01*
X201977Y122072D01*
X201815Y121260D01*
X201977Y120448D01*
X202437Y119759D01*
X203125Y119299D01*
X203937Y119138D01*
X204023Y119155D01*
X205147Y118031D01*
X204956Y117569D01*
X203741D01*
X200136Y121174D01*
X200153Y121260D01*
X199992Y122072D01*
X199532Y122760D01*
X198844Y123220D01*
X198031Y123382D01*
X197220Y123220D01*
X196531Y122760D01*
X196071Y122072D01*
X195910Y121260D01*
X196071Y120448D01*
X196531Y119759D01*
X197220Y119299D01*
X198031Y119138D01*
X198118Y119155D01*
X202140Y115132D01*
X202603Y114823D01*
X203150Y114714D01*
X203150Y114714D01*
X206240D01*
X206630Y114214D01*
X206540Y113761D01*
X206701Y112949D01*
X207161Y112260D01*
X207849Y111800D01*
X208661Y111639D01*
X209473Y111800D01*
X210162Y112260D01*
X210223Y112352D01*
X246147D01*
X246147Y112352D01*
X246693Y112461D01*
X247156Y112770D01*
X252835Y118448D01*
X252835Y118448D01*
X253144Y118912D01*
X253253Y119458D01*
X253253Y119458D01*
Y138242D01*
X256261Y141250D01*
X256502Y141255D01*
X256866Y141171D01*
X257324Y140576D01*
X257719Y140272D01*
Y139649D01*
X257324Y139346D01*
X256798Y138661D01*
X256468Y137864D01*
X256355Y137008D01*
X256468Y136152D01*
X256798Y135355D01*
X257324Y134670D01*
X258008Y134145D01*
X258806Y133814D01*
X259661Y133702D01*
X261598D01*
X262454Y133814D01*
X263251Y134145D01*
X263936Y134670D01*
X264462Y135355D01*
X264792Y136152D01*
X264905Y137008D01*
X264792Y137864D01*
X264462Y138661D01*
X263936Y139346D01*
X263541Y139649D01*
Y140272D01*
X263936Y140576D01*
X264462Y141260D01*
X264792Y142058D01*
X264905Y142913D01*
X264792Y143769D01*
X264462Y144567D01*
X263936Y145251D01*
X263541Y145555D01*
Y146177D01*
X263936Y146481D01*
X264462Y147166D01*
X264792Y147963D01*
X264905Y148819D01*
X264792Y149675D01*
X264462Y150472D01*
X263936Y151157D01*
X263541Y151460D01*
Y152083D01*
X263936Y152387D01*
X264462Y153071D01*
X264792Y153869D01*
X264905Y154724D01*
X264792Y155580D01*
X264462Y156377D01*
X263936Y157062D01*
X263628Y157299D01*
Y157929D01*
X264008Y158221D01*
X264549Y158926D01*
X264889Y159748D01*
X264907Y159880D01*
D02*
G37*
G36*
X77915Y146957D02*
Y145632D01*
X79240D01*
X79220Y145733D01*
X78738Y146454D01*
X78016Y146936D01*
X77915Y146957D01*
D02*
G37*
G36*
X76415D02*
X76314Y146936D01*
X75593Y146454D01*
X75111Y145733D01*
X75091Y145632D01*
X76415D01*
Y146957D01*
D02*
G37*
G36*
X66104D02*
Y145632D01*
X67429D01*
X67409Y145733D01*
X66927Y146454D01*
X66205Y146936D01*
X66104Y146957D01*
D02*
G37*
G36*
X64604D02*
X64503Y146936D01*
X63782Y146454D01*
X63300Y145733D01*
X63280Y145632D01*
X64604D01*
Y146957D01*
D02*
G37*
G36*
X79240Y144132D02*
X77915D01*
Y142807D01*
X78016Y142827D01*
X78738Y143309D01*
X79220Y144031D01*
X79240Y144132D01*
D02*
G37*
G36*
X76415D02*
X75091D01*
X75111Y144031D01*
X75593Y143309D01*
X76314Y142827D01*
X76415Y142807D01*
Y144132D01*
D02*
G37*
G36*
X67429D02*
X66104D01*
Y142807D01*
X66205Y142827D01*
X66927Y143309D01*
X67409Y144031D01*
X67429Y144132D01*
D02*
G37*
G36*
X64604D02*
X63280D01*
X63300Y144031D01*
X63782Y143309D01*
X64503Y142827D01*
X64604Y142807D01*
Y144132D01*
D02*
G37*
G36*
X108268Y145823D02*
X107456Y145661D01*
X106767Y145201D01*
X106307Y144513D01*
X106146Y143701D01*
X106307Y142889D01*
X106767Y142200D01*
X107456Y141740D01*
X108268Y141579D01*
X109080Y141740D01*
X109768Y142200D01*
X110228Y142889D01*
X110390Y143701D01*
X110228Y144513D01*
X109768Y145201D01*
X109080Y145661D01*
X108268Y145823D01*
D02*
G37*
G36*
X103187D02*
X102375Y145661D01*
X101687Y145201D01*
X101227Y144513D01*
X101065Y143701D01*
X101227Y142889D01*
X101687Y142200D01*
X102375Y141740D01*
X103187Y141579D01*
X103999Y141740D01*
X104687Y142200D01*
X105147Y142889D01*
X105309Y143701D01*
X105147Y144513D01*
X104687Y145201D01*
X103999Y145661D01*
X103187Y145823D01*
D02*
G37*
G36*
X96888D02*
X96076Y145661D01*
X95387Y145201D01*
X94927Y144513D01*
X94766Y143701D01*
X94927Y142889D01*
X95387Y142200D01*
X96076Y141740D01*
X96888Y141579D01*
X97700Y141740D01*
X98388Y142200D01*
X98848Y142889D01*
X99010Y143701D01*
X98848Y144513D01*
X98388Y145201D01*
X97700Y145661D01*
X96888Y145823D01*
D02*
G37*
G36*
X90945D02*
X90133Y145661D01*
X89445Y145201D01*
X88985Y144513D01*
X88823Y143701D01*
X88985Y142889D01*
X89445Y142200D01*
X90133Y141740D01*
X90945Y141579D01*
X91757Y141740D01*
X92445Y142200D01*
X92905Y142889D01*
X93067Y143701D01*
X92905Y144513D01*
X92445Y145201D01*
X91757Y145661D01*
X90945Y145823D01*
D02*
G37*
G36*
X91732Y139130D02*
X90920Y138968D01*
X90232Y138508D01*
X89772Y137820D01*
X89610Y137008D01*
X89772Y136196D01*
X90232Y135508D01*
X90920Y135047D01*
X91732Y134886D01*
X92544Y135047D01*
X93233Y135508D01*
X93693Y136196D01*
X93854Y137008D01*
X93693Y137820D01*
X93233Y138508D01*
X92544Y138968D01*
X91732Y139130D01*
D02*
G37*
G36*
X232246Y134752D02*
Y133427D01*
X233571D01*
X233551Y133528D01*
X233069Y134250D01*
X232347Y134732D01*
X232246Y134752D01*
D02*
G37*
G36*
X230746D02*
X230645Y134732D01*
X229924Y134250D01*
X229441Y133528D01*
X229421Y133427D01*
X230746D01*
Y134752D01*
D02*
G37*
G36*
X226734D02*
Y133427D01*
X228059D01*
X228039Y133528D01*
X227557Y134250D01*
X226835Y134732D01*
X226734Y134752D01*
D02*
G37*
G36*
X225234D02*
X225133Y134732D01*
X224412Y134250D01*
X223930Y133528D01*
X223910Y133427D01*
X225234D01*
Y134752D01*
D02*
G37*
G36*
X233571Y131927D02*
X232246D01*
Y130603D01*
X232347Y130623D01*
X233069Y131105D01*
X233551Y131826D01*
X233571Y131927D01*
D02*
G37*
G36*
X230746D02*
X229421D01*
X229441Y131826D01*
X229924Y131105D01*
X230645Y130623D01*
X230746Y130603D01*
Y131927D01*
D02*
G37*
G36*
X228059D02*
X226734D01*
Y130603D01*
X226835Y130623D01*
X227557Y131105D01*
X228039Y131826D01*
X228059Y131927D01*
D02*
G37*
G36*
X225234D02*
X223910D01*
X223930Y131826D01*
X224412Y131105D01*
X225133Y130623D01*
X225234Y130603D01*
Y131927D01*
D02*
G37*
G36*
X177559Y134405D02*
X176747Y134244D01*
X176059Y133784D01*
X175599Y133096D01*
X175437Y132283D01*
X175599Y131472D01*
X176059Y130783D01*
X176747Y130323D01*
X177559Y130162D01*
X178371Y130323D01*
X179059Y130783D01*
X179519Y131472D01*
X179681Y132283D01*
X179519Y133096D01*
X179059Y133784D01*
X178371Y134244D01*
X177559Y134405D01*
D02*
G37*
G36*
X264529Y127271D02*
Y125947D01*
X265854D01*
X265834Y126048D01*
X265352Y126769D01*
X264631Y127251D01*
X264529Y127271D01*
D02*
G37*
G36*
X263030D02*
X262929Y127251D01*
X262207Y126769D01*
X261725Y126048D01*
X261705Y125947D01*
X263030D01*
Y127271D01*
D02*
G37*
G36*
X57874Y126138D02*
X57062Y125976D01*
X56687Y125725D01*
X56299Y125550D01*
X55912Y125725D01*
X55536Y125976D01*
X54724Y126138D01*
X53912Y125976D01*
X53537Y125725D01*
X53150Y125550D01*
X52762Y125725D01*
X52387Y125976D01*
X51575Y126138D01*
X50763Y125976D01*
X50387Y125725D01*
X50000Y125550D01*
X49613Y125725D01*
X49237Y125976D01*
X48425Y126138D01*
X47613Y125976D01*
X47238Y125725D01*
X46850Y125550D01*
X46463Y125725D01*
X46088Y125976D01*
X45276Y126138D01*
X44464Y125976D01*
X43775Y125516D01*
X43315Y124828D01*
X43154Y124016D01*
X43315Y123204D01*
X43775Y122515D01*
X44464Y122055D01*
X45276Y121894D01*
X46088Y122055D01*
X46463Y122306D01*
X46850Y122482D01*
X47238Y122306D01*
X47613Y122055D01*
X48425Y121894D01*
X49237Y122055D01*
X49613Y122306D01*
X50000Y122482D01*
X50387Y122306D01*
X50763Y122055D01*
X51575Y121894D01*
X52387Y122055D01*
X52762Y122306D01*
X53150Y122482D01*
X53537Y122306D01*
X53912Y122055D01*
X54724Y121894D01*
X55536Y122055D01*
X55912Y122306D01*
X56299Y122482D01*
X56687Y122306D01*
X57062Y122055D01*
X57874Y121894D01*
X58686Y122055D01*
X59374Y122515D01*
X59834Y123204D01*
X59996Y124016D01*
X59834Y124828D01*
X59374Y125516D01*
X58686Y125976D01*
X57874Y126138D01*
D02*
G37*
G36*
X212205Y129287D02*
X211393Y129126D01*
X210704Y128666D01*
X210244Y127977D01*
X210083Y127165D01*
X210244Y126353D01*
X210704Y125665D01*
X211393Y125205D01*
X212205Y125043D01*
X213017Y125205D01*
X213705Y125665D01*
X214165Y126353D01*
X214327Y127165D01*
X214165Y127977D01*
X213705Y128666D01*
X213017Y129126D01*
X212205Y129287D01*
D02*
G37*
G36*
X265854Y124447D02*
X264529D01*
Y123122D01*
X264631Y123142D01*
X265352Y123624D01*
X265834Y124346D01*
X265854Y124447D01*
D02*
G37*
G36*
X263030D02*
X261705D01*
X261725Y124346D01*
X262207Y123624D01*
X262929Y123142D01*
X263030Y123122D01*
Y124447D01*
D02*
G37*
G36*
X260593Y123335D02*
Y122010D01*
X261917D01*
X261897Y122111D01*
X261415Y122832D01*
X260694Y123314D01*
X260593Y123335D01*
D02*
G37*
G36*
X259092D02*
X258992Y123314D01*
X258270Y122832D01*
X257788Y122111D01*
X257768Y122010D01*
X259092D01*
Y123335D01*
D02*
G37*
G36*
X135827Y121413D02*
X135015Y121252D01*
X134449Y120873D01*
X133883Y121252D01*
X133071Y121413D01*
X132259Y121252D01*
X131693Y120873D01*
X131127Y121252D01*
X130315Y121413D01*
X129503Y121252D01*
X129127Y121001D01*
X128740Y120825D01*
X128353Y121001D01*
X127977Y121252D01*
X127165Y121413D01*
X126353Y121252D01*
X125978Y121001D01*
X125591Y120825D01*
X125203Y121001D01*
X124828Y121252D01*
X124016Y121413D01*
X123204Y121252D01*
X122515Y120792D01*
X122055Y120103D01*
X121894Y119291D01*
X122055Y118479D01*
X122515Y117791D01*
X123204Y117331D01*
X124016Y117169D01*
X124828Y117331D01*
X125203Y117582D01*
X125591Y117757D01*
X125978Y117582D01*
X126353Y117331D01*
X127165Y117169D01*
X127977Y117331D01*
X128353Y117582D01*
X128740Y117757D01*
X129127Y117582D01*
X129503Y117331D01*
X130315Y117169D01*
X131127Y117331D01*
X131693Y117709D01*
X132259Y117331D01*
X133071Y117169D01*
X133883Y117331D01*
X134449Y117709D01*
X135015Y117331D01*
X135827Y117169D01*
X136639Y117331D01*
X137327Y117791D01*
X137787Y118479D01*
X137949Y119291D01*
X137787Y120103D01*
X137327Y120792D01*
X136639Y121252D01*
X135827Y121413D01*
D02*
G37*
G36*
X261917Y120510D02*
X260593D01*
Y119185D01*
X260694Y119205D01*
X261415Y119687D01*
X261897Y120409D01*
X261917Y120510D01*
D02*
G37*
G36*
X259092D02*
X257768D01*
X257788Y120409D01*
X258270Y119687D01*
X258992Y119205D01*
X259092Y119185D01*
Y120510D01*
D02*
G37*
G36*
X256656Y119397D02*
Y118073D01*
X257980D01*
X257960Y118174D01*
X257478Y118895D01*
X256756Y119377D01*
X256656Y119397D01*
D02*
G37*
G36*
X255155D02*
X255054Y119377D01*
X254333Y118895D01*
X253851Y118174D01*
X253831Y118073D01*
X255155D01*
Y119397D01*
D02*
G37*
G36*
X257980Y116573D02*
X256656D01*
Y115248D01*
X256756Y115268D01*
X257478Y115750D01*
X257960Y116472D01*
X257980Y116573D01*
D02*
G37*
G36*
X255155D02*
X253831D01*
X253851Y116472D01*
X254333Y115750D01*
X255054Y115268D01*
X255155Y115248D01*
Y116573D01*
D02*
G37*
G36*
X252718Y115461D02*
Y114136D01*
X254043D01*
X254023Y114237D01*
X253541Y114958D01*
X252819Y115440D01*
X252718Y115461D01*
D02*
G37*
G36*
X251219D02*
X251117Y115440D01*
X250396Y114958D01*
X249914Y114237D01*
X249894Y114136D01*
X251219D01*
Y115461D01*
D02*
G37*
G36*
X254043Y112636D02*
X252718D01*
Y111311D01*
X252819Y111331D01*
X253541Y111813D01*
X254023Y112535D01*
X254043Y112636D01*
D02*
G37*
G36*
X251219D02*
X249894D01*
X249914Y112535D01*
X250396Y111813D01*
X251117Y111331D01*
X251219Y111311D01*
Y112636D01*
D02*
G37*
G36*
X140514Y105224D02*
Y103900D01*
X141838D01*
X141818Y104001D01*
X141336Y104722D01*
X140615Y105204D01*
X140514Y105224D01*
D02*
G37*
G36*
X139014D02*
X138913Y105204D01*
X138191Y104722D01*
X137709Y104001D01*
X137689Y103900D01*
X139014D01*
Y105224D01*
D02*
G37*
G36*
X133427D02*
Y103900D01*
X134752D01*
X134732Y104001D01*
X134250Y104722D01*
X133528Y105204D01*
X133427Y105224D01*
D02*
G37*
G36*
X131927D02*
X131826Y105204D01*
X131105Y104722D01*
X130623Y104001D01*
X130603Y103900D01*
X131927D01*
Y105224D01*
D02*
G37*
G36*
X141838Y102400D02*
X140514D01*
Y101075D01*
X140615Y101095D01*
X141336Y101577D01*
X141818Y102299D01*
X141838Y102400D01*
D02*
G37*
G36*
X139014D02*
X137689D01*
X137709Y102299D01*
X138191Y101577D01*
X138913Y101095D01*
X139014Y101075D01*
Y102400D01*
D02*
G37*
G36*
X134752D02*
X133427D01*
Y101075D01*
X133528Y101095D01*
X134250Y101577D01*
X134732Y102299D01*
X134752Y102400D01*
D02*
G37*
G36*
X131927D02*
X130603D01*
X130623Y102299D01*
X131105Y101577D01*
X131826Y101095D01*
X131927Y101075D01*
Y102400D01*
D02*
G37*
G36*
X220435Y92232D02*
Y90908D01*
X221760D01*
X221740Y91009D01*
X221257Y91730D01*
X220536Y92212D01*
X220435Y92232D01*
D02*
G37*
G36*
X218935D02*
X218834Y92212D01*
X218113Y91730D01*
X217631Y91009D01*
X217610Y90908D01*
X218935D01*
Y92232D01*
D02*
G37*
G36*
X221760Y89407D02*
X220435D01*
Y88083D01*
X220536Y88103D01*
X221257Y88585D01*
X221740Y89306D01*
X221760Y89407D01*
D02*
G37*
G36*
X218935D02*
X217610D01*
X217631Y89306D01*
X218113Y88585D01*
X218834Y88103D01*
X218935Y88083D01*
Y89407D01*
D02*
G37*
G36*
X220435Y84358D02*
Y83034D01*
X221760D01*
X221740Y83135D01*
X221257Y83856D01*
X220536Y84338D01*
X220435Y84358D01*
D02*
G37*
G36*
X218935D02*
X218834Y84338D01*
X218113Y83856D01*
X217631Y83135D01*
X217610Y83034D01*
X218935D01*
Y84358D01*
D02*
G37*
G36*
X221760Y81533D02*
X220435D01*
Y80209D01*
X220536Y80229D01*
X221257Y80711D01*
X221740Y81432D01*
X221760Y81533D01*
D02*
G37*
G36*
X218935D02*
X217610D01*
X217631Y81432D01*
X218113Y80711D01*
X218834Y80229D01*
X218935Y80209D01*
Y81533D01*
D02*
G37*
G36*
X129921Y94415D02*
X129648Y94360D01*
X129417Y94205D01*
X128629Y93418D01*
X128474Y93186D01*
X128420Y92913D01*
X128420Y78347D01*
X128474Y78073D01*
X128629Y77842D01*
X130204Y76267D01*
X130436Y76112D01*
X130709Y76058D01*
X143701D01*
X143974Y76112D01*
X144205Y76267D01*
X144993Y77054D01*
X145148Y77286D01*
X145202Y77559D01*
Y81102D01*
X145148Y81375D01*
X144993Y81607D01*
X143812Y82788D01*
X143580Y82943D01*
X143307Y82997D01*
X136910D01*
X136147Y83760D01*
X136147Y92913D01*
X136092Y93186D01*
X135938Y93418D01*
X135150Y94205D01*
X134919Y94360D01*
X134646Y94415D01*
X129921Y94415D01*
D02*
G37*
G36*
X220435Y76484D02*
Y75160D01*
X221760D01*
X221740Y75261D01*
X221257Y75982D01*
X220536Y76464D01*
X220435Y76484D01*
D02*
G37*
G36*
X218935D02*
X218834Y76464D01*
X218113Y75982D01*
X217631Y75261D01*
X217610Y75160D01*
X218935D01*
Y76484D01*
D02*
G37*
G36*
X221760Y73659D02*
X220435D01*
Y72335D01*
X220536Y72355D01*
X221257Y72837D01*
X221740Y73558D01*
X221760Y73659D01*
D02*
G37*
G36*
X218935D02*
X217610D01*
X217631Y73558D01*
X218113Y72837D01*
X218834Y72355D01*
X218935Y72335D01*
Y73659D01*
D02*
G37*
G36*
X199569Y71760D02*
Y70435D01*
X200893D01*
X200873Y70536D01*
X200391Y71258D01*
X199670Y71740D01*
X199569Y71760D01*
D02*
G37*
G36*
X198069D02*
X197968Y71740D01*
X197246Y71258D01*
X196764Y70536D01*
X196744Y70435D01*
X198069D01*
Y71760D01*
D02*
G37*
G36*
X187758D02*
Y70435D01*
X189083D01*
X189062Y70536D01*
X188580Y71258D01*
X187859Y71740D01*
X187758Y71760D01*
D02*
G37*
G36*
X186258D02*
X186157Y71740D01*
X185435Y71258D01*
X184953Y70536D01*
X184933Y70435D01*
X186258D01*
Y71760D01*
D02*
G37*
G36*
X175947D02*
Y70435D01*
X177271D01*
X177251Y70536D01*
X176769Y71258D01*
X176048Y71740D01*
X175947Y71760D01*
D02*
G37*
G36*
X174447D02*
X174346Y71740D01*
X173624Y71258D01*
X173142Y70536D01*
X173122Y70435D01*
X174447D01*
Y71760D01*
D02*
G37*
G36*
X200893Y68935D02*
X199569D01*
Y67610D01*
X199670Y67630D01*
X200391Y68112D01*
X200873Y68834D01*
X200893Y68935D01*
D02*
G37*
G36*
X198069D02*
X196744D01*
X196764Y68834D01*
X197246Y68112D01*
X197968Y67630D01*
X198069Y67610D01*
Y68935D01*
D02*
G37*
G36*
X189083D02*
X187758D01*
Y67610D01*
X187859Y67630D01*
X188580Y68112D01*
X189062Y68834D01*
X189083Y68935D01*
D02*
G37*
G36*
X186258D02*
X184933D01*
X184953Y68834D01*
X185435Y68112D01*
X186157Y67630D01*
X186258Y67610D01*
Y68935D01*
D02*
G37*
G36*
X177271D02*
X175947D01*
Y67610D01*
X176048Y67630D01*
X176769Y68112D01*
X177251Y68834D01*
X177271Y68935D01*
D02*
G37*
G36*
X174447D02*
X173122D01*
X173142Y68834D01*
X173624Y68112D01*
X174346Y67630D01*
X174447Y67610D01*
Y68935D01*
D02*
G37*
G36*
X220435Y68610D02*
Y67285D01*
X221760D01*
X221740Y67387D01*
X221257Y68108D01*
X220536Y68590D01*
X220435Y68610D01*
D02*
G37*
G36*
X218935D02*
X218834Y68590D01*
X218113Y68108D01*
X217631Y67387D01*
X217610Y67285D01*
X218935D01*
Y68610D01*
D02*
G37*
G36*
X221760Y65785D02*
X220435D01*
Y64461D01*
X220536Y64481D01*
X221257Y64963D01*
X221740Y65684D01*
X221760Y65785D01*
D02*
G37*
G36*
X218935D02*
X217610D01*
X217631Y65684D01*
X218113Y64963D01*
X218834Y64481D01*
X218935Y64461D01*
Y65785D01*
D02*
G37*
G36*
X220435Y60736D02*
Y59411D01*
X221760D01*
X221740Y59512D01*
X221257Y60234D01*
X220536Y60716D01*
X220435Y60736D01*
D02*
G37*
G36*
X218935D02*
X218834Y60716D01*
X218113Y60234D01*
X217631Y59512D01*
X217610Y59411D01*
X218935D01*
Y60736D01*
D02*
G37*
G36*
X199569Y59949D02*
Y58624D01*
X200893D01*
X200873Y58725D01*
X200391Y59447D01*
X199670Y59929D01*
X199569Y59949D01*
D02*
G37*
G36*
X198069D02*
X197968Y59929D01*
X197246Y59447D01*
X196764Y58725D01*
X196744Y58624D01*
X198069D01*
Y59949D01*
D02*
G37*
G36*
X187758D02*
Y58624D01*
X189083D01*
X189062Y58725D01*
X188580Y59447D01*
X187859Y59929D01*
X187758Y59949D01*
D02*
G37*
G36*
X186258D02*
X186157Y59929D01*
X185435Y59447D01*
X184953Y58725D01*
X184933Y58624D01*
X186258D01*
Y59949D01*
D02*
G37*
G36*
X221760Y57911D02*
X220435D01*
Y56587D01*
X220536Y56607D01*
X221257Y57089D01*
X221740Y57810D01*
X221760Y57911D01*
D02*
G37*
G36*
X218935D02*
X217610D01*
X217631Y57810D01*
X218113Y57089D01*
X218834Y56607D01*
X218935Y56587D01*
Y57911D01*
D02*
G37*
G36*
X200893Y57124D02*
X199569D01*
Y55799D01*
X199670Y55819D01*
X200391Y56301D01*
X200873Y57023D01*
X200893Y57124D01*
D02*
G37*
G36*
X198069D02*
X196744D01*
X196764Y57023D01*
X197246Y56301D01*
X197968Y55819D01*
X198069Y55799D01*
Y57124D01*
D02*
G37*
G36*
X189083D02*
X187758D01*
Y55799D01*
X187859Y55819D01*
X188580Y56301D01*
X189062Y57023D01*
X189083Y57124D01*
D02*
G37*
G36*
X186258D02*
X184933D01*
X184953Y57023D01*
X185435Y56301D01*
X186157Y55819D01*
X186258Y55799D01*
Y57124D01*
D02*
G37*
G36*
X207443Y51287D02*
Y49963D01*
X208768D01*
X208748Y50064D01*
X208265Y50785D01*
X207544Y51267D01*
X207443Y51287D01*
D02*
G37*
G36*
X205943D02*
X205842Y51267D01*
X205120Y50785D01*
X204638Y50064D01*
X204618Y49963D01*
X205943D01*
Y51287D01*
D02*
G37*
G36*
X208768Y48463D02*
X207443D01*
Y47138D01*
X207544Y47158D01*
X208265Y47640D01*
X208748Y48362D01*
X208768Y48463D01*
D02*
G37*
G36*
X205943D02*
X204618D01*
X204638Y48362D01*
X205120Y47640D01*
X205842Y47158D01*
X205943Y47138D01*
Y48463D01*
D02*
G37*
G36*
X173484Y41770D02*
X169254D01*
Y33702D01*
X169793Y33773D01*
X170994Y34270D01*
X172025Y35062D01*
X172816Y36093D01*
X173314Y37294D01*
X173484Y38583D01*
Y41770D01*
D02*
G37*
G36*
X167754D02*
X163524D01*
Y38583D01*
X163694Y37294D01*
X164191Y36093D01*
X164983Y35062D01*
X166014Y34270D01*
X167215Y33773D01*
X167754Y33702D01*
Y41770D01*
D02*
G37*
G36*
X153543Y34901D02*
X150356D01*
Y30671D01*
X158424D01*
X158353Y31210D01*
X157856Y32411D01*
X157064Y33442D01*
X156033Y34234D01*
X154832Y34731D01*
X153543Y34901D01*
D02*
G37*
G36*
X148856D02*
X145669D01*
X144380Y34731D01*
X143180Y34234D01*
X142148Y33442D01*
X141357Y32411D01*
X140859Y31210D01*
X140788Y30671D01*
X148856D01*
Y34901D01*
D02*
G37*
G36*
X206791Y31748D02*
X205979Y31586D01*
X205291Y31126D01*
X204831Y30438D01*
X204669Y29626D01*
X204831Y28814D01*
X205291Y28126D01*
X205979Y27666D01*
X206791Y27504D01*
X207603Y27666D01*
X208292Y28126D01*
X208752Y28814D01*
X208913Y29626D01*
X208752Y30438D01*
X208292Y31126D01*
X207603Y31586D01*
X206791Y31748D01*
D02*
G37*
G36*
X158424Y29171D02*
X150356D01*
Y24942D01*
X153543D01*
X154832Y25111D01*
X156033Y25609D01*
X157064Y26400D01*
X157856Y27431D01*
X158353Y28632D01*
X158424Y29171D01*
D02*
G37*
G36*
X148856D02*
X140788D01*
X140859Y28632D01*
X141357Y27431D01*
X142148Y26400D01*
X143180Y25609D01*
X144380Y25111D01*
X145669Y24942D01*
X148856D01*
Y29171D01*
D02*
G37*
G36*
X149606Y17282D02*
X148292Y17109D01*
X147068Y16602D01*
X146016Y15795D01*
X145209Y14743D01*
X144702Y13519D01*
X144529Y12205D01*
X144702Y10891D01*
X145209Y9666D01*
X146016Y8614D01*
X147068Y7808D01*
X148292Y7300D01*
X149606Y7127D01*
X150920Y7300D01*
X152145Y7808D01*
X153197Y8614D01*
X154003Y9666D01*
X154511Y10891D01*
X154684Y12205D01*
X154511Y13519D01*
X154003Y14743D01*
X153197Y15795D01*
X152145Y16602D01*
X150920Y17109D01*
X149606Y17282D01*
D02*
G37*
G36*
X89764Y10569D02*
X89066Y10477D01*
X88416Y10208D01*
X87858Y9780D01*
X87430Y9221D01*
X87161Y8572D01*
X87069Y7874D01*
X87161Y7177D01*
X87430Y6527D01*
X87858Y5969D01*
X88416Y5540D01*
X89066Y5271D01*
X89764Y5179D01*
X90461Y5271D01*
X91111Y5540D01*
X91669Y5969D01*
X92098Y6527D01*
X92367Y7177D01*
X92458Y7874D01*
X92367Y8572D01*
X92098Y9221D01*
X91669Y9780D01*
X91111Y10208D01*
X90461Y10477D01*
X89764Y10569D01*
D02*
G37*
G36*
X77953D02*
X77255Y10477D01*
X76605Y10208D01*
X76047Y9780D01*
X75619Y9221D01*
X75350Y8572D01*
X75258Y7874D01*
X75350Y7177D01*
X75619Y6527D01*
X76047Y5969D01*
X76605Y5540D01*
X77255Y5271D01*
X77953Y5179D01*
X78650Y5271D01*
X79300Y5540D01*
X79858Y5969D01*
X80286Y6527D01*
X80556Y7177D01*
X80647Y7874D01*
X80556Y8572D01*
X80286Y9221D01*
X79858Y9780D01*
X79300Y10208D01*
X78650Y10477D01*
X77953Y10569D01*
D02*
G37*
%LPD*%
G36*
X134646Y93701D02*
X135433Y92913D01*
X135433Y83465D01*
X136614Y82284D01*
X143307D01*
X144488Y81102D01*
Y77559D01*
X143701Y76772D01*
X130709D01*
X129134Y78347D01*
X129134Y92913D01*
X129921Y93701D01*
X134646Y93701D01*
D02*
G37*
%LPC*%
G36*
X281118Y96888D02*
X279097D01*
Y93488D01*
X281118D01*
Y96888D01*
D02*
G37*
G36*
X277596D02*
X275575D01*
Y93488D01*
X277596D01*
Y96888D01*
D02*
G37*
G36*
X289852Y92733D02*
X287830D01*
Y91302D01*
X289852D01*
Y92733D01*
D02*
G37*
G36*
X279346Y73896D02*
X277955D01*
Y71323D01*
X279346D01*
Y73896D01*
D02*
G37*
G36*
X276455D02*
X275063D01*
Y71323D01*
X276455D01*
Y73896D01*
D02*
G37*
G36*
X304310Y50537D02*
Y48007D01*
X306839D01*
X306693Y48555D01*
X306250Y49322D01*
X305624Y49948D01*
X304857Y50390D01*
X304310Y50537D01*
D02*
G37*
G36*
X302810D02*
X302262Y50390D01*
X301495Y49948D01*
X300869Y49322D01*
X300427Y48555D01*
X300280Y48007D01*
X302810D01*
Y50537D01*
D02*
G37*
G36*
X306839Y46507D02*
X304310D01*
Y43977D01*
X304857Y44124D01*
X305624Y44567D01*
X306250Y45193D01*
X306693Y45959D01*
X306839Y46507D01*
D02*
G37*
G36*
X302810D02*
X300280D01*
X300427Y45959D01*
X300869Y45193D01*
X301495Y44567D01*
X302262Y44124D01*
X302810Y43977D01*
Y46507D01*
D02*
G37*
G36*
X309858Y14386D02*
X307049D01*
Y12758D01*
X309858D01*
Y14386D01*
D02*
G37*
G36*
Y11258D02*
X307049D01*
Y9630D01*
X309858D01*
Y11258D01*
D02*
G37*
G36*
X244898Y61237D02*
X242876D01*
Y59806D01*
X244898D01*
Y61237D01*
D02*
G37*
G36*
X66587Y64266D02*
Y63703D01*
X67150D01*
X67109Y63802D01*
X66687Y64224D01*
X66587Y64266D01*
D02*
G37*
G36*
X60583D02*
Y63703D01*
X61146D01*
X61105Y63802D01*
X60683Y64224D01*
X60583Y64266D01*
D02*
G37*
G36*
X65087D02*
X64987Y64224D01*
X64565Y63802D01*
X64524Y63703D01*
X65087D01*
Y64266D01*
D02*
G37*
G36*
X59083D02*
X58983Y64224D01*
X58561Y63802D01*
X58520Y63703D01*
X59083D01*
Y64266D01*
D02*
G37*
G36*
X67150Y62203D02*
X66587D01*
Y61640D01*
X66687Y61681D01*
X67109Y62103D01*
X67150Y62203D01*
D02*
G37*
G36*
X61146D02*
X60583D01*
Y61640D01*
X60683Y61681D01*
X61105Y62103D01*
X61146Y62203D01*
D02*
G37*
G36*
X65087D02*
X64524D01*
X64565Y62103D01*
X64987Y61681D01*
X65087Y61640D01*
Y62203D01*
D02*
G37*
G36*
X59083D02*
X58520D01*
X58561Y62103D01*
X58983Y61681D01*
X59083Y61640D01*
Y62203D01*
D02*
G37*
G36*
X69589Y61293D02*
Y60730D01*
X70152D01*
X70111Y60830D01*
X69689Y61252D01*
X69589Y61293D01*
D02*
G37*
G36*
X63585D02*
Y60730D01*
X64148D01*
X64107Y60830D01*
X63685Y61252D01*
X63585Y61293D01*
D02*
G37*
G36*
X57581D02*
Y60730D01*
X58144D01*
X58103Y60830D01*
X57681Y61252D01*
X57581Y61293D01*
D02*
G37*
G36*
X68089D02*
X67989Y61252D01*
X67567Y60830D01*
X67526Y60730D01*
X68089D01*
Y61293D01*
D02*
G37*
G36*
X62085D02*
X61986Y61252D01*
X61564Y60830D01*
X61522Y60730D01*
X62085D01*
Y61293D01*
D02*
G37*
G36*
X56081D02*
X55981Y61252D01*
X55559Y60830D01*
X55518Y60730D01*
X56081D01*
Y61293D01*
D02*
G37*
G36*
X70152Y59230D02*
X69589D01*
Y58667D01*
X69689Y58709D01*
X70111Y59131D01*
X70152Y59230D01*
D02*
G37*
G36*
X64148D02*
X63585D01*
Y58667D01*
X63685Y58709D01*
X64107Y59131D01*
X64148Y59230D01*
D02*
G37*
G36*
X58144D02*
X57581D01*
Y58667D01*
X57681Y58709D01*
X58103Y59131D01*
X58144Y59230D01*
D02*
G37*
G36*
X62085D02*
X61522D01*
X61564Y59131D01*
X61986Y58709D01*
X62085Y58667D01*
Y59230D01*
D02*
G37*
G36*
X68089D02*
X67526D01*
X67567Y59131D01*
X67989Y58709D01*
X68089Y58667D01*
Y59230D01*
D02*
G37*
G36*
X56081D02*
X55518D01*
X55559Y59131D01*
X55981Y58709D01*
X56081Y58667D01*
Y59230D01*
D02*
G37*
G36*
X66587Y58281D02*
Y57718D01*
X67150D01*
X67109Y57818D01*
X66687Y58240D01*
X66587Y58281D01*
D02*
G37*
G36*
X60583D02*
Y57718D01*
X61146D01*
X61105Y57818D01*
X60683Y58240D01*
X60583Y58281D01*
D02*
G37*
G36*
X65087D02*
X64987Y58240D01*
X64565Y57818D01*
X64524Y57718D01*
X65087D01*
Y58281D01*
D02*
G37*
G36*
X59083D02*
X58983Y58240D01*
X58561Y57818D01*
X58520Y57718D01*
X59083D01*
Y58281D01*
D02*
G37*
G36*
X67150Y56218D02*
X66587D01*
Y55656D01*
X66687Y55697D01*
X67109Y56119D01*
X67150Y56218D01*
D02*
G37*
G36*
X61146D02*
X60583D01*
Y55656D01*
X60683Y55697D01*
X61105Y56119D01*
X61146Y56218D01*
D02*
G37*
G36*
X65087D02*
X64524D01*
X64565Y56119D01*
X64987Y55697D01*
X65087Y55656D01*
Y56218D01*
D02*
G37*
G36*
X59083D02*
X58520D01*
X58561Y56119D01*
X58983Y55697D01*
X59083Y55656D01*
Y56218D01*
D02*
G37*
G36*
X69589Y55289D02*
Y54726D01*
X70152D01*
X70111Y54826D01*
X69689Y55248D01*
X69589Y55289D01*
D02*
G37*
G36*
X63585D02*
Y54726D01*
X64148D01*
X64107Y54826D01*
X63685Y55248D01*
X63585Y55289D01*
D02*
G37*
G36*
X57581D02*
Y54726D01*
X58144D01*
X58103Y54826D01*
X57681Y55248D01*
X57581Y55289D01*
D02*
G37*
G36*
X68089D02*
X67989Y55248D01*
X67567Y54826D01*
X67526Y54726D01*
X68089D01*
Y55289D01*
D02*
G37*
G36*
X62085D02*
X61986Y55248D01*
X61564Y54826D01*
X61522Y54726D01*
X62085D01*
Y55289D01*
D02*
G37*
G36*
X56081D02*
X55981Y55248D01*
X55559Y54826D01*
X55518Y54726D01*
X56081D01*
Y55289D01*
D02*
G37*
G36*
X70152Y53226D02*
X69589D01*
Y52663D01*
X69689Y52705D01*
X70111Y53127D01*
X70152Y53226D01*
D02*
G37*
G36*
X64148D02*
X63585D01*
Y52663D01*
X63685Y52705D01*
X64107Y53127D01*
X64148Y53226D01*
D02*
G37*
G36*
X58144D02*
X57581D01*
Y52663D01*
X57681Y52705D01*
X58103Y53127D01*
X58144Y53226D01*
D02*
G37*
G36*
X62085D02*
X61522D01*
X61564Y53127D01*
X61986Y52705D01*
X62085Y52663D01*
Y53226D01*
D02*
G37*
G36*
X68089D02*
X67526D01*
X67567Y53127D01*
X67989Y52705D01*
X68089Y52663D01*
Y53226D01*
D02*
G37*
G36*
X56081D02*
X55518D01*
X55559Y53127D01*
X55981Y52705D01*
X56081Y52663D01*
Y53226D01*
D02*
G37*
G36*
X66587Y52277D02*
Y51715D01*
X67150D01*
X67109Y51814D01*
X66687Y52236D01*
X66587Y52277D01*
D02*
G37*
G36*
X60583D02*
Y51715D01*
X61146D01*
X61105Y51814D01*
X60683Y52236D01*
X60583Y52277D01*
D02*
G37*
G36*
X65087D02*
X64987Y52236D01*
X64565Y51814D01*
X64524Y51715D01*
X65087D01*
Y52277D01*
D02*
G37*
G36*
X59083D02*
X58983Y52236D01*
X58561Y51814D01*
X58520Y51715D01*
X59083D01*
Y52277D01*
D02*
G37*
G36*
X67150Y50215D02*
X66587D01*
Y49652D01*
X66687Y49693D01*
X67109Y50115D01*
X67150Y50215D01*
D02*
G37*
G36*
X61146D02*
X60583D01*
Y49652D01*
X60683Y49693D01*
X61105Y50115D01*
X61146Y50215D01*
D02*
G37*
G36*
X65087D02*
X64524D01*
X64565Y50115D01*
X64987Y49693D01*
X65087Y49652D01*
Y50215D01*
D02*
G37*
G36*
X59083D02*
X58520D01*
X58561Y50115D01*
X58983Y49693D01*
X59083Y49652D01*
Y50215D01*
D02*
G37*
G36*
X53506Y20357D02*
Y19057D01*
X54806D01*
X54605Y19543D01*
X53991Y20156D01*
X53506Y20357D01*
D02*
G37*
G36*
X52006D02*
X51520Y20156D01*
X50907Y19543D01*
X50706Y19057D01*
X52006D01*
Y20357D01*
D02*
G37*
G36*
X54806Y17557D02*
X53506D01*
Y16257D01*
X53991Y16458D01*
X54605Y17072D01*
X54806Y17557D01*
D02*
G37*
G36*
X52006D02*
X50706D01*
X50907Y17072D01*
X51520Y16458D01*
X52006Y16257D01*
Y17557D01*
D02*
G37*
G36*
X290173Y22872D02*
X288152D01*
Y21441D01*
X290173D01*
Y22872D01*
D02*
G37*
G36*
X286652D02*
X284630D01*
Y21441D01*
X286652D01*
Y22872D01*
D02*
G37*
%LPD*%
D14*
X213386Y151181D02*
X216142Y153937D01*
Y196063D01*
X207874Y151181D02*
X213386D01*
X200394Y175197D02*
X204331Y179134D01*
X179660Y199606D02*
X200113Y179154D01*
X140551Y199606D02*
X179660D01*
X153937Y151969D02*
X180709Y178740D01*
X153937Y107874D02*
Y151969D01*
X140945Y190157D02*
X179921D01*
X194882Y175197D01*
X135827Y194882D02*
X140551Y199606D01*
X194882Y175197D02*
X200394D01*
X248425Y120866D02*
Y147638D01*
X255512Y154724D01*
X250125Y143432D02*
X255512Y148819D01*
X250125Y120162D02*
Y143432D01*
X245669Y118110D02*
X248425Y120866D01*
X255512Y148819D02*
X260630D01*
X203937Y121260D02*
X207087Y118110D01*
X245669D01*
X208661Y113761D02*
X208680Y113779D01*
X246105Y116142D02*
X250125Y120162D01*
X208680Y113779D02*
X246147D01*
X203150Y116142D02*
X246105D01*
X198031Y121260D02*
X203150Y116142D01*
X246147Y113779D02*
X251825Y119458D01*
Y138833D01*
X255906Y142913D01*
X255512Y154724D02*
X260630D01*
X255906Y142913D02*
X260630D01*
D93*
X8760Y173622D02*
D03*
X149606Y12205D02*
D03*
X183425Y314370D02*
D03*
X213425Y324370D02*
D03*
Y294370D02*
D03*
X183425Y254370D02*
D03*
X213425D02*
D03*
X231221Y314370D02*
D03*
X261221Y324370D02*
D03*
Y294370D02*
D03*
X231221Y254370D02*
D03*
X261221D02*
D03*
D108*
X235379Y151654D02*
X235593D01*
X235618Y151629D02*
X246038D01*
X235593Y151654D02*
X235618Y151629D01*
X246038D02*
X246063Y151654D01*
X245825Y149159D02*
X245849Y149134D01*
X246063D01*
X235404Y149159D02*
X245825D01*
X235379Y149134D02*
X235404Y149159D01*
D123*
X251575Y18110D02*
D03*
X244094D02*
D03*
X251575Y24803D02*
D03*
X244094D02*
D03*
X251575Y31496D02*
D03*
X244094D02*
D03*
D124*
X271260Y48228D02*
D03*
Y39961D02*
D03*
X243307Y40748D02*
D03*
Y48228D02*
D03*
X306299Y12008D02*
D03*
Y4528D02*
D03*
X284252Y4528D02*
D03*
Y12008D02*
D03*
D125*
X246456Y80315D02*
D03*
X252756D02*
D03*
X256693Y90551D02*
D03*
X262993D02*
D03*
X293307Y33071D02*
D03*
X299607D02*
D03*
X246456Y85433D02*
D03*
X252756D02*
D03*
X252756Y90551D02*
D03*
X246456D02*
D03*
X278347Y35039D02*
D03*
X272047D02*
D03*
X256693Y85433D02*
D03*
X262993D02*
D03*
D128*
X242126Y52755D02*
D03*
Y59056D02*
D03*
X254331Y48426D02*
D03*
Y42126D02*
D03*
X287080Y84252D02*
D03*
Y90552D02*
D03*
X281890Y84252D02*
D03*
Y90552D02*
D03*
X249213Y48426D02*
D03*
Y42126D02*
D03*
X267717Y84645D02*
D03*
Y90945D02*
D03*
X264961Y48426D02*
D03*
Y42126D02*
D03*
X259449Y48426D02*
D03*
Y42126D02*
D03*
X276772Y84252D02*
D03*
Y90552D02*
D03*
X290158Y12205D02*
D03*
Y5905D02*
D03*
X300394Y12205D02*
D03*
Y5905D02*
D03*
X295276Y12205D02*
D03*
Y5905D02*
D03*
X287402Y17323D02*
D03*
Y23622D02*
D03*
D146*
X75766Y101774D02*
X157063Y183071D01*
X279134Y8071D02*
X283071Y12008D01*
X276378Y3937D02*
X279134Y6693D01*
Y8071D01*
X272574Y84252D02*
X276772D01*
X267205Y74646D02*
Y78882D01*
X272574Y84252D01*
X276772D02*
X281890D01*
X273974Y79921D02*
X284931D01*
X272185Y78132D02*
X273974Y79921D01*
X272185Y74665D02*
Y78132D01*
X282859Y87402D02*
X292126D01*
X281890Y86433D02*
X282859Y87402D01*
X281890Y84252D02*
Y86433D01*
X287080Y84252D02*
X290552D01*
X293307Y81496D01*
Y65351D02*
Y81496D01*
X292126Y87402D02*
X295276Y84252D01*
Y53146D02*
Y84252D01*
X289386Y61430D02*
X293307Y65351D01*
X289386Y47257D02*
X295276Y53146D01*
X272185Y74665D02*
X272205Y74646D01*
X284931Y79921D02*
X287080Y82070D01*
Y84252D01*
X252756Y90551D02*
X252756Y90551D01*
X252756Y85433D02*
Y90551D01*
Y80315D02*
Y85433D01*
X252205Y74646D02*
Y79763D01*
X252756Y80315D01*
X256693Y80315D02*
X257205Y79803D01*
X256693Y80315D02*
Y90551D01*
X246456D02*
Y97244D01*
X246850Y97638D01*
X247037Y74813D02*
X247205Y74646D01*
X247037Y74813D02*
Y79734D01*
X246456Y80315D02*
Y85433D01*
Y80315D02*
X247037Y79734D01*
X262205Y74646D02*
Y79528D01*
X262993Y80315D01*
Y90551D01*
Y85226D02*
X263574Y84645D01*
X267717D01*
X258581Y93407D02*
X258661Y93488D01*
X258581Y93030D02*
Y93407D01*
X258661Y93488D02*
Y97638D01*
X256693Y91142D02*
X258581Y93030D01*
X256693Y90551D02*
Y91142D01*
X257205Y74646D02*
Y79803D01*
X267126Y91526D02*
X267707Y90945D01*
X267126Y91526D02*
Y97047D01*
X266535Y97638D02*
X267126Y97047D01*
X267707Y90945D02*
X267717D01*
X293322Y23622D02*
X296457Y20488D01*
X287402Y23622D02*
X293322D01*
X296457Y17323D02*
Y20488D01*
X294955Y26305D02*
X300197Y21063D01*
X293298Y26305D02*
X294955D01*
X292717Y26886D02*
X293298Y26305D01*
X300197Y12402D02*
Y21063D01*
X292717Y26886D02*
Y27559D01*
X262598Y8366D02*
Y9055D01*
Y8366D02*
X266856Y4109D01*
X267216Y3937D02*
X276378D01*
X267044Y4109D02*
X267216Y3937D01*
X266856Y4109D02*
X267044D01*
X271260Y39961D02*
X271269D01*
X272047Y39183D01*
Y35039D02*
Y39183D01*
X280709Y17323D02*
X287401D01*
X287402Y17323D02*
X290535D01*
X290535Y17323D01*
X292717D01*
X290158Y12205D02*
X295276D01*
X284252Y12008D02*
X284449Y12205D01*
X290158D01*
X300197Y12402D02*
X300394Y12205D01*
X305118Y4528D02*
X306299D01*
X303741Y5905D02*
X305118Y4528D01*
X300394Y5905D02*
X303741D01*
X295276D02*
X300394D01*
X290158D02*
X295276D01*
X283071Y12008D02*
X284252D01*
X268504Y9055D02*
Y16535D01*
Y9055D02*
X268504Y9055D01*
X275197Y23228D02*
Y48370D01*
X268504Y16535D02*
X275197Y23228D01*
Y48370D02*
X277205Y50378D01*
Y53701D01*
X271427Y48228D02*
X272205Y49006D01*
Y53701D01*
X271260Y48228D02*
X271427D01*
X267205Y52851D02*
Y53701D01*
X264961Y50607D02*
X267205Y52851D01*
X264961Y48426D02*
Y50607D01*
X259258Y49007D02*
X259449Y48816D01*
Y48426D02*
Y48816D01*
X258037Y51978D02*
X259258Y50757D01*
Y49007D02*
Y50757D01*
X257205Y52520D02*
X257747Y51978D01*
X258037D01*
X257205Y52520D02*
Y53701D01*
X250384Y43297D02*
X253373Y46286D01*
Y47844D02*
X253954Y48426D01*
X249803Y42126D02*
X250384Y42707D01*
X254331Y48426D02*
Y50574D01*
X249213Y42126D02*
X249803D01*
X253954Y48426D02*
X254331D01*
X250384Y42707D02*
Y43297D01*
X253373Y46286D02*
Y47844D01*
X252747Y51978D02*
X252927D01*
X252205Y52520D02*
Y53701D01*
X252927Y51978D02*
X254331Y50574D01*
X252205Y52520D02*
X252747Y51978D01*
X157063Y183071D02*
X182677D01*
X192913Y156693D02*
Y172835D01*
X182677Y183071D02*
X192913Y172835D01*
X207480Y142126D02*
X236221D01*
X192913Y156693D02*
X207480Y142126D01*
D149*
X47451Y111277D02*
X66602Y92126D01*
X85433D02*
X94095Y100787D01*
X66602Y92126D02*
X85433D01*
X94095Y100787D02*
X105512D01*
D150*
X222047Y11811D02*
Y48535D01*
X222779Y49268D01*
X218898Y8661D02*
X222047Y11811D01*
X105512Y106693D02*
Y109449D01*
Y103937D02*
Y106693D01*
Y100787D02*
Y103937D01*
Y83858D02*
Y100787D01*
X190157Y8661D02*
X218898D01*
X184646Y14173D02*
X190157Y8661D01*
X172441Y54724D02*
X184646Y42520D01*
Y14173D02*
Y42520D01*
X145276Y54724D02*
X172441D01*
X105512Y83858D02*
X134646Y54724D01*
X145276D01*
D151*
X260630Y137008D02*
D03*
Y142913D02*
D03*
Y148819D02*
D03*
Y154724D02*
D03*
Y160630D02*
D03*
Y166535D02*
D03*
D152*
X274410Y9055D02*
D03*
X268504D02*
D03*
X262598D02*
D03*
X256693D02*
D03*
X250787D02*
D03*
X244882D02*
D03*
D153*
X33465Y278740D02*
D03*
X13780D02*
D03*
X33465Y235433D02*
D03*
X13780D02*
D03*
X197244Y198425D02*
D03*
Y218110D02*
D03*
X22835Y127953D02*
D03*
Y108268D02*
D03*
X129921Y223622D02*
D03*
X90551D02*
D03*
X70866Y302362D02*
D03*
X149606D02*
D03*
D154*
X23622Y339921D02*
D03*
X208425Y338583D02*
D03*
X256221Y338583D02*
D03*
D155*
X23622Y319921D02*
D03*
D156*
X188425Y338583D02*
D03*
X236221Y338583D02*
D03*
D157*
X26476Y173622D02*
D03*
X168504Y42520D02*
D03*
D158*
X39075Y154724D02*
D03*
X149606Y29921D02*
D03*
D159*
X51279Y177953D02*
D03*
D160*
X145276Y54724D02*
D03*
D161*
X65837Y56968D02*
D03*
X68839Y59980D02*
D03*
Y53976D02*
D03*
X65837Y50965D02*
D03*
X62835Y59980D02*
D03*
Y53976D02*
D03*
X56831Y59980D02*
D03*
X59833Y56968D02*
D03*
Y50965D02*
D03*
X56831Y53976D02*
D03*
X65837Y62953D02*
D03*
X59833D02*
D03*
D162*
X303560Y47257D02*
D03*
X289386D02*
D03*
Y61430D02*
D03*
D163*
X77953Y7874D02*
D03*
X89764D02*
D03*
D164*
X165354Y339921D02*
D03*
X55118D02*
D03*
D165*
X135827Y194882D02*
D03*
X236221Y142126D02*
D03*
X75766Y101774D02*
D03*
X140945Y190157D02*
D03*
X198031Y121260D02*
D03*
X203937D02*
D03*
X207874Y151181D02*
D03*
X208661Y113761D02*
D03*
X216142Y196063D02*
D03*
X207874Y155118D02*
D03*
X33858Y86221D02*
D03*
X162287Y194964D02*
D03*
X205512Y242520D02*
D03*
X172441Y121653D02*
D03*
X293307Y97244D02*
D03*
X285433D02*
D03*
X305512Y57874D02*
D03*
Y73622D02*
D03*
Y65748D02*
D03*
X250000Y60236D02*
D03*
X246457D02*
D03*
X240551Y82284D02*
D03*
Y93307D02*
D03*
X283465Y66929D02*
D03*
Y75590D02*
D03*
X264567Y17323D02*
D03*
Y23622D02*
D03*
X284252Y8268D02*
D03*
X306299Y17323D02*
D03*
X294094Y22441D02*
D03*
X288583Y33071D02*
D03*
X281102Y23228D02*
D03*
X246457Y37795D02*
D03*
X268110Y64961D02*
D03*
X65354Y144882D02*
D03*
X77165D02*
D03*
X231496Y132677D02*
D03*
X225984D02*
D03*
X96734Y37160D02*
D03*
X16929Y214173D02*
D03*
X7087Y214567D02*
D03*
X31102Y184252D02*
D03*
X17323Y184646D02*
D03*
X38189Y165748D02*
D03*
Y181890D02*
D03*
X9843Y114567D02*
D03*
Y127953D02*
D03*
X139764Y103150D02*
D03*
X132677D02*
D03*
X173622Y157874D02*
D03*
X263779Y125197D02*
D03*
X259842Y121260D02*
D03*
X255906Y117323D02*
D03*
X251969Y113386D02*
D03*
X219685Y58661D02*
D03*
Y66535D02*
D03*
Y74410D02*
D03*
Y82284D02*
D03*
Y90158D02*
D03*
X187008Y57874D02*
D03*
X198819D02*
D03*
Y69685D02*
D03*
X187008D02*
D03*
X175197D02*
D03*
X227559Y19291D02*
D03*
X227165Y31890D02*
D03*
X173228Y92126D02*
D03*
X179528Y103543D02*
D03*
Y98425D02*
D03*
X173228D02*
D03*
X120472Y80709D02*
D03*
Y87402D02*
D03*
X124409Y6693D02*
D03*
Y46850D02*
D03*
X162205Y27165D02*
D03*
X175197Y8268D02*
D03*
X193307Y27165D02*
D03*
X181496Y8268D02*
D03*
X206528Y135114D02*
D03*
X188808Y158013D02*
D03*
X186945Y143505D02*
D03*
X204331Y179134D02*
D03*
X195669Y178740D02*
D03*
X200113Y179154D02*
D03*
X83465Y178347D02*
D03*
X98032D02*
D03*
X112205Y171260D02*
D03*
X105905D02*
D03*
X111417Y151969D02*
D03*
X106693D02*
D03*
X91732Y122835D02*
D03*
Y128347D02*
D03*
X85433Y131102D02*
D03*
X60236Y109055D02*
D03*
X34252Y5118D02*
D03*
Y11417D02*
D03*
Y18110D02*
D03*
X30315Y27165D02*
D03*
X218504Y128593D02*
D03*
X237795Y192520D02*
D03*
X245669D02*
D03*
X253543D02*
D03*
Y200394D02*
D03*
X245669D02*
D03*
X237795D02*
D03*
Y208268D02*
D03*
X245669D02*
D03*
X253543D02*
D03*
Y216142D02*
D03*
X245669D02*
D03*
X237795D02*
D03*
X232283Y225984D02*
D03*
X238583Y233465D02*
D03*
X233071D02*
D03*
X199606Y231890D02*
D03*
X191732D02*
D03*
X183858D02*
D03*
X179528Y169685D02*
D03*
X146850Y161811D02*
D03*
X140551D02*
D03*
X133465Y127165D02*
D03*
X133858Y133465D02*
D03*
X142520Y131102D02*
D03*
X148819Y130709D02*
D03*
X144882Y139370D02*
D03*
X150394Y158661D02*
D03*
X161811Y146850D02*
D03*
X158661Y149606D02*
D03*
X124016Y119291D02*
D03*
X127165D02*
D03*
X130315D02*
D03*
X135827D02*
D03*
X168504Y121653D02*
D03*
X163386D02*
D03*
X251181Y155905D02*
D03*
X244488D02*
D03*
X237795D02*
D03*
X225590Y163386D02*
D03*
X91732Y137008D02*
D03*
X90945Y143701D02*
D03*
X96888D02*
D03*
X47451Y111277D02*
D03*
X43701Y5906D02*
D03*
Y9055D02*
D03*
X180709Y178740D02*
D03*
X105512Y100787D02*
D03*
Y103937D02*
D03*
Y106693D02*
D03*
Y109449D02*
D03*
X133071Y119291D02*
D03*
X108268Y143701D02*
D03*
X103187D02*
D03*
X153937Y107874D02*
D03*
X161024Y97913D02*
D03*
X212205Y127165D02*
D03*
X52756Y18307D02*
D03*
X206791Y29626D02*
D03*
X206693Y49213D02*
D03*
X177559Y132283D02*
D03*
X225228Y157293D02*
D03*
X131102Y92087D02*
D03*
X244094Y172835D02*
D03*
X237402D02*
D03*
X250787D02*
D03*
X256693D02*
D03*
X262205D02*
D03*
X231102Y178740D02*
D03*
X225984D02*
D03*
X133758Y92087D02*
D03*
X225984Y50000D02*
D03*
X223409Y49995D02*
D03*
X220866Y50000D02*
D03*
X218110D02*
D03*
X48425Y124016D02*
D03*
X57874D02*
D03*
X51575D02*
D03*
X45276D02*
D03*
X54724D02*
D03*
X52362Y188976D02*
D03*
X64961D02*
D03*
X61811D02*
D03*
X58661D02*
D03*
X55512D02*
D03*
X63779Y161417D02*
D03*
X58661D02*
D03*
X52756D02*
D03*
D166*
X235379Y151654D02*
D03*
Y149134D02*
D03*
X246063Y151654D02*
D03*
Y149134D02*
D03*
D207*
X258661Y97638D02*
D03*
X246850D02*
D03*
X278346D02*
D03*
X266535D02*
D03*
D208*
X300197Y27559D02*
D03*
X292717D02*
D03*
Y17323D02*
D03*
X296457D02*
D03*
X300197D02*
D03*
D209*
X247205Y74646D02*
D03*
X252205D02*
D03*
X257205D02*
D03*
X262205D02*
D03*
X267205D02*
D03*
X272205D02*
D03*
X277205D02*
D03*
Y53701D02*
D03*
X272205D02*
D03*
X267205D02*
D03*
X262205D02*
D03*
X257205D02*
D03*
X252205D02*
D03*
X247205D02*
D03*
D210*
X280709Y17323D02*
D03*
Y29134D02*
D03*
D211*
X268110Y64961D02*
X273228D01*
X239764D02*
X268110D01*
X280709Y29134D02*
X281102Y29528D01*
Y57087D01*
X273228Y64961D02*
X281102Y57087D01*
X237402Y62598D02*
X239764Y64961D01*
X237402Y54724D02*
Y62598D01*
M02*
