G04*
G04 #@! TF.GenerationSoftware,Altium Limited,Altium Designer,22.1.2 (22)*
G04*
G04 Layer_Color=128*
%FSLAX25Y25*%
%MOIN*%
G70*
G04*
G04 #@! TF.SameCoordinates,BB4BA718-9431-4743-B970-F4C87B48E952*
G04*
G04*
G04 #@! TF.FilePolarity,Positive*
G04*
G01*
G75*
%ADD31R,0.03756X0.06118*%
%ADD32R,0.06118X0.03756*%
%ADD33R,0.03362X0.04543*%
%ADD36R,0.04543X0.03362*%
%ADD216R,0.04543X0.07299*%
%ADD217R,0.03362X0.05331*%
%ADD218R,0.03284X0.05646*%
%ADD219R,0.07299X0.04543*%
D31*
X251575Y18110D02*
D03*
X244094D02*
D03*
X251575Y24803D02*
D03*
X244094D02*
D03*
X251575Y31496D02*
D03*
X244094D02*
D03*
D32*
X271260Y48228D02*
D03*
Y39961D02*
D03*
X243307Y40748D02*
D03*
Y48228D02*
D03*
X306299Y12008D02*
D03*
Y4528D02*
D03*
X284252Y4528D02*
D03*
Y12008D02*
D03*
D33*
X246456Y80315D02*
D03*
X252756D02*
D03*
X256693Y90551D02*
D03*
X262993D02*
D03*
X293307Y33071D02*
D03*
X299607D02*
D03*
X246456Y85433D02*
D03*
X252756D02*
D03*
X252756Y90551D02*
D03*
X246456D02*
D03*
X278347Y35039D02*
D03*
X272047D02*
D03*
X256693Y85433D02*
D03*
X262993D02*
D03*
D36*
X242126Y52755D02*
D03*
Y59056D02*
D03*
X254331Y48426D02*
D03*
Y42126D02*
D03*
X287080Y84252D02*
D03*
Y90552D02*
D03*
X281890Y84252D02*
D03*
Y90552D02*
D03*
X249213Y48426D02*
D03*
Y42126D02*
D03*
X267717Y84645D02*
D03*
Y90945D02*
D03*
X264961Y48426D02*
D03*
Y42126D02*
D03*
X259449Y48426D02*
D03*
Y42126D02*
D03*
X276772Y84252D02*
D03*
Y90552D02*
D03*
X290158Y12205D02*
D03*
Y5905D02*
D03*
X300394Y12205D02*
D03*
Y5905D02*
D03*
X295276Y12205D02*
D03*
Y5905D02*
D03*
X287402Y17323D02*
D03*
Y23622D02*
D03*
D216*
X258661Y97638D02*
D03*
X246850D02*
D03*
X278346D02*
D03*
X266535D02*
D03*
D217*
X300197Y27559D02*
D03*
X292717D02*
D03*
Y17323D02*
D03*
X296457D02*
D03*
X300197D02*
D03*
D218*
X247205Y74646D02*
D03*
X252205D02*
D03*
X257205D02*
D03*
X262205D02*
D03*
X267205D02*
D03*
X272205D02*
D03*
X277205D02*
D03*
Y53701D02*
D03*
X272205D02*
D03*
X267205D02*
D03*
X262205D02*
D03*
X257205D02*
D03*
X252205D02*
D03*
X247205D02*
D03*
D219*
X280709Y17323D02*
D03*
Y29134D02*
D03*
M02*
