G04*
G04 #@! TF.GenerationSoftware,Altium Limited,Altium Designer,22.1.2 (22)*
G04*
G04 Layer_Physical_Order=2*
G04 Layer_Color=32768*
%FSLAX25Y25*%
%MOIN*%
G70*
G04*
G04 #@! TF.SameCoordinates,BB4BA718-9431-4743-B970-F4C87B48E952*
G04*
G04*
G04 #@! TF.FilePolarity,Negative*
G04*
G01*
G75*
%ADD167C,0.04000*%
%ADD168R,0.07087X0.06693*%
%ADD169R,0.05512X0.06299*%
%ADD170R,0.01181X0.01181*%
%ADD171R,0.01181X0.00787*%
%ADD172R,0.00787X0.01181*%
%ADD173R,0.00787X0.00787*%
%ADD174R,0.25984X0.76378*%
%ADD175R,1.33465X0.59843*%
%ADD176R,2.27559X0.98425*%
%ADD177R,0.45669X0.72441*%
%ADD178C,0.09425*%
%ADD179C,0.09937*%
G04:AMPARAMS|DCode=180|XSize=89.37mil|YSize=89.37mil|CornerRadius=0mil|HoleSize=0mil|Usage=FLASHONLY|Rotation=0.000|XOffset=0mil|YOffset=0mil|HoleType=Round|Shape=Relief|Width=15mil|Gap=10mil|Entries=4|*
%AMTHD180*
7,0,0,0.08937,0.06937,0.01500,45*
%
%ADD180THD180*%
%ADD181C,0.12693*%
%ADD182C,0.09150*%
%ADD183C,0.14268*%
%AMTHOVALD184*
21,1,0.07874,0.08937,0,0,90.0*
1,1,0.08937,0.00000,-0.03937*
1,1,0.08937,0.00000,0.03937*
21,0,0.07874,0.06937,0,0,90.0*
1,0,0.06937,0.00000,-0.03937*
1,0,0.06937,0.00000,0.03937*
4,0,4,0.00530,-0.03407,0.03690,-0.06566,0.02629,-0.07627,-0.00530,-0.04467,0.00530,-0.03407,0.0*
4,0,4,0.00530,0.04467,-0.02629,0.07627,-0.03690,0.06566,-0.00530,0.03407,0.00530,0.04467,0.0*
4,0,4,0.00530,-0.04467,-0.02629,-0.07627,-0.03690,-0.06566,-0.00530,-0.03407,0.00530,-0.04467,0.0*
4,0,4,0.00530,0.03407,0.03690,0.06566,0.02629,0.07627,-0.00530,0.04467,0.00530,0.03407,0.0*
%
%ADD184THOVALD184*%

%AMTHOVALD185*
21,1,0.07087,0.09724,0,0,180.0*
1,1,0.09724,0.03543,0.00000*
1,1,0.09724,-0.03543,0.00000*
21,0,0.07087,0.07724,0,0,180.0*
1,0,0.07724,0.03543,0.00000*
1,0,0.07724,-0.03543,0.00000*
4,0,4,0.03013,0.00530,0.06451,0.03968,0.07512,0.02908,0.04074,-0.00530,0.03013,0.00530,0.0*
4,0,4,-0.04074,0.00530,-0.07512,-0.02908,-0.06451,-0.03968,-0.03013,-0.00530,-0.04074,0.00530,0.0*
4,0,4,0.04074,0.00530,0.07512,-0.02908,0.06451,-0.03968,0.03013,-0.00530,0.04074,0.00530,0.0*
4,0,4,-0.03013,0.00530,-0.06451,0.03968,-0.07512,0.02908,-0.04074,-0.00530,-0.03013,0.00530,0.0*
%
%ADD185THOVALD185*%

%ADD186O,0.10724X0.11906*%
%AMTHOVALD187*
21,1,0.07874,0.08937,0,0,180.0*
1,1,0.08937,0.03937,0.00000*
1,1,0.08937,-0.03937,0.00000*
21,0,0.07874,0.06937,0,0,180.0*
1,0,0.06937,0.03937,0.00000*
1,0,0.06937,-0.03937,0.00000*
4,0,4,0.03407,0.00530,0.06566,0.03690,0.07627,0.02629,0.04467,-0.00530,0.03407,0.00530,0.0*
4,0,4,-0.04467,0.00530,-0.07627,-0.02629,-0.06566,-0.03690,-0.03407,-0.00530,-0.04467,0.00530,0.0*
4,0,4,0.04467,0.00530,0.07627,-0.02629,0.06566,-0.03690,0.03407,-0.00530,0.04467,0.00530,0.0*
4,0,4,-0.03407,0.00530,-0.06566,0.03690,-0.07627,0.02629,-0.04467,-0.00530,-0.03407,0.00530,0.0*
%
%ADD187THOVALD187*%

%AMTHOVALD188*
21,1,0.07087,0.09724,0,0,270.0*
1,1,0.09724,0.00000,0.03543*
1,1,0.09724,0.00000,-0.03543*
21,0,0.07087,0.07724,0,0,270.0*
1,0,0.07724,0.00000,0.03543*
1,0,0.07724,0.00000,-0.03543*
4,0,4,-0.00530,0.03013,-0.03968,0.06451,-0.02908,0.07512,0.00530,0.04074,-0.00530,0.03013,0.0*
4,0,4,-0.00530,-0.04074,0.02908,-0.07512,0.03968,-0.06451,0.00530,-0.03013,-0.00530,-0.04074,0.0*
4,0,4,-0.00530,0.04074,0.02908,0.07512,0.03968,0.06451,0.00530,0.03013,-0.00530,0.04074,0.0*
4,0,4,-0.00530,-0.03013,-0.03968,-0.06451,-0.02908,-0.07512,0.00530,-0.04074,-0.00530,-0.03013,0.0*
%
%ADD188THOVALD188*%

%ADD189O,0.11906X0.10724*%
G04:AMPARAMS|DCode=190|XSize=57.087mil|YSize=57.087mil|CornerRadius=0mil|HoleSize=0mil|Usage=FLASHONLY|Rotation=0.000|XOffset=0mil|YOffset=0mil|HoleType=Round|Shape=Relief|Width=15mil|Gap=10mil|Entries=4|*
%AMTHD190*
7,0,0,0.05709,0.03709,0.01500,45*
%
%ADD190THD190*%
G04:AMPARAMS|DCode=191|XSize=75.591mil|YSize=75.591mil|CornerRadius=0mil|HoleSize=0mil|Usage=FLASHONLY|Rotation=0.000|XOffset=0mil|YOffset=0mil|HoleType=Round|Shape=Relief|Width=15mil|Gap=10mil|Entries=4|*
%AMTHD191*
7,0,0,0.07559,0.05559,0.01500,45*
%
%ADD191THD191*%
%ADD192C,0.08559*%
%ADD193C,0.09543*%
%ADD194C,0.11118*%
%ADD195C,0.07378*%
G04:AMPARAMS|DCode=196|XSize=63.779mil|YSize=63.779mil|CornerRadius=0mil|HoleSize=0mil|Usage=FLASHONLY|Rotation=0.000|XOffset=0mil|YOffset=0mil|HoleType=Round|Shape=Relief|Width=15mil|Gap=10mil|Entries=4|*
%AMTHD196*
7,0,0,0.06378,0.04378,0.01500,45*
%
%ADD196THD196*%
%ADD197C,0.07181*%
D167*
X233465Y0D02*
Y103150D01*
X270079D01*
X0Y0D02*
X315748D01*
Y103150D01*
X269685D02*
X315748D01*
X269685D02*
Y360630D01*
X0Y0D02*
Y360630D01*
X269685D01*
D168*
X260630Y160827D02*
D03*
D169*
X250394Y9055D02*
D03*
D170*
X65898Y53922D02*
D03*
X65945Y60039D02*
D03*
D171*
X62795Y57087D02*
D03*
D172*
X59842Y54134D02*
D03*
D173*
Y59842D02*
D03*
D174*
X12992Y60236D02*
D03*
D175*
X109252Y237795D02*
D03*
D176*
X156299Y311417D02*
D03*
D177*
X22835Y324016D02*
D03*
D178*
X260630Y137008D02*
D03*
Y142913D02*
D03*
Y148819D02*
D03*
Y154724D02*
D03*
Y160630D02*
D03*
Y166535D02*
D03*
X274410Y9055D02*
D03*
X268504D02*
D03*
X262598D02*
D03*
X256693D02*
D03*
X250787D02*
D03*
X244882D02*
D03*
D179*
X33465Y278740D02*
D03*
Y235433D02*
D03*
X197244Y198425D02*
D03*
X129921Y223622D02*
D03*
X90551D02*
D03*
X70866Y302362D02*
D03*
X149606D02*
D03*
X165354Y339921D02*
D03*
X55118D02*
D03*
D180*
X13780Y278740D02*
D03*
Y235433D02*
D03*
X197244Y218110D02*
D03*
D181*
X23622Y339921D02*
D03*
Y319921D02*
D03*
X208425Y338583D02*
D03*
X188425D02*
D03*
X256221Y338583D02*
D03*
X236221D02*
D03*
D182*
X22835Y127953D02*
D03*
Y108268D02*
D03*
D183*
X8760Y173622D02*
D03*
X149606Y12205D02*
D03*
D184*
X26476Y173622D02*
D03*
D185*
X39075Y154724D02*
D03*
D186*
X51279Y177953D02*
D03*
D187*
X149606Y29921D02*
D03*
D188*
X168504Y42520D02*
D03*
D189*
X145276Y54724D02*
D03*
D190*
X65837Y56968D02*
D03*
X68839Y59980D02*
D03*
Y53976D02*
D03*
X65837Y50965D02*
D03*
X62835Y59980D02*
D03*
Y53976D02*
D03*
X56831Y59980D02*
D03*
X59833Y56968D02*
D03*
Y50965D02*
D03*
X56831Y53976D02*
D03*
X65837Y62953D02*
D03*
X59833D02*
D03*
D191*
X303560Y47257D02*
D03*
D192*
X289386D02*
D03*
Y61430D02*
D03*
D193*
X77953Y7874D02*
D03*
X89764D02*
D03*
D194*
X183425Y314370D02*
D03*
X213425Y324370D02*
D03*
Y294370D02*
D03*
X183425Y254370D02*
D03*
X213425D02*
D03*
X231221Y314370D02*
D03*
X261221Y324370D02*
D03*
Y294370D02*
D03*
X231221Y254370D02*
D03*
X261221D02*
D03*
D195*
X135827Y194882D02*
D03*
X236221Y142126D02*
D03*
X75766Y101774D02*
D03*
X140945Y190157D02*
D03*
X198031Y121260D02*
D03*
X203937D02*
D03*
X207874Y151181D02*
D03*
X208661Y113761D02*
D03*
X216142Y196063D02*
D03*
X268110Y64961D02*
D03*
X204331Y179134D02*
D03*
X200113Y179154D02*
D03*
X124016Y119291D02*
D03*
X127165D02*
D03*
X130315D02*
D03*
X135827D02*
D03*
X91732Y137008D02*
D03*
X90945Y143701D02*
D03*
X96888D02*
D03*
X47451Y111277D02*
D03*
X43701Y5906D02*
D03*
Y9055D02*
D03*
X180709Y178740D02*
D03*
X105512Y100787D02*
D03*
Y103937D02*
D03*
Y106693D02*
D03*
Y109449D02*
D03*
X133071Y119291D02*
D03*
X108268Y143701D02*
D03*
X103187D02*
D03*
X153937Y107874D02*
D03*
X212205Y127165D02*
D03*
X206791Y29626D02*
D03*
X177559Y132283D02*
D03*
X225228Y157293D02*
D03*
X131102Y92087D02*
D03*
X244094Y172835D02*
D03*
X237402D02*
D03*
X250787D02*
D03*
X256693D02*
D03*
X262205D02*
D03*
X231102Y178740D02*
D03*
X225984D02*
D03*
X133758Y92087D02*
D03*
X225984Y50000D02*
D03*
X223409Y49995D02*
D03*
X220866Y50000D02*
D03*
X218110D02*
D03*
X48425Y124016D02*
D03*
X57874D02*
D03*
X51575D02*
D03*
X45276D02*
D03*
X54724D02*
D03*
X52362Y188976D02*
D03*
X64961D02*
D03*
X61811D02*
D03*
X58661D02*
D03*
X55512D02*
D03*
X63779Y161417D02*
D03*
X58661D02*
D03*
X52756D02*
D03*
D196*
X207874Y155118D02*
D03*
X33858Y86221D02*
D03*
X162287Y194964D02*
D03*
X205512Y242520D02*
D03*
X172441Y121653D02*
D03*
X293307Y97244D02*
D03*
X285433D02*
D03*
X305512Y57874D02*
D03*
Y73622D02*
D03*
Y65748D02*
D03*
X250000Y60236D02*
D03*
X246457D02*
D03*
X240551Y82284D02*
D03*
Y93307D02*
D03*
X283465Y66929D02*
D03*
Y75590D02*
D03*
X264567Y17323D02*
D03*
Y23622D02*
D03*
X284252Y8268D02*
D03*
X306299Y17323D02*
D03*
X294094Y22441D02*
D03*
X288583Y33071D02*
D03*
X281102Y23228D02*
D03*
X246457Y37795D02*
D03*
X65354Y144882D02*
D03*
X77165D02*
D03*
X231496Y132677D02*
D03*
X225984D02*
D03*
X96734Y37160D02*
D03*
X16929Y214173D02*
D03*
X7087Y214567D02*
D03*
X31102Y184252D02*
D03*
X17323Y184646D02*
D03*
X38189Y165748D02*
D03*
Y181890D02*
D03*
X9843Y114567D02*
D03*
Y127953D02*
D03*
X139764Y103150D02*
D03*
X132677D02*
D03*
X173622Y157874D02*
D03*
X263779Y125197D02*
D03*
X259842Y121260D02*
D03*
X255906Y117323D02*
D03*
X251969Y113386D02*
D03*
X219685Y58661D02*
D03*
Y66535D02*
D03*
Y74410D02*
D03*
Y82284D02*
D03*
Y90158D02*
D03*
X187008Y57874D02*
D03*
X198819D02*
D03*
Y69685D02*
D03*
X187008D02*
D03*
X175197D02*
D03*
X227559Y19291D02*
D03*
X227165Y31890D02*
D03*
X173228Y92126D02*
D03*
X179528Y103543D02*
D03*
Y98425D02*
D03*
X173228D02*
D03*
X120472Y80709D02*
D03*
Y87402D02*
D03*
X124409Y6693D02*
D03*
Y46850D02*
D03*
X162205Y27165D02*
D03*
X175197Y8268D02*
D03*
X193307Y27165D02*
D03*
X181496Y8268D02*
D03*
X206528Y135114D02*
D03*
X188808Y158013D02*
D03*
X186945Y143505D02*
D03*
X195669Y178740D02*
D03*
X83465Y178347D02*
D03*
X98032D02*
D03*
X112205Y171260D02*
D03*
X105905D02*
D03*
X111417Y151969D02*
D03*
X106693D02*
D03*
X91732Y122835D02*
D03*
Y128347D02*
D03*
X85433Y131102D02*
D03*
X60236Y109055D02*
D03*
X34252Y5118D02*
D03*
Y11417D02*
D03*
Y18110D02*
D03*
X30315Y27165D02*
D03*
X218504Y128593D02*
D03*
X237795Y192520D02*
D03*
X245669D02*
D03*
X253543D02*
D03*
Y200394D02*
D03*
X245669D02*
D03*
X237795D02*
D03*
Y208268D02*
D03*
X245669D02*
D03*
X253543D02*
D03*
Y216142D02*
D03*
X245669D02*
D03*
X237795D02*
D03*
X232283Y225984D02*
D03*
X238583Y233465D02*
D03*
X233071D02*
D03*
X199606Y231890D02*
D03*
X191732D02*
D03*
X183858D02*
D03*
X179528Y169685D02*
D03*
X146850Y161811D02*
D03*
X140551D02*
D03*
X133465Y127165D02*
D03*
X133858Y133465D02*
D03*
X142520Y131102D02*
D03*
X148819Y130709D02*
D03*
X144882Y139370D02*
D03*
X150394Y158661D02*
D03*
X161811Y146850D02*
D03*
X158661Y149606D02*
D03*
X168504Y121653D02*
D03*
X163386D02*
D03*
X251181Y155905D02*
D03*
X244488D02*
D03*
X237795D02*
D03*
X225590Y163386D02*
D03*
X161024Y97913D02*
D03*
X52756Y18307D02*
D03*
X206693Y49213D02*
D03*
D197*
X235379Y151654D02*
D03*
Y149134D02*
D03*
X246063Y151654D02*
D03*
Y149134D02*
D03*
M02*
