G04*
G04 #@! TF.GenerationSoftware,Altium Limited,Altium Designer,22.1.2 (22)*
G04*
G04 Layer_Color=16711833*
%FSLAX25Y25*%
%MOIN*%
G70*
G04*
G04 #@! TF.SameCoordinates,BB4BA718-9431-4743-B970-F4C87B48E952*
G04*
G04*
G04 #@! TF.FilePolarity,Negative*
G04*
G01*
G75*
%ADD54R,0.08661X0.06693*%
%ADD55R,0.07874X0.07874*%
%ADD56R,0.01968X0.05906*%
%ADD57R,0.09449X0.07874*%
%ADD58R,0.10013X0.06391*%
G04:AMPARAMS|DCode=59|XSize=66.93mil|YSize=53.15mil|CornerRadius=0mil|HoleSize=0mil|Usage=FLASHONLY|Rotation=225.000|XOffset=0mil|YOffset=0mil|HoleType=Round|Shape=Rectangle|*
%AMROTATEDRECTD59*
4,1,4,0.00487,0.04245,0.04245,0.00487,-0.00487,-0.04245,-0.04245,-0.00487,0.00487,0.04245,0.0*
%
%ADD59ROTATEDRECTD59*%

%ADD60R,0.18123X0.13792*%
%ADD61R,0.25210X0.16154*%
%ADD62R,0.13792X0.18123*%
%ADD63R,0.16154X0.25210*%
%ADD64R,0.04528X0.04528*%
%ADD65R,0.06299X0.03937*%
%ADD66R,0.03937X0.06299*%
%ADD67R,0.12205X0.08268*%
%ADD68R,0.03150X0.05512*%
%ADD69R,0.05512X0.03150*%
%ADD70R,0.02756X0.03937*%
G04:AMPARAMS|DCode=71|XSize=27.56mil|YSize=39.37mil|CornerRadius=0mil|HoleSize=0mil|Usage=FLASHONLY|Rotation=45.000|XOffset=0mil|YOffset=0mil|HoleType=Round|Shape=Rectangle|*
%AMROTATEDRECTD71*
4,1,4,0.00418,-0.02366,-0.02366,0.00418,-0.00418,0.02366,0.02366,-0.00418,0.00418,-0.02366,0.0*
%
%ADD71ROTATEDRECTD71*%

G04:AMPARAMS|DCode=72|XSize=27.56mil|YSize=39.37mil|CornerRadius=0mil|HoleSize=0mil|Usage=FLASHONLY|Rotation=315.000|XOffset=0mil|YOffset=0mil|HoleType=Round|Shape=Rectangle|*
%AMROTATEDRECTD72*
4,1,4,-0.02366,-0.00418,0.00418,0.02366,0.02366,0.00418,-0.00418,-0.02366,-0.02366,-0.00418,0.0*
%
%ADD72ROTATEDRECTD72*%

%ADD73R,0.03937X0.02756*%
%ADD74R,0.02756X0.05118*%
%ADD75R,0.04528X0.02559*%
%ADD76R,0.02559X0.04528*%
%ADD77R,0.05512X0.13780*%
%ADD78R,0.03150X0.06299*%
%ADD79R,0.04331X0.03543*%
%ADD80R,0.04724X0.03543*%
%ADD81R,0.03543X0.04724*%
%ADD82R,0.01575X0.05118*%
%ADD83R,0.05118X0.01575*%
%ADD84R,0.06693X0.05118*%
%ADD85R,0.06693X0.13386*%
%ADD86R,0.06496X0.05118*%
%ADD87R,0.06115X0.03162*%
%ADD88R,0.06693X0.06693*%
%ADD89R,0.04331X0.02362*%
%ADD90R,0.11193X0.08894*%
%ADD91O,0.07087X0.05150*%
%ADD92O,0.05150X0.07087*%
%ADD93C,0.08268*%
%ADD94C,0.10839*%
%ADD95R,0.10839X0.10839*%
%ADD96R,0.10839X0.10839*%
%ADD97C,0.09068*%
%ADD98O,0.08674X0.16548*%
%ADD99O,0.16548X0.08674*%
%ADD100O,0.07887X0.14973*%
%ADD101O,0.14973X0.07887*%
%ADD102C,0.01394*%
%ADD103C,0.05118*%
%ADD104C,0.03937*%
%ADD105C,0.08661*%
%ADD106C,0.06693*%
%ADD107C,0.03162*%
G36*
X14865Y13668D02*
X14884Y13662D01*
X14960Y13649D01*
X15020Y13640D01*
X15045Y13634D01*
X15099Y13618D01*
X15124Y13612D01*
X15168Y13593D01*
X15213Y13580D01*
X15270Y13555D01*
X15339Y13523D01*
X15352Y13517D01*
X15364Y13504D01*
X15459Y13453D01*
X15519Y13412D01*
X15529Y13403D01*
X15561Y13384D01*
X15573Y13371D01*
X15586Y13365D01*
X15630Y13321D01*
X15643Y13314D01*
X15741Y13216D01*
X15747Y13204D01*
X15779Y13172D01*
X15785Y13160D01*
X15798Y13153D01*
X15804Y13141D01*
X15835Y13096D01*
X15842Y13084D01*
X15861Y13065D01*
X15886Y13020D01*
X15930Y12951D01*
X15937Y12938D01*
X15987Y12831D01*
X16013Y12774D01*
X16019Y12749D01*
X16028Y12714D01*
X16038Y12704D01*
X16044Y12679D01*
X16050Y12635D01*
X16063Y12603D01*
X16069Y12578D01*
X16079Y12518D01*
X16092Y12448D01*
X16098Y12385D01*
X16101Y12173D01*
X16095Y12154D01*
X16088Y12091D01*
X16082Y12072D01*
X16076Y12009D01*
X16069Y11984D01*
X16063Y11946D01*
X16050Y11914D01*
X16041Y11873D01*
X16028Y11841D01*
X15997Y11753D01*
X15981Y11718D01*
X15975Y11699D01*
X15930Y11617D01*
X15880Y11528D01*
X15848Y11484D01*
X15820Y11449D01*
X15785Y11396D01*
X15766Y11377D01*
X15760Y11364D01*
X15636Y11241D01*
X15627Y11237D01*
X15620Y11225D01*
X15598Y11209D01*
X15564Y11181D01*
X15453Y11102D01*
X15409Y11076D01*
X15251Y11000D01*
X15200Y10975D01*
X15194D01*
X15153Y10966D01*
X15118Y10950D01*
X15067Y10937D01*
X15036Y10925D01*
X15010Y10918D01*
X14931Y10909D01*
X14868Y10896D01*
X14818Y10890D01*
X14618Y10887D01*
X14600Y10893D01*
X14511Y10899D01*
X14492Y10906D01*
X14448Y10912D01*
X14422Y10918D01*
X14366Y10925D01*
X14321Y10943D01*
X14280Y10953D01*
X14239Y10969D01*
X14179Y10991D01*
X14075Y11038D01*
X14056Y11045D01*
X14037Y11064D01*
X13948Y11114D01*
X13825Y11206D01*
X13815Y11215D01*
X13803Y11222D01*
X13793Y11231D01*
X13790Y11241D01*
X13778Y11247D01*
X13746Y11279D01*
X13733Y11285D01*
X13727Y11298D01*
X13714Y11304D01*
X13692Y11326D01*
X13686Y11339D01*
X13629Y11396D01*
X13623Y11408D01*
X13597Y11434D01*
X13591Y11446D01*
X13563Y11481D01*
X13509Y11573D01*
X13477Y11630D01*
X13408Y11775D01*
X13398Y11816D01*
X13386Y11848D01*
X13376Y11876D01*
X13363Y11927D01*
X13351Y11958D01*
X13338Y12047D01*
X13332Y12072D01*
X13326Y12116D01*
X13319Y12142D01*
X13313Y12338D01*
X13319Y12357D01*
X13326Y12464D01*
X13332Y12483D01*
X13341Y12543D01*
X13354Y12613D01*
X13367Y12644D01*
X13379Y12708D01*
X13392Y12739D01*
X13408Y12780D01*
X13433Y12837D01*
X13439Y12862D01*
X13465Y12900D01*
X13474Y12935D01*
X13484Y12945D01*
X13490Y12957D01*
X13528Y13020D01*
X13534Y13033D01*
X13547Y13046D01*
X13553Y13058D01*
X13616Y13147D01*
X13635Y13166D01*
X13642Y13179D01*
X13673Y13210D01*
X13680Y13223D01*
X13689Y13232D01*
X13702Y13239D01*
X13711Y13248D01*
X13717Y13261D01*
X13752Y13295D01*
X13762Y13299D01*
X13765Y13308D01*
X13778Y13314D01*
X13822Y13359D01*
X13835Y13365D01*
X13866Y13397D01*
X13898Y13416D01*
X13961Y13460D01*
X14049Y13510D01*
X14144Y13555D01*
X14201Y13580D01*
X14226Y13586D01*
X14290Y13612D01*
X14356Y13627D01*
X14397Y13643D01*
X14473Y13649D01*
X14492Y13656D01*
X14530Y13662D01*
X14549Y13668D01*
X14745Y13675D01*
X14865Y13668D01*
D02*
G37*
G36*
X12330Y15654D02*
X12412Y15647D01*
X12472Y15625D01*
X12504Y15619D01*
X12535Y15606D01*
X12570Y15590D01*
X12602Y15578D01*
X12614Y15565D01*
X12659Y15540D01*
X12671Y15527D01*
X12684Y15521D01*
X12741Y15477D01*
X12779Y15439D01*
X12791Y15432D01*
X12807Y15410D01*
X12832Y15385D01*
X12839Y15372D01*
X12858Y15353D01*
X12877Y15322D01*
X12908Y15265D01*
X12934Y15202D01*
X12953Y15157D01*
X12959Y15132D01*
X12971Y15120D01*
X12978Y15050D01*
X12984Y15031D01*
X12990Y14860D01*
X12984Y14841D01*
X12975Y14756D01*
X12968Y14731D01*
X12953Y14696D01*
X12943Y14648D01*
X12934Y14639D01*
X12921Y14607D01*
X12914Y14595D01*
X12883Y14538D01*
X12807Y14437D01*
X12763Y14392D01*
X12760Y14383D01*
X12747Y14377D01*
X12738Y14367D01*
X12731Y14355D01*
X12674Y14298D01*
X12668Y14285D01*
X12646Y14269D01*
X12630Y14247D01*
X12617Y14234D01*
X12611Y14222D01*
X12586Y14196D01*
X12580Y14184D01*
X12554Y14159D01*
X12548Y14146D01*
X12529Y14127D01*
X12523Y14114D01*
X12497Y14089D01*
X12478Y14057D01*
X12466Y14045D01*
X12459Y14032D01*
X12440Y14013D01*
X12421Y13982D01*
X12380Y13921D01*
X12361Y13883D01*
X12352Y13874D01*
X12346Y13861D01*
X12314Y13811D01*
X12295Y13779D01*
X12263Y13722D01*
X12213Y13627D01*
X12188Y13570D01*
X12181Y13558D01*
X12156Y13501D01*
X12150Y13488D01*
X12131Y13444D01*
X12105Y13387D01*
X12099Y13362D01*
X12074Y13305D01*
X12067Y13280D01*
X12051Y13239D01*
X12042Y13210D01*
X12036Y13185D01*
X12014Y13125D01*
X12001Y13061D01*
X11979Y12989D01*
X11972Y12938D01*
X11966Y12919D01*
X11953Y12875D01*
X11947Y12831D01*
X11938Y12771D01*
X11931Y12745D01*
X11925Y12714D01*
X11913Y12575D01*
X11906Y12512D01*
X11900Y12455D01*
X11897Y12129D01*
X11903Y12110D01*
X11913Y11980D01*
X11925Y11854D01*
X11931Y11822D01*
X11938Y11797D01*
X11944Y11765D01*
X11950Y11702D01*
X11957Y11671D01*
X11972Y11617D01*
X11979Y11573D01*
X11992Y11528D01*
X11998Y11497D01*
X12010Y11465D01*
X12017Y11427D01*
X12036Y11383D01*
X12048Y11326D01*
X12067Y11282D01*
X12077Y11247D01*
X12086Y11237D01*
X12099Y11193D01*
X12115Y11152D01*
X12131Y11117D01*
X12146Y11076D01*
X12194Y10972D01*
X12213Y10940D01*
X12225Y10909D01*
X12232Y10896D01*
X12270Y10833D01*
X12308Y10763D01*
X12333Y10719D01*
X12365Y10675D01*
X12390Y10631D01*
X12402Y10618D01*
X12428Y10574D01*
X12504Y10473D01*
X12516Y10460D01*
X12535Y10428D01*
X12548Y10416D01*
X12554Y10403D01*
X12580Y10378D01*
X12586Y10365D01*
X12611Y10340D01*
X12617Y10327D01*
X12649Y10295D01*
X12655Y10283D01*
X12674Y10270D01*
X12681Y10258D01*
X12731Y10207D01*
X12738Y10194D01*
X12826Y10106D01*
X12832Y10093D01*
X12858Y10068D01*
X12877Y10036D01*
X12946Y9891D01*
X12971Y9809D01*
X12978Y9783D01*
X12984Y9720D01*
X12990Y9581D01*
X12984Y9537D01*
X12975Y9464D01*
X12959Y9429D01*
X12946Y9379D01*
X12921Y9322D01*
X12883Y9252D01*
X12870Y9240D01*
X12845Y9195D01*
X12832Y9183D01*
X12817Y9154D01*
X12804Y9148D01*
X12788Y9126D01*
X12760Y9097D01*
X12747Y9091D01*
X12715Y9059D01*
X12703Y9053D01*
X12690Y9041D01*
X12677Y9034D01*
X12608Y8990D01*
X12595Y8984D01*
X12564Y8971D01*
X12507Y8946D01*
X12482Y8939D01*
X12437Y8920D01*
X12393Y8914D01*
X12254Y8901D01*
X12146Y8908D01*
X12127Y8914D01*
X12064Y8920D01*
X12020Y8939D01*
X11985Y8949D01*
X11897Y8993D01*
X11846Y9025D01*
X11808Y9050D01*
X11792Y9066D01*
X11780Y9072D01*
X11619Y9233D01*
X11612Y9246D01*
X11574Y9284D01*
X11568Y9297D01*
X11558Y9306D01*
X11549Y9309D01*
X11543Y9322D01*
X11498Y9366D01*
X11492Y9379D01*
X11467Y9404D01*
X11460Y9417D01*
X11435Y9442D01*
X11429Y9455D01*
X11416Y9467D01*
X11410Y9480D01*
X11378Y9511D01*
X11359Y9543D01*
X11340Y9562D01*
X11334Y9575D01*
X11315Y9594D01*
X11296Y9625D01*
X11283Y9638D01*
X11264Y9670D01*
X11252Y9682D01*
X11245Y9695D01*
X11233Y9708D01*
X11226Y9720D01*
X11163Y9809D01*
X11144Y9840D01*
X11119Y9878D01*
X11113Y9891D01*
X11072Y9951D01*
X11059Y9983D01*
X11050Y9992D01*
X11043Y10005D01*
X11011Y10055D01*
X10967Y10137D01*
X10929Y10207D01*
X10828Y10416D01*
X10812Y10457D01*
X10803Y10466D01*
X10784Y10517D01*
X10765Y10561D01*
X10759Y10586D01*
X10740Y10618D01*
X10721Y10668D01*
X10702Y10713D01*
X10695Y10744D01*
X10676Y10789D01*
X10667Y10823D01*
X10651Y10858D01*
X10639Y10909D01*
X10620Y10953D01*
X10607Y11010D01*
X10594Y11041D01*
X10585Y11083D01*
X10578Y11114D01*
X10556Y11168D01*
X10544Y11244D01*
X10531Y11276D01*
X10521Y11348D01*
X10515Y11386D01*
X10506Y11421D01*
X10499Y11446D01*
X10493Y11490D01*
X10487Y11516D01*
X10480Y11579D01*
X10474Y11598D01*
X10462Y11686D01*
X10452Y11791D01*
X10446Y11829D01*
X10439Y11879D01*
X10433Y11955D01*
X10427Y12139D01*
X10424Y12394D01*
X10430Y12414D01*
X10436Y12698D01*
X10449Y12730D01*
X10455Y12831D01*
X10462Y12850D01*
X10471Y12960D01*
X10477Y12992D01*
X10487Y13027D01*
X10493Y13090D01*
X10503Y13131D01*
X10515Y13182D01*
X10528Y13258D01*
X10544Y13311D01*
X10550Y13337D01*
X10560Y13384D01*
X10566Y13409D01*
X10582Y13463D01*
X10588Y13507D01*
X10607Y13552D01*
X10613Y13577D01*
X10623Y13618D01*
X10639Y13653D01*
X10651Y13710D01*
X10670Y13754D01*
X10676Y13779D01*
X10695Y13823D01*
X10718Y13883D01*
X10740Y13937D01*
X10746Y13962D01*
X10771Y14019D01*
X10790Y14064D01*
X10853Y14203D01*
X10961Y14411D01*
X11024Y14525D01*
X11037Y14538D01*
X11043Y14563D01*
X11062Y14582D01*
X11100Y14652D01*
X11125Y14690D01*
X11132Y14702D01*
X11188Y14784D01*
X11195Y14797D01*
X11208Y14810D01*
X11214Y14822D01*
X11245Y14867D01*
X11264Y14898D01*
X11283Y14917D01*
X11290Y14930D01*
X11309Y14949D01*
X11328Y14980D01*
X11340Y14993D01*
X11359Y15025D01*
X11384Y15050D01*
X11391Y15063D01*
X11419Y15097D01*
X11435Y15113D01*
X11441Y15126D01*
X11467Y15151D01*
X11473Y15164D01*
X11498Y15189D01*
X11505Y15202D01*
X11555Y15252D01*
X11562Y15265D01*
X11606Y15309D01*
X11612Y15322D01*
X11739Y15448D01*
X11742Y15458D01*
X11754Y15464D01*
X11786Y15496D01*
X11799Y15502D01*
X11818Y15521D01*
X11830Y15527D01*
X11843Y15540D01*
X11900Y15572D01*
X11950Y15597D01*
X11957D01*
X12014Y15622D01*
X12048Y15632D01*
X12102Y15647D01*
X12188Y15657D01*
X12311Y15660D01*
X12330Y15654D01*
D02*
G37*
G36*
X10578Y17462D02*
X10597Y17456D01*
X10673Y17437D01*
X10730Y17411D01*
X10756Y17405D01*
X10768Y17399D01*
X10825Y17367D01*
X10838Y17354D01*
X10882Y17329D01*
X10894Y17316D01*
X10907Y17310D01*
X10932Y17285D01*
X10945Y17279D01*
X10961Y17256D01*
X10980Y17244D01*
X10986Y17231D01*
X11011Y17206D01*
X11018Y17193D01*
X11037Y17174D01*
X11043Y17162D01*
X11056Y17149D01*
X11062Y17136D01*
X11106Y17067D01*
X11113Y17041D01*
X11132Y16997D01*
X11147Y16956D01*
X11157Y16928D01*
X11163Y16902D01*
X11173Y16842D01*
X11179Y16817D01*
X11182Y16662D01*
X11176Y16643D01*
X11170Y16599D01*
X11163Y16574D01*
X11154Y16526D01*
X11138Y16485D01*
X11132Y16460D01*
X11068Y16340D01*
X11037Y16295D01*
X11030Y16283D01*
X11018Y16276D01*
X11011Y16264D01*
X10999Y16251D01*
X10993Y16239D01*
X10910Y16156D01*
X10904Y16144D01*
X10885Y16131D01*
X10879Y16118D01*
X10815Y16055D01*
X10812Y16046D01*
X10800Y16039D01*
X10787Y16020D01*
X10774Y16014D01*
X10765Y16005D01*
X10759Y15992D01*
X10708Y15941D01*
X10702Y15929D01*
X10676Y15903D01*
X10670Y15891D01*
X10639Y15859D01*
X10632Y15846D01*
X10601Y15815D01*
X10594Y15802D01*
X10582Y15790D01*
X10575Y15777D01*
X10556Y15758D01*
X10550Y15745D01*
X10525Y15720D01*
X10518Y15708D01*
X10474Y15651D01*
X10462Y15638D01*
X10455Y15625D01*
X10436Y15606D01*
X10417Y15575D01*
X10405Y15562D01*
X10398Y15549D01*
X10367Y15505D01*
X10360Y15493D01*
X10341Y15473D01*
X10322Y15442D01*
X10310Y15429D01*
X10291Y15398D01*
X10237Y15319D01*
X10111Y15116D01*
X10088Y15069D01*
X10076Y15056D01*
X10025Y14961D01*
X10006Y14930D01*
X9956Y14835D01*
X9880Y14677D01*
X9823Y14557D01*
X9791Y14487D01*
X9766Y14430D01*
X9760Y14405D01*
X9734Y14348D01*
X9719Y14307D01*
X9703Y14272D01*
X9693Y14238D01*
X9678Y14203D01*
X9671Y14177D01*
X9646Y14120D01*
X9636Y14079D01*
X9614Y14026D01*
X9608Y13988D01*
X9583Y13931D01*
X9573Y13877D01*
X9561Y13846D01*
X9551Y13811D01*
X9542Y13770D01*
X9529Y13738D01*
X9523Y13713D01*
X9516Y13681D01*
X9507Y13646D01*
X9488Y13570D01*
X9478Y13523D01*
X9463Y13469D01*
X9456Y13406D01*
X9450Y13387D01*
X9437Y13343D01*
X9431Y13299D01*
X9421Y13245D01*
X9415Y13207D01*
X9406Y13172D01*
X9396Y13081D01*
X9390Y13030D01*
X9384Y13005D01*
X9377Y12967D01*
X9364Y12815D01*
X9352Y12701D01*
X9342Y12515D01*
X9339Y12341D01*
X9342Y12319D01*
X9336Y12300D01*
X9346Y11955D01*
X9352Y11873D01*
X9358Y11822D01*
X9364Y11740D01*
X9371Y11671D01*
X9377Y11607D01*
X9387Y11522D01*
X9399Y11472D01*
X9406Y11377D01*
X9412Y11358D01*
X9425Y11313D01*
X9434Y11234D01*
X9440Y11203D01*
X9456Y11149D01*
X9472Y11057D01*
X9478Y11026D01*
X9488Y10997D01*
X9497Y10943D01*
X9510Y10912D01*
X9516Y10887D01*
X9523Y10849D01*
X9529Y10823D01*
X9538Y10789D01*
X9551Y10744D01*
X9557Y10719D01*
X9570Y10688D01*
X9583Y10643D01*
X9592Y10602D01*
X9608Y10567D01*
X9617Y10526D01*
X9633Y10485D01*
X9646Y10441D01*
X9665Y10397D01*
X9687Y10337D01*
X9703Y10295D01*
X9709Y10270D01*
X9734Y10213D01*
X9750Y10172D01*
X9766Y10137D01*
X9775Y10103D01*
X9785Y10093D01*
X9807Y10033D01*
X9817Y10024D01*
X9832Y9983D01*
X9886Y9866D01*
X9962Y9720D01*
X9981Y9676D01*
X9987Y9663D01*
X10013Y9625D01*
X10057Y9543D01*
X10088Y9486D01*
X10133Y9417D01*
X10164Y9360D01*
X10177Y9347D01*
X10202Y9303D01*
X10243Y9243D01*
X10253Y9221D01*
X10262Y9205D01*
X10272Y9202D01*
X10297Y9157D01*
X10310Y9145D01*
X10329Y9113D01*
X10354Y9069D01*
X10373Y9050D01*
X10379Y9037D01*
X10392Y9025D01*
X10398Y9012D01*
X10411Y8999D01*
X10417Y8987D01*
X10430Y8974D01*
X10436Y8962D01*
X10455Y8942D01*
X10462Y8930D01*
X10506Y8873D01*
X10518Y8860D01*
X10537Y8829D01*
X10563Y8803D01*
X10569Y8791D01*
X10594Y8766D01*
X10601Y8753D01*
X10613Y8740D01*
X10620Y8727D01*
X10645Y8702D01*
X10651Y8690D01*
X10676Y8664D01*
X10683Y8652D01*
X10727Y8607D01*
X10733Y8595D01*
X10797Y8531D01*
X10803Y8519D01*
X10860Y8462D01*
X10866Y8449D01*
X10879Y8443D01*
X10885Y8430D01*
X10999Y8317D01*
X11005Y8304D01*
X11024Y8285D01*
X11030Y8272D01*
X11043Y8260D01*
X11050Y8247D01*
X11062Y8234D01*
X11087Y8190D01*
X11132Y8095D01*
X11144Y8064D01*
X11151Y8038D01*
X11157Y8019D01*
X11163Y7994D01*
X11173Y7940D01*
X11179Y7915D01*
X11188Y7830D01*
X11182Y7767D01*
X11176Y7722D01*
X11170Y7697D01*
X11157Y7621D01*
X11151Y7609D01*
X11138Y7577D01*
X11132Y7552D01*
X11081Y7457D01*
X11040Y7397D01*
X11018Y7362D01*
X11005Y7349D01*
X10999Y7337D01*
X10945Y7283D01*
X10932Y7277D01*
X10894Y7239D01*
X10882Y7232D01*
X10869Y7220D01*
X10844Y7213D01*
X10819Y7188D01*
X10749Y7156D01*
X10708Y7141D01*
X10673Y7125D01*
X10635Y7119D01*
X10616Y7112D01*
X10582Y7103D01*
X10556Y7096D01*
X10345Y7093D01*
X10326Y7100D01*
X10291Y7109D01*
X10266Y7115D01*
X10234Y7122D01*
X10164Y7147D01*
X10136Y7156D01*
X10123Y7163D01*
X10111Y7175D01*
X10069Y7191D01*
X10054Y7207D01*
X10022Y7226D01*
X10009Y7239D01*
X9978Y7258D01*
X9959Y7277D01*
X9946Y7283D01*
X9854Y7374D01*
X9848Y7387D01*
X9826Y7403D01*
X9810Y7425D01*
X9734Y7501D01*
X9728Y7514D01*
X9671Y7570D01*
X9665Y7583D01*
X9627Y7621D01*
X9621Y7634D01*
X9583Y7672D01*
X9576Y7684D01*
X9526Y7735D01*
X9519Y7748D01*
X9488Y7779D01*
X9482Y7792D01*
X9463Y7811D01*
X9456Y7823D01*
X9431Y7849D01*
X9425Y7861D01*
X9396Y7896D01*
X9380Y7912D01*
X9374Y7925D01*
X9346Y7959D01*
X9314Y7997D01*
X9292Y8032D01*
X9273Y8051D01*
X9267Y8064D01*
X9254Y8076D01*
X9248Y8089D01*
X9229Y8108D01*
X9210Y8140D01*
X9197Y8152D01*
X9191Y8165D01*
X9127Y8253D01*
X9121Y8266D01*
X9089Y8310D01*
X9083Y8323D01*
X9064Y8342D01*
X9058Y8354D01*
X9026Y8399D01*
X9020Y8411D01*
X8979Y8472D01*
X8947Y8522D01*
X8894Y8614D01*
X8849Y8683D01*
X8843Y8696D01*
X8830Y8709D01*
X8818Y8740D01*
X8805Y8753D01*
X8748Y8860D01*
X8685Y8974D01*
X8514Y9322D01*
X8457Y9442D01*
X8451Y9467D01*
X8400Y9581D01*
X8369Y9651D01*
X8362Y9682D01*
X8331Y9752D01*
X8312Y9796D01*
X8302Y9831D01*
X8280Y9884D01*
X8258Y9945D01*
X8242Y9998D01*
X8217Y10062D01*
X8211Y10099D01*
X8192Y10144D01*
X8182Y10185D01*
X8170Y10216D01*
X8160Y10245D01*
X8154Y10283D01*
X8141Y10315D01*
X8128Y10359D01*
X8122Y10384D01*
X8113Y10419D01*
X8097Y10473D01*
X8084Y10529D01*
X8078Y10548D01*
X8065Y10599D01*
X8049Y10672D01*
X8040Y10706D01*
X8034Y10732D01*
X8027Y10776D01*
X8021Y10795D01*
X8011Y10830D01*
X8005Y10868D01*
X7993Y10937D01*
X7983Y10972D01*
X7977Y11016D01*
X7970Y11041D01*
X7964Y11117D01*
X7952Y11149D01*
X7945Y11231D01*
X7939Y11257D01*
X7929Y11329D01*
X7923Y11361D01*
X7914Y11446D01*
X7904Y11551D01*
X7891Y11633D01*
X7885Y11715D01*
X7879Y11860D01*
X7872Y11980D01*
X7866Y12126D01*
X7863Y12477D01*
X7869Y12496D01*
X7879Y12701D01*
X7885Y12828D01*
X7891Y12935D01*
X7898Y12973D01*
X7910Y13074D01*
X7920Y13210D01*
X7926Y13229D01*
X7939Y13305D01*
X7945Y13368D01*
X7952Y13412D01*
X7964Y13457D01*
X7977Y13564D01*
X7983Y13589D01*
X7996Y13634D01*
X8005Y13694D01*
X8011Y13732D01*
X8027Y13785D01*
X8034Y13830D01*
X8046Y13880D01*
X8056Y13915D01*
X8062Y13940D01*
X8072Y14000D01*
X8084Y14032D01*
X8091Y14057D01*
X8106Y14130D01*
X8119Y14162D01*
X8125Y14187D01*
X8132Y14225D01*
X8147Y14260D01*
X8154Y14285D01*
X8160Y14323D01*
X8179Y14367D01*
X8185Y14392D01*
X8195Y14427D01*
X8271Y14642D01*
X8277Y14667D01*
X8290Y14699D01*
X8305Y14728D01*
Y14734D01*
X8312Y14772D01*
X8343Y14841D01*
X8375Y14923D01*
X8381Y14936D01*
X8400Y14980D01*
X8407Y15006D01*
X8457Y15120D01*
X8521Y15259D01*
X8584Y15391D01*
X8590Y15404D01*
X8603Y15417D01*
X8622Y15467D01*
X8634Y15480D01*
X8650Y15521D01*
X8679Y15568D01*
X8742Y15688D01*
X8780Y15758D01*
X8805Y15802D01*
X8837Y15859D01*
X8849Y15872D01*
X8868Y15903D01*
X8900Y15960D01*
X8925Y15998D01*
X8931Y16011D01*
X8973Y16071D01*
X8982Y16093D01*
X9001Y16112D01*
X9026Y16156D01*
X9070Y16226D01*
X9077Y16239D01*
X9096Y16258D01*
X9112Y16292D01*
X9121Y16295D01*
X9127Y16308D01*
X9203Y16409D01*
X9235Y16454D01*
X9295Y16533D01*
X9305Y16542D01*
X9323Y16574D01*
X9349Y16599D01*
X9355Y16612D01*
X9384Y16646D01*
X9393Y16656D01*
X9399Y16669D01*
X9428Y16703D01*
X9444Y16725D01*
X9469Y16751D01*
X9475Y16763D01*
X9500Y16789D01*
X9507Y16801D01*
X9519Y16814D01*
X9526Y16826D01*
X9583Y16883D01*
X9589Y16896D01*
X9633Y16940D01*
X9640Y16953D01*
X9652Y16966D01*
X9655Y16975D01*
X9668Y16981D01*
X9684Y16997D01*
X9690Y17010D01*
X9728Y17048D01*
X9734Y17061D01*
X9750Y17076D01*
X9760Y17079D01*
X9766Y17092D01*
X9829Y17155D01*
X9836Y17168D01*
X9946Y17279D01*
X9959Y17285D01*
X9990Y17316D01*
X10003Y17323D01*
X10016Y17335D01*
X10060Y17361D01*
X10073Y17373D01*
X10114Y17389D01*
X10130Y17405D01*
X10155Y17411D01*
X10199Y17430D01*
X10240Y17440D01*
X10272Y17446D01*
X10313Y17462D01*
X10357Y17468D01*
X10578Y17462D01*
D02*
G37*
G36*
X8732Y19276D02*
X8751Y19270D01*
X8827Y19257D01*
X8852Y19251D01*
X8897Y19232D01*
X8922Y19226D01*
X9004Y19182D01*
X9048Y19156D01*
X9067Y19137D01*
X9099Y19118D01*
X9137Y19081D01*
X9150Y19074D01*
X9184Y19039D01*
X9191Y19027D01*
X9216Y19001D01*
X9222Y18989D01*
X9241Y18970D01*
X9267Y18926D01*
X9336Y18780D01*
X9342Y18755D01*
X9349Y18717D01*
X9361Y18685D01*
X9368Y18660D01*
X9371Y18493D01*
X9364Y18423D01*
X9358Y18385D01*
X9346Y18353D01*
X9339Y18328D01*
X9333Y18290D01*
X9311Y18249D01*
X9298Y18217D01*
X9267Y18160D01*
X9254Y18148D01*
X9248Y18135D01*
X9172Y18034D01*
X9143Y18006D01*
X9134Y18002D01*
X9127Y17990D01*
X9033Y17895D01*
X9029Y17886D01*
X9017Y17879D01*
X9001Y17863D01*
X8995Y17851D01*
X8919Y17775D01*
X8912Y17762D01*
X8881Y17731D01*
X8874Y17718D01*
X8865Y17708D01*
X8856Y17705D01*
X8849Y17693D01*
X8824Y17667D01*
X8818Y17655D01*
X8808Y17645D01*
X8799Y17642D01*
X8792Y17629D01*
X8736Y17573D01*
X8729Y17560D01*
X8704Y17535D01*
X8698Y17522D01*
X8672Y17497D01*
X8666Y17484D01*
X8647Y17465D01*
X8641Y17452D01*
X8609Y17421D01*
X8603Y17408D01*
X8584Y17389D01*
X8577Y17377D01*
X8558Y17358D01*
X8552Y17345D01*
X8527Y17320D01*
X8508Y17288D01*
X8495Y17275D01*
X8489Y17263D01*
X8476Y17250D01*
X8470Y17237D01*
X8445Y17212D01*
X8438Y17199D01*
X8410Y17165D01*
X8400Y17155D01*
X8375Y17111D01*
X8362Y17098D01*
X8356Y17086D01*
X8331Y17061D01*
X8325Y17048D01*
X8312Y17035D01*
X8305Y17022D01*
X8274Y16978D01*
X8268Y16966D01*
X8255Y16953D01*
X8249Y16940D01*
X8185Y16852D01*
X8179Y16839D01*
X8160Y16820D01*
X8135Y16776D01*
X8091Y16706D01*
X8084Y16694D01*
X8059Y16656D01*
X8053Y16643D01*
X8040Y16631D01*
X8015Y16586D01*
X7970Y16517D01*
X7964Y16504D01*
X7939Y16466D01*
X7932Y16454D01*
X7907Y16416D01*
X7904Y16400D01*
X7901Y16397D01*
X7869Y16352D01*
X7812Y16245D01*
X7800Y16232D01*
X7784Y16191D01*
X7756Y16144D01*
X7680Y15998D01*
X7604Y15840D01*
X7597Y15828D01*
X7585Y15815D01*
X7578Y15790D01*
X7553Y15745D01*
X7537Y15704D01*
X7528Y15695D01*
X7506Y15635D01*
X7496Y15625D01*
X7474Y15565D01*
X7465Y15556D01*
X7455Y15521D01*
X7427Y15455D01*
X7401Y15398D01*
X7363Y15303D01*
X7338Y15246D01*
X7332Y15208D01*
X7307Y15170D01*
X7300Y15132D01*
X7288Y15120D01*
X7278Y15078D01*
X7259Y15028D01*
X7243Y14987D01*
X7234Y14952D01*
X7218Y14917D01*
X7209Y14876D01*
X7196Y14844D01*
X7186Y14810D01*
X7164Y14750D01*
X7155Y14715D01*
X7142Y14664D01*
X7123Y14620D01*
X7117Y14582D01*
X7098Y14538D01*
X7082Y14471D01*
X7073Y14437D01*
X7060Y14386D01*
X7054Y14348D01*
X7035Y14304D01*
X7025Y14244D01*
X7013Y14212D01*
X7006Y14174D01*
X7000Y14149D01*
X6994Y14111D01*
X6978Y14070D01*
X6968Y14004D01*
X6949Y13928D01*
X6937Y13852D01*
X6924Y13801D01*
X6911Y13725D01*
X6905Y13675D01*
X6899Y13649D01*
X6886Y13586D01*
X6880Y13523D01*
X6867Y13447D01*
X6861Y13422D01*
X6854Y13365D01*
X6848Y13295D01*
X6842Y13245D01*
X6832Y13185D01*
X6826Y13166D01*
X6817Y12998D01*
X6810Y12935D01*
X6804Y12859D01*
X6798Y12802D01*
X6791Y12638D01*
X6788Y11914D01*
X6795Y11895D01*
X6801Y11686D01*
X6807Y11667D01*
X6817Y11569D01*
X6823Y11481D01*
X6829Y11405D01*
X6842Y11329D01*
X6854Y11190D01*
X6867Y11121D01*
X6874Y11089D01*
X6880Y11038D01*
X6886Y10982D01*
X6893Y10943D01*
X6902Y10909D01*
X6908Y10883D01*
X6915Y10801D01*
X6921Y10782D01*
X6930Y10741D01*
X6937Y10703D01*
X6943Y10672D01*
X6956Y10602D01*
X6965Y10574D01*
X6972Y10548D01*
X6981Y10482D01*
X6997Y10428D01*
X7003Y10403D01*
X7009Y10352D01*
X7028Y10308D01*
X7038Y10248D01*
X7044Y10223D01*
X7060Y10188D01*
X7069Y10128D01*
X7082Y10096D01*
X7092Y10062D01*
X7101Y10014D01*
X7123Y9960D01*
X7133Y9913D01*
X7145Y9881D01*
X7155Y9847D01*
X7168Y9796D01*
X7180Y9783D01*
X7190Y9730D01*
X7205Y9695D01*
X7218Y9644D01*
X7237Y9600D01*
X7250Y9550D01*
X7275Y9493D01*
X7281Y9467D01*
X7307Y9410D01*
X7316Y9369D01*
X7332Y9341D01*
X7354Y9281D01*
X7370Y9240D01*
X7395Y9183D01*
X7411Y9142D01*
X7427Y9107D01*
X7436Y9072D01*
X7452Y9056D01*
X7462Y9021D01*
X7515Y8905D01*
X7541Y8848D01*
X7556Y8807D01*
X7578Y8766D01*
X7724Y8481D01*
X7781Y8373D01*
X7806Y8329D01*
X7869Y8215D01*
X7882Y8203D01*
X7888Y8178D01*
X7920Y8133D01*
X7952Y8076D01*
X7977Y8038D01*
X8008Y7982D01*
X8040Y7937D01*
X8065Y7893D01*
X8097Y7849D01*
X8103Y7836D01*
X8116Y7823D01*
X8141Y7779D01*
X8154Y7767D01*
X8173Y7735D01*
X8185Y7722D01*
X8211Y7678D01*
X8252Y7618D01*
X8268Y7596D01*
X8280Y7583D01*
X8299Y7552D01*
X8359Y7473D01*
X8381Y7438D01*
X8394Y7425D01*
X8413Y7394D01*
X8432Y7374D01*
X8438Y7362D01*
X8451Y7356D01*
X8470Y7324D01*
X8483Y7311D01*
X8501Y7280D01*
X8521Y7261D01*
X8539Y7229D01*
X8558Y7210D01*
X8565Y7198D01*
X8584Y7179D01*
X8590Y7166D01*
X8609Y7147D01*
X8615Y7134D01*
X8653Y7096D01*
X8660Y7084D01*
X8679Y7065D01*
X8685Y7052D01*
X8704Y7033D01*
X8710Y7021D01*
X8761Y6970D01*
X8767Y6957D01*
X8780Y6945D01*
X8786Y6932D01*
X8824Y6894D01*
X8830Y6881D01*
X8856Y6862D01*
X8862Y6850D01*
X8906Y6805D01*
X8912Y6793D01*
X9014Y6692D01*
X9020Y6679D01*
X9159Y6540D01*
X9165Y6527D01*
X9175Y6518D01*
X9188Y6511D01*
X9203Y6489D01*
X9216Y6477D01*
X9222Y6464D01*
X9235Y6452D01*
X9241Y6439D01*
X9254Y6426D01*
X9273Y6395D01*
X9311Y6312D01*
X9336Y6256D01*
X9342Y6230D01*
X9349Y6192D01*
X9361Y6161D01*
X9368Y6135D01*
X9374Y5977D01*
X9368Y5958D01*
X9361Y5864D01*
X9342Y5819D01*
X9333Y5772D01*
X9298Y5693D01*
X9267Y5636D01*
X9235Y5592D01*
X9229Y5579D01*
X9216Y5566D01*
X9210Y5554D01*
X9197Y5541D01*
X9191Y5528D01*
X9124Y5462D01*
X9112Y5456D01*
X9086Y5430D01*
X9074Y5424D01*
X9029Y5393D01*
X8947Y5348D01*
X8916Y5336D01*
X8833Y5304D01*
X8770Y5298D01*
X8751Y5291D01*
X8691Y5282D01*
X8574Y5279D01*
X8555Y5285D01*
X8505Y5298D01*
X8442Y5304D01*
X8385Y5329D01*
X8343Y5339D01*
X8334Y5348D01*
X8290Y5367D01*
X8277Y5373D01*
X8239Y5399D01*
X8226Y5405D01*
X8214Y5418D01*
X8182Y5437D01*
X8144Y5475D01*
X8132Y5481D01*
X8027Y5585D01*
X8024Y5595D01*
X8011Y5601D01*
X7996Y5617D01*
X7993Y5626D01*
X7980Y5633D01*
X7964Y5655D01*
X7850Y5769D01*
X7844Y5781D01*
X7787Y5838D01*
X7781Y5851D01*
X7768Y5857D01*
X7762Y5870D01*
X7737Y5895D01*
X7730Y5908D01*
X7680Y5958D01*
X7673Y5971D01*
X7642Y6003D01*
X7635Y6015D01*
X7604Y6047D01*
X7597Y6059D01*
X7559Y6097D01*
X7553Y6110D01*
X7522Y6142D01*
X7515Y6154D01*
X7496Y6173D01*
X7490Y6186D01*
X7465Y6211D01*
X7458Y6224D01*
X7433Y6249D01*
X7427Y6262D01*
X7398Y6297D01*
X7383Y6319D01*
X7370Y6331D01*
X7363Y6344D01*
X7319Y6401D01*
X7300Y6420D01*
X7294Y6432D01*
X7275Y6452D01*
X7269Y6464D01*
X7224Y6521D01*
X7196Y6556D01*
X7164Y6606D01*
X7148Y6622D01*
X7142Y6635D01*
X7130Y6647D01*
X7111Y6679D01*
X7098Y6692D01*
X7079Y6723D01*
X7066Y6736D01*
X7047Y6768D01*
X6940Y6919D01*
X6934Y6932D01*
X6908Y6970D01*
X6902Y6983D01*
X6889Y6995D01*
X6839Y7084D01*
X6820Y7103D01*
X6813Y7122D01*
X6795Y7141D01*
X6775Y7172D01*
X6750Y7216D01*
X6719Y7261D01*
X6712Y7273D01*
X6681Y7330D01*
X6668Y7343D01*
X6662Y7368D01*
X6649Y7381D01*
X6643Y7394D01*
X6611Y7444D01*
X6586Y7488D01*
X6554Y7545D01*
X6529Y7589D01*
X6472Y7697D01*
X6440Y7754D01*
X6428Y7767D01*
X6421Y7792D01*
X6402Y7823D01*
X6387Y7864D01*
X6371Y7880D01*
X6364Y7906D01*
X6333Y7956D01*
X6327Y7982D01*
X6314Y7994D01*
X6301Y8026D01*
X6219Y8196D01*
X6181Y8279D01*
X6175Y8291D01*
X6156Y8323D01*
X6146Y8358D01*
X6093Y8475D01*
X6083Y8509D01*
X6074Y8519D01*
X6061Y8551D01*
X6036Y8607D01*
X6020Y8648D01*
X6004Y8683D01*
X5982Y8743D01*
X5966Y8784D01*
X5941Y8848D01*
X5935Y8873D01*
X5909Y8930D01*
X5903Y8955D01*
X5884Y8999D01*
X5852Y9082D01*
X5846Y9120D01*
X5827Y9164D01*
X5815Y9208D01*
X5796Y9252D01*
X5789Y9278D01*
X5783Y9309D01*
X5764Y9353D01*
X5751Y9404D01*
X5732Y9448D01*
X5723Y9496D01*
X5707Y9524D01*
X5701Y9550D01*
X5691Y9603D01*
X5675Y9644D01*
X5666Y9685D01*
X5660Y9711D01*
X5647Y9742D01*
X5641Y9774D01*
X5634Y9799D01*
X5628Y9831D01*
X5615Y9862D01*
X5609Y9888D01*
X5596Y9957D01*
X5581Y9998D01*
X5571Y10058D01*
X5565Y10084D01*
X5549Y10137D01*
X5539Y10198D01*
X5530Y10232D01*
X5524Y10258D01*
X5517Y10302D01*
X5508Y10349D01*
X5492Y10390D01*
X5483Y10469D01*
X5473Y10523D01*
X5467Y10542D01*
X5460Y10586D01*
X5454Y10612D01*
X5448Y10681D01*
X5435Y10713D01*
X5423Y10820D01*
X5413Y10880D01*
X5407Y10906D01*
X5400Y10937D01*
X5394Y11013D01*
X5388Y11076D01*
X5381Y11114D01*
X5375Y11146D01*
X5369Y11203D01*
X5362Y11285D01*
X5356Y11361D01*
X5347Y11446D01*
X5340Y11509D01*
X5328Y11750D01*
X5318Y11879D01*
X5312Y11993D01*
X5309Y12534D01*
X5315Y12553D01*
X5321Y12774D01*
X5328Y12793D01*
X5334Y13008D01*
X5340Y13033D01*
X5350Y13156D01*
X5356Y13194D01*
X5362Y13270D01*
X5369Y13352D01*
X5375Y13428D01*
X5388Y13491D01*
X5397Y13577D01*
X5407Y13656D01*
X5416Y13691D01*
X5423Y13754D01*
X5429Y13779D01*
X5435Y13849D01*
X5448Y13880D01*
X5454Y13962D01*
X5460Y13988D01*
X5476Y14061D01*
X5483Y14092D01*
X5495Y14168D01*
X5502Y14193D01*
X5508Y14225D01*
X5514Y14250D01*
X5520Y14301D01*
X5527Y14326D01*
X5543Y14367D01*
X5552Y14440D01*
X5558Y14465D01*
X5574Y14506D01*
X5581Y14569D01*
X5599Y14614D01*
X5609Y14667D01*
X5615Y14699D01*
X5628Y14731D01*
X5634Y14756D01*
X5641Y14794D01*
X5663Y14867D01*
X5682Y14942D01*
X5694Y14974D01*
X5704Y15015D01*
X5710Y15041D01*
X5723Y15072D01*
X5729Y15097D01*
X5736Y15129D01*
X5751Y15145D01*
X5761Y15199D01*
X5767Y15224D01*
X5783Y15259D01*
X5796Y15309D01*
X5815Y15353D01*
X5824Y15394D01*
X5837Y15426D01*
X5852Y15467D01*
X5862Y15502D01*
X5878Y15537D01*
X5884Y15562D01*
X5903Y15606D01*
X5916Y15651D01*
X5935Y15695D01*
X5957Y15755D01*
X5973Y15796D01*
X5998Y15853D01*
X6007Y15888D01*
X6036Y15954D01*
X6061Y16011D01*
X6077Y16052D01*
X6093Y16087D01*
X6118Y16144D01*
X6134Y16185D01*
X6143Y16194D01*
X6165Y16254D01*
X6216Y16355D01*
X6229Y16387D01*
X6282Y16504D01*
X6289Y16517D01*
X6308Y16548D01*
X6314Y16574D01*
X6327Y16586D01*
X6453Y16833D01*
X6497Y16915D01*
X6516Y16947D01*
X6542Y16991D01*
X6573Y17048D01*
X6624Y17136D01*
X6655Y17193D01*
X6668Y17206D01*
X6693Y17250D01*
X6725Y17301D01*
X6744Y17332D01*
X6769Y17377D01*
X6795Y17414D01*
X6801Y17427D01*
X6832Y17471D01*
X6839Y17484D01*
X6924Y17614D01*
X6975Y17689D01*
X6990Y17712D01*
X7032Y17772D01*
X7054Y17807D01*
X7066Y17819D01*
X7073Y17832D01*
X7092Y17851D01*
X7111Y17882D01*
X7234Y18050D01*
X7243Y18059D01*
X7250Y18072D01*
X7278Y18107D01*
X7294Y18129D01*
X7307Y18142D01*
X7313Y18154D01*
X7332Y18173D01*
X7338Y18186D01*
X7351Y18199D01*
X7357Y18211D01*
X7370Y18224D01*
X7376Y18236D01*
X7401Y18262D01*
X7408Y18274D01*
X7420Y18287D01*
X7427Y18300D01*
X7439Y18312D01*
X7446Y18325D01*
X7465Y18344D01*
X7471Y18357D01*
X7490Y18375D01*
X7496Y18388D01*
X7534Y18426D01*
X7541Y18439D01*
X7559Y18458D01*
X7566Y18470D01*
X7597Y18502D01*
X7604Y18515D01*
X7648Y18559D01*
X7654Y18572D01*
X7673Y18590D01*
X7680Y18603D01*
X7730Y18654D01*
X7737Y18666D01*
X7774Y18704D01*
X7781Y18717D01*
X7819Y18755D01*
X7825Y18767D01*
X7835Y18777D01*
X7847Y18783D01*
X7857Y18793D01*
X7863Y18805D01*
X7939Y18881D01*
X7942Y18891D01*
X7955Y18897D01*
X7977Y18919D01*
X7983Y18932D01*
X8113Y19061D01*
X8122Y19065D01*
X8128Y19077D01*
X8157Y19106D01*
X8170Y19112D01*
X8195Y19137D01*
X8207Y19144D01*
X8226Y19163D01*
X8258Y19175D01*
X8290Y19194D01*
X8321Y19207D01*
X8334Y19213D01*
X8378Y19232D01*
X8419Y19248D01*
X8454Y19257D01*
X8479Y19264D01*
X8543Y19270D01*
X8562Y19276D01*
X8606Y19283D01*
X8732Y19276D01*
D02*
G37*
D54*
X217725Y19083D02*
D03*
X193307Y19094D02*
D03*
D55*
X200394Y8268D02*
D03*
X210236Y8268D02*
D03*
D56*
X210630Y19488D02*
D03*
X208071D02*
D03*
X205512D02*
D03*
X202953D02*
D03*
X200394D02*
D03*
D57*
X190748Y8268D02*
D03*
X220276D02*
D03*
D58*
X223622Y186142D02*
D03*
Y206142D02*
D03*
Y196142D02*
D03*
Y226142D02*
D03*
Y216142D02*
D03*
D59*
X163899Y154669D02*
D03*
X153599Y144369D02*
D03*
X159723Y138244D02*
D03*
X170024Y148545D02*
D03*
D60*
X58957Y171063D02*
D03*
D61*
X23720Y148228D02*
D03*
Y199016D02*
D03*
D62*
X152165Y62402D02*
D03*
D63*
X175000Y27165D02*
D03*
X124213D02*
D03*
D64*
X68839Y62972D02*
D03*
Y56968D02*
D03*
Y50965D02*
D03*
X62835D02*
D03*
X56831D02*
D03*
Y56968D02*
D03*
Y62972D02*
D03*
X62835D02*
D03*
Y56968D02*
D03*
D65*
X103465Y37126D02*
D03*
Y42126D02*
D03*
Y47126D02*
D03*
Y52126D02*
D03*
Y57126D02*
D03*
Y62126D02*
D03*
Y67126D02*
D03*
Y72126D02*
D03*
Y77126D02*
D03*
Y82126D02*
D03*
D66*
X33583Y25197D02*
D03*
X38583D02*
D03*
X43583D02*
D03*
X48583D02*
D03*
X53583D02*
D03*
X58583D02*
D03*
X63583D02*
D03*
X68583D02*
D03*
X73583D02*
D03*
X78583D02*
D03*
X83583D02*
D03*
X88583D02*
D03*
X93583D02*
D03*
X98583D02*
D03*
X98584Y94016D02*
D03*
X93367D02*
D03*
X88584D02*
D03*
X83584D02*
D03*
X78584D02*
D03*
X73584D02*
D03*
X68584D02*
D03*
X63584D02*
D03*
X58584D02*
D03*
X53584D02*
D03*
X48584D02*
D03*
X43584D02*
D03*
X38584D02*
D03*
X33584D02*
D03*
D67*
X96063Y155118D02*
D03*
X77165D02*
D03*
D68*
X275394Y54331D02*
D03*
X267126D02*
D03*
X128937Y133465D02*
D03*
X121457D02*
D03*
X128937Y127165D02*
D03*
X121457D02*
D03*
X31055Y5118D02*
D03*
X38535D02*
D03*
X31055Y11614D02*
D03*
X38535D02*
D03*
X31055Y18110D02*
D03*
X38535D02*
D03*
X125256Y80709D02*
D03*
X132736D02*
D03*
X125256Y87402D02*
D03*
X132736D02*
D03*
X54921Y116142D02*
D03*
X47441D02*
D03*
D69*
X46850Y135236D02*
D03*
Y127756D02*
D03*
X55118Y135236D02*
D03*
Y127756D02*
D03*
X224803Y36024D02*
D03*
Y43504D02*
D03*
X251181Y160039D02*
D03*
Y167520D02*
D03*
X244488Y160039D02*
D03*
Y167520D02*
D03*
X237795Y160039D02*
D03*
Y167520D02*
D03*
X105905Y166732D02*
D03*
Y159252D02*
D03*
X140551Y166732D02*
D03*
Y174213D02*
D03*
X146979Y166732D02*
D03*
Y174213D02*
D03*
X142520Y126575D02*
D03*
Y119095D02*
D03*
X148819Y126575D02*
D03*
Y119095D02*
D03*
X112205Y166732D02*
D03*
Y159252D02*
D03*
D70*
X87401Y115354D02*
D03*
X93701D02*
D03*
X212204Y123228D02*
D03*
X218504D02*
D03*
X231103Y147638D02*
D03*
X224803D02*
D03*
X231103Y153150D02*
D03*
X224803D02*
D03*
X231103Y142126D02*
D03*
X224803D02*
D03*
X50787Y5118D02*
D03*
X57087D02*
D03*
X64566Y101772D02*
D03*
X70867D02*
D03*
X268110Y60236D02*
D03*
X274410D02*
D03*
D71*
X159314Y158920D02*
D03*
X154859Y154465D02*
D03*
D72*
X154590Y133206D02*
D03*
X150135Y137660D02*
D03*
D73*
X168504Y132284D02*
D03*
Y125984D02*
D03*
X220866Y157283D02*
D03*
Y163583D02*
D03*
X173622Y132284D02*
D03*
Y125984D02*
D03*
X174803Y163189D02*
D03*
Y169489D02*
D03*
X216299Y238976D02*
D03*
Y245276D02*
D03*
X227953D02*
D03*
Y238976D02*
D03*
X211181D02*
D03*
Y245276D02*
D03*
X233071D02*
D03*
Y238976D02*
D03*
X140945Y179921D02*
D03*
Y186221D02*
D03*
X135827Y186221D02*
D03*
Y179921D02*
D03*
X194685Y111811D02*
D03*
Y118111D02*
D03*
X163386Y132284D02*
D03*
Y125984D02*
D03*
X191732Y172441D02*
D03*
Y178741D02*
D03*
X43701Y19292D02*
D03*
Y12992D02*
D03*
X185236Y118111D02*
D03*
Y111811D02*
D03*
X189961Y118111D02*
D03*
Y111811D02*
D03*
X180512Y118111D02*
D03*
Y111811D02*
D03*
X63386Y10826D02*
D03*
Y17126D02*
D03*
X186614Y172441D02*
D03*
Y178741D02*
D03*
X104331Y14174D02*
D03*
Y7874D02*
D03*
X257480Y16929D02*
D03*
Y23229D02*
D03*
D74*
X210531Y43898D02*
D03*
X206791D02*
D03*
X203051D02*
D03*
Y34843D02*
D03*
X206791D02*
D03*
X210531D02*
D03*
D75*
X191732Y242126D02*
D03*
X180709D02*
D03*
X252598Y242126D02*
D03*
X263622D02*
D03*
X153150Y173228D02*
D03*
X164173D02*
D03*
D76*
X217323Y34252D02*
D03*
Y45276D02*
D03*
X72441Y198819D02*
D03*
Y187795D02*
D03*
D77*
X86417Y105118D02*
D03*
X94685D02*
D03*
D78*
X75000Y14764D02*
D03*
X86811D02*
D03*
X92716D02*
D03*
D79*
X98228Y12008D02*
D03*
Y3740D02*
D03*
X69488Y12008D02*
D03*
Y3740D02*
D03*
D80*
X238543Y245866D02*
D03*
Y238386D02*
D03*
X246811Y242126D02*
D03*
X205709Y238386D02*
D03*
Y245866D02*
D03*
X197441Y242126D02*
D03*
X57677Y10827D02*
D03*
Y18307D02*
D03*
X49409Y14567D02*
D03*
X55315Y101772D02*
D03*
Y109252D02*
D03*
X47047Y105512D02*
D03*
D81*
X257283Y28150D02*
D03*
X264764D02*
D03*
X261024Y36417D02*
D03*
D82*
X200591Y163189D02*
D03*
X198622D02*
D03*
X196653D02*
D03*
X194685D02*
D03*
X192717D02*
D03*
X190748D02*
D03*
X188779D02*
D03*
X186811D02*
D03*
X202559D02*
D03*
X186811Y129724D02*
D03*
X188779D02*
D03*
X190748D02*
D03*
X192717D02*
D03*
X194685D02*
D03*
X196653D02*
D03*
X198622D02*
D03*
X200591D02*
D03*
X202559D02*
D03*
X204528D02*
D03*
X206496D02*
D03*
X208465D02*
D03*
X204528Y163189D02*
D03*
X206496D02*
D03*
X208465D02*
D03*
D83*
X214370Y135630D02*
D03*
Y137598D02*
D03*
Y139567D02*
D03*
Y141535D02*
D03*
Y143504D02*
D03*
Y145472D02*
D03*
Y147441D02*
D03*
Y149409D02*
D03*
Y151378D02*
D03*
Y153347D02*
D03*
Y155315D02*
D03*
Y157283D02*
D03*
X180905Y135630D02*
D03*
Y137598D02*
D03*
Y139567D02*
D03*
Y141535D02*
D03*
Y143504D02*
D03*
Y145472D02*
D03*
Y147441D02*
D03*
Y149409D02*
D03*
Y151378D02*
D03*
Y153347D02*
D03*
Y155315D02*
D03*
Y157283D02*
D03*
D03*
D03*
D84*
X119291Y159449D02*
D03*
Y150394D02*
D03*
Y141339D02*
D03*
D85*
X144488Y150394D02*
D03*
D86*
X90945Y198839D02*
D03*
Y178327D02*
D03*
X125591Y198839D02*
D03*
Y178327D02*
D03*
D87*
X100787Y121024D02*
D03*
Y126024D02*
D03*
Y131024D02*
D03*
Y136024D02*
D03*
X79528Y121024D02*
D03*
Y126024D02*
D03*
Y131024D02*
D03*
Y136024D02*
D03*
X168239Y180111D02*
D03*
Y185111D02*
D03*
Y190111D02*
D03*
Y195111D02*
D03*
X146979Y180111D02*
D03*
Y185111D02*
D03*
Y190111D02*
D03*
Y195111D02*
D03*
X161024Y79764D02*
D03*
Y84764D02*
D03*
Y89764D02*
D03*
Y94764D02*
D03*
X139764Y79764D02*
D03*
Y84764D02*
D03*
Y89764D02*
D03*
Y94764D02*
D03*
D88*
X81496Y200394D02*
D03*
Y186221D02*
D03*
D89*
X174538Y184776D02*
D03*
Y180445D02*
D03*
D90*
X67716Y133898D02*
D03*
Y116496D02*
D03*
D91*
X260630Y137008D02*
D03*
Y142913D02*
D03*
Y148819D02*
D03*
Y154724D02*
D03*
Y160630D02*
D03*
Y166535D02*
D03*
D92*
X274410Y9055D02*
D03*
X268504D02*
D03*
X262598D02*
D03*
X256693D02*
D03*
X250787D02*
D03*
X244882D02*
D03*
D93*
X33465Y278740D02*
D03*
X13780D02*
D03*
X33465Y235433D02*
D03*
X13780D02*
D03*
X197244Y198425D02*
D03*
Y218110D02*
D03*
X22835Y127953D02*
D03*
Y108268D02*
D03*
X129921Y223622D02*
D03*
X90551D02*
D03*
X70866Y302362D02*
D03*
X149606D02*
D03*
D94*
X23622Y339921D02*
D03*
X208425Y338583D02*
D03*
X256221Y338583D02*
D03*
D95*
X23622Y319921D02*
D03*
D96*
X188425Y338583D02*
D03*
X236221Y338583D02*
D03*
D97*
X8760Y173622D02*
D03*
X149606Y12205D02*
D03*
D98*
X26476Y173622D02*
D03*
X168504Y42520D02*
D03*
D99*
X39075Y154724D02*
D03*
X149606Y29921D02*
D03*
D100*
X51279Y177953D02*
D03*
D101*
X145276Y54724D02*
D03*
D102*
X65837Y56968D02*
D03*
X68839Y59980D02*
D03*
Y53976D02*
D03*
X65837Y50965D02*
D03*
X62835Y59980D02*
D03*
Y53976D02*
D03*
X56831Y59980D02*
D03*
X59833Y56968D02*
D03*
Y50965D02*
D03*
X56831Y53976D02*
D03*
X65837Y62953D02*
D03*
X59833D02*
D03*
D103*
X303560Y47257D02*
D03*
X289386D02*
D03*
Y61430D02*
D03*
D104*
X77953Y7874D02*
D03*
X89764D02*
D03*
D105*
X183425Y314370D02*
D03*
X213425Y324370D02*
D03*
Y294370D02*
D03*
X183425Y254370D02*
D03*
X213425D02*
D03*
X231221Y314370D02*
D03*
X261221Y324370D02*
D03*
Y294370D02*
D03*
X231221Y254370D02*
D03*
X261221D02*
D03*
D106*
X165354Y339921D02*
D03*
X55118D02*
D03*
D107*
X33858Y86221D02*
D03*
M02*
