M48
;Layer_Color=9474304
;FILE_FORMAT=2:5
INCH,LZ
;TYPE=PLATED
T1F00S00C0.00709
T2F00S00C0.01181
T3F00S00C0.01378
T4F00S00C0.02559
T5F00S00C0.03150
T6F00S00C0.03425
T7F00S00C0.03937
T10F00S00C0.05118
T11F00S00C0.06693
%
T01
X0059833Y0050965
X0065837
X0062835Y0053976
X0068839
X0056831
X0059833Y0056968
Y0062953
X0056831Y005998
X0062835
X0065837Y0062953
X0068839Y005998
X0065837Y0056968
T02
X0235379Y0149134
Y0151654
X0246063
Y0149134
T03
X0034252Y0005118
Y0011417
Y001811
X0030315Y0027165
X0052756Y0018307
X0043701Y0009055
Y0005906
X0124409Y0006693
Y004685
X0096734Y003716
X0162205Y0027165
X0193307
X0206791Y0029626
X0206693Y0049213
X0181496Y0008268
X0175197
X0227559Y0019291
X0227165Y003189
X0225984Y005
X0223409Y0049995
X0220866Y005
X021811
X0246457Y0037795
X0264567Y0023622
Y0017323
X0281102Y0023228
X0294094Y0022441
X0288583Y0033071
X0284252Y0008268
X0306299Y0017323
X0305512Y0057874
Y0065748
Y0073622
X0283465Y007559
Y0066929
X026811Y0064961
X025Y0060236
X0246457
X0240551Y0082284
Y0093307
X0219685Y0090158
Y0082284
Y007441
Y0066535
Y0058661
X0218504Y0128593
X0225984Y0132677
X0231496
X0236221Y0142126
X0237795Y0155905
X0244488
X0251181
X0250787Y0172835
X0256693
X0262205
X0244094
X0237402
X0231102Y017874
X0225984
X022559Y0163386
X0225228Y0157293
X0237795Y019252
X0245669
Y0200394
X0237795
Y0208268
X0245669
X0253543
Y0200394
Y019252
X0216142Y0196063
X0251969Y0113386
X0255906Y0117323
X0259842Y012126
X0263779Y0125197
X0285433Y0097244
X0293307
X0208661Y0113761
X0203937Y012126
X0198031
X0212205Y0127165
X0206528Y0135114
X0207874Y0151181
Y0155118
X0188808Y0158013
X0173622Y0157874
X0179528Y0169685
X0180709Y017874
X0195669
X0200113Y0179154
X0204331Y0179134
X0186945Y0143505
X0177559Y0132283
X0172441Y0121653
X0168504
X0163386
X0153937Y0107874
X0161024Y0097913
X0173228Y0098425
X0179528
Y0103543
X0173228Y0092126
X0175197Y0069685
X0187008
Y0057874
X0198819
Y0069685
X0133758Y0092087
X0131102
X0132677Y010315
X0139764
X0135827Y0119291
X0133071
X0130315
X0127165
X0124016
X0133465Y0127165
X0133858Y0133465
X014252Y0131102
X0148819Y0130709
X0144882Y013937
X0158661Y0149606
X0161811Y014685
X0150394Y0158661
X014685Y0161811
X0140551
X0140945Y0190157
X0135827Y0194882
X0162287Y0194964
X0112205Y017126
X0105905
X0098032Y0178347
X0083465
X0064961Y0188976
X0061811
X0058661
Y0161417
X0063779
X0065354Y0144882
X0077165
X0090945Y0143701
X0096888
X0103187
X0108268
X0106693Y0151969
X0111417
X0091732Y0137008
Y0128347
Y0122835
X0085433Y0131102
X0057874Y0124016
X0060236Y0109055
X0075766Y0101774
X0105512Y0100787
Y0103937
Y0106693
Y0109449
X0120472Y0087402
Y0080709
X0033858Y0086221
X0047451Y0111277
X0048425Y0124016
X0051575
X0054724
X0045276
X0009843Y0127953
Y0114567
X0017323Y0184646
X0031102Y0184252
X0038189Y018189
Y0165748
X0052756Y0161417
X0052362Y0188976
X0055512
X0016929Y0214173
X0007087Y0214567
X0183858Y023189
X0191732
X0199606
X0205512Y024252
X0233071Y0233465
X0238583
X0232283Y0225984
X0237795Y0216142
X0245669
X0253543
T04
X0289386Y0047257
X030356
X0289386Y006143
T05
X0022835Y0108268
Y0127953
T06
X0244882Y0009055
X0250787
X0256693
X0262598
X0268504
X027441
X026063Y0137008
Y0142913
Y0148819
Y0154724
Y016063
Y0166535
T07
X0197244Y0198425
X0033465Y0235433
X001378
Y027874
X0033465
X0055118Y0339921
X0070866Y0302362
X0149606
X0165354Y0339921
X0129921Y0223622
X0090551
X0197244Y021811
T10
X0183425Y025437
Y031437
X0213425Y032437
X0231221Y031437
X0213425Y029437
Y025437
X0231221
X0261221
Y029437
Y032437
T11
X0023622Y0319921
Y0339921
X0188425Y0338583
X0208425
X0236221Y0338583
X0256221
M30
